%TF.GenerationSoftware,Altium Limited,Altium Designer,23.5.1 (21)*%
G04 Layer_Color=16711935*
%FSLAX45Y45*%
%MOMM*%
%TF.SameCoordinates,7ECB1A03-3DEC-426C-BD6E-5A7E68E82EE6*%
%TF.FilePolarity,Positive*%
%TF.FileFunction,Other,Mechanical_13*%
%TF.Part,Single*%
G01*
G75*
%TA.AperFunction,NonConductor*%
%ADD32C,0.20000*%
%ADD35C,0.12700*%
%ADD59C,0.10000*%
D32*
X3256700Y6056700D02*
G03*
X3256700Y6056700I-10000J0D01*
G01*
X1266100Y4902200D02*
G03*
X1266100Y4902200I-10000J0D01*
G01*
X3350100Y143400D02*
G03*
X3350100Y143400I-10000J0D01*
G01*
X5217000D02*
G03*
X5217000Y143400I-10000J0D01*
G01*
X1001800Y3632200D02*
G03*
X1001800Y3632200I-10000J0D01*
G01*
X2291500Y7747000D02*
G03*
X2291500Y7747000I-10000J0D01*
G01*
D35*
X4376700Y8661400D02*
G03*
X4376700Y8661400I-800000J0D01*
G01*
X6502300D02*
G03*
X6502300Y8661400I-800000J0D01*
G01*
X1392450Y5235700D02*
X3322950D01*
X1392450Y5870700D02*
X3322950D01*
X1392450Y5235700D02*
Y5870700D01*
X3322950Y5235700D02*
Y5870700D01*
X435100Y4803700D02*
Y5762700D01*
X1070100Y4803700D02*
Y5762700D01*
X435100D02*
X1070100D01*
X435100Y4803700D02*
X1070100D01*
X3218100Y218400D02*
X4478100D01*
Y2118400D01*
X3218100D02*
X4478100D01*
X3218100Y218400D02*
Y2118400D01*
X5085000Y218400D02*
X6345000D01*
Y2118400D01*
X5085000D02*
X6345000D01*
X5085000Y218400D02*
Y2118400D01*
X1812800Y2771700D02*
Y3730700D01*
X1177800Y2771700D02*
Y3730700D01*
Y2771700D02*
X1812800D01*
X1177800Y3730700D02*
X1812800D01*
X1460500Y7648500D02*
Y8607500D01*
X2095500Y7648500D02*
Y8607500D01*
X1460500D02*
X2095500D01*
X1460500Y7648500D02*
X2095500D01*
X4426700Y8661400D02*
X4486700D01*
X2666700D02*
X2726700D01*
X2696700Y8631400D02*
Y8691400D01*
X6552300Y8661400D02*
X6612300D01*
X4792300D02*
X4852300D01*
X4822300Y8631400D02*
Y8691400D01*
D59*
X6456800Y3719800D02*
G03*
X6456800Y3719800I-50000J0D01*
G01*
X2380800Y4799300D02*
G03*
X2380800Y4799300I-50000J0D01*
G01*
X4132700Y3719800D02*
G03*
X4132700Y3719800I-50000J0D01*
G01*
X3307200Y6945600D02*
G03*
X3307200Y6945600I-50000J0D01*
G01*
X5982200Y7283100D02*
G03*
X5982200Y7283100I-50000J0D01*
G01*
X6456800Y4799300D02*
G03*
X6456800Y4799300I-50000J0D01*
G01*
X3937800Y5637225D02*
G03*
X3937800Y5637225I-50000J0D01*
G01*
X4772800Y7136100D02*
G03*
X4772800Y7136100I-50000J0D01*
G01*
X4526800Y3809800D02*
X6496800D01*
X4526800Y3149800D02*
X6496800D01*
Y3809800D01*
X4526800Y3149800D02*
Y3809800D01*
X4210800Y4229300D02*
Y4889300D01*
X2240800Y4229300D02*
Y4889300D01*
Y4229300D02*
X4210800D01*
X2240800Y4889300D02*
X4210800D01*
X2202700Y3809800D02*
X4172700D01*
X2202700Y3149800D02*
X4172700D01*
Y3809800D01*
X2202700Y3149800D02*
Y3809800D01*
X5097000Y5698300D02*
X5317000D01*
X5097000Y5833300D02*
X5317000D01*
Y5698300D02*
Y5833300D01*
X5097000Y5698300D02*
Y5833300D01*
X1377200Y7035600D02*
X3347200D01*
X1377200Y6375600D02*
X3347200D01*
Y7035600D01*
X1377200Y6375600D02*
Y7035600D01*
X4568000Y2700800D02*
X4703000D01*
X4568000Y2480800D02*
X4703000D01*
Y2700800D01*
X4568000Y2480800D02*
Y2700800D01*
X4847400D02*
X4982400D01*
X4847400Y2480800D02*
X4982400D01*
Y2700800D01*
X4847400Y2480800D02*
Y2700800D01*
X5114100D02*
X5249100D01*
X5114100Y2480800D02*
X5249100D01*
Y2700800D01*
X5114100Y2480800D02*
Y2700800D01*
X5812600D02*
X5947600D01*
X5812600Y2480800D02*
X5947600D01*
Y2700800D01*
X5812600Y2480800D02*
Y2700800D01*
X5520500D02*
X5655500D01*
X5520500Y2480800D02*
X5655500D01*
Y2700800D01*
X5520500Y2480800D02*
Y2700800D01*
X3475800Y5481000D02*
X3610800D01*
X3475800Y5261000D02*
X3610800D01*
Y5481000D01*
X3475800Y5261000D02*
Y5481000D01*
Y5977400D02*
X3610800D01*
X3475800Y5757400D02*
X3610800D01*
Y5977400D01*
X3475800Y5757400D02*
Y5977400D01*
Y6472700D02*
X3610800D01*
X3475800Y6252700D02*
X3610800D01*
Y6472700D01*
X3475800Y6252700D02*
Y6472700D01*
X381200Y6937300D02*
X1041200D01*
X381200Y6238300D02*
X1041200D01*
X381200D02*
Y6937300D01*
X1041200Y6238300D02*
Y6937300D01*
X1133400Y7861500D02*
Y8521500D01*
X434400Y7861500D02*
Y8521500D01*
X1133400D01*
X434400Y7861500D02*
X1133400D01*
X1117800Y2416100D02*
X1777800D01*
X1117800Y1717100D02*
X1777800D01*
X1117800D02*
Y2416100D01*
X1777800Y1717100D02*
Y2416100D01*
X5842200Y5403100D02*
Y7373100D01*
X6502200Y5403100D02*
Y7373100D01*
X5842200D02*
X6502200D01*
X5842200Y5403100D02*
X6502200D01*
X4526800Y4889300D02*
X6496800D01*
X4526800Y4229300D02*
X6496800D01*
Y4889300D01*
X4526800Y4229300D02*
Y4889300D01*
X5096900Y6244400D02*
Y6379400D01*
X5316900Y6244400D02*
Y6379400D01*
X5096900D02*
X5316900D01*
X5096900Y6244400D02*
X5316900D01*
X5096900Y6498400D02*
Y6633400D01*
X5316900Y6498400D02*
Y6633400D01*
X5096900D02*
X5316900D01*
X5096900Y6498400D02*
X5316900D01*
X4812800Y5547225D02*
Y6207226D01*
X3797800Y5547225D02*
Y6207226D01*
X4812800D01*
X3797800Y5547225D02*
X4812800D01*
X4644200Y7730000D02*
X4779200D01*
X4644200Y7510000D02*
X4779200D01*
Y7730000D01*
X4644200Y7510000D02*
Y7730000D01*
X4377500D02*
X4512500D01*
X4377500Y7510000D02*
X4512500D01*
Y7730000D01*
X4377500Y7510000D02*
Y7730000D01*
X3797800Y6566100D02*
Y7226100D01*
X4812800Y6566100D02*
Y7226100D01*
X3797800Y6566100D02*
X4812800D01*
X3797800Y7226100D02*
X4812800D01*
X5317000Y5965000D02*
Y6100000D01*
X5097000Y5965000D02*
Y6100000D01*
Y5965000D02*
X5317000D01*
X5097000Y6100000D02*
X5317000D01*
X6422200Y2700800D02*
X6557200D01*
X6422200Y2480800D02*
X6557200D01*
Y2700800D01*
X6422200Y2480800D02*
Y2700800D01*
X6130100D02*
X6265100D01*
X6130100Y2480800D02*
X6265100D01*
Y2700800D01*
X6130100Y2480800D02*
Y2700800D01*
X3209100Y2700900D02*
X3344100D01*
X3209100Y2480900D02*
X3344100D01*
Y2700900D01*
X3209100Y2480900D02*
Y2700900D01*
X2370900D02*
X2505900D01*
X2370900Y2480900D02*
X2505900D01*
Y2700900D01*
X2370900Y2480900D02*
Y2700900D01*
X2663000D02*
X2798000D01*
X2663000Y2480900D02*
X2798000D01*
Y2700900D01*
X2663000Y2480900D02*
Y2700900D01*
X2942400D02*
X3077400D01*
X2942400Y2480900D02*
X3077400D01*
Y2700900D01*
X2942400Y2480900D02*
Y2700900D01*
X3806000Y2713500D02*
X3941000D01*
X3806000Y2493500D02*
X3941000D01*
Y2713500D01*
X3806000Y2493500D02*
Y2713500D01*
X4098100D02*
X4233100D01*
X4098100Y2493500D02*
X4233100D01*
Y2713500D01*
X4098100Y2493500D02*
Y2713500D01*
X3488500Y2700800D02*
X3623500D01*
X3488500Y2480800D02*
X3623500D01*
Y2700800D01*
X3488500Y2480800D02*
Y2700800D01*
%TF.MD5,9c09ec69a69e03c1d9f338c0fd3355f4*%
M02*
