%TF.GenerationSoftware,Altium Limited,Altium Designer,23.5.1 (21)*%
G04 Layer_Color=8388736*
%FSLAX45Y45*%
%MOMM*%
%TF.SameCoordinates,7ECB1A03-3DEC-426C-BD6E-5A7E68E82EE6*%
%TF.FilePolarity,Positive*%
%TF.FileFunction,Other,Top_3D_Body*%
%TF.Part,Single*%
G01*
G75*
%TA.AperFunction,NonConductor*%
%ADD32C,0.20000*%
%ADD59C,0.10000*%
D32*
X1952800Y2221300D02*
X2212800D01*
X1952800Y1821300D02*
Y2221300D01*
Y1821300D02*
X2212800D01*
Y2221300D01*
X5045100Y7274100D02*
Y7534100D01*
Y7274100D02*
X5445100D01*
Y7534100D01*
X5045100D02*
X5445100D01*
X5045100Y6816900D02*
Y7076900D01*
Y6816900D02*
X5445100D01*
Y7076900D01*
X5045100D02*
X5445100D01*
X1648000Y4520000D02*
X1908000D01*
X1648000Y4120000D02*
Y4520000D01*
Y4120000D02*
X1908000D01*
Y4520000D01*
X1190800D02*
X1450800D01*
X1190800Y4120000D02*
Y4520000D01*
Y4120000D02*
X1450800D01*
Y4520000D01*
X746300D02*
X1006300D01*
X746300Y4120000D02*
Y4520000D01*
Y4120000D02*
X1006300D01*
Y4520000D01*
X974700Y7363000D02*
Y7623000D01*
X574700D02*
X974700D01*
X574700Y7363000D02*
Y7623000D01*
Y7363000D02*
X974700D01*
D59*
X1194200Y9281700D02*
X2260200D01*
Y9031700D02*
Y9281700D01*
X1194200Y9031700D02*
X2260200D01*
X1194200D02*
Y9281700D01*
%TF.MD5,5e2df29c716a2710899150bcd60150b9*%
M02*
