%TF.GenerationSoftware,Altium Limited,Altium Designer,23.5.1 (21)*%
G04 Layer_Color=16711935*
%FSLAX45Y45*%
%MOMM*%
%TF.SameCoordinates,7ECB1A03-3DEC-426C-BD6E-5A7E68E82EE6*%
%TF.FilePolarity,Positive*%
%TF.FileFunction,Other,Top_Assembly*%
%TF.Part,Single*%
G01*
G75*
%TA.AperFunction,NonConductor*%
%ADD32C,0.20000*%
G36*
X2118024Y2021208D02*
X2118949D01*
X2119874Y2021116D01*
X2121076Y2021023D01*
X2122277Y2020838D01*
X2124959Y2020376D01*
X2127917Y2019729D01*
X2130876Y2018804D01*
X2133742Y2017510D01*
X2133834Y2017418D01*
X2134112Y2017325D01*
X2134482Y2017140D01*
X2134944Y2016770D01*
X2135591Y2016401D01*
X2136331Y2015938D01*
X2137995Y2014736D01*
X2139844Y2013165D01*
X2141693Y2011316D01*
X2143542Y2009189D01*
X2145114Y2006693D01*
X2145207Y2006600D01*
X2145299Y2006323D01*
X2145484Y2005953D01*
X2145761Y2005491D01*
X2146039Y2004751D01*
X2146316Y2004011D01*
X2146686Y2003087D01*
X2147056Y2002070D01*
X2147425Y2000960D01*
X2147795Y1999759D01*
X2148350Y1997170D01*
X2148812Y1994211D01*
X2148997Y1991160D01*
Y1990236D01*
X2148905Y1989588D01*
X2148812Y1988756D01*
X2148720Y1987739D01*
X2148627Y1986722D01*
X2148350Y1985520D01*
X2147795Y1983024D01*
X2146963Y1980250D01*
X2146408Y1978863D01*
X2145761Y1977569D01*
X2144929Y1976275D01*
X2144097Y1974980D01*
X2144005Y1974888D01*
X2143912Y1974703D01*
X2143635Y1974333D01*
X2143172Y1973871D01*
X2142710Y1973409D01*
X2142063Y1972761D01*
X2141323Y1972114D01*
X2140584Y1971375D01*
X2139659Y1970635D01*
X2138550Y1969895D01*
X2137440Y1969063D01*
X2136238Y1968323D01*
X2134851Y1967676D01*
X2133465Y1966937D01*
X2131985Y1966382D01*
X2130321Y1965827D01*
X2128380Y1974148D01*
X2128472D01*
X2128657Y1974241D01*
X2129027Y1974426D01*
X2129489Y1974610D01*
X2130044Y1974795D01*
X2130783Y1975073D01*
X2132263Y1975812D01*
X2133927Y1976737D01*
X2135591Y1977846D01*
X2137163Y1979233D01*
X2138550Y1980713D01*
X2138735Y1980897D01*
X2139104Y1981452D01*
X2139567Y1982377D01*
X2140214Y1983579D01*
X2140769Y1985150D01*
X2141323Y1986907D01*
X2141693Y1989034D01*
X2141786Y1991345D01*
Y1992085D01*
X2141693Y1992547D01*
Y1993194D01*
X2141601Y1993934D01*
X2141323Y1995690D01*
X2140954Y1997632D01*
X2140306Y1999666D01*
X2139382Y2001793D01*
X2138180Y2003734D01*
Y2003827D01*
X2137995Y2003919D01*
X2137533Y2004566D01*
X2136793Y2005398D01*
X2135684Y2006415D01*
X2134297Y2007617D01*
X2132725Y2008727D01*
X2130783Y2009744D01*
X2128657Y2010668D01*
X2128564D01*
X2128380Y2010761D01*
X2128102Y2010853D01*
X2127640Y2010946D01*
X2127085Y2011131D01*
X2126438Y2011316D01*
X2124866Y2011593D01*
X2123017Y2011963D01*
X2120983Y2012333D01*
X2118764Y2012517D01*
X2116360Y2012610D01*
X2116268D01*
X2115990D01*
X2115528D01*
X2114973D01*
X2114326Y2012517D01*
X2113494D01*
X2112570Y2012425D01*
X2111553Y2012333D01*
X2109334Y2012055D01*
X2106930Y2011593D01*
X2104526Y2011038D01*
X2102122Y2010298D01*
X2102030D01*
X2101845Y2010206D01*
X2101567Y2010021D01*
X2101105Y2009836D01*
X2099996Y2009281D01*
X2098701Y2008449D01*
X2097222Y2007432D01*
X2095650Y2006138D01*
X2094263Y2004659D01*
X2092969Y2002902D01*
Y2002810D01*
X2092876Y2002625D01*
X2092692Y2002347D01*
X2092507Y2001977D01*
X2092322Y2001515D01*
X2092044Y2000960D01*
X2091490Y1999666D01*
X2090935Y1998002D01*
X2090473Y1996153D01*
X2090103Y1994119D01*
X2090010Y1991992D01*
Y1991345D01*
X2090103Y1990790D01*
Y1990143D01*
X2090195Y1989496D01*
X2090565Y1987832D01*
X2091027Y1985890D01*
X2091767Y1983949D01*
X2092784Y1981915D01*
X2093339Y1980897D01*
X2094078Y1979973D01*
X2094171Y1979880D01*
X2094263Y1979788D01*
X2094541Y1979511D01*
X2094818Y1979141D01*
X2095280Y1978771D01*
X2095835Y1978309D01*
X2096390Y1977754D01*
X2097129Y1977292D01*
X2097962Y1976737D01*
X2098886Y1976090D01*
X2099811Y1975535D01*
X2100920Y1974980D01*
X2102122Y1974518D01*
X2103416Y1974056D01*
X2104803Y1973593D01*
X2106283Y1973224D01*
X2104156Y1964718D01*
X2104064D01*
X2103694Y1964810D01*
X2103139Y1964995D01*
X2102399Y1965272D01*
X2101567Y1965550D01*
X2100550Y1965920D01*
X2099441Y1966382D01*
X2098239Y1966937D01*
X2095650Y1968231D01*
X2093061Y1969895D01*
X2091767Y1970912D01*
X2090473Y1971929D01*
X2089363Y1973039D01*
X2088254Y1974333D01*
X2088161Y1974426D01*
X2087976Y1974610D01*
X2087791Y1975073D01*
X2087422Y1975535D01*
X2086959Y1976275D01*
X2086497Y1977014D01*
X2086035Y1978031D01*
X2085572Y1979048D01*
X2085018Y1980250D01*
X2084555Y1981545D01*
X2084093Y1982932D01*
X2083631Y1984411D01*
X2083261Y1985983D01*
X2083076Y1987647D01*
X2082891Y1989403D01*
X2082799Y1991253D01*
Y1992270D01*
X2082891Y1993009D01*
Y1993841D01*
X2082984Y1994858D01*
X2083169Y1995968D01*
X2083353Y1997262D01*
X2083816Y1999943D01*
X2084555Y2002717D01*
X2085572Y2005491D01*
X2086220Y2006785D01*
X2086959Y2008080D01*
X2087052Y2008172D01*
X2087144Y2008357D01*
X2087422Y2008727D01*
X2087791Y2009097D01*
X2088161Y2009651D01*
X2088716Y2010298D01*
X2089363Y2011038D01*
X2090103Y2011778D01*
X2090935Y2012517D01*
X2091767Y2013350D01*
X2093893Y2015014D01*
X2096390Y2016586D01*
X2099163Y2017972D01*
X2099256D01*
X2099533Y2018157D01*
X2099996Y2018250D01*
X2100550Y2018527D01*
X2101290Y2018712D01*
X2102214Y2018989D01*
X2103232Y2019359D01*
X2104341Y2019637D01*
X2105543Y2019914D01*
X2106930Y2020284D01*
X2109796Y2020746D01*
X2113032Y2021116D01*
X2116360Y2021301D01*
X2116453D01*
X2116823D01*
X2117377D01*
X2118024Y2021208D01*
D02*
G37*
G36*
X2147056Y1915531D02*
X2140861D01*
X2140769Y1915624D01*
X2140584Y1915808D01*
X2140214Y1916178D01*
X2139659Y1916548D01*
X2139012Y1917103D01*
X2138272Y1917842D01*
X2137348Y1918582D01*
X2136238Y1919414D01*
X2135129Y1920246D01*
X2133834Y1921263D01*
X2132355Y1922280D01*
X2130876Y1923297D01*
X2129212Y1924407D01*
X2127455Y1925516D01*
X2125513Y1926626D01*
X2123572Y1927735D01*
X2123479Y1927828D01*
X2123110Y1928013D01*
X2122555Y1928290D01*
X2121723Y1928752D01*
X2120706Y1929215D01*
X2119596Y1929769D01*
X2118302Y1930417D01*
X2116823Y1931064D01*
X2115158Y1931803D01*
X2113494Y1932635D01*
X2111645Y1933375D01*
X2109703Y1934115D01*
X2105728Y1935594D01*
X2101475Y1936981D01*
X2101382D01*
X2101105Y1937073D01*
X2100643Y1937166D01*
X2100088Y1937351D01*
X2099348Y1937536D01*
X2098424Y1937721D01*
X2097407Y1937998D01*
X2096297Y1938183D01*
X2095003Y1938460D01*
X2093616Y1938738D01*
X2090657Y1939200D01*
X2087422Y1939662D01*
X2083908Y1939939D01*
Y1947983D01*
X2084001D01*
X2084278D01*
X2084648D01*
X2085203Y1947891D01*
X2085942D01*
X2086867Y1947798D01*
X2087884Y1947706D01*
X2088993Y1947613D01*
X2090288Y1947428D01*
X2091582Y1947244D01*
X2093154Y1946966D01*
X2094726Y1946689D01*
X2096390Y1946411D01*
X2098239Y1946042D01*
X2102030Y1945117D01*
X2102122D01*
X2102492Y1945025D01*
X2103047Y1944840D01*
X2103879Y1944562D01*
X2104803Y1944285D01*
X2105913Y1943915D01*
X2107207Y1943545D01*
X2108594Y1942991D01*
X2110166Y1942436D01*
X2111737Y1941881D01*
X2115251Y1940494D01*
X2118949Y1938830D01*
X2122647Y1936981D01*
X2122740Y1936888D01*
X2123110Y1936704D01*
X2123572Y1936426D01*
X2124311Y1936056D01*
X2125144Y1935594D01*
X2126161Y1934947D01*
X2127270Y1934300D01*
X2128472Y1933560D01*
X2131153Y1931803D01*
X2133927Y1929954D01*
X2136793Y1927828D01*
X2139474Y1925609D01*
Y1956951D01*
X2147056D01*
Y1915531D01*
D02*
G37*
G36*
X5276811Y7470205D02*
X5277643Y7470112D01*
X5278660Y7470020D01*
X5279677Y7469927D01*
X5280879Y7469650D01*
X5283376Y7469095D01*
X5286149Y7468263D01*
X5287536Y7467708D01*
X5288830Y7467061D01*
X5290125Y7466229D01*
X5291419Y7465397D01*
X5291512Y7465305D01*
X5291697Y7465212D01*
X5292066Y7464935D01*
X5292529Y7464472D01*
X5292991Y7464010D01*
X5293638Y7463363D01*
X5294285Y7462623D01*
X5295025Y7461884D01*
X5295765Y7460959D01*
X5296504Y7459850D01*
X5297336Y7458740D01*
X5298076Y7457538D01*
X5298723Y7456151D01*
X5299463Y7454765D01*
X5300018Y7453285D01*
X5300572Y7451621D01*
X5292251Y7449680D01*
Y7449772D01*
X5292159Y7449957D01*
X5291974Y7450327D01*
X5291789Y7450789D01*
X5291604Y7451344D01*
X5291327Y7452083D01*
X5290587Y7453563D01*
X5289663Y7455227D01*
X5288553Y7456891D01*
X5287166Y7458463D01*
X5285687Y7459850D01*
X5285502Y7460035D01*
X5284947Y7460404D01*
X5284023Y7460867D01*
X5282821Y7461514D01*
X5281249Y7462069D01*
X5279492Y7462623D01*
X5277366Y7462993D01*
X5275054Y7463086D01*
X5274315D01*
X5273853Y7462993D01*
X5273205D01*
X5272466Y7462901D01*
X5270709Y7462623D01*
X5268767Y7462254D01*
X5266733Y7461606D01*
X5264607Y7460682D01*
X5262665Y7459480D01*
X5262573D01*
X5262480Y7459295D01*
X5261833Y7458833D01*
X5261001Y7458093D01*
X5259984Y7456984D01*
X5258782Y7455597D01*
X5257673Y7454025D01*
X5256656Y7452083D01*
X5255731Y7449957D01*
Y7449864D01*
X5255639Y7449680D01*
X5255546Y7449402D01*
X5255454Y7448940D01*
X5255269Y7448385D01*
X5255084Y7447738D01*
X5254807Y7446166D01*
X5254437Y7444317D01*
X5254067Y7442283D01*
X5253882Y7440064D01*
X5253790Y7437660D01*
Y7437568D01*
Y7437290D01*
Y7436828D01*
Y7436273D01*
X5253882Y7435626D01*
Y7434794D01*
X5253975Y7433870D01*
X5254067Y7432853D01*
X5254344Y7430634D01*
X5254807Y7428230D01*
X5255361Y7425826D01*
X5256101Y7423422D01*
Y7423330D01*
X5256193Y7423145D01*
X5256378Y7422867D01*
X5256563Y7422405D01*
X5257118Y7421296D01*
X5257950Y7420001D01*
X5258967Y7418522D01*
X5260262Y7416950D01*
X5261741Y7415563D01*
X5263497Y7414269D01*
X5263590D01*
X5263775Y7414176D01*
X5264052Y7413992D01*
X5264422Y7413807D01*
X5264884Y7413622D01*
X5265439Y7413344D01*
X5266733Y7412790D01*
X5268398Y7412235D01*
X5270247Y7411773D01*
X5272281Y7411403D01*
X5274407Y7411310D01*
X5275054D01*
X5275609Y7411403D01*
X5276256D01*
X5276904Y7411495D01*
X5278568Y7411865D01*
X5280509Y7412327D01*
X5282451Y7413067D01*
X5284485Y7414084D01*
X5285502Y7414639D01*
X5286427Y7415378D01*
X5286519Y7415471D01*
X5286611Y7415563D01*
X5286889Y7415841D01*
X5287259Y7416118D01*
X5287628Y7416580D01*
X5288091Y7417135D01*
X5288646Y7417690D01*
X5289108Y7418429D01*
X5289663Y7419262D01*
X5290310Y7420186D01*
X5290864Y7421111D01*
X5291419Y7422220D01*
X5291881Y7423422D01*
X5292344Y7424716D01*
X5292806Y7426103D01*
X5293176Y7427583D01*
X5301682Y7425456D01*
Y7425364D01*
X5301589Y7424994D01*
X5301404Y7424439D01*
X5301127Y7423699D01*
X5300850Y7422867D01*
X5300480Y7421850D01*
X5300018Y7420741D01*
X5299463Y7419539D01*
X5298168Y7416950D01*
X5296504Y7414361D01*
X5295487Y7413067D01*
X5294470Y7411773D01*
X5293361Y7410663D01*
X5292066Y7409554D01*
X5291974Y7409461D01*
X5291789Y7409276D01*
X5291327Y7409091D01*
X5290864Y7408722D01*
X5290125Y7408259D01*
X5289385Y7407797D01*
X5288368Y7407335D01*
X5287351Y7406872D01*
X5286149Y7406318D01*
X5284855Y7405855D01*
X5283468Y7405393D01*
X5281989Y7404931D01*
X5280417Y7404561D01*
X5278753Y7404376D01*
X5276996Y7404191D01*
X5275147Y7404099D01*
X5274130D01*
X5273390Y7404191D01*
X5272558D01*
X5271541Y7404284D01*
X5270432Y7404469D01*
X5269137Y7404653D01*
X5266456Y7405116D01*
X5263682Y7405855D01*
X5260909Y7406872D01*
X5259614Y7407520D01*
X5258320Y7408259D01*
X5258227Y7408352D01*
X5258043Y7408444D01*
X5257673Y7408722D01*
X5257303Y7409091D01*
X5256748Y7409461D01*
X5256101Y7410016D01*
X5255361Y7410663D01*
X5254622Y7411403D01*
X5253882Y7412235D01*
X5253050Y7413067D01*
X5251386Y7415193D01*
X5249814Y7417690D01*
X5248427Y7420463D01*
Y7420556D01*
X5248242Y7420833D01*
X5248150Y7421296D01*
X5247872Y7421850D01*
X5247687Y7422590D01*
X5247410Y7423514D01*
X5247040Y7424532D01*
X5246763Y7425641D01*
X5246486Y7426843D01*
X5246116Y7428230D01*
X5245653Y7431096D01*
X5245284Y7434332D01*
X5245099Y7437660D01*
Y7437753D01*
Y7438123D01*
Y7438677D01*
X5245191Y7439324D01*
Y7440249D01*
X5245284Y7441174D01*
X5245376Y7442376D01*
X5245561Y7443577D01*
X5246023Y7446259D01*
X5246670Y7449217D01*
X5247595Y7452176D01*
X5248889Y7455042D01*
X5248982Y7455134D01*
X5249074Y7455412D01*
X5249259Y7455782D01*
X5249629Y7456244D01*
X5249999Y7456891D01*
X5250461Y7457631D01*
X5251663Y7459295D01*
X5253235Y7461144D01*
X5255084Y7462993D01*
X5257210Y7464842D01*
X5259707Y7466414D01*
X5259799Y7466507D01*
X5260077Y7466599D01*
X5260446Y7466784D01*
X5260909Y7467061D01*
X5261648Y7467339D01*
X5262388Y7467616D01*
X5263313Y7467986D01*
X5264330Y7468356D01*
X5265439Y7468725D01*
X5266641Y7469095D01*
X5269230Y7469650D01*
X5272188Y7470112D01*
X5275239Y7470297D01*
X5276164D01*
X5276811Y7470205D01*
D02*
G37*
G36*
X5331638Y7469373D02*
X5332377Y7469280D01*
X5333302Y7469188D01*
X5334319Y7469003D01*
X5335336Y7468818D01*
X5337740Y7468171D01*
X5340143Y7467246D01*
X5341345Y7466691D01*
X5342547Y7466044D01*
X5343657Y7465212D01*
X5344674Y7464288D01*
X5344766Y7464195D01*
X5344951Y7464103D01*
X5345136Y7463733D01*
X5345506Y7463363D01*
X5345968Y7462901D01*
X5346431Y7462254D01*
X5346893Y7461606D01*
X5347448Y7460774D01*
X5348372Y7459018D01*
X5349297Y7456799D01*
X5349666Y7455689D01*
X5349851Y7454395D01*
X5350036Y7453100D01*
X5350129Y7451714D01*
Y7451529D01*
Y7451066D01*
X5350036Y7450327D01*
X5349944Y7449310D01*
X5349759Y7448200D01*
X5349389Y7446906D01*
X5349019Y7445519D01*
X5348465Y7444132D01*
X5348372Y7443947D01*
X5348187Y7443485D01*
X5347817Y7442745D01*
X5347263Y7441728D01*
X5346523Y7440619D01*
X5345598Y7439232D01*
X5344489Y7437845D01*
X5343195Y7436273D01*
X5343010Y7436089D01*
X5342547Y7435534D01*
X5342085Y7435071D01*
X5341623Y7434609D01*
X5341068Y7434054D01*
X5340328Y7433315D01*
X5339589Y7432575D01*
X5338664Y7431743D01*
X5337740Y7430819D01*
X5336630Y7429801D01*
X5335428Y7428784D01*
X5334134Y7427583D01*
X5332655Y7426381D01*
X5331175Y7425086D01*
X5331083Y7424994D01*
X5330898Y7424809D01*
X5330528Y7424532D01*
X5330066Y7424162D01*
X5329511Y7423607D01*
X5328864Y7423052D01*
X5327385Y7421850D01*
X5325813Y7420463D01*
X5324334Y7419077D01*
X5323039Y7417875D01*
X5322484Y7417412D01*
X5322022Y7416950D01*
X5321930Y7416858D01*
X5321652Y7416580D01*
X5321282Y7416210D01*
X5320820Y7415656D01*
X5320358Y7415009D01*
X5319803Y7414361D01*
X5318694Y7412790D01*
X5350221D01*
Y7405208D01*
X5307784D01*
Y7405301D01*
Y7405670D01*
Y7406225D01*
X5307876Y7406965D01*
X5307969Y7407797D01*
X5308154Y7408722D01*
X5308339Y7409646D01*
X5308708Y7410663D01*
Y7410756D01*
X5308801Y7410848D01*
X5308986Y7411403D01*
X5309356Y7412235D01*
X5309910Y7413344D01*
X5310650Y7414639D01*
X5311575Y7416118D01*
X5312592Y7417597D01*
X5313886Y7419169D01*
Y7419262D01*
X5314071Y7419354D01*
X5314533Y7419909D01*
X5315365Y7420741D01*
X5316567Y7421943D01*
X5317954Y7423330D01*
X5319711Y7424994D01*
X5321837Y7426843D01*
X5324149Y7428784D01*
X5324241Y7428877D01*
X5324611Y7429154D01*
X5325166Y7429617D01*
X5325813Y7430171D01*
X5326645Y7430911D01*
X5327662Y7431743D01*
X5328679Y7432668D01*
X5329881Y7433685D01*
X5332192Y7435904D01*
X5334504Y7438123D01*
X5335613Y7439232D01*
X5336630Y7440341D01*
X5337555Y7441358D01*
X5338294Y7442376D01*
Y7442468D01*
X5338479Y7442560D01*
X5338664Y7442838D01*
X5338849Y7443208D01*
X5339496Y7444225D01*
X5340236Y7445427D01*
X5340883Y7446906D01*
X5341530Y7448478D01*
X5341900Y7450234D01*
X5342085Y7451898D01*
Y7451991D01*
Y7452083D01*
X5341993Y7452638D01*
X5341900Y7453563D01*
X5341623Y7454580D01*
X5341253Y7455874D01*
X5340606Y7457168D01*
X5339774Y7458463D01*
X5338664Y7459757D01*
X5338479Y7459942D01*
X5338017Y7460312D01*
X5337370Y7460774D01*
X5336353Y7461421D01*
X5335058Y7461976D01*
X5333579Y7462531D01*
X5331822Y7462901D01*
X5329881Y7462993D01*
X5329326D01*
X5328956Y7462901D01*
X5327847Y7462808D01*
X5326552Y7462531D01*
X5325166Y7462161D01*
X5323594Y7461514D01*
X5322115Y7460682D01*
X5320728Y7459572D01*
X5320543Y7459387D01*
X5320173Y7458925D01*
X5319618Y7458185D01*
X5319064Y7457076D01*
X5318416Y7455782D01*
X5317862Y7454117D01*
X5317492Y7452268D01*
X5317307Y7450142D01*
X5309263Y7450974D01*
Y7451066D01*
X5309356Y7451344D01*
Y7451806D01*
X5309448Y7452453D01*
X5309633Y7453193D01*
X5309818Y7454025D01*
X5310095Y7455042D01*
X5310373Y7456059D01*
X5311112Y7458278D01*
X5312222Y7460497D01*
X5312869Y7461606D01*
X5313701Y7462716D01*
X5314533Y7463733D01*
X5315458Y7464657D01*
X5315550Y7464750D01*
X5315735Y7464842D01*
X5316012Y7465120D01*
X5316475Y7465397D01*
X5317029Y7465767D01*
X5317677Y7466137D01*
X5318416Y7466599D01*
X5319341Y7467061D01*
X5320358Y7467524D01*
X5321467Y7467986D01*
X5322669Y7468356D01*
X5323964Y7468725D01*
X5325351Y7469003D01*
X5326830Y7469280D01*
X5328402Y7469373D01*
X5330066Y7469465D01*
X5330990D01*
X5331638Y7469373D01*
D02*
G37*
G36*
X5276811Y7013005D02*
X5277643Y7012912D01*
X5278660Y7012820D01*
X5279677Y7012727D01*
X5280879Y7012450D01*
X5283376Y7011895D01*
X5286149Y7011063D01*
X5287536Y7010508D01*
X5288830Y7009861D01*
X5290125Y7009029D01*
X5291419Y7008197D01*
X5291512Y7008105D01*
X5291697Y7008012D01*
X5292066Y7007735D01*
X5292529Y7007272D01*
X5292991Y7006810D01*
X5293638Y7006163D01*
X5294285Y7005423D01*
X5295025Y7004684D01*
X5295765Y7003759D01*
X5296504Y7002650D01*
X5297336Y7001540D01*
X5298076Y7000338D01*
X5298723Y6998951D01*
X5299463Y6997565D01*
X5300018Y6996085D01*
X5300572Y6994421D01*
X5292251Y6992480D01*
Y6992572D01*
X5292159Y6992757D01*
X5291974Y6993127D01*
X5291789Y6993589D01*
X5291604Y6994144D01*
X5291327Y6994883D01*
X5290587Y6996363D01*
X5289663Y6998027D01*
X5288553Y6999691D01*
X5287166Y7001263D01*
X5285687Y7002650D01*
X5285502Y7002835D01*
X5284947Y7003204D01*
X5284023Y7003667D01*
X5282821Y7004314D01*
X5281249Y7004869D01*
X5279492Y7005423D01*
X5277366Y7005793D01*
X5275054Y7005886D01*
X5274315D01*
X5273853Y7005793D01*
X5273205D01*
X5272466Y7005701D01*
X5270709Y7005423D01*
X5268767Y7005054D01*
X5266733Y7004406D01*
X5264607Y7003482D01*
X5262665Y7002280D01*
X5262573D01*
X5262480Y7002095D01*
X5261833Y7001633D01*
X5261001Y7000893D01*
X5259984Y6999784D01*
X5258782Y6998397D01*
X5257673Y6996825D01*
X5256656Y6994883D01*
X5255731Y6992757D01*
Y6992664D01*
X5255639Y6992480D01*
X5255546Y6992202D01*
X5255454Y6991740D01*
X5255269Y6991185D01*
X5255084Y6990538D01*
X5254807Y6988966D01*
X5254437Y6987117D01*
X5254067Y6985083D01*
X5253882Y6982864D01*
X5253790Y6980460D01*
Y6980368D01*
Y6980090D01*
Y6979628D01*
Y6979073D01*
X5253882Y6978426D01*
Y6977594D01*
X5253975Y6976670D01*
X5254067Y6975653D01*
X5254344Y6973434D01*
X5254807Y6971030D01*
X5255361Y6968626D01*
X5256101Y6966222D01*
Y6966130D01*
X5256193Y6965945D01*
X5256378Y6965667D01*
X5256563Y6965205D01*
X5257118Y6964096D01*
X5257950Y6962801D01*
X5258967Y6961322D01*
X5260262Y6959750D01*
X5261741Y6958363D01*
X5263497Y6957069D01*
X5263590D01*
X5263775Y6956976D01*
X5264052Y6956792D01*
X5264422Y6956607D01*
X5264884Y6956422D01*
X5265439Y6956144D01*
X5266733Y6955590D01*
X5268398Y6955035D01*
X5270247Y6954573D01*
X5272281Y6954203D01*
X5274407Y6954110D01*
X5275054D01*
X5275609Y6954203D01*
X5276256D01*
X5276904Y6954295D01*
X5278568Y6954665D01*
X5280509Y6955127D01*
X5282451Y6955867D01*
X5284485Y6956884D01*
X5285502Y6957439D01*
X5286427Y6958178D01*
X5286519Y6958271D01*
X5286611Y6958363D01*
X5286889Y6958641D01*
X5287259Y6958918D01*
X5287628Y6959380D01*
X5288091Y6959935D01*
X5288646Y6960490D01*
X5289108Y6961229D01*
X5289663Y6962062D01*
X5290310Y6962986D01*
X5290864Y6963911D01*
X5291419Y6965020D01*
X5291881Y6966222D01*
X5292344Y6967516D01*
X5292806Y6968903D01*
X5293176Y6970383D01*
X5301682Y6968256D01*
Y6968164D01*
X5301589Y6967794D01*
X5301404Y6967239D01*
X5301127Y6966499D01*
X5300850Y6965667D01*
X5300480Y6964650D01*
X5300018Y6963541D01*
X5299463Y6962339D01*
X5298168Y6959750D01*
X5296504Y6957161D01*
X5295487Y6955867D01*
X5294470Y6954573D01*
X5293361Y6953463D01*
X5292066Y6952354D01*
X5291974Y6952261D01*
X5291789Y6952076D01*
X5291327Y6951891D01*
X5290864Y6951522D01*
X5290125Y6951059D01*
X5289385Y6950597D01*
X5288368Y6950135D01*
X5287351Y6949672D01*
X5286149Y6949118D01*
X5284855Y6948655D01*
X5283468Y6948193D01*
X5281989Y6947731D01*
X5280417Y6947361D01*
X5278753Y6947176D01*
X5276996Y6946991D01*
X5275147Y6946899D01*
X5274130D01*
X5273390Y6946991D01*
X5272558D01*
X5271541Y6947084D01*
X5270432Y6947269D01*
X5269137Y6947453D01*
X5266456Y6947916D01*
X5263682Y6948655D01*
X5260909Y6949672D01*
X5259614Y6950320D01*
X5258320Y6951059D01*
X5258227Y6951152D01*
X5258043Y6951244D01*
X5257673Y6951522D01*
X5257303Y6951891D01*
X5256748Y6952261D01*
X5256101Y6952816D01*
X5255361Y6953463D01*
X5254622Y6954203D01*
X5253882Y6955035D01*
X5253050Y6955867D01*
X5251386Y6957993D01*
X5249814Y6960490D01*
X5248427Y6963263D01*
Y6963356D01*
X5248242Y6963633D01*
X5248150Y6964096D01*
X5247872Y6964650D01*
X5247687Y6965390D01*
X5247410Y6966314D01*
X5247040Y6967332D01*
X5246763Y6968441D01*
X5246486Y6969643D01*
X5246116Y6971030D01*
X5245653Y6973896D01*
X5245284Y6977132D01*
X5245099Y6980460D01*
Y6980553D01*
Y6980923D01*
Y6981477D01*
X5245191Y6982124D01*
Y6983049D01*
X5245284Y6983974D01*
X5245376Y6985176D01*
X5245561Y6986377D01*
X5246023Y6989059D01*
X5246670Y6992017D01*
X5247595Y6994976D01*
X5248889Y6997842D01*
X5248982Y6997934D01*
X5249074Y6998212D01*
X5249259Y6998582D01*
X5249629Y6999044D01*
X5249999Y6999691D01*
X5250461Y7000431D01*
X5251663Y7002095D01*
X5253235Y7003944D01*
X5255084Y7005793D01*
X5257210Y7007642D01*
X5259707Y7009214D01*
X5259799Y7009307D01*
X5260077Y7009399D01*
X5260446Y7009584D01*
X5260909Y7009861D01*
X5261648Y7010139D01*
X5262388Y7010416D01*
X5263313Y7010786D01*
X5264330Y7011156D01*
X5265439Y7011525D01*
X5266641Y7011895D01*
X5269230Y7012450D01*
X5272188Y7012912D01*
X5275239Y7013097D01*
X5276164D01*
X5276811Y7013005D01*
D02*
G37*
G36*
X5330898Y7012173D02*
X5332100Y7011988D01*
X5333579Y7011710D01*
X5335243Y7011248D01*
X5336908Y7010693D01*
X5338572Y7009954D01*
X5338664D01*
X5338757Y7009861D01*
X5339311Y7009584D01*
X5340143Y7009029D01*
X5341068Y7008382D01*
X5342178Y7007457D01*
X5343287Y7006440D01*
X5344396Y7005238D01*
X5345321Y7003852D01*
X5345413Y7003667D01*
X5345691Y7003204D01*
X5346061Y7002372D01*
X5346523Y7001355D01*
X5346985Y7000153D01*
X5347355Y6998767D01*
X5347632Y6997195D01*
X5347725Y6995623D01*
Y6995438D01*
Y6994883D01*
X5347632Y6994144D01*
X5347448Y6993127D01*
X5347170Y6991925D01*
X5346708Y6990630D01*
X5346153Y6989336D01*
X5345413Y6988042D01*
X5345321Y6987857D01*
X5345044Y6987487D01*
X5344489Y6986840D01*
X5343749Y6986100D01*
X5342825Y6985268D01*
X5341715Y6984343D01*
X5340421Y6983511D01*
X5338849Y6982679D01*
X5338942D01*
X5339126Y6982587D01*
X5339404Y6982494D01*
X5339774Y6982402D01*
X5340791Y6982032D01*
X5342085Y6981477D01*
X5343564Y6980738D01*
X5345044Y6979813D01*
X5346431Y6978611D01*
X5347725Y6977224D01*
X5347817Y6977039D01*
X5348187Y6976485D01*
X5348742Y6975560D01*
X5349297Y6974358D01*
X5349851Y6972879D01*
X5350406Y6971122D01*
X5350776Y6969088D01*
X5350868Y6966869D01*
Y6966777D01*
Y6966499D01*
Y6966037D01*
X5350776Y6965482D01*
X5350683Y6964743D01*
X5350499Y6963911D01*
X5350314Y6962986D01*
X5350129Y6961969D01*
X5349389Y6959750D01*
X5348834Y6958548D01*
X5348280Y6957439D01*
X5347540Y6956237D01*
X5346708Y6955035D01*
X5345783Y6953833D01*
X5344674Y6952723D01*
X5344581Y6952631D01*
X5344396Y6952446D01*
X5344027Y6952169D01*
X5343564Y6951799D01*
X5343010Y6951337D01*
X5342270Y6950874D01*
X5341438Y6950320D01*
X5340421Y6949857D01*
X5339404Y6949303D01*
X5338202Y6948748D01*
X5337000Y6948286D01*
X5335613Y6947823D01*
X5334134Y6947453D01*
X5332562Y6947176D01*
X5330990Y6946991D01*
X5329234Y6946899D01*
X5328402D01*
X5327847Y6946991D01*
X5327107Y6947084D01*
X5326275Y6947176D01*
X5325351Y6947361D01*
X5324334Y6947546D01*
X5322115Y6948101D01*
X5319803Y6949025D01*
X5318601Y6949580D01*
X5317492Y6950227D01*
X5316382Y6951059D01*
X5315273Y6951891D01*
X5315180Y6951984D01*
X5314995Y6952169D01*
X5314718Y6952446D01*
X5314441Y6952816D01*
X5313978Y6953278D01*
X5313516Y6953925D01*
X5312961Y6954573D01*
X5312407Y6955405D01*
X5311852Y6956329D01*
X5311297Y6957254D01*
X5310280Y6959473D01*
X5309448Y6962062D01*
X5309171Y6963448D01*
X5308986Y6964928D01*
X5316845Y6965945D01*
Y6965852D01*
X5316937Y6965667D01*
X5317029Y6965297D01*
X5317122Y6964835D01*
X5317214Y6964280D01*
X5317399Y6963633D01*
X5317862Y6962246D01*
X5318509Y6960582D01*
X5319341Y6959010D01*
X5320265Y6957531D01*
X5321375Y6956237D01*
X5321560Y6956144D01*
X5321930Y6955775D01*
X5322669Y6955312D01*
X5323594Y6954850D01*
X5324703Y6954295D01*
X5326090Y6953833D01*
X5327662Y6953463D01*
X5329326Y6953371D01*
X5329881D01*
X5330251Y6953463D01*
X5331268Y6953556D01*
X5332562Y6953833D01*
X5334041Y6954295D01*
X5335613Y6954942D01*
X5337185Y6955867D01*
X5338664Y6957161D01*
X5338849Y6957346D01*
X5339311Y6957901D01*
X5339866Y6958733D01*
X5340606Y6959843D01*
X5341345Y6961229D01*
X5341900Y6962801D01*
X5342362Y6964650D01*
X5342547Y6966684D01*
Y6966777D01*
Y6966962D01*
Y6967239D01*
X5342455Y6967609D01*
X5342362Y6968626D01*
X5342085Y6969828D01*
X5341715Y6971307D01*
X5341068Y6972786D01*
X5340143Y6974266D01*
X5338942Y6975653D01*
X5338757Y6975837D01*
X5338294Y6976207D01*
X5337555Y6976762D01*
X5336538Y6977409D01*
X5335243Y6978056D01*
X5333672Y6978611D01*
X5331915Y6978981D01*
X5329973Y6979166D01*
X5329141D01*
X5328494Y6979073D01*
X5327662Y6978981D01*
X5326737Y6978796D01*
X5325628Y6978611D01*
X5324426Y6978334D01*
X5325351Y6985268D01*
X5325813D01*
X5326183Y6985176D01*
X5327385D01*
X5328402Y6985360D01*
X5329604Y6985545D01*
X5330990Y6985823D01*
X5332562Y6986285D01*
X5334041Y6986932D01*
X5335613Y6987764D01*
X5335706D01*
X5335798Y6987857D01*
X5336260Y6988227D01*
X5336908Y6988874D01*
X5337647Y6989706D01*
X5338387Y6990908D01*
X5339034Y6992295D01*
X5339496Y6993866D01*
X5339681Y6994791D01*
Y6995808D01*
Y6995900D01*
Y6995993D01*
Y6996548D01*
X5339496Y6997287D01*
X5339311Y6998304D01*
X5338942Y6999414D01*
X5338479Y7000616D01*
X5337740Y7001818D01*
X5336723Y7002927D01*
X5336630Y7003020D01*
X5336168Y7003389D01*
X5335521Y7003852D01*
X5334689Y7004406D01*
X5333579Y7004869D01*
X5332285Y7005331D01*
X5330805Y7005701D01*
X5329141Y7005793D01*
X5328402D01*
X5327569Y7005608D01*
X5326460Y7005423D01*
X5325258Y7005054D01*
X5324056Y7004591D01*
X5322762Y7003852D01*
X5321560Y7002927D01*
X5321467Y7002835D01*
X5321098Y7002372D01*
X5320543Y7001725D01*
X5319896Y7000801D01*
X5319248Y6999599D01*
X5318601Y6998119D01*
X5318047Y6996363D01*
X5317677Y6994329D01*
X5309818Y6995715D01*
Y6995808D01*
X5309910Y6996085D01*
X5310003Y6996455D01*
X5310095Y6997010D01*
X5310280Y6997657D01*
X5310558Y6998397D01*
X5311112Y7000153D01*
X5312037Y7002187D01*
X5313146Y7004221D01*
X5314533Y7006163D01*
X5316290Y7007920D01*
X5316382Y7008012D01*
X5316567Y7008105D01*
X5316845Y7008290D01*
X5317214Y7008567D01*
X5317677Y7008937D01*
X5318324Y7009307D01*
X5318971Y7009676D01*
X5319803Y7010139D01*
X5321652Y7010878D01*
X5323779Y7011618D01*
X5326275Y7012080D01*
X5327569Y7012265D01*
X5329881D01*
X5330898Y7012173D01*
D02*
G37*
G36*
X1813224Y4319908D02*
X1814149D01*
X1815074Y4319816D01*
X1816276Y4319723D01*
X1817477Y4319538D01*
X1820159Y4319076D01*
X1823117Y4318429D01*
X1826076Y4317504D01*
X1828942Y4316210D01*
X1829034Y4316118D01*
X1829312Y4316025D01*
X1829682Y4315840D01*
X1830144Y4315470D01*
X1830791Y4315101D01*
X1831531Y4314638D01*
X1833195Y4313436D01*
X1835044Y4311865D01*
X1836893Y4310016D01*
X1838742Y4307889D01*
X1840314Y4305393D01*
X1840407Y4305300D01*
X1840499Y4305023D01*
X1840684Y4304653D01*
X1840961Y4304191D01*
X1841239Y4303451D01*
X1841516Y4302711D01*
X1841886Y4301787D01*
X1842256Y4300770D01*
X1842625Y4299660D01*
X1842995Y4298459D01*
X1843550Y4295870D01*
X1844012Y4292911D01*
X1844197Y4289860D01*
Y4288936D01*
X1844105Y4288288D01*
X1844012Y4287456D01*
X1843920Y4286439D01*
X1843827Y4285422D01*
X1843550Y4284220D01*
X1842995Y4281724D01*
X1842163Y4278950D01*
X1841608Y4277563D01*
X1840961Y4276269D01*
X1840129Y4274975D01*
X1839297Y4273680D01*
X1839205Y4273588D01*
X1839112Y4273403D01*
X1838835Y4273033D01*
X1838372Y4272571D01*
X1837910Y4272109D01*
X1837263Y4271461D01*
X1836523Y4270814D01*
X1835784Y4270075D01*
X1834859Y4269335D01*
X1833750Y4268595D01*
X1832640Y4267763D01*
X1831438Y4267023D01*
X1830051Y4266376D01*
X1828665Y4265637D01*
X1827185Y4265082D01*
X1825521Y4264527D01*
X1823580Y4272848D01*
X1823672D01*
X1823857Y4272941D01*
X1824227Y4273126D01*
X1824689Y4273310D01*
X1825244Y4273495D01*
X1825983Y4273773D01*
X1827463Y4274512D01*
X1829127Y4275437D01*
X1830791Y4276546D01*
X1832363Y4277933D01*
X1833750Y4279413D01*
X1833935Y4279597D01*
X1834304Y4280152D01*
X1834767Y4281077D01*
X1835414Y4282279D01*
X1835969Y4283850D01*
X1836523Y4285607D01*
X1836893Y4287734D01*
X1836986Y4290045D01*
Y4290785D01*
X1836893Y4291247D01*
Y4291894D01*
X1836801Y4292634D01*
X1836523Y4294390D01*
X1836154Y4296332D01*
X1835506Y4298366D01*
X1834582Y4300493D01*
X1833380Y4302434D01*
Y4302527D01*
X1833195Y4302619D01*
X1832733Y4303266D01*
X1831993Y4304098D01*
X1830884Y4305115D01*
X1829497Y4306317D01*
X1827925Y4307427D01*
X1825983Y4308444D01*
X1823857Y4309368D01*
X1823764D01*
X1823580Y4309461D01*
X1823302Y4309553D01*
X1822840Y4309646D01*
X1822285Y4309831D01*
X1821638Y4310016D01*
X1820066Y4310293D01*
X1818217Y4310663D01*
X1816183Y4311033D01*
X1813964Y4311217D01*
X1811560Y4311310D01*
X1811468D01*
X1811190D01*
X1810728D01*
X1810173D01*
X1809526Y4311217D01*
X1808694D01*
X1807770Y4311125D01*
X1806753Y4311033D01*
X1804534Y4310755D01*
X1802130Y4310293D01*
X1799726Y4309738D01*
X1797322Y4308998D01*
X1797230D01*
X1797045Y4308906D01*
X1796767Y4308721D01*
X1796305Y4308536D01*
X1795196Y4307981D01*
X1793901Y4307149D01*
X1792422Y4306132D01*
X1790850Y4304838D01*
X1789463Y4303359D01*
X1788169Y4301602D01*
Y4301510D01*
X1788076Y4301325D01*
X1787892Y4301047D01*
X1787707Y4300677D01*
X1787522Y4300215D01*
X1787244Y4299660D01*
X1786690Y4298366D01*
X1786135Y4296702D01*
X1785673Y4294853D01*
X1785303Y4292819D01*
X1785210Y4290692D01*
Y4290045D01*
X1785303Y4289490D01*
Y4288843D01*
X1785395Y4288196D01*
X1785765Y4286532D01*
X1786227Y4284590D01*
X1786967Y4282649D01*
X1787984Y4280615D01*
X1788539Y4279597D01*
X1789278Y4278673D01*
X1789371Y4278580D01*
X1789463Y4278488D01*
X1789741Y4278211D01*
X1790018Y4277841D01*
X1790480Y4277471D01*
X1791035Y4277009D01*
X1791590Y4276454D01*
X1792329Y4275992D01*
X1793162Y4275437D01*
X1794086Y4274790D01*
X1795011Y4274235D01*
X1796120Y4273680D01*
X1797322Y4273218D01*
X1798616Y4272756D01*
X1800003Y4272293D01*
X1801483Y4271924D01*
X1799356Y4263418D01*
X1799264D01*
X1798894Y4263510D01*
X1798339Y4263695D01*
X1797599Y4263972D01*
X1796767Y4264250D01*
X1795750Y4264620D01*
X1794641Y4265082D01*
X1793439Y4265637D01*
X1790850Y4266931D01*
X1788261Y4268595D01*
X1786967Y4269612D01*
X1785673Y4270629D01*
X1784563Y4271739D01*
X1783454Y4273033D01*
X1783361Y4273126D01*
X1783176Y4273310D01*
X1782991Y4273773D01*
X1782622Y4274235D01*
X1782159Y4274975D01*
X1781697Y4275714D01*
X1781235Y4276731D01*
X1780772Y4277748D01*
X1780218Y4278950D01*
X1779755Y4280245D01*
X1779293Y4281632D01*
X1778831Y4283111D01*
X1778461Y4284683D01*
X1778276Y4286347D01*
X1778091Y4288103D01*
X1777999Y4289953D01*
Y4290970D01*
X1778091Y4291709D01*
Y4292541D01*
X1778184Y4293558D01*
X1778369Y4294668D01*
X1778553Y4295962D01*
X1779016Y4298643D01*
X1779755Y4301417D01*
X1780772Y4304191D01*
X1781420Y4305485D01*
X1782159Y4306780D01*
X1782252Y4306872D01*
X1782344Y4307057D01*
X1782622Y4307427D01*
X1782991Y4307797D01*
X1783361Y4308351D01*
X1783916Y4308998D01*
X1784563Y4309738D01*
X1785303Y4310478D01*
X1786135Y4311217D01*
X1786967Y4312050D01*
X1789093Y4313714D01*
X1791590Y4315286D01*
X1794363Y4316672D01*
X1794456D01*
X1794733Y4316857D01*
X1795196Y4316950D01*
X1795750Y4317227D01*
X1796490Y4317412D01*
X1797414Y4317689D01*
X1798432Y4318059D01*
X1799541Y4318337D01*
X1800743Y4318614D01*
X1802130Y4318984D01*
X1804996Y4319446D01*
X1808232Y4319816D01*
X1811560Y4320001D01*
X1811653D01*
X1812023D01*
X1812577D01*
X1813224Y4319908D01*
D02*
G37*
G36*
X1810728Y4256483D02*
X1812023D01*
X1813502Y4256391D01*
X1815258Y4256206D01*
X1817200Y4256021D01*
X1819327Y4255744D01*
X1821453Y4255374D01*
X1823764Y4254912D01*
X1825983Y4254357D01*
X1828202Y4253710D01*
X1830329Y4252878D01*
X1832363Y4251953D01*
X1834304Y4250936D01*
X1835969Y4249734D01*
X1836061Y4249642D01*
X1836246Y4249457D01*
X1836616Y4249087D01*
X1837171Y4248625D01*
X1837725Y4248070D01*
X1838280Y4247330D01*
X1839020Y4246406D01*
X1839667Y4245481D01*
X1840314Y4244372D01*
X1841054Y4243170D01*
X1841608Y4241783D01*
X1842256Y4240396D01*
X1842718Y4238824D01*
X1843088Y4237160D01*
X1843273Y4235404D01*
X1843365Y4233554D01*
Y4232815D01*
X1843273Y4232260D01*
Y4231613D01*
X1843180Y4230873D01*
X1842810Y4229117D01*
X1842348Y4227175D01*
X1841608Y4225141D01*
X1840499Y4223107D01*
X1839852Y4222090D01*
X1839112Y4221165D01*
X1839020Y4221073D01*
X1838927Y4220980D01*
X1838650Y4220703D01*
X1838372Y4220426D01*
X1837910Y4219963D01*
X1837355Y4219594D01*
X1836061Y4218577D01*
X1834397Y4217560D01*
X1832363Y4216635D01*
X1830051Y4215803D01*
X1827463Y4215248D01*
X1826815Y4223107D01*
X1826908D01*
X1827000Y4223199D01*
X1827555Y4223292D01*
X1828387Y4223569D01*
X1829404Y4223939D01*
X1830514Y4224309D01*
X1831623Y4224864D01*
X1832640Y4225511D01*
X1833472Y4226158D01*
X1833657Y4226343D01*
X1834027Y4226713D01*
X1834582Y4227360D01*
X1835229Y4228284D01*
X1835784Y4229486D01*
X1836338Y4230781D01*
X1836708Y4232352D01*
X1836893Y4234017D01*
Y4234664D01*
X1836801Y4235404D01*
X1836616Y4236236D01*
X1836338Y4237345D01*
X1835969Y4238455D01*
X1835506Y4239564D01*
X1834767Y4240674D01*
X1834674Y4240858D01*
X1834304Y4241321D01*
X1833657Y4241968D01*
X1832733Y4242800D01*
X1831623Y4243725D01*
X1830329Y4244742D01*
X1828665Y4245666D01*
X1826815Y4246591D01*
X1826723D01*
X1826538Y4246683D01*
X1826261Y4246776D01*
X1825891Y4246961D01*
X1825336Y4247053D01*
X1824689Y4247238D01*
X1823949Y4247423D01*
X1823025Y4247608D01*
X1822008Y4247885D01*
X1820898Y4248070D01*
X1819696Y4248255D01*
X1818402Y4248347D01*
X1816923Y4248532D01*
X1815443Y4248625D01*
X1813779Y4248717D01*
X1812115D01*
X1812207Y4248625D01*
X1812762Y4248255D01*
X1813502Y4247608D01*
X1814426Y4246776D01*
X1815536Y4245851D01*
X1816553Y4244649D01*
X1817570Y4243355D01*
X1818494Y4241875D01*
Y4241783D01*
X1818587Y4241691D01*
X1818864Y4241136D01*
X1819142Y4240304D01*
X1819604Y4239194D01*
X1819974Y4237900D01*
X1820251Y4236421D01*
X1820528Y4234849D01*
X1820621Y4233185D01*
Y4232445D01*
X1820528Y4231890D01*
X1820436Y4231151D01*
X1820344Y4230411D01*
X1820159Y4229486D01*
X1819881Y4228562D01*
X1819234Y4226435D01*
X1818772Y4225326D01*
X1818125Y4224216D01*
X1817477Y4223107D01*
X1816738Y4221905D01*
X1815813Y4220795D01*
X1814796Y4219778D01*
X1814704Y4219686D01*
X1814519Y4219501D01*
X1814241Y4219224D01*
X1813779Y4218946D01*
X1813132Y4218484D01*
X1812485Y4218022D01*
X1811653Y4217560D01*
X1810728Y4217005D01*
X1809711Y4216450D01*
X1808602Y4215988D01*
X1807307Y4215525D01*
X1806013Y4215063D01*
X1804626Y4214786D01*
X1803054Y4214508D01*
X1801483Y4214324D01*
X1799818Y4214231D01*
X1799726D01*
X1799541D01*
X1799264D01*
X1798801D01*
X1798247Y4214324D01*
X1797692D01*
X1796213Y4214601D01*
X1794456Y4214878D01*
X1792607Y4215341D01*
X1790573Y4215988D01*
X1788631Y4216912D01*
X1788539D01*
X1788446Y4217005D01*
X1788169Y4217190D01*
X1787799Y4217375D01*
X1786875Y4217929D01*
X1785673Y4218761D01*
X1784378Y4219778D01*
X1783084Y4220980D01*
X1781789Y4222460D01*
X1780680Y4224031D01*
Y4224124D01*
X1780587Y4224216D01*
X1780403Y4224494D01*
X1780310Y4224864D01*
X1779848Y4225788D01*
X1779386Y4226990D01*
X1778831Y4228562D01*
X1778461Y4230318D01*
X1778091Y4232260D01*
X1777999Y4234387D01*
Y4234849D01*
X1778091Y4235311D01*
Y4236051D01*
X1778184Y4236883D01*
X1778369Y4237807D01*
X1778646Y4238917D01*
X1778923Y4240026D01*
X1779293Y4241321D01*
X1779755Y4242615D01*
X1780310Y4243909D01*
X1781050Y4245296D01*
X1781882Y4246591D01*
X1782806Y4247885D01*
X1783916Y4249179D01*
X1785210Y4250381D01*
X1785303Y4250474D01*
X1785580Y4250659D01*
X1785950Y4250936D01*
X1786597Y4251306D01*
X1787429Y4251861D01*
X1788354Y4252323D01*
X1789556Y4252878D01*
X1790850Y4253432D01*
X1792422Y4254080D01*
X1794179Y4254634D01*
X1796120Y4255097D01*
X1798247Y4255559D01*
X1800650Y4256021D01*
X1803239Y4256299D01*
X1806013Y4256483D01*
X1808971Y4256576D01*
X1809064D01*
X1809156D01*
X1809434D01*
X1809804D01*
X1810728Y4256483D01*
D02*
G37*
G36*
X1356024Y4319908D02*
X1356949D01*
X1357874Y4319816D01*
X1359076Y4319723D01*
X1360277Y4319538D01*
X1362959Y4319076D01*
X1365917Y4318429D01*
X1368876Y4317504D01*
X1371742Y4316210D01*
X1371834Y4316118D01*
X1372112Y4316025D01*
X1372482Y4315840D01*
X1372944Y4315470D01*
X1373591Y4315101D01*
X1374331Y4314638D01*
X1375995Y4313436D01*
X1377844Y4311865D01*
X1379693Y4310016D01*
X1381542Y4307889D01*
X1383114Y4305393D01*
X1383207Y4305300D01*
X1383299Y4305023D01*
X1383484Y4304653D01*
X1383761Y4304191D01*
X1384039Y4303451D01*
X1384316Y4302711D01*
X1384686Y4301787D01*
X1385056Y4300770D01*
X1385425Y4299660D01*
X1385795Y4298459D01*
X1386350Y4295870D01*
X1386812Y4292911D01*
X1386997Y4289860D01*
Y4288936D01*
X1386905Y4288288D01*
X1386812Y4287456D01*
X1386720Y4286439D01*
X1386627Y4285422D01*
X1386350Y4284220D01*
X1385795Y4281724D01*
X1384963Y4278950D01*
X1384408Y4277563D01*
X1383761Y4276269D01*
X1382929Y4274975D01*
X1382097Y4273680D01*
X1382005Y4273588D01*
X1381912Y4273403D01*
X1381635Y4273033D01*
X1381172Y4272571D01*
X1380710Y4272109D01*
X1380063Y4271461D01*
X1379323Y4270814D01*
X1378584Y4270075D01*
X1377659Y4269335D01*
X1376550Y4268595D01*
X1375440Y4267763D01*
X1374238Y4267023D01*
X1372851Y4266376D01*
X1371465Y4265637D01*
X1369985Y4265082D01*
X1368321Y4264527D01*
X1366380Y4272848D01*
X1366472D01*
X1366657Y4272941D01*
X1367027Y4273126D01*
X1367489Y4273310D01*
X1368044Y4273495D01*
X1368783Y4273773D01*
X1370263Y4274512D01*
X1371927Y4275437D01*
X1373591Y4276546D01*
X1375163Y4277933D01*
X1376550Y4279413D01*
X1376735Y4279597D01*
X1377104Y4280152D01*
X1377567Y4281077D01*
X1378214Y4282279D01*
X1378769Y4283850D01*
X1379323Y4285607D01*
X1379693Y4287734D01*
X1379786Y4290045D01*
Y4290785D01*
X1379693Y4291247D01*
Y4291894D01*
X1379601Y4292634D01*
X1379323Y4294390D01*
X1378954Y4296332D01*
X1378306Y4298366D01*
X1377382Y4300493D01*
X1376180Y4302434D01*
Y4302527D01*
X1375995Y4302619D01*
X1375533Y4303266D01*
X1374793Y4304098D01*
X1373684Y4305115D01*
X1372297Y4306317D01*
X1370725Y4307427D01*
X1368783Y4308444D01*
X1366657Y4309368D01*
X1366564D01*
X1366380Y4309461D01*
X1366102Y4309553D01*
X1365640Y4309646D01*
X1365085Y4309831D01*
X1364438Y4310016D01*
X1362866Y4310293D01*
X1361017Y4310663D01*
X1358983Y4311033D01*
X1356764Y4311217D01*
X1354360Y4311310D01*
X1354268D01*
X1353990D01*
X1353528D01*
X1352973D01*
X1352326Y4311217D01*
X1351494D01*
X1350570Y4311125D01*
X1349553Y4311033D01*
X1347334Y4310755D01*
X1344930Y4310293D01*
X1342526Y4309738D01*
X1340122Y4308998D01*
X1340030D01*
X1339845Y4308906D01*
X1339567Y4308721D01*
X1339105Y4308536D01*
X1337996Y4307981D01*
X1336701Y4307149D01*
X1335222Y4306132D01*
X1333650Y4304838D01*
X1332263Y4303359D01*
X1330969Y4301602D01*
Y4301510D01*
X1330876Y4301325D01*
X1330692Y4301047D01*
X1330507Y4300677D01*
X1330322Y4300215D01*
X1330044Y4299660D01*
X1329490Y4298366D01*
X1328935Y4296702D01*
X1328473Y4294853D01*
X1328103Y4292819D01*
X1328010Y4290692D01*
Y4290045D01*
X1328103Y4289490D01*
Y4288843D01*
X1328195Y4288196D01*
X1328565Y4286532D01*
X1329027Y4284590D01*
X1329767Y4282649D01*
X1330784Y4280615D01*
X1331339Y4279597D01*
X1332078Y4278673D01*
X1332171Y4278580D01*
X1332263Y4278488D01*
X1332541Y4278211D01*
X1332818Y4277841D01*
X1333280Y4277471D01*
X1333835Y4277009D01*
X1334390Y4276454D01*
X1335129Y4275992D01*
X1335962Y4275437D01*
X1336886Y4274790D01*
X1337811Y4274235D01*
X1338920Y4273680D01*
X1340122Y4273218D01*
X1341416Y4272756D01*
X1342803Y4272293D01*
X1344283Y4271924D01*
X1342156Y4263418D01*
X1342064D01*
X1341694Y4263510D01*
X1341139Y4263695D01*
X1340399Y4263972D01*
X1339567Y4264250D01*
X1338550Y4264620D01*
X1337441Y4265082D01*
X1336239Y4265637D01*
X1333650Y4266931D01*
X1331061Y4268595D01*
X1329767Y4269612D01*
X1328473Y4270629D01*
X1327363Y4271739D01*
X1326254Y4273033D01*
X1326161Y4273126D01*
X1325976Y4273310D01*
X1325791Y4273773D01*
X1325422Y4274235D01*
X1324959Y4274975D01*
X1324497Y4275714D01*
X1324035Y4276731D01*
X1323572Y4277748D01*
X1323018Y4278950D01*
X1322555Y4280245D01*
X1322093Y4281632D01*
X1321631Y4283111D01*
X1321261Y4284683D01*
X1321076Y4286347D01*
X1320891Y4288103D01*
X1320799Y4289953D01*
Y4290970D01*
X1320891Y4291709D01*
Y4292541D01*
X1320984Y4293558D01*
X1321169Y4294668D01*
X1321353Y4295962D01*
X1321816Y4298643D01*
X1322555Y4301417D01*
X1323572Y4304191D01*
X1324220Y4305485D01*
X1324959Y4306780D01*
X1325052Y4306872D01*
X1325144Y4307057D01*
X1325422Y4307427D01*
X1325791Y4307797D01*
X1326161Y4308351D01*
X1326716Y4308998D01*
X1327363Y4309738D01*
X1328103Y4310478D01*
X1328935Y4311217D01*
X1329767Y4312050D01*
X1331893Y4313714D01*
X1334390Y4315286D01*
X1337163Y4316672D01*
X1337256D01*
X1337533Y4316857D01*
X1337996Y4316950D01*
X1338550Y4317227D01*
X1339290Y4317412D01*
X1340214Y4317689D01*
X1341232Y4318059D01*
X1342341Y4318337D01*
X1343543Y4318614D01*
X1344930Y4318984D01*
X1347796Y4319446D01*
X1351032Y4319816D01*
X1354360Y4320001D01*
X1354453D01*
X1354823D01*
X1355377D01*
X1356024Y4319908D01*
D02*
G37*
G36*
X1339290Y4247978D02*
X1339197D01*
X1339013D01*
X1338735Y4247885D01*
X1338273Y4247793D01*
X1337256Y4247515D01*
X1335869Y4247145D01*
X1334482Y4246591D01*
X1332910Y4245851D01*
X1331524Y4244926D01*
X1330229Y4243817D01*
X1330137Y4243632D01*
X1329767Y4243262D01*
X1329305Y4242523D01*
X1328750Y4241506D01*
X1328195Y4240396D01*
X1327733Y4239009D01*
X1327363Y4237438D01*
X1327271Y4235681D01*
Y4235126D01*
X1327363Y4234756D01*
X1327456Y4233647D01*
X1327825Y4232352D01*
X1328288Y4230781D01*
X1329027Y4229209D01*
X1330137Y4227545D01*
X1330784Y4226805D01*
X1331524Y4226065D01*
X1331616Y4225973D01*
X1331709Y4225881D01*
X1331986Y4225696D01*
X1332263Y4225418D01*
X1333280Y4224771D01*
X1334575Y4224031D01*
X1336146Y4223384D01*
X1338088Y4222737D01*
X1340399Y4222275D01*
X1341601Y4222090D01*
X1342896D01*
X1342988D01*
X1343173D01*
X1343543D01*
X1344005Y4222182D01*
X1344560D01*
X1345207Y4222275D01*
X1346686Y4222552D01*
X1348443Y4223014D01*
X1350200Y4223662D01*
X1351864Y4224586D01*
X1353436Y4225881D01*
X1353528D01*
X1353621Y4226065D01*
X1354083Y4226528D01*
X1354730Y4227360D01*
X1355470Y4228469D01*
X1356117Y4229949D01*
X1356764Y4231613D01*
X1357226Y4233554D01*
X1357411Y4234664D01*
Y4236421D01*
X1357319Y4237160D01*
X1357226Y4238085D01*
X1356949Y4239194D01*
X1356672Y4240304D01*
X1356209Y4241506D01*
X1355655Y4242708D01*
X1355562Y4242800D01*
X1355377Y4243170D01*
X1354915Y4243725D01*
X1354453Y4244464D01*
X1353806Y4245204D01*
X1352973Y4245944D01*
X1352141Y4246776D01*
X1351124Y4247423D01*
X1352141Y4254819D01*
X1385056Y4248625D01*
Y4216820D01*
X1377567D01*
Y4242430D01*
X1360277Y4245851D01*
X1360370Y4245759D01*
X1360462Y4245574D01*
X1360647Y4245296D01*
X1360925Y4244834D01*
X1361202Y4244279D01*
X1361572Y4243632D01*
X1362311Y4242153D01*
X1363051Y4240304D01*
X1363698Y4238270D01*
X1364161Y4236051D01*
X1364346Y4234941D01*
Y4232907D01*
X1364253Y4232352D01*
X1364161Y4231613D01*
X1364068Y4230781D01*
X1363883Y4229856D01*
X1363606Y4228839D01*
X1362959Y4226620D01*
X1362496Y4225418D01*
X1361849Y4224216D01*
X1361202Y4223014D01*
X1360462Y4221812D01*
X1359538Y4220703D01*
X1358521Y4219594D01*
X1358428Y4219501D01*
X1358243Y4219316D01*
X1357966Y4219039D01*
X1357504Y4218669D01*
X1356857Y4218207D01*
X1356209Y4217744D01*
X1355377Y4217190D01*
X1354453Y4216635D01*
X1353436Y4216173D01*
X1352326Y4215618D01*
X1351032Y4215156D01*
X1349737Y4214693D01*
X1348351Y4214324D01*
X1346779Y4214046D01*
X1345207Y4213861D01*
X1343543Y4213769D01*
X1343450D01*
X1343173D01*
X1342711D01*
X1342064Y4213861D01*
X1341324Y4213954D01*
X1340492Y4214046D01*
X1339475Y4214231D01*
X1338458Y4214416D01*
X1336054Y4214971D01*
X1333558Y4215895D01*
X1332263Y4216450D01*
X1331061Y4217190D01*
X1329767Y4217929D01*
X1328565Y4218854D01*
X1328473Y4218946D01*
X1328195Y4219131D01*
X1327825Y4219501D01*
X1327363Y4219963D01*
X1326808Y4220611D01*
X1326069Y4221350D01*
X1325422Y4222275D01*
X1324682Y4223292D01*
X1323942Y4224401D01*
X1323295Y4225696D01*
X1322648Y4227082D01*
X1322001Y4228562D01*
X1321538Y4230134D01*
X1321169Y4231890D01*
X1320891Y4233739D01*
X1320799Y4235681D01*
Y4236513D01*
X1320891Y4237160D01*
X1320984Y4237900D01*
X1321076Y4238732D01*
X1321169Y4239749D01*
X1321446Y4240766D01*
X1322001Y4243077D01*
X1322833Y4245389D01*
X1323387Y4246591D01*
X1324035Y4247793D01*
X1324774Y4248902D01*
X1325606Y4250012D01*
X1325699Y4250104D01*
X1325791Y4250289D01*
X1326161Y4250474D01*
X1326531Y4250844D01*
X1326993Y4251306D01*
X1327548Y4251768D01*
X1328288Y4252323D01*
X1329120Y4252785D01*
X1329952Y4253340D01*
X1330969Y4253895D01*
X1333188Y4254912D01*
X1335777Y4255744D01*
X1337163Y4256021D01*
X1338643Y4256206D01*
X1339290Y4247978D01*
D02*
G37*
G36*
X911524Y4319908D02*
X912449D01*
X913374Y4319816D01*
X914576Y4319723D01*
X915777Y4319538D01*
X918459Y4319076D01*
X921417Y4318429D01*
X924376Y4317504D01*
X927242Y4316210D01*
X927334Y4316118D01*
X927612Y4316025D01*
X927982Y4315840D01*
X928444Y4315470D01*
X929091Y4315101D01*
X929831Y4314638D01*
X931495Y4313436D01*
X933344Y4311865D01*
X935193Y4310016D01*
X937042Y4307889D01*
X938614Y4305393D01*
X938707Y4305300D01*
X938799Y4305023D01*
X938984Y4304653D01*
X939261Y4304191D01*
X939539Y4303451D01*
X939816Y4302711D01*
X940186Y4301787D01*
X940556Y4300770D01*
X940925Y4299660D01*
X941295Y4298459D01*
X941850Y4295870D01*
X942312Y4292911D01*
X942497Y4289860D01*
Y4288936D01*
X942405Y4288288D01*
X942312Y4287456D01*
X942220Y4286439D01*
X942127Y4285422D01*
X941850Y4284220D01*
X941295Y4281724D01*
X940463Y4278950D01*
X939908Y4277563D01*
X939261Y4276269D01*
X938429Y4274975D01*
X937597Y4273680D01*
X937505Y4273588D01*
X937412Y4273403D01*
X937135Y4273033D01*
X936672Y4272571D01*
X936210Y4272109D01*
X935563Y4271461D01*
X934823Y4270814D01*
X934084Y4270075D01*
X933159Y4269335D01*
X932050Y4268595D01*
X930940Y4267763D01*
X929738Y4267023D01*
X928351Y4266376D01*
X926965Y4265637D01*
X925485Y4265082D01*
X923821Y4264527D01*
X921880Y4272848D01*
X921972D01*
X922157Y4272941D01*
X922527Y4273126D01*
X922989Y4273310D01*
X923544Y4273495D01*
X924283Y4273773D01*
X925763Y4274512D01*
X927427Y4275437D01*
X929091Y4276546D01*
X930663Y4277933D01*
X932050Y4279413D01*
X932235Y4279597D01*
X932604Y4280152D01*
X933067Y4281077D01*
X933714Y4282279D01*
X934269Y4283850D01*
X934823Y4285607D01*
X935193Y4287734D01*
X935286Y4290045D01*
Y4290785D01*
X935193Y4291247D01*
Y4291894D01*
X935101Y4292634D01*
X934823Y4294390D01*
X934454Y4296332D01*
X933806Y4298366D01*
X932882Y4300493D01*
X931680Y4302434D01*
Y4302527D01*
X931495Y4302619D01*
X931033Y4303266D01*
X930293Y4304098D01*
X929184Y4305115D01*
X927797Y4306317D01*
X926225Y4307427D01*
X924283Y4308444D01*
X922157Y4309368D01*
X922064D01*
X921880Y4309461D01*
X921602Y4309553D01*
X921140Y4309646D01*
X920585Y4309831D01*
X919938Y4310016D01*
X918366Y4310293D01*
X916517Y4310663D01*
X914483Y4311033D01*
X912264Y4311217D01*
X909860Y4311310D01*
X909768D01*
X909490D01*
X909028D01*
X908473D01*
X907826Y4311217D01*
X906994D01*
X906070Y4311125D01*
X905053Y4311033D01*
X902834Y4310755D01*
X900430Y4310293D01*
X898026Y4309738D01*
X895622Y4308998D01*
X895530D01*
X895345Y4308906D01*
X895067Y4308721D01*
X894605Y4308536D01*
X893496Y4307981D01*
X892201Y4307149D01*
X890722Y4306132D01*
X889150Y4304838D01*
X887763Y4303359D01*
X886469Y4301602D01*
Y4301510D01*
X886376Y4301325D01*
X886192Y4301047D01*
X886007Y4300677D01*
X885822Y4300215D01*
X885544Y4299660D01*
X884990Y4298366D01*
X884435Y4296702D01*
X883973Y4294853D01*
X883603Y4292819D01*
X883510Y4290692D01*
Y4290045D01*
X883603Y4289490D01*
Y4288843D01*
X883695Y4288196D01*
X884065Y4286532D01*
X884527Y4284590D01*
X885267Y4282649D01*
X886284Y4280615D01*
X886839Y4279597D01*
X887578Y4278673D01*
X887671Y4278580D01*
X887763Y4278488D01*
X888041Y4278211D01*
X888318Y4277841D01*
X888780Y4277471D01*
X889335Y4277009D01*
X889890Y4276454D01*
X890629Y4275992D01*
X891462Y4275437D01*
X892386Y4274790D01*
X893311Y4274235D01*
X894420Y4273680D01*
X895622Y4273218D01*
X896916Y4272756D01*
X898303Y4272293D01*
X899783Y4271924D01*
X897656Y4263418D01*
X897564D01*
X897194Y4263510D01*
X896639Y4263695D01*
X895899Y4263972D01*
X895067Y4264250D01*
X894050Y4264620D01*
X892941Y4265082D01*
X891739Y4265637D01*
X889150Y4266931D01*
X886561Y4268595D01*
X885267Y4269612D01*
X883973Y4270629D01*
X882863Y4271739D01*
X881754Y4273033D01*
X881661Y4273126D01*
X881476Y4273310D01*
X881291Y4273773D01*
X880922Y4274235D01*
X880459Y4274975D01*
X879997Y4275714D01*
X879535Y4276731D01*
X879072Y4277748D01*
X878518Y4278950D01*
X878055Y4280245D01*
X877593Y4281632D01*
X877131Y4283111D01*
X876761Y4284683D01*
X876576Y4286347D01*
X876391Y4288103D01*
X876299Y4289953D01*
Y4290970D01*
X876391Y4291709D01*
Y4292541D01*
X876484Y4293558D01*
X876669Y4294668D01*
X876853Y4295962D01*
X877316Y4298643D01*
X878055Y4301417D01*
X879072Y4304191D01*
X879720Y4305485D01*
X880459Y4306780D01*
X880552Y4306872D01*
X880644Y4307057D01*
X880922Y4307427D01*
X881291Y4307797D01*
X881661Y4308351D01*
X882216Y4308998D01*
X882863Y4309738D01*
X883603Y4310478D01*
X884435Y4311217D01*
X885267Y4312050D01*
X887393Y4313714D01*
X889890Y4315286D01*
X892663Y4316672D01*
X892756D01*
X893033Y4316857D01*
X893496Y4316950D01*
X894050Y4317227D01*
X894790Y4317412D01*
X895714Y4317689D01*
X896732Y4318059D01*
X897841Y4318337D01*
X899043Y4318614D01*
X900430Y4318984D01*
X903296Y4319446D01*
X906532Y4319816D01*
X909860Y4320001D01*
X909953D01*
X910323D01*
X910877D01*
X911524Y4319908D01*
D02*
G37*
G36*
X941388Y4229579D02*
Y4223199D01*
X899967D01*
Y4214508D01*
X892756D01*
Y4223199D01*
X877408D01*
Y4231058D01*
X892756D01*
Y4258887D01*
X899967D01*
X941388Y4229579D01*
D02*
G37*
G36*
X746409Y7492908D02*
X747241D01*
X748258Y7492816D01*
X749368Y7492631D01*
X750662Y7492446D01*
X753343Y7491984D01*
X756117Y7491244D01*
X758891Y7490227D01*
X760185Y7489580D01*
X761480Y7488840D01*
X761572Y7488748D01*
X761757Y7488655D01*
X762127Y7488378D01*
X762497Y7488008D01*
X763051Y7487638D01*
X763698Y7487084D01*
X764438Y7486436D01*
X765178Y7485697D01*
X765917Y7484865D01*
X766750Y7484033D01*
X768414Y7481906D01*
X769986Y7479410D01*
X771372Y7476636D01*
Y7476544D01*
X771557Y7476266D01*
X771650Y7475804D01*
X771927Y7475249D01*
X772112Y7474510D01*
X772389Y7473585D01*
X772759Y7472568D01*
X773037Y7471459D01*
X773314Y7470257D01*
X773684Y7468870D01*
X774146Y7466004D01*
X774516Y7462768D01*
X774701Y7459439D01*
Y7459347D01*
Y7458977D01*
Y7458422D01*
X774608Y7457775D01*
Y7456850D01*
X774516Y7455926D01*
X774423Y7454724D01*
X774238Y7453522D01*
X773776Y7450841D01*
X773129Y7447882D01*
X772204Y7444924D01*
X770910Y7442058D01*
X770818Y7441965D01*
X770725Y7441688D01*
X770540Y7441318D01*
X770170Y7440856D01*
X769801Y7440208D01*
X769338Y7439469D01*
X768136Y7437805D01*
X766565Y7435955D01*
X764716Y7434106D01*
X762589Y7432257D01*
X760093Y7430685D01*
X760000Y7430593D01*
X759723Y7430501D01*
X759353Y7430316D01*
X758891Y7430038D01*
X758151Y7429761D01*
X757411Y7429483D01*
X756487Y7429114D01*
X755470Y7428744D01*
X754360Y7428374D01*
X753159Y7428004D01*
X750570Y7427449D01*
X747611Y7426987D01*
X744560Y7426802D01*
X743636D01*
X742988Y7426895D01*
X742156Y7426987D01*
X741139Y7427080D01*
X740122Y7427172D01*
X738920Y7427449D01*
X736424Y7428004D01*
X733650Y7428836D01*
X732263Y7429391D01*
X730969Y7430038D01*
X729675Y7430870D01*
X728380Y7431702D01*
X728288Y7431795D01*
X728103Y7431887D01*
X727733Y7432165D01*
X727271Y7432627D01*
X726809Y7433089D01*
X726161Y7433736D01*
X725514Y7434476D01*
X724775Y7435216D01*
X724035Y7436140D01*
X723295Y7437250D01*
X722463Y7438359D01*
X721723Y7439561D01*
X721076Y7440948D01*
X720337Y7442335D01*
X719782Y7443814D01*
X719227Y7445478D01*
X727548Y7447420D01*
Y7447327D01*
X727641Y7447143D01*
X727826Y7446773D01*
X728010Y7446310D01*
X728195Y7445756D01*
X728473Y7445016D01*
X729212Y7443537D01*
X730137Y7441873D01*
X731246Y7440208D01*
X732633Y7438637D01*
X734113Y7437250D01*
X734297Y7437065D01*
X734852Y7436695D01*
X735777Y7436233D01*
X736979Y7435586D01*
X738550Y7435031D01*
X740307Y7434476D01*
X742434Y7434106D01*
X744745Y7434014D01*
X745485D01*
X745947Y7434106D01*
X746594D01*
X747334Y7434199D01*
X749090Y7434476D01*
X751032Y7434846D01*
X753066Y7435493D01*
X755193Y7436418D01*
X757134Y7437620D01*
X757227D01*
X757319Y7437805D01*
X757966Y7438267D01*
X758798Y7439006D01*
X759815Y7440116D01*
X761017Y7441503D01*
X762127Y7443075D01*
X763144Y7445016D01*
X764068Y7447143D01*
Y7447235D01*
X764161Y7447420D01*
X764253Y7447697D01*
X764346Y7448160D01*
X764531Y7448714D01*
X764716Y7449362D01*
X764993Y7450933D01*
X765363Y7452782D01*
X765733Y7454816D01*
X765917Y7457035D01*
X766010Y7459439D01*
Y7459532D01*
Y7459809D01*
Y7460271D01*
Y7460826D01*
X765917Y7461473D01*
Y7462305D01*
X765825Y7463230D01*
X765733Y7464247D01*
X765455Y7466466D01*
X764993Y7468870D01*
X764438Y7471274D01*
X763698Y7473677D01*
Y7473770D01*
X763606Y7473955D01*
X763421Y7474232D01*
X763236Y7474694D01*
X762681Y7475804D01*
X761849Y7477098D01*
X760832Y7478578D01*
X759538Y7480149D01*
X758059Y7481536D01*
X756302Y7482831D01*
X756210D01*
X756025Y7482923D01*
X755747Y7483108D01*
X755377Y7483293D01*
X754915Y7483478D01*
X754360Y7483755D01*
X753066Y7484310D01*
X751402Y7484865D01*
X749553Y7485327D01*
X747519Y7485697D01*
X745392Y7485789D01*
X744745D01*
X744190Y7485697D01*
X743543D01*
X742896Y7485604D01*
X741232Y7485234D01*
X739290Y7484772D01*
X737349Y7484033D01*
X735315Y7483016D01*
X734297Y7482461D01*
X733373Y7481721D01*
X733280Y7481629D01*
X733188Y7481536D01*
X732911Y7481259D01*
X732541Y7480981D01*
X732171Y7480519D01*
X731709Y7479964D01*
X731154Y7479410D01*
X730692Y7478670D01*
X730137Y7477838D01*
X729490Y7476913D01*
X728935Y7475989D01*
X728380Y7474879D01*
X727918Y7473677D01*
X727456Y7472383D01*
X726993Y7470996D01*
X726624Y7469517D01*
X718118Y7471643D01*
Y7471736D01*
X718210Y7472106D01*
X718395Y7472660D01*
X718672Y7473400D01*
X718950Y7474232D01*
X719320Y7475249D01*
X719782Y7476359D01*
X720337Y7477561D01*
X721631Y7480149D01*
X723295Y7482738D01*
X724312Y7484033D01*
X725329Y7485327D01*
X726439Y7486436D01*
X727733Y7487546D01*
X727826Y7487638D01*
X728010Y7487823D01*
X728473Y7488008D01*
X728935Y7488378D01*
X729675Y7488840D01*
X730414Y7489303D01*
X731431Y7489765D01*
X732448Y7490227D01*
X733650Y7490782D01*
X734945Y7491244D01*
X736332Y7491706D01*
X737811Y7492169D01*
X739383Y7492538D01*
X741047Y7492723D01*
X742803Y7492908D01*
X744653Y7493001D01*
X745670D01*
X746409Y7492908D01*
D02*
G37*
G36*
X689179Y7441873D02*
X689271Y7441965D01*
X689734Y7442335D01*
X690288Y7442890D01*
X691213Y7443537D01*
X692230Y7444369D01*
X693524Y7445293D01*
X695004Y7446310D01*
X696668Y7447327D01*
X696760D01*
X696853Y7447420D01*
X697408Y7447790D01*
X698332Y7448252D01*
X699442Y7448807D01*
X700736Y7449454D01*
X702123Y7450101D01*
X703510Y7450748D01*
X704896Y7451303D01*
Y7443722D01*
X704804D01*
X704619Y7443537D01*
X704249Y7443444D01*
X703787Y7443167D01*
X703232Y7442890D01*
X702585Y7442520D01*
X701013Y7441595D01*
X699164Y7440578D01*
X697315Y7439284D01*
X695374Y7437805D01*
X693432Y7436233D01*
X693339Y7436140D01*
X693247Y7436048D01*
X692970Y7435770D01*
X692600Y7435493D01*
X691768Y7434569D01*
X690658Y7433459D01*
X689549Y7432165D01*
X688347Y7430685D01*
X687330Y7429206D01*
X686405Y7427634D01*
X681320D01*
Y7491891D01*
X689179D01*
Y7441873D01*
D02*
G37*
%LPC*%
G36*
X1799818Y4247515D02*
X1799633D01*
X1799171D01*
X1798339Y4247423D01*
X1797322Y4247330D01*
X1796120Y4247145D01*
X1794826Y4246776D01*
X1793439Y4246406D01*
X1792052Y4245851D01*
X1791867Y4245759D01*
X1791405Y4245481D01*
X1790758Y4245111D01*
X1789926Y4244557D01*
X1789093Y4243909D01*
X1788076Y4243077D01*
X1787244Y4242153D01*
X1786412Y4241043D01*
X1786320Y4240858D01*
X1786135Y4240489D01*
X1785765Y4239841D01*
X1785488Y4239009D01*
X1785118Y4238085D01*
X1784748Y4236975D01*
X1784563Y4235773D01*
X1784471Y4234479D01*
Y4234017D01*
X1784563Y4233647D01*
X1784656Y4232722D01*
X1784933Y4231520D01*
X1785488Y4230226D01*
X1786135Y4228747D01*
X1787152Y4227267D01*
X1787707Y4226528D01*
X1788446Y4225881D01*
X1788539D01*
X1788631Y4225696D01*
X1789186Y4225326D01*
X1790110Y4224771D01*
X1791312Y4224031D01*
X1792884Y4223384D01*
X1794733Y4222830D01*
X1796860Y4222460D01*
X1799356Y4222275D01*
X1799449D01*
X1799633D01*
X1800003D01*
X1800466Y4222367D01*
X1801020D01*
X1801667Y4222460D01*
X1803147Y4222737D01*
X1804811Y4223107D01*
X1806568Y4223754D01*
X1808232Y4224679D01*
X1809804Y4225881D01*
X1809989Y4226065D01*
X1810451Y4226528D01*
X1811006Y4227267D01*
X1811745Y4228284D01*
X1812485Y4229579D01*
X1813040Y4231058D01*
X1813502Y4232815D01*
X1813687Y4234756D01*
Y4235311D01*
X1813594Y4235681D01*
X1813502Y4236605D01*
X1813224Y4237900D01*
X1812762Y4239287D01*
X1812023Y4240858D01*
X1811098Y4242338D01*
X1809804Y4243817D01*
X1809619Y4244002D01*
X1809156Y4244372D01*
X1808324Y4245019D01*
X1807122Y4245666D01*
X1805736Y4246313D01*
X1803979Y4246961D01*
X1802037Y4247330D01*
X1799818Y4247515D01*
D02*
G37*
G36*
X899967Y4251213D02*
Y4231058D01*
X928629D01*
X899967Y4251213D01*
D02*
G37*
%LPD*%
D32*
X1942800Y2231300D02*
X2222800D01*
X1942800Y1811300D02*
Y2231300D01*
Y1811300D02*
X2222800D01*
Y2231300D01*
X5035100Y7264100D02*
Y7544100D01*
Y7264100D02*
X5455100D01*
Y7544100D01*
X5035100D02*
X5455100D01*
X5035100Y6806900D02*
Y7086900D01*
Y6806900D02*
X5455100D01*
Y7086900D01*
X5035100D02*
X5455100D01*
X1638000Y4530000D02*
X1918000D01*
X1638000Y4110000D02*
Y4530000D01*
Y4110000D02*
X1918000D01*
Y4530000D01*
X1180800D02*
X1460800D01*
X1180800Y4110000D02*
Y4530000D01*
Y4110000D02*
X1460800D01*
Y4530000D01*
X736300D02*
X1016300D01*
X736300Y4110000D02*
Y4530000D01*
Y4110000D02*
X1016300D01*
Y4530000D01*
X984700Y7353000D02*
Y7633000D01*
X564700D02*
X984700D01*
X564700Y7353000D02*
Y7633000D01*
Y7353000D02*
X984700D01*
%TF.MD5,18e2f592f6e62802800ebd04a1322633*%
M02*
