%TF.GenerationSoftware,Altium Limited,Altium Designer,23.5.1 (21)*%
G04 Layer_Color=255*
%FSLAX45Y45*%
%MOMM*%
%TF.SameCoordinates,7ECB1A03-3DEC-426C-BD6E-5A7E68E82EE6*%
%TF.FilePolarity,Positive*%
%TF.FileFunction,Pads,Bot*%
%TF.Part,Single*%
G01*
G75*
%TA.AperFunction,ComponentPad*%
%ADD13R,1.50000X1.50000*%
%ADD14C,1.50000*%
%ADD15C,1.13000*%
%ADD16R,1.13000X1.13000*%
%ADD17R,1.13000X1.13000*%
%ADD18R,1.21800X1.21800*%
%ADD19C,1.21800*%
%ADD20C,1.20000*%
%ADD21R,1.20000X1.20000*%
%ADD22C,1.25000*%
%ADD23R,1.25000X1.25000*%
%ADD24R,1.25000X1.25000*%
%ADD25R,1.50000X1.50000*%
%ADD26R,1.20000X1.20000*%
%ADD27C,1.52000*%
G04:AMPARAMS|DCode=28|XSize=1.52mm|YSize=1.52mm|CornerRadius=0.38mm|HoleSize=0mm|Usage=FLASHONLY|Rotation=0.000|XOffset=0mm|YOffset=0mm|HoleType=Round|Shape=RoundedRectangle|*
%AMROUNDEDRECTD28*
21,1,1.52000,0.76000,0,0,0.0*
21,1,0.76000,1.52000,0,0,0.0*
1,1,0.76000,0.38000,-0.38000*
1,1,0.76000,-0.38000,-0.38000*
1,1,0.76000,-0.38000,0.38000*
1,1,0.76000,0.38000,0.38000*
%
%ADD28ROUNDEDRECTD28*%
%ADD29C,2.50000*%
D13*
X6400800Y3860800D02*
D03*
X2463800Y4940300D02*
D03*
X4076700Y3860800D02*
D03*
X3124200Y7086600D02*
D03*
X6400800Y4940300D02*
D03*
X3924300Y5496225D02*
D03*
X4686300Y7277100D02*
D03*
D14*
X6146800Y3860800D02*
D03*
X5892800D02*
D03*
X5638800D02*
D03*
X5384800D02*
D03*
X5130800D02*
D03*
X4876800D02*
D03*
X4622800D02*
D03*
X6400800Y3098800D02*
D03*
X6146800D02*
D03*
X5892800D02*
D03*
X5638800D02*
D03*
X5384800D02*
D03*
X5130800D02*
D03*
X4876800D02*
D03*
X4622800D02*
D03*
X3987800Y4178300D02*
D03*
X3733800D02*
D03*
X3479800D02*
D03*
X3225800D02*
D03*
X2971800D02*
D03*
X2717800D02*
D03*
X2463800D02*
D03*
X3987800Y4940300D02*
D03*
X3733800D02*
D03*
X3479800D02*
D03*
X3225800D02*
D03*
X2971800D02*
D03*
X2717800D02*
D03*
X3822700Y3860800D02*
D03*
X3568700D02*
D03*
X3314700D02*
D03*
X3060700D02*
D03*
X2806700D02*
D03*
X2552700D02*
D03*
X2298700D02*
D03*
X4076700Y3098800D02*
D03*
X3822700D02*
D03*
X3568700D02*
D03*
X3314700D02*
D03*
X3060700D02*
D03*
X2806700D02*
D03*
X2552700D02*
D03*
X2298700D02*
D03*
X2870200Y7086600D02*
D03*
X2616200D02*
D03*
X2362200D02*
D03*
X2108200D02*
D03*
X1854200D02*
D03*
X1600200D02*
D03*
X3124200Y6324600D02*
D03*
X2870200D02*
D03*
X2616200D02*
D03*
X2362200D02*
D03*
X2108200D02*
D03*
X1854200D02*
D03*
X1600200D02*
D03*
X5791200Y7023100D02*
D03*
Y6769100D02*
D03*
Y6515100D02*
D03*
Y6261100D02*
D03*
Y6007100D02*
D03*
Y5753100D02*
D03*
Y5499100D02*
D03*
X6553200Y7277100D02*
D03*
Y7023100D02*
D03*
Y6769100D02*
D03*
Y6515100D02*
D03*
Y6261100D02*
D03*
Y6007100D02*
D03*
Y5753100D02*
D03*
Y5499100D02*
D03*
X6146800Y4940300D02*
D03*
X5892800D02*
D03*
X5638800D02*
D03*
X5384800D02*
D03*
X5130800D02*
D03*
X4876800D02*
D03*
X4622800D02*
D03*
X6400800Y4178300D02*
D03*
X6146800D02*
D03*
X5892800D02*
D03*
X5638800D02*
D03*
X5384800D02*
D03*
X5130800D02*
D03*
X4876800D02*
D03*
X4622800D02*
D03*
X4686300Y6258225D02*
D03*
X4432300D02*
D03*
X4178300D02*
D03*
X3924300D02*
D03*
X4686300Y5496225D02*
D03*
X4432300D02*
D03*
X4178300D02*
D03*
X3924300Y6515100D02*
D03*
X4178300D02*
D03*
X4432300D02*
D03*
X4686300D02*
D03*
X3924300Y7277100D02*
D03*
X4178300D02*
D03*
X4432300D02*
D03*
D15*
X3246700Y5156200D02*
D03*
X2992700D02*
D03*
X2738700D02*
D03*
X2484700D02*
D03*
X2230700D02*
D03*
X1976700D02*
D03*
X1722700D02*
D03*
X1468700D02*
D03*
Y5950200D02*
D03*
X1722700D02*
D03*
X1976700D02*
D03*
X2230700D02*
D03*
X2484700D02*
D03*
X2738700D02*
D03*
X2992700D02*
D03*
X355600Y4902200D02*
D03*
Y5156200D02*
D03*
Y5410200D02*
D03*
Y5664200D02*
D03*
X1149600D02*
D03*
Y5410200D02*
D03*
Y5156200D02*
D03*
X1892300Y3632200D02*
D03*
Y3378200D02*
D03*
Y3124200D02*
D03*
Y2870200D02*
D03*
X1098300D02*
D03*
Y3124200D02*
D03*
Y3378200D02*
D03*
X1381000Y7747000D02*
D03*
Y8001000D02*
D03*
Y8255000D02*
D03*
Y8509000D02*
D03*
X2175000D02*
D03*
Y8255000D02*
D03*
Y8001000D02*
D03*
D16*
X3246700Y5950200D02*
D03*
D17*
X1149600Y4902200D02*
D03*
X1098300Y3632200D02*
D03*
X2175000Y7747000D02*
D03*
D18*
X3340100Y406400D02*
D03*
X5207000D02*
D03*
D19*
X3594100D02*
D03*
X3848100D02*
D03*
X4102100D02*
D03*
X4356100D02*
D03*
Y1930400D02*
D03*
X4102100D02*
D03*
X3848100D02*
D03*
X3594100D02*
D03*
X3340100D02*
D03*
X5461000Y406400D02*
D03*
X5715000D02*
D03*
X5969000D02*
D03*
X6223000D02*
D03*
Y1930400D02*
D03*
X5969000D02*
D03*
X5715000D02*
D03*
X5461000D02*
D03*
X5207000D02*
D03*
D20*
X2082800Y1896300D02*
D03*
X5370100Y7404100D02*
D03*
Y6946900D02*
D03*
X1778000Y4195000D02*
D03*
X1320800D02*
D03*
X876300D02*
D03*
X649700Y7493000D02*
D03*
D21*
X2082800Y2146300D02*
D03*
X1778000Y4445000D02*
D03*
X1320800D02*
D03*
X876300D02*
D03*
D22*
X965200Y6591300D02*
D03*
X711200Y6845300D02*
D03*
X787400Y7937500D02*
D03*
X1041400Y8191500D02*
D03*
X1701800Y2070100D02*
D03*
X1447800Y2324100D02*
D03*
D23*
X457200Y6591300D02*
D03*
X1193800Y2070100D02*
D03*
D24*
X787400Y8445500D02*
D03*
D25*
X5791200Y7277100D02*
D03*
D26*
X5120100Y7404100D02*
D03*
Y6946900D02*
D03*
X899700Y7493000D02*
D03*
D27*
X1600200Y9156700D02*
D03*
X1854200D02*
D03*
X2108200D02*
D03*
D28*
X1346200D02*
D03*
D29*
X4076700Y8661400D02*
D03*
X3076700D02*
D03*
X6202300D02*
D03*
X5202300D02*
D03*
%TF.MD5,8805f3f1baabd5a6f35e2579a695e4ed*%
M02*
