%TF.GenerationSoftware,Altium Limited,Altium Designer,23.5.1 (21)*%
G04 Layer_Physical_Order=2*
G04 Layer_Color=16711680*
%FSLAX45Y45*%
%MOMM*%
%TF.SameCoordinates,7ECB1A03-3DEC-426C-BD6E-5A7E68E82EE6*%
%TF.FilePolarity,Positive*%
%TF.FileFunction,Copper,L2,Bot,Signal*%
%TF.Part,Single*%
G01*
G75*
%TA.AperFunction,Conductor*%
%ADD12C,0.25400*%
%TA.AperFunction,ComponentPad*%
%ADD13R,1.50000X1.50000*%
%ADD14C,1.50000*%
%ADD15C,1.13000*%
%ADD16R,1.13000X1.13000*%
%ADD17R,1.13000X1.13000*%
%ADD18R,1.21800X1.21800*%
%ADD19C,1.21800*%
%ADD20C,1.20000*%
%ADD21R,1.20000X1.20000*%
%ADD22C,1.25000*%
%ADD23R,1.25000X1.25000*%
%ADD24R,1.25000X1.25000*%
%ADD25R,1.50000X1.50000*%
%ADD26R,1.20000X1.20000*%
%ADD27C,1.52000*%
G04:AMPARAMS|DCode=28|XSize=1.52mm|YSize=1.52mm|CornerRadius=0.38mm|HoleSize=0mm|Usage=FLASHONLY|Rotation=0.000|XOffset=0mm|YOffset=0mm|HoleType=Round|Shape=RoundedRectangle|*
%AMROUNDEDRECTD28*
21,1,1.52000,0.76000,0,0,0.0*
21,1,0.76000,1.52000,0,0,0.0*
1,1,0.76000,0.38000,-0.38000*
1,1,0.76000,-0.38000,-0.38000*
1,1,0.76000,-0.38000,0.38000*
1,1,0.76000,0.38000,0.38000*
%
%ADD28ROUNDEDRECTD28*%
%ADD29C,2.50000*%
%TA.AperFunction,ViaPad*%
%ADD30C,0.60000*%
%ADD31C,1.27000*%
G36*
X6700000Y5660885D02*
X6687300Y5655625D01*
X6630806Y5712118D01*
X6634923Y5719249D01*
X6640900Y5741554D01*
Y5764646D01*
X6634923Y5786951D01*
X6623377Y5806949D01*
X6607049Y5823277D01*
X6587051Y5834823D01*
X6564746Y5840800D01*
X6541654D01*
X6519349Y5834823D01*
X6499351Y5823277D01*
X6483023Y5806949D01*
X6471477Y5786951D01*
X6465500Y5764646D01*
Y5741554D01*
X6471477Y5719249D01*
X6483023Y5699251D01*
X6499351Y5682923D01*
X6519349Y5671377D01*
X6541654Y5665400D01*
X6564746D01*
X6587051Y5671377D01*
X6594182Y5675494D01*
X6654302Y5615373D01*
Y4531927D01*
X6390073Y4267698D01*
X6367852D01*
X6357942Y4265726D01*
X6349540Y4260112D01*
X6244524Y4155097D01*
X6233138Y4161671D01*
X6234500Y4166754D01*
Y4189846D01*
X6228523Y4212151D01*
X6216977Y4232149D01*
X6200649Y4248477D01*
X6180651Y4260023D01*
X6172698Y4262154D01*
Y4673600D01*
X6170726Y4683511D01*
X6165112Y4691912D01*
X6062500Y4794525D01*
Y4809094D01*
X6055999Y4824787D01*
X6043987Y4836799D01*
X6028294Y4843300D01*
X6011306D01*
X5995613Y4836799D01*
X5983601Y4824787D01*
X5977100Y4809094D01*
Y4792106D01*
X5983601Y4776413D01*
X5995613Y4764401D01*
X6011306Y4757900D01*
X6025875D01*
X6120902Y4662873D01*
Y4262154D01*
X6112949Y4260023D01*
X6092951Y4248477D01*
X6076623Y4232149D01*
X6065077Y4212151D01*
X6059100Y4189846D01*
Y4166754D01*
X6065077Y4144449D01*
X6076623Y4124451D01*
X6092951Y4108123D01*
X6112949Y4096577D01*
X6135254Y4090600D01*
X6158346D01*
X6163429Y4091962D01*
X6170003Y4080576D01*
X5995173Y3905745D01*
X5968118D01*
X5962977Y3914649D01*
X5946649Y3930977D01*
X5926651Y3942523D01*
X5904346Y3948500D01*
X5881254D01*
X5858949Y3942523D01*
X5838951Y3930977D01*
X5822623Y3914649D01*
X5811077Y3894651D01*
X5805100Y3872346D01*
Y3849254D01*
X5811077Y3826949D01*
X5822623Y3806951D01*
X5838951Y3790623D01*
X5858949Y3779077D01*
X5881254Y3773100D01*
X5904346D01*
X5926651Y3779077D01*
X5946649Y3790623D01*
X5962977Y3806951D01*
X5974523Y3826949D01*
X5980500Y3849254D01*
Y3853950D01*
X6005900D01*
X6015811Y3855921D01*
X6024212Y3861535D01*
X6049952Y3887275D01*
X6061339Y3880701D01*
X6059100Y3872346D01*
Y3849254D01*
X6065077Y3826949D01*
X6076623Y3806951D01*
X6092951Y3790623D01*
X6112949Y3779077D01*
X6135254Y3773100D01*
X6158346D01*
X6180651Y3779077D01*
X6200649Y3790623D01*
X6216977Y3806951D01*
X6228523Y3826949D01*
X6234500Y3849254D01*
Y3872346D01*
X6228523Y3894651D01*
X6216977Y3914649D01*
X6200649Y3930977D01*
X6180651Y3942523D01*
X6158346Y3948500D01*
X6135254D01*
X6126899Y3946261D01*
X6120325Y3957648D01*
X6307229Y4144552D01*
X6321277Y4140639D01*
X6330623Y4124451D01*
X6346951Y4108123D01*
X6366949Y4096577D01*
X6389254Y4090600D01*
X6412346D01*
X6434651Y4096577D01*
X6454649Y4108123D01*
X6470977Y4124451D01*
X6482523Y4144449D01*
X6488500Y4166754D01*
Y4189846D01*
X6482523Y4212151D01*
X6470977Y4232149D01*
X6454649Y4248477D01*
X6453422Y4257797D01*
X6642569Y4446944D01*
X6654302Y4442084D01*
Y3388927D01*
X6441782Y3176406D01*
X6434651Y3180523D01*
X6412346Y3186500D01*
X6389254D01*
X6366949Y3180523D01*
X6346951Y3168977D01*
X6330623Y3152649D01*
X6319077Y3132651D01*
X6313100Y3110346D01*
Y3087254D01*
X6319077Y3064949D01*
X6330623Y3044951D01*
X6346951Y3028623D01*
X6366949Y3017077D01*
X6389254Y3011100D01*
X6412346D01*
X6434651Y3017077D01*
X6454649Y3028623D01*
X6470977Y3044951D01*
X6482523Y3064949D01*
X6488500Y3087254D01*
Y3110346D01*
X6482523Y3132651D01*
X6478406Y3139782D01*
X6687300Y3348675D01*
X6700000Y3343415D01*
Y100000D01*
X100000D01*
Y9600000D01*
X6700000D01*
Y5660885D01*
D02*
G37*
%LPC*%
G36*
X2119878Y9245400D02*
X2114550D01*
Y9163050D01*
X2196900D01*
Y9168378D01*
X2190855Y9190937D01*
X2179178Y9211163D01*
X2162663Y9227678D01*
X2142437Y9239355D01*
X2119878Y9245400D01*
D02*
G37*
G36*
X2101850D02*
X2096522D01*
X2073963Y9239355D01*
X2053737Y9227678D01*
X2037222Y9211163D01*
X2025545Y9190937D01*
X2019500Y9168378D01*
Y9163050D01*
X2101850D01*
Y9245400D01*
D02*
G37*
G36*
X1865878D02*
X1860550D01*
Y9163050D01*
X1942900D01*
Y9168378D01*
X1936855Y9190937D01*
X1925178Y9211163D01*
X1908663Y9227678D01*
X1888437Y9239355D01*
X1865878Y9245400D01*
D02*
G37*
G36*
X1847850D02*
X1842522D01*
X1819963Y9239355D01*
X1799737Y9227678D01*
X1783222Y9211163D01*
X1771545Y9190937D01*
X1765500Y9168378D01*
Y9163050D01*
X1847850D01*
Y9245400D01*
D02*
G37*
G36*
X1942900Y9150350D02*
X1860550D01*
Y9068000D01*
X1865878D01*
X1888437Y9074045D01*
X1908663Y9085722D01*
X1925178Y9102237D01*
X1936855Y9122463D01*
X1942900Y9145022D01*
Y9150350D01*
D02*
G37*
G36*
X1847850D02*
X1765500D01*
Y9145022D01*
X1771545Y9122463D01*
X1783222Y9102237D01*
X1799737Y9085722D01*
X1819963Y9074045D01*
X1842522Y9068000D01*
X1847850D01*
Y9150350D01*
D02*
G37*
G36*
X1611878Y9245400D02*
X1588522D01*
X1565963Y9239355D01*
X1545737Y9227678D01*
X1529222Y9211163D01*
X1517545Y9190937D01*
X1511500Y9168378D01*
Y9145022D01*
X1517545Y9122463D01*
X1529222Y9102237D01*
X1545737Y9085722D01*
X1565963Y9074045D01*
X1588522Y9068000D01*
X1611878D01*
X1634437Y9074045D01*
X1654663Y9085722D01*
X1671178Y9102237D01*
X1682855Y9122463D01*
X1688900Y9145022D01*
Y9168378D01*
X1682855Y9190937D01*
X1671178Y9211163D01*
X1654663Y9227678D01*
X1634437Y9239355D01*
X1611878Y9245400D01*
D02*
G37*
G36*
X1384200Y9246393D02*
X1308200D01*
X1288418Y9242458D01*
X1271647Y9231253D01*
X1260442Y9214482D01*
X1256507Y9194700D01*
Y9118700D01*
X1260442Y9098918D01*
X1271647Y9082147D01*
X1288418Y9070942D01*
X1308200Y9067007D01*
X1384200D01*
X1403982Y9070942D01*
X1420753Y9082147D01*
X1431958Y9098918D01*
X1435893Y9118700D01*
Y9194700D01*
X1431958Y9214482D01*
X1420753Y9231253D01*
X1403982Y9242458D01*
X1384200Y9246393D01*
D02*
G37*
G36*
X6220429Y8799100D02*
X6208650D01*
Y8667750D01*
X6340000D01*
Y8679528D01*
X6330616Y8714550D01*
X6312488Y8745950D01*
X6286850Y8771587D01*
X6255450Y8789716D01*
X6220429Y8799100D01*
D02*
G37*
G36*
X6195950D02*
X6184172D01*
X6149150Y8789716D01*
X6117750Y8771587D01*
X6092113Y8745950D01*
X6073984Y8714550D01*
X6064600Y8679528D01*
Y8667750D01*
X6195950D01*
Y8799100D01*
D02*
G37*
G36*
X4094828D02*
X4083050D01*
Y8667750D01*
X4214400D01*
Y8679528D01*
X4205016Y8714550D01*
X4186887Y8745950D01*
X4161250Y8771587D01*
X4129850Y8789716D01*
X4094828Y8799100D01*
D02*
G37*
G36*
X4070350D02*
X4058572D01*
X4023550Y8789716D01*
X3992150Y8771587D01*
X3966513Y8745950D01*
X3948384Y8714550D01*
X3939000Y8679528D01*
Y8667750D01*
X4070350D01*
Y8799100D01*
D02*
G37*
G36*
X6340000Y8655050D02*
X6208650D01*
Y8523700D01*
X6220429D01*
X6255450Y8533084D01*
X6286850Y8551213D01*
X6312488Y8576850D01*
X6330616Y8608250D01*
X6340000Y8643272D01*
Y8655050D01*
D02*
G37*
G36*
X6195950D02*
X6064600D01*
Y8643272D01*
X6073984Y8608250D01*
X6092113Y8576850D01*
X6117750Y8551213D01*
X6149150Y8533084D01*
X6184172Y8523700D01*
X6195950D01*
Y8655050D01*
D02*
G37*
G36*
X5220428Y8799100D02*
X5184171D01*
X5149150Y8789716D01*
X5117750Y8771587D01*
X5092112Y8745950D01*
X5073984Y8714550D01*
X5064600Y8679528D01*
Y8643272D01*
X5073984Y8608250D01*
X5092112Y8576850D01*
X5117750Y8551213D01*
X5149150Y8533084D01*
X5184171Y8523700D01*
X5220428D01*
X5255450Y8533084D01*
X5286850Y8551213D01*
X5312487Y8576850D01*
X5330616Y8608250D01*
X5340000Y8643272D01*
Y8679528D01*
X5330616Y8714550D01*
X5312487Y8745950D01*
X5286850Y8771587D01*
X5255450Y8789716D01*
X5220428Y8799100D01*
D02*
G37*
G36*
X4214400Y8655050D02*
X4083050D01*
Y8523700D01*
X4094828D01*
X4129850Y8533084D01*
X4161250Y8551213D01*
X4186887Y8576850D01*
X4205016Y8608250D01*
X4214400Y8643272D01*
Y8655050D01*
D02*
G37*
G36*
X4070350D02*
X3939000D01*
Y8643272D01*
X3948384Y8608250D01*
X3966513Y8576850D01*
X3992150Y8551213D01*
X4023550Y8533084D01*
X4058572Y8523700D01*
X4070350D01*
Y8655050D01*
D02*
G37*
G36*
X3094828Y8799100D02*
X3058571D01*
X3023550Y8789716D01*
X2992150Y8771587D01*
X2966512Y8745950D01*
X2948384Y8714550D01*
X2939000Y8679528D01*
Y8643272D01*
X2948384Y8608250D01*
X2966512Y8576850D01*
X2992150Y8551213D01*
X3023550Y8533084D01*
X3058571Y8523700D01*
X3094828D01*
X3129850Y8533084D01*
X3161250Y8551213D01*
X3186887Y8576850D01*
X3205016Y8608250D01*
X3214400Y8643272D01*
Y8679528D01*
X3205016Y8714550D01*
X3186887Y8745950D01*
X3161250Y8771587D01*
X3129850Y8789716D01*
X3094828Y8799100D01*
D02*
G37*
G36*
X2184110Y8578200D02*
X2165889D01*
X2148290Y8573484D01*
X2132510Y8564374D01*
X2119626Y8551490D01*
X2110516Y8535710D01*
X2105800Y8518110D01*
Y8499890D01*
X2110516Y8482290D01*
X2119626Y8466510D01*
X2132510Y8453626D01*
X2148290Y8444516D01*
X2165889Y8439800D01*
X2184110D01*
X2201710Y8444516D01*
X2217490Y8453626D01*
X2230374Y8466510D01*
X2239484Y8482290D01*
X2244200Y8499890D01*
Y8518110D01*
X2239484Y8535710D01*
X2230374Y8551490D01*
X2217490Y8564374D01*
X2201710Y8573484D01*
X2184110Y8578200D01*
D02*
G37*
G36*
X1390111D02*
X1371890D01*
X1354290Y8573484D01*
X1338510Y8564374D01*
X1325626Y8551490D01*
X1316516Y8535710D01*
X1311800Y8518110D01*
Y8499890D01*
X1316516Y8482290D01*
X1325626Y8466510D01*
X1338510Y8453626D01*
X1354290Y8444516D01*
X1371890Y8439800D01*
X1390111D01*
X1407710Y8444516D01*
X1423490Y8453626D01*
X1436374Y8466510D01*
X1445484Y8482290D01*
X1450200Y8499890D01*
Y8518110D01*
X1445484Y8535710D01*
X1436374Y8551490D01*
X1423490Y8564374D01*
X1407710Y8573484D01*
X1390111Y8578200D01*
D02*
G37*
G36*
Y8324200D02*
X1371890D01*
X1354290Y8319484D01*
X1338510Y8310374D01*
X1325626Y8297490D01*
X1316516Y8281710D01*
X1311800Y8264110D01*
Y8245890D01*
X1316516Y8228290D01*
X1325626Y8212510D01*
X1338510Y8199626D01*
X1354290Y8190516D01*
X1371890Y8185800D01*
X1390111D01*
X1407710Y8190516D01*
X1423490Y8199626D01*
X1436374Y8212510D01*
X1445484Y8228290D01*
X1450200Y8245890D01*
Y8264110D01*
X1445484Y8281710D01*
X1436374Y8297490D01*
X1423490Y8310374D01*
X1407710Y8319484D01*
X1390111Y8324200D01*
D02*
G37*
G36*
X1051300Y8266700D02*
X1031500D01*
X1012374Y8261575D01*
X995226Y8251675D01*
X981225Y8237674D01*
X971325Y8220526D01*
X966200Y8201400D01*
Y8181600D01*
X971325Y8162474D01*
X981225Y8145326D01*
X995226Y8131325D01*
X1012374Y8121425D01*
X1031500Y8116300D01*
X1051300D01*
X1070426Y8121425D01*
X1087574Y8131325D01*
X1101575Y8145326D01*
X1111475Y8162474D01*
X1116600Y8181600D01*
Y8201400D01*
X1111475Y8220526D01*
X1101575Y8237674D01*
X1087574Y8251675D01*
X1070426Y8261575D01*
X1051300Y8266700D01*
D02*
G37*
G36*
X2184110Y8070200D02*
X2165889D01*
X2148290Y8065484D01*
X2132510Y8056374D01*
X2119626Y8043490D01*
X2110516Y8027710D01*
X2105800Y8010110D01*
Y7991890D01*
X2110516Y7974290D01*
X2119626Y7958510D01*
X2132510Y7945626D01*
X2148290Y7936516D01*
X2165889Y7931800D01*
X2184110D01*
X2201710Y7936516D01*
X2217490Y7945626D01*
X2230374Y7958510D01*
X2239484Y7974290D01*
X2244200Y7991890D01*
Y8010110D01*
X2239484Y8027710D01*
X2230374Y8043490D01*
X2217490Y8056374D01*
X2201710Y8065484D01*
X2184110Y8070200D01*
D02*
G37*
G36*
X1390111D02*
X1371890D01*
X1354290Y8065484D01*
X1338510Y8056374D01*
X1325626Y8043490D01*
X1316516Y8027710D01*
X1311800Y8010110D01*
Y7991890D01*
X1316516Y7974290D01*
X1325626Y7958510D01*
X1338510Y7945626D01*
X1354290Y7936516D01*
X1371890Y7931800D01*
X1390111D01*
X1407710Y7936516D01*
X1423490Y7945626D01*
X1436374Y7958510D01*
X1445484Y7974290D01*
X1450200Y7991890D01*
Y8010110D01*
X1445484Y8027710D01*
X1436374Y8043490D01*
X1423490Y8056374D01*
X1407710Y8065484D01*
X1390111Y8070200D01*
D02*
G37*
G36*
X797300Y8012700D02*
X777500D01*
X758374Y8007575D01*
X741226Y7997675D01*
X727225Y7983674D01*
X717325Y7966526D01*
X712200Y7947400D01*
Y7927600D01*
X717325Y7908474D01*
X727225Y7891326D01*
X741226Y7877325D01*
X758374Y7867425D01*
X777500Y7862300D01*
X797300D01*
X816426Y7867425D01*
X833574Y7877325D01*
X847575Y7891326D01*
X857475Y7908474D01*
X862600Y7927600D01*
Y7947400D01*
X857475Y7966526D01*
X847575Y7983674D01*
X833574Y7997675D01*
X816426Y8007575D01*
X797300Y8012700D01*
D02*
G37*
G36*
X2244200Y7816200D02*
X2181350D01*
Y7753350D01*
X2244200D01*
Y7816200D01*
D02*
G37*
G36*
X2196900Y9150350D02*
X2019500D01*
Y9145022D01*
X2025545Y9122463D01*
X2037222Y9102237D01*
X2053737Y9085722D01*
X2073963Y9074045D01*
X2082302Y9071810D01*
Y8684827D01*
X1912088Y8514612D01*
X1906474Y8506211D01*
X1904502Y8496300D01*
Y7991600D01*
X1906474Y7981689D01*
X1912088Y7973288D01*
X2105800Y7779575D01*
Y7753350D01*
X2168650D01*
Y7816200D01*
X2142425D01*
X1956298Y8002327D01*
Y8485573D01*
X2126512Y8655788D01*
X2132126Y8664189D01*
X2134098Y8674100D01*
Y9071810D01*
X2142437Y9074045D01*
X2162663Y9085722D01*
X2179178Y9102237D01*
X2190855Y9122463D01*
X2196900Y9145022D01*
Y9150350D01*
D02*
G37*
G36*
X2244200Y7740650D02*
X2181350D01*
Y7677800D01*
X2244200D01*
Y7740650D01*
D02*
G37*
G36*
X2168650D02*
X2105800D01*
Y7677800D01*
X2168650D01*
Y7740650D01*
D02*
G37*
G36*
X862600Y8520700D02*
X712200D01*
Y8370300D01*
X761502D01*
Y8242300D01*
X763474Y8232389D01*
X769088Y8223988D01*
X1264388Y7728688D01*
X1272789Y7723074D01*
X1282700Y7721102D01*
X1316298D01*
X1316516Y7720290D01*
X1325626Y7704510D01*
X1338510Y7691626D01*
X1354290Y7682516D01*
X1371890Y7677800D01*
X1390111D01*
X1407710Y7682516D01*
X1423490Y7691626D01*
X1436374Y7704510D01*
X1445484Y7720290D01*
X1450200Y7737890D01*
Y7756110D01*
X1445484Y7773710D01*
X1436374Y7789490D01*
X1423490Y7802374D01*
X1407710Y7811484D01*
X1390111Y7816200D01*
X1371890D01*
X1354290Y7811484D01*
X1338510Y7802374D01*
X1325626Y7789490D01*
X1316516Y7773710D01*
X1316298Y7772898D01*
X1293427D01*
X813298Y8253027D01*
Y8370300D01*
X862600D01*
Y8520700D01*
D02*
G37*
G36*
X659271Y7565700D02*
X656049D01*
Y7499350D01*
X722400D01*
Y7502571D01*
X717446Y7521061D01*
X707874Y7537639D01*
X694339Y7551174D01*
X677761Y7560746D01*
X659271Y7565700D01*
D02*
G37*
G36*
X643349D02*
X640129D01*
X621639Y7560746D01*
X605061Y7551174D01*
X591526Y7537639D01*
X581954Y7521061D01*
X577000Y7502571D01*
Y7499350D01*
X643349D01*
Y7565700D01*
D02*
G37*
G36*
X972400D02*
X827000D01*
Y7420300D01*
X972400D01*
Y7565700D01*
D02*
G37*
G36*
X722400Y7486650D02*
X656049D01*
Y7420300D01*
X659271D01*
X677761Y7425254D01*
X694339Y7434826D01*
X707874Y7448361D01*
X717446Y7464939D01*
X722400Y7483429D01*
Y7486650D01*
D02*
G37*
G36*
X643349D02*
X577000D01*
Y7483429D01*
X581954Y7464939D01*
X591526Y7448361D01*
X605061Y7434826D01*
X621639Y7425254D01*
X640129Y7420300D01*
X643349D01*
Y7486650D01*
D02*
G37*
G36*
X5379671Y7476800D02*
X5360529D01*
X5342039Y7471846D01*
X5325461Y7462274D01*
X5311926Y7448739D01*
X5302354Y7432161D01*
X5297400Y7413671D01*
Y7394529D01*
X5302354Y7376039D01*
X5311926Y7359461D01*
X5325461Y7345926D01*
X5342039Y7336354D01*
X5360529Y7331400D01*
X5379671D01*
X5398161Y7336354D01*
X5414739Y7345926D01*
X5428274Y7359461D01*
X5437846Y7376039D01*
X5442800Y7394529D01*
Y7413671D01*
X5437846Y7432161D01*
X5428274Y7448739D01*
X5414739Y7462274D01*
X5398161Y7471846D01*
X5379671Y7476800D01*
D02*
G37*
G36*
X5192800D02*
X5047400D01*
Y7331400D01*
X5192800D01*
Y7476800D01*
D02*
G37*
G36*
X4189846Y7364800D02*
X4184650D01*
Y7283450D01*
X4266000D01*
Y7288646D01*
X4260023Y7310951D01*
X4248477Y7330949D01*
X4232149Y7347277D01*
X4212151Y7358823D01*
X4189846Y7364800D01*
D02*
G37*
G36*
X5878900D02*
X5797550D01*
Y7283450D01*
X5878900D01*
Y7364800D01*
D02*
G37*
G36*
X5784850D02*
X5703500D01*
Y7283450D01*
X5784850D01*
Y7364800D01*
D02*
G37*
G36*
X4171950D02*
X4166754D01*
X4144449Y7358823D01*
X4124451Y7347277D01*
X4108123Y7330949D01*
X4096577Y7310951D01*
X4090600Y7288646D01*
Y7283450D01*
X4171950D01*
Y7364800D01*
D02*
G37*
G36*
X6564746D02*
X6541654D01*
X6519349Y7358823D01*
X6499351Y7347277D01*
X6483023Y7330949D01*
X6471477Y7310951D01*
X6465500Y7288646D01*
Y7265554D01*
X6471477Y7243249D01*
X6483023Y7223251D01*
X6499351Y7206923D01*
X6519349Y7195377D01*
X6541654Y7189400D01*
X6564746D01*
X6587051Y7195377D01*
X6607049Y7206923D01*
X6623377Y7223251D01*
X6634923Y7243249D01*
X6640900Y7265554D01*
Y7288646D01*
X6634923Y7310951D01*
X6623377Y7330949D01*
X6607049Y7347277D01*
X6587051Y7358823D01*
X6564746Y7364800D01*
D02*
G37*
G36*
X5878900Y7270750D02*
X5797550D01*
Y7189400D01*
X5878900D01*
Y7270750D01*
D02*
G37*
G36*
X5784850D02*
X5703500D01*
Y7189400D01*
X5784850D01*
Y7270750D01*
D02*
G37*
G36*
X4774000Y7364800D02*
X4598600D01*
Y7189400D01*
X4774000D01*
Y7364800D01*
D02*
G37*
G36*
X4443846D02*
X4420754D01*
X4398449Y7358823D01*
X4378451Y7347277D01*
X4362123Y7330949D01*
X4350577Y7310951D01*
X4344600Y7288646D01*
Y7265554D01*
X4350577Y7243249D01*
X4362123Y7223251D01*
X4378451Y7206923D01*
X4398449Y7195377D01*
X4420754Y7189400D01*
X4443846D01*
X4466151Y7195377D01*
X4486149Y7206923D01*
X4502477Y7223251D01*
X4514023Y7243249D01*
X4520000Y7265554D01*
Y7288646D01*
X4514023Y7310951D01*
X4502477Y7330949D01*
X4486149Y7347277D01*
X4466151Y7358823D01*
X4443846Y7364800D01*
D02*
G37*
G36*
X4266000Y7270750D02*
X4184650D01*
Y7189400D01*
X4189846D01*
X4212151Y7195377D01*
X4232149Y7206923D01*
X4248477Y7223251D01*
X4260023Y7243249D01*
X4266000Y7265554D01*
Y7270750D01*
D02*
G37*
G36*
X4171950D02*
X4090600D01*
Y7265554D01*
X4096577Y7243249D01*
X4108123Y7223251D01*
X4124451Y7206923D01*
X4144449Y7195377D01*
X4166754Y7189400D01*
X4171950D01*
Y7270750D01*
D02*
G37*
G36*
X3935846Y7364800D02*
X3912754D01*
X3890449Y7358823D01*
X3870451Y7347277D01*
X3854123Y7330949D01*
X3842577Y7310951D01*
X3836600Y7288646D01*
Y7265554D01*
X3842577Y7243249D01*
X3854123Y7223251D01*
X3870451Y7206923D01*
X3890449Y7195377D01*
X3912754Y7189400D01*
X3935846D01*
X3958151Y7195377D01*
X3978149Y7206923D01*
X3994477Y7223251D01*
X4006023Y7243249D01*
X4012000Y7265554D01*
Y7288646D01*
X4006023Y7310951D01*
X3994477Y7330949D01*
X3978149Y7347277D01*
X3958151Y7358823D01*
X3935846Y7364800D01*
D02*
G37*
G36*
X1611746Y7174300D02*
X1606550D01*
Y7092950D01*
X1687900D01*
Y7098146D01*
X1681923Y7120451D01*
X1670377Y7140449D01*
X1654049Y7156777D01*
X1634051Y7168323D01*
X1611746Y7174300D01*
D02*
G37*
G36*
X1593850D02*
X1588654D01*
X1566349Y7168323D01*
X1546351Y7156777D01*
X1530023Y7140449D01*
X1518477Y7120451D01*
X1512500Y7098146D01*
Y7092950D01*
X1593850D01*
Y7174300D01*
D02*
G37*
G36*
X3211900D02*
X3036500D01*
Y6998900D01*
X3211900D01*
Y7174300D01*
D02*
G37*
G36*
X2184110Y8324200D02*
X2165889D01*
X2148290Y8319484D01*
X2132510Y8310374D01*
X2119626Y8297490D01*
X2110516Y8281710D01*
X2105800Y8264110D01*
Y8245890D01*
X2110516Y8228290D01*
X2119626Y8212510D01*
X2132510Y8199626D01*
X2148290Y8190516D01*
X2165889Y8185800D01*
X2184110D01*
X2201710Y8190516D01*
X2202439Y8190936D01*
X2844302Y7549073D01*
Y7170454D01*
X2836349Y7168323D01*
X2816351Y7156777D01*
X2800023Y7140449D01*
X2788477Y7120451D01*
X2782500Y7098146D01*
Y7075054D01*
X2788477Y7052749D01*
X2800023Y7032751D01*
X2816351Y7016423D01*
X2836349Y7004877D01*
X2858654Y6998900D01*
X2881746D01*
X2904051Y7004877D01*
X2924049Y7016423D01*
X2940377Y7032751D01*
X2951923Y7052749D01*
X2957900Y7075054D01*
Y7098146D01*
X2951923Y7120451D01*
X2940377Y7140449D01*
X2924049Y7156777D01*
X2904051Y7168323D01*
X2896098Y7170454D01*
Y7559800D01*
X2894126Y7569711D01*
X2888512Y7578112D01*
X2239064Y8227561D01*
X2239484Y8228290D01*
X2244200Y8245890D01*
Y8264110D01*
X2239484Y8281710D01*
X2230374Y8297490D01*
X2217490Y8310374D01*
X2201710Y8319484D01*
X2184110Y8324200D01*
D02*
G37*
G36*
X2627746Y7174300D02*
X2604654D01*
X2582349Y7168323D01*
X2562351Y7156777D01*
X2546023Y7140449D01*
X2534477Y7120451D01*
X2528500Y7098146D01*
Y7075054D01*
X2534477Y7052749D01*
X2546023Y7032751D01*
X2562351Y7016423D01*
X2582349Y7004877D01*
X2604654Y6998900D01*
X2627746D01*
X2650051Y7004877D01*
X2670049Y7016423D01*
X2686377Y7032751D01*
X2697923Y7052749D01*
X2703900Y7075054D01*
Y7098146D01*
X2697923Y7120451D01*
X2686377Y7140449D01*
X2670049Y7156777D01*
X2650051Y7168323D01*
X2627746Y7174300D01*
D02*
G37*
G36*
X2373746D02*
X2350654D01*
X2328349Y7168323D01*
X2308351Y7156777D01*
X2292023Y7140449D01*
X2280477Y7120451D01*
X2274500Y7098146D01*
Y7075054D01*
X2280477Y7052749D01*
X2292023Y7032751D01*
X2308351Y7016423D01*
X2328349Y7004877D01*
X2350654Y6998900D01*
X2373746D01*
X2396051Y7004877D01*
X2416049Y7016423D01*
X2432377Y7032751D01*
X2443923Y7052749D01*
X2449900Y7075054D01*
Y7098146D01*
X2443923Y7120451D01*
X2432377Y7140449D01*
X2416049Y7156777D01*
X2396051Y7168323D01*
X2373746Y7174300D01*
D02*
G37*
G36*
X2119746D02*
X2096654D01*
X2074349Y7168323D01*
X2054351Y7156777D01*
X2038023Y7140449D01*
X2026477Y7120451D01*
X2020500Y7098146D01*
Y7075054D01*
X2026477Y7052749D01*
X2030594Y7045618D01*
X1696188Y6711212D01*
X1690574Y6702811D01*
X1688602Y6692900D01*
Y6372282D01*
X1675902Y6368879D01*
X1670377Y6378449D01*
X1654049Y6394777D01*
X1634051Y6406323D01*
X1611746Y6412300D01*
X1588654D01*
X1566349Y6406323D01*
X1546351Y6394777D01*
X1530023Y6378449D01*
X1518477Y6358451D01*
X1512500Y6336146D01*
Y6313054D01*
X1518477Y6290749D01*
X1530023Y6270751D01*
X1546351Y6254423D01*
X1566349Y6242877D01*
X1588654Y6236900D01*
X1611746D01*
X1634051Y6242877D01*
X1654049Y6254423D01*
X1670377Y6270751D01*
X1675902Y6280321D01*
X1688602Y6276918D01*
Y6209012D01*
X1594588Y6114997D01*
X1588974Y6106595D01*
X1587002Y6096685D01*
Y5097077D01*
X1531088Y5041162D01*
X1525474Y5032761D01*
X1523502Y5022850D01*
Y3586027D01*
X1125739Y3188264D01*
X1125010Y3188684D01*
X1107411Y3193400D01*
X1089190D01*
X1071590Y3188684D01*
X1055810Y3179574D01*
X1042926Y3166690D01*
X1033816Y3150910D01*
X1029100Y3133310D01*
Y3115090D01*
X1033816Y3097490D01*
X1042926Y3081710D01*
X1055810Y3068826D01*
X1071590Y3059716D01*
X1089190Y3055000D01*
X1107411D01*
X1125010Y3059716D01*
X1140790Y3068826D01*
X1153674Y3081710D01*
X1162784Y3097490D01*
X1167500Y3115090D01*
Y3133310D01*
X1162784Y3150910D01*
X1162364Y3151639D01*
X1567712Y3556988D01*
X1573326Y3565389D01*
X1575298Y3575300D01*
Y5012123D01*
X1631212Y5068038D01*
X1636826Y5076439D01*
X1638798Y5086350D01*
Y6085957D01*
X1732812Y6179972D01*
X1738426Y6188374D01*
X1740398Y6198285D01*
Y6682173D01*
X2067218Y7008994D01*
X2074349Y7004877D01*
X2096654Y6998900D01*
X2119746D01*
X2142051Y7004877D01*
X2162049Y7016423D01*
X2178377Y7032751D01*
X2189923Y7052749D01*
X2195900Y7075054D01*
Y7098146D01*
X2189923Y7120451D01*
X2178377Y7140449D01*
X2162049Y7156777D01*
X2142051Y7168323D01*
X2119746Y7174300D01*
D02*
G37*
G36*
X1865746D02*
X1842654D01*
X1820349Y7168323D01*
X1800351Y7156777D01*
X1784023Y7140449D01*
X1772477Y7120451D01*
X1766500Y7098146D01*
Y7075054D01*
X1772477Y7052749D01*
X1784023Y7032751D01*
X1800351Y7016423D01*
X1820349Y7004877D01*
X1842654Y6998900D01*
X1865746D01*
X1888051Y7004877D01*
X1908049Y7016423D01*
X1924377Y7032751D01*
X1935923Y7052749D01*
X1941900Y7075054D01*
Y7098146D01*
X1935923Y7120451D01*
X1924377Y7140449D01*
X1908049Y7156777D01*
X1888051Y7168323D01*
X1865746Y7174300D01*
D02*
G37*
G36*
X1687900Y7080250D02*
X1606550D01*
Y6998900D01*
X1611746D01*
X1634051Y7004877D01*
X1654049Y7016423D01*
X1670377Y7032751D01*
X1681923Y7052749D01*
X1687900Y7075054D01*
Y7080250D01*
D02*
G37*
G36*
X1593850D02*
X1512500D01*
Y7075054D01*
X1518477Y7052749D01*
X1522594Y7045618D01*
X1277088Y6800112D01*
X1271474Y6791711D01*
X1269502Y6781800D01*
Y4964127D01*
X1233473Y4928098D01*
X1218800D01*
Y4971400D01*
X1155950D01*
Y4902200D01*
X1149600D01*
Y4895850D01*
X1080400D01*
Y4833000D01*
X1123702D01*
Y4366200D01*
X1125674Y4356289D01*
X1131288Y4347888D01*
X1254174Y4225001D01*
X1253054Y4223061D01*
X1248100Y4204571D01*
Y4201350D01*
X1314450D01*
Y4267700D01*
X1311229D01*
X1292739Y4262746D01*
X1290799Y4261626D01*
X1175498Y4376927D01*
Y4833000D01*
X1218800D01*
Y4876302D01*
X1244200D01*
X1254111Y4878274D01*
X1262512Y4883888D01*
X1313712Y4935088D01*
X1319326Y4943489D01*
X1321298Y4953400D01*
Y6771073D01*
X1559218Y7008994D01*
X1566349Y7004877D01*
X1588654Y6998900D01*
X1593850D01*
Y7080250D01*
D02*
G37*
G36*
X6172200Y7175998D02*
X3556000D01*
X3546089Y7174026D01*
X3537688Y7168412D01*
X3265873Y6896598D01*
X2205549D01*
X2204607Y6900112D01*
X2194575Y6917488D01*
X2180388Y6931675D01*
X2163012Y6941707D01*
X2143632Y6946900D01*
X2123568D01*
X2104188Y6941707D01*
X2086812Y6931675D01*
X2072625Y6917488D01*
X2062593Y6900112D01*
X2057400Y6880732D01*
Y6860668D01*
X2062593Y6841288D01*
X2072625Y6823912D01*
X2086812Y6809725D01*
X2104188Y6799693D01*
X2123568Y6794500D01*
X2143632D01*
X2163012Y6799693D01*
X2180388Y6809725D01*
X2194575Y6823912D01*
X2204607Y6841288D01*
X2205549Y6844802D01*
X3276600D01*
X3286511Y6846774D01*
X3294912Y6852388D01*
X3566727Y7124202D01*
X6161473D01*
X6280888Y7004788D01*
X6289289Y6999174D01*
X6299200Y6997202D01*
X6469346D01*
X6471477Y6989249D01*
X6483023Y6969251D01*
X6499351Y6952923D01*
X6519349Y6941377D01*
X6541654Y6935400D01*
X6564746D01*
X6587051Y6941377D01*
X6607049Y6952923D01*
X6623377Y6969251D01*
X6634923Y6989249D01*
X6640900Y7011554D01*
Y7034646D01*
X6634923Y7056951D01*
X6623377Y7076949D01*
X6607049Y7093277D01*
X6587051Y7104823D01*
X6564746Y7110800D01*
X6541654D01*
X6519349Y7104823D01*
X6499351Y7093277D01*
X6483023Y7076949D01*
X6471477Y7056951D01*
X6469346Y7048998D01*
X6309927D01*
X6190512Y7168412D01*
X6182111Y7174026D01*
X6172200Y7175998D01*
D02*
G37*
G36*
X5802746Y7110800D02*
X5779654D01*
X5757349Y7104823D01*
X5737351Y7093277D01*
X5721023Y7076949D01*
X5709477Y7056951D01*
X5703500Y7034646D01*
Y7011554D01*
X5709477Y6989249D01*
X5721023Y6969251D01*
X5737351Y6952923D01*
X5757349Y6941377D01*
X5779654Y6935400D01*
X5802746D01*
X5825051Y6941377D01*
X5845049Y6952923D01*
X5861377Y6969251D01*
X5872923Y6989249D01*
X5878900Y7011554D01*
Y7034646D01*
X5872923Y7056951D01*
X5861377Y7076949D01*
X5845049Y7093277D01*
X5825051Y7104823D01*
X5802746Y7110800D01*
D02*
G37*
G36*
X5379671Y7019600D02*
X5360529D01*
X5342039Y7014646D01*
X5325461Y7005074D01*
X5311926Y6991539D01*
X5302354Y6974961D01*
X5297400Y6956471D01*
Y6937329D01*
X5302354Y6918839D01*
X5311926Y6902261D01*
X5325461Y6888726D01*
X5342039Y6879154D01*
X5360529Y6874200D01*
X5379671D01*
X5398161Y6879154D01*
X5414739Y6888726D01*
X5428274Y6902261D01*
X5437846Y6918839D01*
X5442800Y6937329D01*
Y6956471D01*
X5437846Y6974961D01*
X5428274Y6991539D01*
X5414739Y7005074D01*
X5398161Y7014646D01*
X5379671Y7019600D01*
D02*
G37*
G36*
X5192800D02*
X5047400D01*
Y6874200D01*
X5192800D01*
Y7019600D01*
D02*
G37*
G36*
X5802746Y6856800D02*
X5797550D01*
Y6775450D01*
X5878900D01*
Y6780646D01*
X5872923Y6802951D01*
X5861377Y6822949D01*
X5845049Y6839277D01*
X5825051Y6850823D01*
X5802746Y6856800D01*
D02*
G37*
G36*
X5784850D02*
X5779654D01*
X5757349Y6850823D01*
X5737351Y6839277D01*
X5721023Y6822949D01*
X5709477Y6802951D01*
X5703500Y6780646D01*
Y6775450D01*
X5784850D01*
Y6856800D01*
D02*
G37*
G36*
X721100Y6920500D02*
X701300D01*
X682174Y6915375D01*
X665026Y6905475D01*
X651025Y6891474D01*
X641125Y6874326D01*
X636000Y6855200D01*
Y6835400D01*
X641125Y6816274D01*
X651025Y6799126D01*
X665026Y6785125D01*
X682174Y6775225D01*
X701300Y6770100D01*
X721100D01*
X740226Y6775225D01*
X757374Y6785125D01*
X771375Y6799126D01*
X781275Y6816274D01*
X786400Y6835400D01*
Y6855200D01*
X781275Y6874326D01*
X771375Y6891474D01*
X757374Y6905475D01*
X740226Y6915375D01*
X721100Y6920500D01*
D02*
G37*
G36*
X6564746Y6856800D02*
X6541654D01*
X6519349Y6850823D01*
X6499351Y6839277D01*
X6483023Y6822949D01*
X6471477Y6802951D01*
X6465500Y6780646D01*
Y6757554D01*
X6471477Y6735249D01*
X6483023Y6715251D01*
X6499351Y6698923D01*
X6519349Y6687377D01*
X6541654Y6681400D01*
X6564746D01*
X6587051Y6687377D01*
X6607049Y6698923D01*
X6623377Y6715251D01*
X6634923Y6735249D01*
X6640900Y6757554D01*
Y6780646D01*
X6634923Y6802951D01*
X6623377Y6822949D01*
X6607049Y6839277D01*
X6587051Y6850823D01*
X6564746Y6856800D01*
D02*
G37*
G36*
X5878900Y6762750D02*
X5797550D01*
Y6681400D01*
X5802746D01*
X5825051Y6687377D01*
X5845049Y6698923D01*
X5861377Y6715251D01*
X5872923Y6735249D01*
X5878900Y6757554D01*
Y6762750D01*
D02*
G37*
G36*
X5784850D02*
X5703500D01*
Y6757554D01*
X5709477Y6735249D01*
X5721023Y6715251D01*
X5737351Y6698923D01*
X5757349Y6687377D01*
X5779654Y6681400D01*
X5784850D01*
Y6762750D01*
D02*
G37*
G36*
X3935846Y6602800D02*
X3930650D01*
Y6521450D01*
X4012000D01*
Y6526646D01*
X4006023Y6548951D01*
X3994477Y6568949D01*
X3978149Y6585277D01*
X3958151Y6596823D01*
X3935846Y6602800D01*
D02*
G37*
G36*
X6564746D02*
X6559550D01*
Y6521450D01*
X6640900D01*
Y6526646D01*
X6634923Y6548951D01*
X6623377Y6568949D01*
X6607049Y6585277D01*
X6587051Y6596823D01*
X6564746Y6602800D01*
D02*
G37*
G36*
X3917950D02*
X3912754D01*
X3890449Y6596823D01*
X3870451Y6585277D01*
X3854123Y6568949D01*
X3842577Y6548951D01*
X3836600Y6526646D01*
Y6521450D01*
X3917950D01*
Y6602800D01*
D02*
G37*
G36*
X975100Y6666500D02*
X955300D01*
X936174Y6661375D01*
X919026Y6651475D01*
X905025Y6637474D01*
X895125Y6620326D01*
X890000Y6601200D01*
Y6581400D01*
X895125Y6562274D01*
X905025Y6545126D01*
X919026Y6531125D01*
X936174Y6521225D01*
X955300Y6516100D01*
X975100D01*
X994226Y6521225D01*
X1011374Y6531125D01*
X1025375Y6545126D01*
X1035275Y6562274D01*
X1040400Y6581400D01*
Y6601200D01*
X1035275Y6620326D01*
X1025375Y6637474D01*
X1011374Y6651475D01*
X994226Y6661375D01*
X975100Y6666500D01*
D02*
G37*
G36*
X6640900Y6508750D02*
X6559550D01*
Y6427400D01*
X6564746D01*
X6587051Y6433377D01*
X6607049Y6444923D01*
X6623377Y6461251D01*
X6634923Y6481249D01*
X6640900Y6503554D01*
Y6508750D01*
D02*
G37*
G36*
X5372100Y6744198D02*
X5359400D01*
X5349489Y6742226D01*
X5341088Y6736612D01*
X5335474Y6728211D01*
X5333502Y6718300D01*
X5335474Y6708389D01*
X5341088Y6699988D01*
X5349489Y6694374D01*
X5359400Y6692402D01*
X5361373D01*
X5556988Y6496788D01*
X5565389Y6491174D01*
X5575300Y6489202D01*
X5707346D01*
X5709477Y6481249D01*
X5721023Y6461251D01*
X5737351Y6444923D01*
X5757349Y6433377D01*
X5765302Y6431246D01*
Y6344954D01*
X5757349Y6342823D01*
X5737351Y6331277D01*
X5721023Y6314949D01*
X5709477Y6294951D01*
X5703500Y6272646D01*
Y6267450D01*
X5878900D01*
Y6272646D01*
X5872923Y6294951D01*
X5861377Y6314949D01*
X5845049Y6331277D01*
X5825051Y6342823D01*
X5817098Y6344954D01*
Y6431246D01*
X5825051Y6433377D01*
X5845049Y6444923D01*
X5861377Y6461251D01*
X5872923Y6481249D01*
X5875054Y6489202D01*
X6469346D01*
X6471477Y6481249D01*
X6483023Y6461251D01*
X6499351Y6444923D01*
X6519349Y6433377D01*
X6541654Y6427400D01*
X6546850D01*
Y6515100D01*
Y6602800D01*
X6541654D01*
X6519349Y6596823D01*
X6499351Y6585277D01*
X6483023Y6568949D01*
X6471477Y6548951D01*
X6469346Y6540998D01*
X5875054D01*
X5872923Y6548951D01*
X5861377Y6568949D01*
X5845049Y6585277D01*
X5825051Y6596823D01*
X5802746Y6602800D01*
X5797550D01*
Y6515100D01*
X5784850D01*
Y6602800D01*
X5779654D01*
X5757349Y6596823D01*
X5737351Y6585277D01*
X5721023Y6568949D01*
X5709477Y6548951D01*
X5707346Y6540998D01*
X5586027D01*
X5390412Y6736612D01*
X5382011Y6742226D01*
X5372100Y6744198D01*
D02*
G37*
G36*
X4610100Y6769598D02*
X4191000D01*
X4181089Y6767626D01*
X4172688Y6762012D01*
X4046888Y6636212D01*
X4041274Y6627810D01*
X4039302Y6617900D01*
Y6409853D01*
X3965282Y6335832D01*
X3958151Y6339949D01*
X3935846Y6345925D01*
X3912754D01*
X3890449Y6339949D01*
X3870451Y6328403D01*
X3854123Y6312074D01*
X3842577Y6292076D01*
X3836600Y6269771D01*
Y6246680D01*
X3842577Y6224375D01*
X3854123Y6204376D01*
X3870451Y6188048D01*
X3890449Y6176502D01*
X3912754Y6170526D01*
X3935846D01*
X3958151Y6176502D01*
X3978149Y6188048D01*
X3994477Y6204376D01*
X4006023Y6224375D01*
X4012000Y6246680D01*
Y6269771D01*
X4006023Y6292076D01*
X4001906Y6299207D01*
X4083512Y6380813D01*
X4089126Y6389215D01*
X4091097Y6399125D01*
Y6465340D01*
X4103797Y6468742D01*
X4108123Y6461251D01*
X4124451Y6444923D01*
X4144449Y6433377D01*
X4166754Y6427400D01*
X4189846D01*
X4212151Y6433377D01*
X4232149Y6444923D01*
X4248477Y6461251D01*
X4260023Y6481249D01*
X4266000Y6503554D01*
Y6526646D01*
X4260023Y6548951D01*
X4248477Y6568949D01*
X4232149Y6585277D01*
X4212151Y6596823D01*
X4189846Y6602800D01*
X4166754D01*
X4144449Y6596823D01*
X4124451Y6585277D01*
X4108123Y6568949D01*
X4103797Y6561458D01*
X4091097Y6564860D01*
Y6607173D01*
X4201727Y6717802D01*
X4599373D01*
X4660402Y6656773D01*
Y6598954D01*
X4652449Y6596823D01*
X4632451Y6585277D01*
X4616123Y6568949D01*
X4604577Y6548951D01*
X4598600Y6526646D01*
Y6503554D01*
X4604577Y6481249D01*
X4616123Y6461251D01*
X4632451Y6444923D01*
X4652449Y6433377D01*
X4674754Y6427400D01*
X4697846D01*
X4720151Y6433377D01*
X4740149Y6444923D01*
X4756477Y6461251D01*
X4768023Y6481249D01*
X4774000Y6503554D01*
Y6526646D01*
X4768023Y6548951D01*
X4756477Y6568949D01*
X4740149Y6585277D01*
X4720151Y6596823D01*
X4712198Y6598954D01*
Y6667500D01*
X4710226Y6677411D01*
X4704612Y6685812D01*
X4628412Y6762012D01*
X4620011Y6767626D01*
X4610100Y6769598D01*
D02*
G37*
G36*
X4012000Y6508750D02*
X3930650D01*
Y6427400D01*
X3935846D01*
X3958151Y6433377D01*
X3978149Y6444923D01*
X3994477Y6461251D01*
X4006023Y6481249D01*
X4012000Y6503554D01*
Y6508750D01*
D02*
G37*
G36*
X3917950D02*
X3836600D01*
Y6503554D01*
X3842577Y6481249D01*
X3854123Y6461251D01*
X3870451Y6444923D01*
X3890449Y6433377D01*
X3912754Y6427400D01*
X3917950D01*
Y6508750D01*
D02*
G37*
G36*
X2359532Y6616700D02*
X2339468D01*
X2320088Y6611507D01*
X2302712Y6601475D01*
X2288525Y6587288D01*
X2278493Y6569912D01*
X2273300Y6550532D01*
Y6530468D01*
X2278493Y6511088D01*
X2288525Y6493712D01*
X2302712Y6479525D01*
X2320088Y6469493D01*
X2339468Y6464300D01*
X2359532D01*
X2378912Y6469493D01*
X2396288Y6479525D01*
X2410475Y6493712D01*
X2420507Y6511088D01*
X2421449Y6514602D01*
X2898368D01*
X2966802Y6446168D01*
Y6351991D01*
X2954102Y6350319D01*
X2951923Y6358451D01*
X2940377Y6378449D01*
X2924049Y6394777D01*
X2904051Y6406323D01*
X2881746Y6412300D01*
X2858654D01*
X2836349Y6406323D01*
X2816351Y6394777D01*
X2800023Y6378449D01*
X2788477Y6358451D01*
X2782500Y6336146D01*
Y6313054D01*
X2788477Y6290749D01*
X2800023Y6270751D01*
X2816351Y6254423D01*
X2836349Y6242877D01*
X2858654Y6236900D01*
X2881746D01*
X2904051Y6242877D01*
X2924049Y6254423D01*
X2940377Y6270751D01*
X2951923Y6290749D01*
X2954102Y6298881D01*
X2966802Y6297209D01*
Y6014902D01*
X2965990Y6014684D01*
X2950210Y6005574D01*
X2937326Y5992690D01*
X2928216Y5976910D01*
X2923500Y5959310D01*
Y5941089D01*
X2928216Y5923490D01*
X2937326Y5907710D01*
X2950210Y5894826D01*
X2965990Y5885716D01*
X2983589Y5881000D01*
X3001810D01*
X3019410Y5885716D01*
X3035190Y5894826D01*
X3048074Y5907710D01*
X3057184Y5923490D01*
X3061900Y5941089D01*
Y5959310D01*
X3057184Y5976910D01*
X3048074Y5992690D01*
X3035190Y6005574D01*
X3019410Y6014684D01*
X3018597Y6014902D01*
Y6456896D01*
X3016626Y6466806D01*
X3011012Y6475208D01*
X2927408Y6558812D01*
X2919006Y6564426D01*
X2909096Y6566398D01*
X2421449D01*
X2420507Y6569912D01*
X2410475Y6587288D01*
X2396288Y6601475D01*
X2378912Y6611507D01*
X2359532Y6616700D01*
D02*
G37*
G36*
X6564746Y6348800D02*
X6559550D01*
Y6267450D01*
X6640900D01*
Y6272646D01*
X6634923Y6294951D01*
X6623377Y6314949D01*
X6607049Y6331277D01*
X6587051Y6342823D01*
X6564746Y6348800D01*
D02*
G37*
G36*
X6546850D02*
X6541654D01*
X6519349Y6342823D01*
X6499351Y6331277D01*
X6483023Y6314949D01*
X6471477Y6294951D01*
X6465500Y6272646D01*
Y6267450D01*
X6546850D01*
Y6348800D01*
D02*
G37*
G36*
X3135746Y6412300D02*
X3112654D01*
X3090349Y6406323D01*
X3070351Y6394777D01*
X3054023Y6378449D01*
X3042477Y6358451D01*
X3036500Y6336146D01*
Y6313054D01*
X3042477Y6290749D01*
X3054023Y6270751D01*
X3070351Y6254423D01*
X3090349Y6242877D01*
X3112654Y6236900D01*
X3135746D01*
X3158051Y6242877D01*
X3178049Y6254423D01*
X3194377Y6270751D01*
X3205923Y6290749D01*
X3211900Y6313054D01*
Y6336146D01*
X3205923Y6358451D01*
X3194377Y6378449D01*
X3178049Y6394777D01*
X3158051Y6406323D01*
X3135746Y6412300D01*
D02*
G37*
G36*
X2627746D02*
X2604654D01*
X2582349Y6406323D01*
X2562351Y6394777D01*
X2546023Y6378449D01*
X2534477Y6358451D01*
X2528500Y6336146D01*
Y6313054D01*
X2534477Y6290749D01*
X2546023Y6270751D01*
X2562351Y6254423D01*
X2582349Y6242877D01*
X2604654Y6236900D01*
X2627746D01*
X2650051Y6242877D01*
X2670049Y6254423D01*
X2686377Y6270751D01*
X2697923Y6290749D01*
X2703900Y6313054D01*
Y6336146D01*
X2697923Y6358451D01*
X2686377Y6378449D01*
X2670049Y6394777D01*
X2650051Y6406323D01*
X2627746Y6412300D01*
D02*
G37*
G36*
X2373746D02*
X2350654D01*
X2328349Y6406323D01*
X2308351Y6394777D01*
X2292023Y6378449D01*
X2280477Y6358451D01*
X2274500Y6336146D01*
Y6313054D01*
X2280477Y6290749D01*
X2292023Y6270751D01*
X2308351Y6254423D01*
X2328349Y6242877D01*
X2350654Y6236900D01*
X2373746D01*
X2396051Y6242877D01*
X2416049Y6254423D01*
X2432377Y6270751D01*
X2443923Y6290749D01*
X2449900Y6313054D01*
Y6336146D01*
X2443923Y6358451D01*
X2432377Y6378449D01*
X2416049Y6394777D01*
X2396051Y6406323D01*
X2373746Y6412300D01*
D02*
G37*
G36*
X2119746D02*
X2096654D01*
X2074349Y6406323D01*
X2054351Y6394777D01*
X2038023Y6378449D01*
X2026477Y6358451D01*
X2020500Y6336146D01*
Y6313054D01*
X2026477Y6290749D01*
X2038023Y6270751D01*
X2054351Y6254423D01*
X2074349Y6242877D01*
X2096654Y6236900D01*
X2119746D01*
X2142051Y6242877D01*
X2162049Y6254423D01*
X2178377Y6270751D01*
X2189923Y6290749D01*
X2195900Y6313054D01*
Y6336146D01*
X2189923Y6358451D01*
X2178377Y6378449D01*
X2162049Y6394777D01*
X2142051Y6406323D01*
X2119746Y6412300D01*
D02*
G37*
G36*
X1865746D02*
X1842654D01*
X1820349Y6406323D01*
X1800351Y6394777D01*
X1784023Y6378449D01*
X1772477Y6358451D01*
X1766500Y6336146D01*
Y6313054D01*
X1772477Y6290749D01*
X1784023Y6270751D01*
X1800351Y6254423D01*
X1820349Y6242877D01*
X1842654Y6236900D01*
X1865746D01*
X1888051Y6242877D01*
X1908049Y6254423D01*
X1924377Y6270751D01*
X1935923Y6290749D01*
X1941900Y6313054D01*
Y6336146D01*
X1935923Y6358451D01*
X1924377Y6378449D01*
X1908049Y6394777D01*
X1888051Y6406323D01*
X1865746Y6412300D01*
D02*
G37*
G36*
X6640900Y6254750D02*
X6559550D01*
Y6173400D01*
X6564746D01*
X6587051Y6179377D01*
X6607049Y6190923D01*
X6623377Y6207251D01*
X6634923Y6227249D01*
X6640900Y6249554D01*
Y6254750D01*
D02*
G37*
G36*
X6546850D02*
X6465500D01*
Y6249554D01*
X6471477Y6227249D01*
X6483023Y6207251D01*
X6499351Y6190923D01*
X6519349Y6179377D01*
X6541654Y6173400D01*
X6546850D01*
Y6254750D01*
D02*
G37*
G36*
X5784850D02*
X5703500D01*
Y6249554D01*
X5709477Y6227249D01*
X5721023Y6207251D01*
X5737351Y6190923D01*
X5757349Y6179377D01*
X5779654Y6173400D01*
X5784850D01*
Y6254750D01*
D02*
G37*
G36*
X4443846Y6345925D02*
X4420754D01*
X4398449Y6339949D01*
X4378451Y6328403D01*
X4362123Y6312074D01*
X4350577Y6292076D01*
X4344600Y6269771D01*
Y6246680D01*
X4350577Y6224375D01*
X4362123Y6204376D01*
X4378451Y6188048D01*
X4398449Y6176502D01*
X4420754Y6170526D01*
X4443846D01*
X4466151Y6176502D01*
X4486149Y6188048D01*
X4502477Y6204376D01*
X4514023Y6224375D01*
X4520000Y6246680D01*
Y6269771D01*
X4514023Y6292076D01*
X4502477Y6312074D01*
X4486149Y6328403D01*
X4466151Y6339949D01*
X4443846Y6345925D01*
D02*
G37*
G36*
X4189846D02*
X4166754D01*
X4144449Y6339949D01*
X4124451Y6328403D01*
X4108123Y6312074D01*
X4096577Y6292076D01*
X4090600Y6269771D01*
Y6246680D01*
X4096577Y6224375D01*
X4100694Y6217244D01*
X4005347Y6121898D01*
X3730189D01*
X3719887Y6132199D01*
X3704194Y6138700D01*
X3687206D01*
X3671513Y6132199D01*
X3661211Y6121898D01*
X3561304D01*
X3551393Y6119926D01*
X3542991Y6114312D01*
X3327633Y5898954D01*
X3315900Y5903815D01*
Y6019400D01*
X3177500D01*
Y5881000D01*
X3293085D01*
X3297945Y5869267D01*
X3169576Y5740898D01*
X2984627D01*
X2802764Y5922761D01*
X2803184Y5923490D01*
X2807900Y5941089D01*
Y5959310D01*
X2803184Y5976910D01*
X2794074Y5992690D01*
X2781190Y6005574D01*
X2765410Y6014684D01*
X2747810Y6019400D01*
X2729589D01*
X2711990Y6014684D01*
X2696210Y6005574D01*
X2683326Y5992690D01*
X2674216Y5976910D01*
X2669500Y5959310D01*
Y5941089D01*
X2674216Y5923490D01*
X2683326Y5907710D01*
X2696210Y5894826D01*
X2711990Y5885716D01*
X2729589Y5881000D01*
X2747810D01*
X2765410Y5885716D01*
X2766139Y5886136D01*
X2955587Y5696688D01*
X2963989Y5691074D01*
X2973900Y5689102D01*
X3180304D01*
X3190214Y5691074D01*
X3198616Y5696688D01*
X3572031Y6070102D01*
X3661211D01*
X3671513Y6059801D01*
X3687206Y6053300D01*
X3704194D01*
X3719887Y6059801D01*
X3730189Y6070102D01*
X4016075D01*
X4025985Y6072074D01*
X4034387Y6077688D01*
X4137318Y6180619D01*
X4144449Y6176502D01*
X4166754Y6170526D01*
X4189846D01*
X4212151Y6176502D01*
X4232149Y6188048D01*
X4248477Y6204376D01*
X4260023Y6224375D01*
X4266000Y6246680D01*
Y6269771D01*
X4260023Y6292076D01*
X4248477Y6312074D01*
X4232149Y6328403D01*
X4212151Y6339949D01*
X4189846Y6345925D01*
D02*
G37*
G36*
X5469494Y6507000D02*
X5452506D01*
X5436813Y6500499D01*
X5424801Y6488487D01*
X5418300Y6472794D01*
Y6455806D01*
X5424801Y6440113D01*
X5435102Y6429811D01*
Y6299200D01*
X5437074Y6289289D01*
X5442688Y6280888D01*
X5485902Y6237673D01*
Y6143189D01*
X5475601Y6132887D01*
X5469100Y6117194D01*
Y6100206D01*
X5475601Y6084513D01*
X5487613Y6072501D01*
X5503306Y6066000D01*
X5520294D01*
X5535987Y6072501D01*
X5547999Y6084513D01*
X5554500Y6100206D01*
Y6117194D01*
X5547999Y6132887D01*
X5537698Y6143189D01*
Y6248400D01*
X5535726Y6258311D01*
X5530112Y6266712D01*
X5486898Y6309927D01*
Y6429811D01*
X5497199Y6440113D01*
X5503700Y6455806D01*
Y6472794D01*
X5497199Y6488487D01*
X5485187Y6500499D01*
X5469494Y6507000D01*
D02*
G37*
G36*
X4443846Y6602800D02*
X4420754D01*
X4398449Y6596823D01*
X4378451Y6585277D01*
X4362123Y6568949D01*
X4350577Y6548951D01*
X4344600Y6526646D01*
Y6503554D01*
X4350577Y6481249D01*
X4362123Y6461251D01*
X4378451Y6444923D01*
X4398449Y6433377D01*
X4420754Y6427400D01*
X4443846D01*
X4466151Y6433377D01*
X4473282Y6437494D01*
X4538973Y6371802D01*
Y5639523D01*
X4473282Y5573832D01*
X4466151Y5577949D01*
X4443846Y5583925D01*
X4420754D01*
X4398449Y5577949D01*
X4378451Y5566403D01*
X4362123Y5550074D01*
X4350577Y5530076D01*
X4344600Y5507771D01*
Y5484680D01*
X4350577Y5462375D01*
X4362123Y5442376D01*
X4378451Y5426048D01*
X4398449Y5414502D01*
X4420754Y5408526D01*
X4443846D01*
X4466151Y5414502D01*
X4486149Y5426048D01*
X4502477Y5442376D01*
X4514023Y5462375D01*
X4520000Y5484680D01*
Y5507771D01*
X4514023Y5530076D01*
X4509906Y5537207D01*
X4583183Y5610484D01*
X4588797Y5618886D01*
X4590768Y5628796D01*
Y6226839D01*
X4603468Y6228511D01*
X4604577Y6224375D01*
X4616123Y6204376D01*
X4632451Y6188048D01*
X4652449Y6176502D01*
X4674754Y6170526D01*
X4697846D01*
X4720151Y6176502D01*
X4740149Y6188048D01*
X4756477Y6204376D01*
X4768023Y6224375D01*
X4774000Y6246680D01*
Y6269771D01*
X4768023Y6292076D01*
X4756477Y6312074D01*
X4740149Y6328403D01*
X4720151Y6339949D01*
X4705286Y6343932D01*
X4706958Y6356632D01*
X4770044D01*
X4914402Y6212273D01*
Y6066989D01*
X4904101Y6056687D01*
X4897600Y6040994D01*
Y6024006D01*
X4904101Y6008313D01*
X4916113Y5996301D01*
X4931806Y5989800D01*
X4948794D01*
X4964487Y5996301D01*
X4976499Y6008313D01*
X4983000Y6024006D01*
Y6040994D01*
X4976499Y6056687D01*
X4966198Y6066989D01*
Y6223000D01*
X4964226Y6232911D01*
X4958612Y6241312D01*
X4799083Y6400842D01*
X4790681Y6406456D01*
X4780771Y6408427D01*
X4575598D01*
X4509906Y6474118D01*
X4514023Y6481249D01*
X4520000Y6503554D01*
Y6526646D01*
X4514023Y6548951D01*
X4502477Y6568949D01*
X4486149Y6585277D01*
X4466151Y6596823D01*
X4443846Y6602800D01*
D02*
G37*
G36*
X1477810Y6019400D02*
X1475050D01*
Y5956550D01*
X1537900D01*
Y5959310D01*
X1533184Y5976910D01*
X1524074Y5992690D01*
X1511190Y6005574D01*
X1495410Y6014684D01*
X1477810Y6019400D01*
D02*
G37*
G36*
X1462350D02*
X1459589D01*
X1441990Y6014684D01*
X1426210Y6005574D01*
X1413326Y5992690D01*
X1404216Y5976910D01*
X1399500Y5959310D01*
Y5956550D01*
X1462350D01*
Y6019400D01*
D02*
G37*
G36*
X6564746Y6094800D02*
X6541654D01*
X6519349Y6088823D01*
X6499351Y6077277D01*
X6483023Y6060949D01*
X6471477Y6040951D01*
X6465500Y6018646D01*
Y5995554D01*
X6471477Y5973249D01*
X6483023Y5953251D01*
X6499351Y5936923D01*
X6519349Y5925377D01*
X6541654Y5919400D01*
X6564746D01*
X6587051Y5925377D01*
X6607049Y5936923D01*
X6623377Y5953251D01*
X6634923Y5973249D01*
X6640900Y5995554D01*
Y6018646D01*
X6634923Y6040951D01*
X6623377Y6060949D01*
X6607049Y6077277D01*
X6587051Y6088823D01*
X6564746Y6094800D01*
D02*
G37*
G36*
X5802746D02*
X5779654D01*
X5757349Y6088823D01*
X5737351Y6077277D01*
X5721023Y6060949D01*
X5709477Y6040951D01*
X5703500Y6018646D01*
Y5995554D01*
X5709477Y5973249D01*
X5713594Y5966118D01*
X5298652Y5551177D01*
X5195079D01*
X5185169Y5549206D01*
X5176767Y5543592D01*
X4718788Y5085612D01*
X4713174Y5077211D01*
X4711202Y5067300D01*
Y4987982D01*
X4698502Y4984579D01*
X4692977Y4994149D01*
X4676649Y5010477D01*
X4656651Y5022023D01*
X4634346Y5028000D01*
X4629150D01*
Y4940300D01*
Y4852600D01*
X4634346D01*
X4656651Y4858577D01*
X4676649Y4870123D01*
X4692977Y4886451D01*
X4698502Y4896021D01*
X4711202Y4892618D01*
Y4531927D01*
X4641575Y4462300D01*
X4627006D01*
X4611313Y4455799D01*
X4599301Y4443787D01*
X4592800Y4428094D01*
Y4411106D01*
X4599301Y4395413D01*
X4611313Y4383401D01*
X4627006Y4376900D01*
X4643994D01*
X4659687Y4383401D01*
X4671699Y4395413D01*
X4678200Y4411106D01*
Y4425675D01*
X4755412Y4502888D01*
X4761026Y4511289D01*
X4762998Y4521200D01*
Y5056573D01*
X5205806Y5499382D01*
X5309379D01*
X5319290Y5501353D01*
X5327692Y5506967D01*
X5750218Y5929494D01*
X5757349Y5925377D01*
X5779654Y5919400D01*
X5802746D01*
X5825051Y5925377D01*
X5845049Y5936923D01*
X5861377Y5953251D01*
X5872923Y5973249D01*
X5878900Y5995554D01*
Y6018646D01*
X5872923Y6040951D01*
X5861377Y6060949D01*
X5845049Y6077277D01*
X5825051Y6088823D01*
X5802746Y6094800D01*
D02*
G37*
G36*
X2493810Y6019400D02*
X2475589D01*
X2457990Y6014684D01*
X2442210Y6005574D01*
X2429326Y5992690D01*
X2420216Y5976910D01*
X2415500Y5959310D01*
Y5941089D01*
X2420216Y5923490D01*
X2429326Y5907710D01*
X2442210Y5894826D01*
X2457990Y5885716D01*
X2475589Y5881000D01*
X2493810D01*
X2511410Y5885716D01*
X2527190Y5894826D01*
X2540074Y5907710D01*
X2549184Y5923490D01*
X2553900Y5941089D01*
Y5959310D01*
X2549184Y5976910D01*
X2540074Y5992690D01*
X2527190Y6005574D01*
X2511410Y6014684D01*
X2493810Y6019400D01*
D02*
G37*
G36*
X1985810D02*
X1967589D01*
X1949990Y6014684D01*
X1934210Y6005574D01*
X1921326Y5992690D01*
X1912216Y5976910D01*
X1907500Y5959310D01*
Y5941089D01*
X1912216Y5923490D01*
X1921326Y5907710D01*
X1934210Y5894826D01*
X1949990Y5885716D01*
X1967589Y5881000D01*
X1985810D01*
X2003410Y5885716D01*
X2019190Y5894826D01*
X2032074Y5907710D01*
X2041184Y5923490D01*
X2045900Y5941089D01*
Y5959310D01*
X2041184Y5976910D01*
X2032074Y5992690D01*
X2019190Y6005574D01*
X2003410Y6014684D01*
X1985810Y6019400D01*
D02*
G37*
G36*
X1731810D02*
X1713589D01*
X1695990Y6014684D01*
X1680210Y6005574D01*
X1667326Y5992690D01*
X1658216Y5976910D01*
X1653500Y5959310D01*
Y5941089D01*
X1658216Y5923490D01*
X1667326Y5907710D01*
X1680210Y5894826D01*
X1695990Y5885716D01*
X1713589Y5881000D01*
X1731810D01*
X1749410Y5885716D01*
X1765190Y5894826D01*
X1778074Y5907710D01*
X1787184Y5923490D01*
X1791900Y5941089D01*
Y5959310D01*
X1787184Y5976910D01*
X1778074Y5992690D01*
X1765190Y6005574D01*
X1749410Y6014684D01*
X1731810Y6019400D01*
D02*
G37*
G36*
X1537900Y5943850D02*
X1475050D01*
Y5881000D01*
X1477810D01*
X1495410Y5885716D01*
X1511190Y5894826D01*
X1524074Y5907710D01*
X1533184Y5923490D01*
X1537900Y5941089D01*
Y5943850D01*
D02*
G37*
G36*
X1462350D02*
X1399500D01*
Y5941089D01*
X1404216Y5923490D01*
X1413326Y5907710D01*
X1426210Y5894826D01*
X1441990Y5885716D01*
X1459589Y5881000D01*
X1462350D01*
Y5943850D01*
D02*
G37*
G36*
X5802746Y5840800D02*
X5779654D01*
X5757349Y5834823D01*
X5737351Y5823277D01*
X5721023Y5806949D01*
X5709477Y5786951D01*
X5703500Y5764646D01*
Y5741554D01*
X5709477Y5719249D01*
X5721023Y5699251D01*
X5737351Y5682923D01*
X5757349Y5671377D01*
X5779654Y5665400D01*
X5802746D01*
X5825051Y5671377D01*
X5845049Y5682923D01*
X5861377Y5699251D01*
X5872923Y5719249D01*
X5878900Y5741554D01*
Y5764646D01*
X5872923Y5786951D01*
X5861377Y5806949D01*
X5845049Y5823277D01*
X5825051Y5834823D01*
X5802746Y5840800D01*
D02*
G37*
G36*
X532400Y6666500D02*
X382000D01*
Y6516100D01*
X495775D01*
X1123702Y5888173D01*
Y5728902D01*
X1122890Y5728684D01*
X1107110Y5719574D01*
X1094226Y5706690D01*
X1085116Y5690910D01*
X1080400Y5673310D01*
Y5655090D01*
X1085116Y5637490D01*
X1094226Y5621710D01*
X1107110Y5608826D01*
X1122890Y5599716D01*
X1140489Y5595000D01*
X1158710D01*
X1176310Y5599716D01*
X1192090Y5608826D01*
X1204974Y5621710D01*
X1214084Y5637490D01*
X1218800Y5655090D01*
Y5673310D01*
X1214084Y5690910D01*
X1204974Y5706690D01*
X1192090Y5719574D01*
X1176310Y5728684D01*
X1175498Y5728902D01*
Y5898900D01*
X1173526Y5908811D01*
X1167912Y5917212D01*
X532400Y6552725D01*
Y6666500D01*
D02*
G37*
G36*
X364710Y5733400D02*
X346490D01*
X328890Y5728684D01*
X313110Y5719574D01*
X300226Y5706690D01*
X291116Y5690910D01*
X286400Y5673310D01*
Y5655090D01*
X291116Y5637490D01*
X300226Y5621710D01*
X313110Y5608826D01*
X328890Y5599716D01*
X346490Y5595000D01*
X364710D01*
X382310Y5599716D01*
X398090Y5608826D01*
X410974Y5621710D01*
X420084Y5637490D01*
X424800Y5655090D01*
Y5673310D01*
X420084Y5690910D01*
X410974Y5706690D01*
X398090Y5719574D01*
X382310Y5728684D01*
X364710Y5733400D01*
D02*
G37*
G36*
X5878900Y6254750D02*
X5797550D01*
Y6173400D01*
X5802746D01*
X5825051Y6179377D01*
X5832182Y6183494D01*
X5968502Y6047173D01*
Y5713027D01*
X5832182Y5576706D01*
X5825051Y5580823D01*
X5802746Y5586800D01*
X5797550D01*
Y5505450D01*
X5878900D01*
Y5510646D01*
X5872923Y5532951D01*
X5868806Y5540082D01*
X6012712Y5683988D01*
X6018326Y5692389D01*
X6020298Y5702300D01*
Y6057900D01*
X6018326Y6067811D01*
X6012712Y6076212D01*
X5868806Y6220118D01*
X5872923Y6227249D01*
X5878900Y6249554D01*
Y6254750D01*
D02*
G37*
G36*
X5784850Y5586800D02*
X5779654D01*
X5757349Y5580823D01*
X5737351Y5569277D01*
X5721023Y5552949D01*
X5709477Y5532951D01*
X5703500Y5510646D01*
Y5505450D01*
X5784850D01*
Y5586800D01*
D02*
G37*
G36*
X4012000Y5583925D02*
X3930650D01*
Y5502576D01*
X4012000D01*
Y5583925D01*
D02*
G37*
G36*
X3917950D02*
X3836600D01*
Y5502576D01*
X3917950D01*
Y5583925D01*
D02*
G37*
G36*
X2239810Y6019400D02*
X2221589D01*
X2203990Y6014684D01*
X2188210Y6005574D01*
X2175326Y5992690D01*
X2166216Y5976910D01*
X2161500Y5959310D01*
Y5941089D01*
X2166216Y5923490D01*
X2175326Y5907710D01*
X2188210Y5894826D01*
X2203990Y5885716D01*
X2221589Y5881000D01*
X2239810D01*
X2257410Y5885716D01*
X2258139Y5886136D01*
X2676187Y5468088D01*
X2684589Y5462474D01*
X2694500Y5460502D01*
X2823011D01*
X2833313Y5450201D01*
X2849006Y5443700D01*
X2865994D01*
X2881687Y5450201D01*
X2893699Y5462213D01*
X2900200Y5477906D01*
Y5494894D01*
X2893699Y5510587D01*
X2881687Y5522599D01*
X2865994Y5529100D01*
X2849006D01*
X2833313Y5522599D01*
X2823011Y5512298D01*
X2705227D01*
X2294764Y5922761D01*
X2295184Y5923490D01*
X2299900Y5941089D01*
Y5959310D01*
X2295184Y5976910D01*
X2286074Y5992690D01*
X2273190Y6005574D01*
X2257410Y6014684D01*
X2239810Y6019400D01*
D02*
G37*
G36*
X6564746Y5586800D02*
X6541654D01*
X6519349Y5580823D01*
X6499351Y5569277D01*
X6483023Y5552949D01*
X6471477Y5532951D01*
X6465500Y5510646D01*
Y5487554D01*
X6471477Y5465249D01*
X6475594Y5458118D01*
X6292426Y5274951D01*
X5470106D01*
X5460195Y5272980D01*
X5451794Y5267366D01*
X5226788Y5042360D01*
X5221174Y5033958D01*
X5219202Y5024048D01*
Y4987982D01*
X5206502Y4984579D01*
X5200977Y4994149D01*
X5184649Y5010477D01*
X5164651Y5022023D01*
X5142346Y5028000D01*
X5119254D01*
X5096949Y5022023D01*
X5076951Y5010477D01*
X5060623Y4994149D01*
X5049077Y4974151D01*
X5043100Y4951846D01*
Y4928754D01*
X5049077Y4906449D01*
X5060623Y4886451D01*
X5076951Y4870123D01*
X5096949Y4858577D01*
X5119254Y4852600D01*
X5142346D01*
X5164651Y4858577D01*
X5184649Y4870123D01*
X5200977Y4886451D01*
X5206502Y4896021D01*
X5219202Y4892618D01*
Y4824027D01*
X4655505Y4260330D01*
X4635547Y4265678D01*
X4437912Y4463312D01*
X4429511Y4468926D01*
X4419600Y4470898D01*
X3109527D01*
X2743698Y4836727D01*
Y4856446D01*
X2751651Y4858577D01*
X2771649Y4870123D01*
X2787977Y4886451D01*
X2799523Y4906449D01*
X2805500Y4928754D01*
Y4951846D01*
X2799523Y4974151D01*
X2787977Y4994149D01*
X2771649Y5010477D01*
X2751651Y5022023D01*
X2729346Y5028000D01*
X2706254D01*
X2683949Y5022023D01*
X2663951Y5010477D01*
X2647623Y4994149D01*
X2636077Y4974151D01*
X2630100Y4951846D01*
Y4928754D01*
X2636077Y4906449D01*
X2647623Y4886451D01*
X2663951Y4870123D01*
X2683949Y4858577D01*
X2691902Y4856446D01*
Y4826000D01*
X2693874Y4816089D01*
X2699488Y4807688D01*
X3080488Y4426688D01*
X3088889Y4421074D01*
X3098800Y4419102D01*
X4408873D01*
X4567429Y4260547D01*
X4566920Y4246446D01*
X4552623Y4232149D01*
X4541077Y4212151D01*
X4535100Y4189846D01*
Y4166754D01*
X4541077Y4144449D01*
X4552623Y4124451D01*
X4568951Y4108123D01*
X4588949Y4096577D01*
X4611254Y4090600D01*
X4634346D01*
X4656651Y4096577D01*
X4676649Y4108123D01*
X4692977Y4124451D01*
X4704523Y4144449D01*
X4710500Y4166754D01*
Y4189846D01*
X4704523Y4212151D01*
X4695758Y4227333D01*
X5263412Y4794988D01*
X5269026Y4803389D01*
X5270998Y4813300D01*
Y5013320D01*
X5480833Y5223156D01*
X6303154D01*
X6313064Y5225127D01*
X6321466Y5230741D01*
X6512218Y5421494D01*
X6519349Y5417377D01*
X6541654Y5411400D01*
X6564746D01*
X6587051Y5417377D01*
X6607049Y5428923D01*
X6623377Y5445251D01*
X6634923Y5465249D01*
X6640900Y5487554D01*
Y5510646D01*
X6634923Y5532951D01*
X6623377Y5552949D01*
X6607049Y5569277D01*
X6587051Y5580823D01*
X6564746Y5586800D01*
D02*
G37*
G36*
X5878900Y5492750D02*
X5797550D01*
Y5411400D01*
X5802746D01*
X5825051Y5417377D01*
X5845049Y5428923D01*
X5861377Y5445251D01*
X5872923Y5465249D01*
X5878900Y5487554D01*
Y5492750D01*
D02*
G37*
G36*
X5784850D02*
X5703500D01*
Y5487554D01*
X5707330Y5473260D01*
X5697825Y5461498D01*
X5308600D01*
X5298689Y5459526D01*
X5290288Y5453912D01*
X5284674Y5445511D01*
X5282702Y5435600D01*
X5284674Y5425689D01*
X5290288Y5417288D01*
X5298689Y5411674D01*
X5308600Y5409702D01*
X5715795D01*
X5725705Y5411674D01*
X5734107Y5417288D01*
X5742671Y5425851D01*
X5757349Y5417377D01*
X5779654Y5411400D01*
X5784850D01*
Y5492750D01*
D02*
G37*
G36*
X4697846Y5583925D02*
X4674754D01*
X4652449Y5577949D01*
X4632451Y5566403D01*
X4616123Y5550074D01*
X4604577Y5530076D01*
X4598600Y5507771D01*
Y5484680D01*
X4604577Y5462375D01*
X4616123Y5442376D01*
X4632451Y5426048D01*
X4652449Y5414502D01*
X4674754Y5408526D01*
X4697846D01*
X4720151Y5414502D01*
X4740149Y5426048D01*
X4756477Y5442376D01*
X4768023Y5462375D01*
X4774000Y5484680D01*
Y5507771D01*
X4768023Y5530076D01*
X4756477Y5550074D01*
X4740149Y5566403D01*
X4720151Y5577949D01*
X4697846Y5583925D01*
D02*
G37*
G36*
X4189846D02*
X4166754D01*
X4144449Y5577949D01*
X4124451Y5566403D01*
X4108123Y5550074D01*
X4096577Y5530076D01*
X4090600Y5507771D01*
Y5484680D01*
X4096577Y5462375D01*
X4108123Y5442376D01*
X4124451Y5426048D01*
X4144449Y5414502D01*
X4166754Y5408526D01*
X4189846D01*
X4212151Y5414502D01*
X4232149Y5426048D01*
X4248477Y5442376D01*
X4260023Y5462375D01*
X4266000Y5484680D01*
Y5507771D01*
X4260023Y5530076D01*
X4248477Y5550074D01*
X4232149Y5566403D01*
X4212151Y5577949D01*
X4189846Y5583925D01*
D02*
G37*
G36*
X4012000Y5489876D02*
X3930650D01*
Y5408526D01*
X4012000D01*
Y5489876D01*
D02*
G37*
G36*
X3917950D02*
X3836600D01*
Y5408526D01*
X3917950D01*
Y5489876D01*
D02*
G37*
G36*
X1158710Y5479400D02*
X1140489D01*
X1122890Y5474684D01*
X1107110Y5465574D01*
X1094226Y5452690D01*
X1085116Y5436910D01*
X1080400Y5419310D01*
Y5401090D01*
X1085116Y5383490D01*
X1094226Y5367710D01*
X1107110Y5354826D01*
X1122890Y5345716D01*
X1140489Y5341000D01*
X1158710D01*
X1176310Y5345716D01*
X1192090Y5354826D01*
X1204974Y5367710D01*
X1214084Y5383490D01*
X1218800Y5401090D01*
Y5419310D01*
X1214084Y5436910D01*
X1204974Y5452690D01*
X1192090Y5465574D01*
X1176310Y5474684D01*
X1158710Y5479400D01*
D02*
G37*
G36*
X3255810Y5225400D02*
X3237589D01*
X3219990Y5220684D01*
X3204210Y5211574D01*
X3191326Y5198690D01*
X3182216Y5182910D01*
X3177500Y5165310D01*
Y5147090D01*
X3182216Y5129490D01*
X3191326Y5113710D01*
X3204210Y5100826D01*
X3219990Y5091716D01*
X3237589Y5087000D01*
X3255810D01*
X3273410Y5091716D01*
X3289190Y5100826D01*
X3302074Y5113710D01*
X3311184Y5129490D01*
X3315900Y5147090D01*
Y5165310D01*
X3311184Y5182910D01*
X3302074Y5198690D01*
X3289190Y5211574D01*
X3273410Y5220684D01*
X3255810Y5225400D01*
D02*
G37*
G36*
X3001810D02*
X2983589D01*
X2965990Y5220684D01*
X2950210Y5211574D01*
X2937326Y5198690D01*
X2928216Y5182910D01*
X2923500Y5165310D01*
Y5147090D01*
X2928216Y5129490D01*
X2937326Y5113710D01*
X2950210Y5100826D01*
X2965990Y5091716D01*
X2983589Y5087000D01*
X3001810D01*
X3019410Y5091716D01*
X3035190Y5100826D01*
X3048074Y5113710D01*
X3057184Y5129490D01*
X3061900Y5147090D01*
Y5165310D01*
X3057184Y5182910D01*
X3048074Y5198690D01*
X3035190Y5211574D01*
X3019410Y5220684D01*
X3001810Y5225400D01*
D02*
G37*
G36*
X2747810D02*
X2729589D01*
X2711990Y5220684D01*
X2696210Y5211574D01*
X2683326Y5198690D01*
X2674216Y5182910D01*
X2669500Y5165310D01*
Y5147090D01*
X2674216Y5129490D01*
X2683326Y5113710D01*
X2696210Y5100826D01*
X2711990Y5091716D01*
X2729589Y5087000D01*
X2747810D01*
X2765410Y5091716D01*
X2781190Y5100826D01*
X2794074Y5113710D01*
X2803184Y5129490D01*
X2807900Y5147090D01*
Y5165310D01*
X2803184Y5182910D01*
X2794074Y5198690D01*
X2781190Y5211574D01*
X2765410Y5220684D01*
X2747810Y5225400D01*
D02*
G37*
G36*
X2493810D02*
X2475589D01*
X2457990Y5220684D01*
X2442210Y5211574D01*
X2429326Y5198690D01*
X2420216Y5182910D01*
X2415500Y5165310D01*
Y5147090D01*
X2420216Y5129490D01*
X2429326Y5113710D01*
X2442210Y5100826D01*
X2457990Y5091716D01*
X2475589Y5087000D01*
X2493810D01*
X2511410Y5091716D01*
X2527190Y5100826D01*
X2540074Y5113710D01*
X2549184Y5129490D01*
X2553900Y5147090D01*
Y5165310D01*
X2549184Y5182910D01*
X2540074Y5198690D01*
X2527190Y5211574D01*
X2511410Y5220684D01*
X2493810Y5225400D01*
D02*
G37*
G36*
X2239810D02*
X2221589D01*
X2203990Y5220684D01*
X2188210Y5211574D01*
X2175326Y5198690D01*
X2166216Y5182910D01*
X2161500Y5165310D01*
Y5147090D01*
X2166216Y5129490D01*
X2175326Y5113710D01*
X2188210Y5100826D01*
X2203990Y5091716D01*
X2221589Y5087000D01*
X2239810D01*
X2257410Y5091716D01*
X2273190Y5100826D01*
X2286074Y5113710D01*
X2295184Y5129490D01*
X2299900Y5147090D01*
Y5165310D01*
X2295184Y5182910D01*
X2286074Y5198690D01*
X2273190Y5211574D01*
X2257410Y5220684D01*
X2239810Y5225400D01*
D02*
G37*
G36*
X1985810D02*
X1967589D01*
X1949990Y5220684D01*
X1934210Y5211574D01*
X1921326Y5198690D01*
X1912216Y5182910D01*
X1907500Y5165310D01*
Y5147090D01*
X1912216Y5129490D01*
X1921326Y5113710D01*
X1934210Y5100826D01*
X1949990Y5091716D01*
X1967589Y5087000D01*
X1985810D01*
X2003410Y5091716D01*
X2019190Y5100826D01*
X2032074Y5113710D01*
X2041184Y5129490D01*
X2045900Y5147090D01*
Y5165310D01*
X2041184Y5182910D01*
X2032074Y5198690D01*
X2019190Y5211574D01*
X2003410Y5220684D01*
X1985810Y5225400D01*
D02*
G37*
G36*
X1731810D02*
X1713589D01*
X1695990Y5220684D01*
X1680210Y5211574D01*
X1667326Y5198690D01*
X1658216Y5182910D01*
X1653500Y5165310D01*
Y5147090D01*
X1658216Y5129490D01*
X1667326Y5113710D01*
X1680210Y5100826D01*
X1695990Y5091716D01*
X1713589Y5087000D01*
X1731810D01*
X1749410Y5091716D01*
X1765190Y5100826D01*
X1778074Y5113710D01*
X1787184Y5129490D01*
X1791900Y5147090D01*
Y5165310D01*
X1787184Y5182910D01*
X1778074Y5198690D01*
X1765190Y5211574D01*
X1749410Y5220684D01*
X1731810Y5225400D01*
D02*
G37*
G36*
X1477810D02*
X1459589D01*
X1441990Y5220684D01*
X1426210Y5211574D01*
X1413326Y5198690D01*
X1404216Y5182910D01*
X1399500Y5165310D01*
Y5147090D01*
X1404216Y5129490D01*
X1413326Y5113710D01*
X1426210Y5100826D01*
X1441990Y5091716D01*
X1459589Y5087000D01*
X1477810D01*
X1495410Y5091716D01*
X1511190Y5100826D01*
X1524074Y5113710D01*
X1533184Y5129490D01*
X1537900Y5147090D01*
Y5165310D01*
X1533184Y5182910D01*
X1524074Y5198690D01*
X1511190Y5211574D01*
X1495410Y5220684D01*
X1477810Y5225400D01*
D02*
G37*
G36*
X364710Y5479400D02*
X346490D01*
X328890Y5474684D01*
X313110Y5465574D01*
X300226Y5452690D01*
X291116Y5436910D01*
X286400Y5419310D01*
Y5401090D01*
X291116Y5383490D01*
X300226Y5367710D01*
X313110Y5354826D01*
X328890Y5345716D01*
X346490Y5341000D01*
X364710D01*
X382310Y5345716D01*
X383039Y5346136D01*
X496537Y5232638D01*
Y5116365D01*
X498508Y5106455D01*
X504122Y5098053D01*
X555733Y5046442D01*
Y4641569D01*
X557704Y4631659D01*
X563318Y4623257D01*
X759887Y4426688D01*
X768289Y4421074D01*
X778200Y4419102D01*
X803600D01*
Y4372300D01*
X949000D01*
Y4517700D01*
X902198D01*
Y4872173D01*
X1122161Y5092136D01*
X1122890Y5091716D01*
X1140489Y5087000D01*
X1158710D01*
X1176310Y5091716D01*
X1192090Y5100826D01*
X1204974Y5113710D01*
X1214084Y5129490D01*
X1218800Y5147090D01*
Y5165310D01*
X1214084Y5182910D01*
X1204974Y5198690D01*
X1192090Y5211574D01*
X1176310Y5220684D01*
X1158710Y5225400D01*
X1140489D01*
X1122890Y5220684D01*
X1107110Y5211574D01*
X1094226Y5198690D01*
X1085116Y5182910D01*
X1080400Y5165310D01*
Y5147090D01*
X1085116Y5129490D01*
X1085536Y5128761D01*
X857988Y4901212D01*
X852374Y4892811D01*
X850402Y4882900D01*
Y4517700D01*
X803600D01*
Y4470898D01*
X788927D01*
X607528Y4652297D01*
Y5057169D01*
X605557Y5067080D01*
X599943Y5075482D01*
X548332Y5127093D01*
Y5243365D01*
X546361Y5253276D01*
X540747Y5261678D01*
X419664Y5382761D01*
X420084Y5383490D01*
X424800Y5401090D01*
Y5419310D01*
X420084Y5436910D01*
X410974Y5452690D01*
X398090Y5465574D01*
X382310Y5474684D01*
X364710Y5479400D01*
D02*
G37*
G36*
Y5225400D02*
X346490D01*
X328890Y5220684D01*
X313110Y5211574D01*
X300226Y5198690D01*
X291116Y5182910D01*
X286400Y5165310D01*
Y5147090D01*
X291116Y5129490D01*
X300226Y5113710D01*
X313110Y5100826D01*
X328890Y5091716D01*
X346490Y5087000D01*
X364710D01*
X382310Y5091716D01*
X398090Y5100826D01*
X410974Y5113710D01*
X420084Y5129490D01*
X424800Y5147090D01*
Y5165310D01*
X420084Y5182910D01*
X410974Y5198690D01*
X398090Y5211574D01*
X382310Y5220684D01*
X364710Y5225400D01*
D02*
G37*
G36*
X6488500Y5028000D02*
X6407150D01*
Y4946650D01*
X6488500D01*
Y5028000D01*
D02*
G37*
G36*
X5904346D02*
X5899150D01*
Y4946650D01*
X5980500D01*
Y4951846D01*
X5974523Y4974151D01*
X5962977Y4994149D01*
X5946649Y5010477D01*
X5926651Y5022023D01*
X5904346Y5028000D01*
D02*
G37*
G36*
X5650346D02*
X5645150D01*
Y4946650D01*
X5726500D01*
Y4951846D01*
X5720523Y4974151D01*
X5708977Y4994149D01*
X5692649Y5010477D01*
X5672651Y5022023D01*
X5650346Y5028000D01*
D02*
G37*
G36*
X5396346D02*
X5391150D01*
Y4946650D01*
X5472500D01*
Y4951846D01*
X5466523Y4974151D01*
X5454977Y4994149D01*
X5438649Y5010477D01*
X5418651Y5022023D01*
X5396346Y5028000D01*
D02*
G37*
G36*
X3999346D02*
X3994150D01*
Y4946650D01*
X4075500D01*
Y4951846D01*
X4069523Y4974151D01*
X4057977Y4994149D01*
X4041649Y5010477D01*
X4021651Y5022023D01*
X3999346Y5028000D01*
D02*
G37*
G36*
X6394450D02*
X6313100D01*
Y4946650D01*
X6394450D01*
Y5028000D01*
D02*
G37*
G36*
X5886450D02*
X5881254D01*
X5858949Y5022023D01*
X5838951Y5010477D01*
X5822623Y4994149D01*
X5811077Y4974151D01*
X5805100Y4951846D01*
Y4946650D01*
X5886450D01*
Y5028000D01*
D02*
G37*
G36*
X5632450D02*
X5627254D01*
X5604949Y5022023D01*
X5584951Y5010477D01*
X5568623Y4994149D01*
X5557077Y4974151D01*
X5551100Y4951846D01*
Y4946650D01*
X5632450D01*
Y5028000D01*
D02*
G37*
G36*
X5378450D02*
X5373254D01*
X5350949Y5022023D01*
X5330951Y5010477D01*
X5314623Y4994149D01*
X5303077Y4974151D01*
X5297100Y4951846D01*
Y4946650D01*
X5378450D01*
Y5028000D01*
D02*
G37*
G36*
X4616450D02*
X4611254D01*
X4588949Y5022023D01*
X4568951Y5010477D01*
X4552623Y4994149D01*
X4541077Y4974151D01*
X4535100Y4951846D01*
Y4946650D01*
X4616450D01*
Y5028000D01*
D02*
G37*
G36*
X3981450D02*
X3976254D01*
X3953949Y5022023D01*
X3933951Y5010477D01*
X3917623Y4994149D01*
X3906077Y4974151D01*
X3900100Y4951846D01*
Y4946650D01*
X3981450D01*
Y5028000D01*
D02*
G37*
G36*
X1143250Y4971400D02*
X1080400D01*
Y4908550D01*
X1143250D01*
Y4971400D01*
D02*
G37*
G36*
X6488500Y4933950D02*
X6407150D01*
Y4852600D01*
X6488500D01*
Y4933950D01*
D02*
G37*
G36*
X6394450D02*
X6313100D01*
Y4852600D01*
X6394450D01*
Y4933950D01*
D02*
G37*
G36*
X6158346Y5028000D02*
X6135254D01*
X6112949Y5022023D01*
X6092951Y5010477D01*
X6076623Y4994149D01*
X6065077Y4974151D01*
X6059100Y4951846D01*
Y4928754D01*
X6065077Y4906449D01*
X6076623Y4886451D01*
X6092951Y4870123D01*
X6112949Y4858577D01*
X6135254Y4852600D01*
X6158346D01*
X6180651Y4858577D01*
X6200649Y4870123D01*
X6216977Y4886451D01*
X6228523Y4906449D01*
X6234500Y4928754D01*
Y4951846D01*
X6228523Y4974151D01*
X6216977Y4994149D01*
X6200649Y5010477D01*
X6180651Y5022023D01*
X6158346Y5028000D01*
D02*
G37*
G36*
X5980500Y4933950D02*
X5899150D01*
Y4852600D01*
X5904346D01*
X5926651Y4858577D01*
X5946649Y4870123D01*
X5962977Y4886451D01*
X5974523Y4906449D01*
X5980500Y4928754D01*
Y4933950D01*
D02*
G37*
G36*
X5886450D02*
X5805100D01*
Y4928754D01*
X5811077Y4906449D01*
X5822623Y4886451D01*
X5838951Y4870123D01*
X5858949Y4858577D01*
X5881254Y4852600D01*
X5886450D01*
Y4933950D01*
D02*
G37*
G36*
X5472500D02*
X5391150D01*
Y4852600D01*
X5396346D01*
X5418651Y4858577D01*
X5438649Y4870123D01*
X5454977Y4886451D01*
X5466523Y4906449D01*
X5472500Y4928754D01*
Y4933950D01*
D02*
G37*
G36*
X5378450D02*
X5297100D01*
Y4928754D01*
X5303077Y4906449D01*
X5314623Y4886451D01*
X5330951Y4870123D01*
X5350949Y4858577D01*
X5373254Y4852600D01*
X5378450D01*
Y4933950D01*
D02*
G37*
G36*
X4888346Y5028000D02*
X4865254D01*
X4842949Y5022023D01*
X4822951Y5010477D01*
X4806623Y4994149D01*
X4795077Y4974151D01*
X4789100Y4951846D01*
Y4928754D01*
X4795077Y4906449D01*
X4806623Y4886451D01*
X4822951Y4870123D01*
X4842949Y4858577D01*
X4865254Y4852600D01*
X4888346D01*
X4910651Y4858577D01*
X4930649Y4870123D01*
X4946977Y4886451D01*
X4958523Y4906449D01*
X4964500Y4928754D01*
Y4951846D01*
X4958523Y4974151D01*
X4946977Y4994149D01*
X4930649Y5010477D01*
X4910651Y5022023D01*
X4888346Y5028000D01*
D02*
G37*
G36*
X4616450Y4933950D02*
X4535100D01*
Y4928754D01*
X4541077Y4906449D01*
X4552623Y4886451D01*
X4568951Y4870123D01*
X4588949Y4858577D01*
X4611254Y4852600D01*
X4616450D01*
Y4933950D01*
D02*
G37*
G36*
X4075500D02*
X3994150D01*
Y4852600D01*
X3999346D01*
X4021651Y4858577D01*
X4041649Y4870123D01*
X4057977Y4886451D01*
X4069523Y4906449D01*
X4075500Y4928754D01*
Y4933950D01*
D02*
G37*
G36*
X3981450D02*
X3900100D01*
Y4928754D01*
X3906077Y4906449D01*
X3917623Y4886451D01*
X3933951Y4870123D01*
X3953949Y4858577D01*
X3976254Y4852600D01*
X3981450D01*
Y4933950D01*
D02*
G37*
G36*
X3745346Y5028000D02*
X3722254D01*
X3699949Y5022023D01*
X3679951Y5010477D01*
X3663623Y4994149D01*
X3652077Y4974151D01*
X3646100Y4951846D01*
Y4928754D01*
X3652077Y4906449D01*
X3663623Y4886451D01*
X3679951Y4870123D01*
X3699949Y4858577D01*
X3722254Y4852600D01*
X3745346D01*
X3767651Y4858577D01*
X3787649Y4870123D01*
X3803977Y4886451D01*
X3815523Y4906449D01*
X3821500Y4928754D01*
Y4951846D01*
X3815523Y4974151D01*
X3803977Y4994149D01*
X3787649Y5010477D01*
X3767651Y5022023D01*
X3745346Y5028000D01*
D02*
G37*
G36*
X3491346D02*
X3468254D01*
X3445949Y5022023D01*
X3425951Y5010477D01*
X3409623Y4994149D01*
X3398077Y4974151D01*
X3392100Y4951846D01*
Y4928754D01*
X3398077Y4906449D01*
X3409623Y4886451D01*
X3425951Y4870123D01*
X3445949Y4858577D01*
X3468254Y4852600D01*
X3491346D01*
X3513651Y4858577D01*
X3533649Y4870123D01*
X3549977Y4886451D01*
X3561523Y4906449D01*
X3567500Y4928754D01*
Y4951846D01*
X3561523Y4974151D01*
X3549977Y4994149D01*
X3533649Y5010477D01*
X3513651Y5022023D01*
X3491346Y5028000D01*
D02*
G37*
G36*
X3237346D02*
X3214254D01*
X3191949Y5022023D01*
X3171951Y5010477D01*
X3155623Y4994149D01*
X3144077Y4974151D01*
X3138100Y4951846D01*
Y4928754D01*
X3144077Y4906449D01*
X3155623Y4886451D01*
X3171951Y4870123D01*
X3191949Y4858577D01*
X3214254Y4852600D01*
X3237346D01*
X3259651Y4858577D01*
X3279649Y4870123D01*
X3295977Y4886451D01*
X3307523Y4906449D01*
X3313500Y4928754D01*
Y4951846D01*
X3307523Y4974151D01*
X3295977Y4994149D01*
X3279649Y5010477D01*
X3259651Y5022023D01*
X3237346Y5028000D01*
D02*
G37*
G36*
X2983346D02*
X2960254D01*
X2937949Y5022023D01*
X2917951Y5010477D01*
X2901623Y4994149D01*
X2890077Y4974151D01*
X2884100Y4951846D01*
Y4928754D01*
X2890077Y4906449D01*
X2901623Y4886451D01*
X2917951Y4870123D01*
X2937949Y4858577D01*
X2960254Y4852600D01*
X2983346D01*
X3005651Y4858577D01*
X3025649Y4870123D01*
X3041977Y4886451D01*
X3053523Y4906449D01*
X3059500Y4928754D01*
Y4951846D01*
X3053523Y4974151D01*
X3041977Y4994149D01*
X3025649Y5010477D01*
X3005651Y5022023D01*
X2983346Y5028000D01*
D02*
G37*
G36*
X2551500D02*
X2376100D01*
Y4852600D01*
X2551500D01*
Y5028000D01*
D02*
G37*
G36*
X364710Y4971400D02*
X346490D01*
X328890Y4966684D01*
X313110Y4957574D01*
X300226Y4944690D01*
X291116Y4928910D01*
X286400Y4911310D01*
Y4893090D01*
X291116Y4875490D01*
X300226Y4859710D01*
X313110Y4846826D01*
X328890Y4837716D01*
X346490Y4833000D01*
X364710D01*
X382310Y4837716D01*
X398090Y4846826D01*
X410974Y4859710D01*
X420084Y4875490D01*
X424800Y4893090D01*
Y4911310D01*
X420084Y4928910D01*
X410974Y4944690D01*
X398090Y4957574D01*
X382310Y4966684D01*
X364710Y4971400D01*
D02*
G37*
G36*
X1850700Y4517700D02*
X1705300D01*
Y4372300D01*
X1850700D01*
Y4517700D01*
D02*
G37*
G36*
X1393500D02*
X1248100D01*
Y4372300D01*
X1393500D01*
Y4517700D01*
D02*
G37*
G36*
X5726500Y4933950D02*
X5638800D01*
X5551100D01*
Y4928754D01*
X5557077Y4906449D01*
X5568623Y4886451D01*
X5584951Y4870123D01*
X5604949Y4858577D01*
X5612902Y4856446D01*
Y4262154D01*
X5604949Y4260023D01*
X5584951Y4248477D01*
X5568623Y4232149D01*
X5557077Y4212151D01*
X5554946Y4204198D01*
X5468654D01*
X5466523Y4212151D01*
X5454977Y4232149D01*
X5438649Y4248477D01*
X5418651Y4260023D01*
X5396346Y4266000D01*
X5391150D01*
Y4178300D01*
X5378450D01*
Y4266000D01*
X5373254D01*
X5350949Y4260023D01*
X5330951Y4248477D01*
X5314623Y4232149D01*
X5309098Y4222579D01*
X5296398Y4225982D01*
Y4319973D01*
X5358191Y4381766D01*
X5363805Y4390168D01*
X5365776Y4400079D01*
Y4696562D01*
X5365109Y4699918D01*
X5364876Y4703332D01*
X5364132Y4704831D01*
X5363805Y4706473D01*
X5361904Y4709317D01*
X5360382Y4712383D01*
X5350100Y4725709D01*
X5351300Y4728606D01*
Y4745594D01*
X5344799Y4761287D01*
X5332787Y4773299D01*
X5317094Y4779800D01*
X5300106D01*
X5284413Y4773299D01*
X5272401Y4761287D01*
X5265900Y4745594D01*
Y4728606D01*
X5272401Y4712913D01*
X5284413Y4700901D01*
X5300106Y4694400D01*
X5308836D01*
X5313981Y4687732D01*
Y4410806D01*
X5252188Y4349012D01*
X5246574Y4340611D01*
X5244602Y4330700D01*
Y4011227D01*
X5171782Y3938406D01*
X5164651Y3942523D01*
X5142346Y3948500D01*
X5119254D01*
X5096949Y3942523D01*
X5076951Y3930977D01*
X5060623Y3914649D01*
X5049077Y3894651D01*
X5043100Y3872346D01*
Y3849254D01*
X5049077Y3826949D01*
X5060623Y3806951D01*
X5076951Y3790623D01*
X5096949Y3779077D01*
X5119254Y3773100D01*
X5142346D01*
X5164651Y3779077D01*
X5184649Y3790623D01*
X5200977Y3806951D01*
X5212523Y3826949D01*
X5218500Y3849254D01*
Y3872346D01*
X5212523Y3894651D01*
X5208406Y3901782D01*
X5288812Y3982188D01*
X5294426Y3990589D01*
X5296398Y4000500D01*
Y4130618D01*
X5309098Y4134021D01*
X5314623Y4124451D01*
X5330951Y4108123D01*
X5350949Y4096577D01*
X5358902Y4094446D01*
Y3944654D01*
X5350949Y3942523D01*
X5330951Y3930977D01*
X5314623Y3914649D01*
X5303077Y3894651D01*
X5297100Y3872346D01*
Y3867150D01*
X5384800D01*
X5472500D01*
Y3872346D01*
X5466523Y3894651D01*
X5454977Y3914649D01*
X5438649Y3930977D01*
X5418651Y3942523D01*
X5410698Y3944654D01*
Y4094446D01*
X5418651Y4096577D01*
X5438649Y4108123D01*
X5454977Y4124451D01*
X5466523Y4144449D01*
X5468654Y4152402D01*
X5554946D01*
X5557077Y4144449D01*
X5568623Y4124451D01*
X5584951Y4108123D01*
X5604949Y4096577D01*
X5627254Y4090600D01*
X5632450D01*
Y4178300D01*
X5638800D01*
Y4184650D01*
X5726500D01*
Y4189846D01*
X5720523Y4212151D01*
X5708977Y4232149D01*
X5692649Y4248477D01*
X5672651Y4260023D01*
X5664698Y4262154D01*
Y4856446D01*
X5672651Y4858577D01*
X5692649Y4870123D01*
X5708977Y4886451D01*
X5720523Y4906449D01*
X5726500Y4928754D01*
Y4933950D01*
D02*
G37*
G36*
X1787571Y4267700D02*
X1784350D01*
Y4201350D01*
X1850700D01*
Y4204571D01*
X1845746Y4223061D01*
X1836174Y4239639D01*
X1822639Y4253174D01*
X1806061Y4262746D01*
X1787571Y4267700D01*
D02*
G37*
G36*
X1330371D02*
X1327150D01*
Y4201350D01*
X1393500D01*
Y4204571D01*
X1388546Y4223061D01*
X1378974Y4239639D01*
X1365439Y4253174D01*
X1348861Y4262746D01*
X1330371Y4267700D01*
D02*
G37*
G36*
X885871D02*
X882650D01*
Y4201350D01*
X949000D01*
Y4204571D01*
X944046Y4223061D01*
X934474Y4239639D01*
X920939Y4253174D01*
X904361Y4262746D01*
X885871Y4267700D01*
D02*
G37*
G36*
X1771650D02*
X1768429D01*
X1749939Y4262746D01*
X1733361Y4253174D01*
X1719826Y4239639D01*
X1710254Y4223061D01*
X1705300Y4204571D01*
Y4201350D01*
X1771650D01*
Y4267700D01*
D02*
G37*
G36*
X869950D02*
X866729D01*
X848239Y4262746D01*
X831661Y4253174D01*
X818126Y4239639D01*
X808554Y4223061D01*
X803600Y4204571D01*
Y4201350D01*
X869950D01*
Y4267700D01*
D02*
G37*
G36*
X1771650Y4188650D02*
X1705300D01*
Y4185429D01*
X1710254Y4166939D01*
X1719826Y4150361D01*
X1733361Y4136826D01*
X1749939Y4127254D01*
X1768429Y4122300D01*
X1771650D01*
Y4188650D01*
D02*
G37*
G36*
X1393500D02*
X1327150D01*
Y4122300D01*
X1330371D01*
X1348861Y4127254D01*
X1365439Y4136826D01*
X1378974Y4150361D01*
X1388546Y4166939D01*
X1393500Y4185429D01*
Y4188650D01*
D02*
G37*
G36*
X1314450D02*
X1248100D01*
Y4185429D01*
X1253054Y4166939D01*
X1262626Y4150361D01*
X1276161Y4136826D01*
X1292739Y4127254D01*
X1311229Y4122300D01*
X1314450D01*
Y4188650D01*
D02*
G37*
G36*
X949000D02*
X882650D01*
Y4122300D01*
X885871D01*
X904361Y4127254D01*
X920939Y4136826D01*
X934474Y4150361D01*
X944046Y4166939D01*
X949000Y4185429D01*
Y4188650D01*
D02*
G37*
G36*
X869950D02*
X803600D01*
Y4185429D01*
X808554Y4166939D01*
X818126Y4150361D01*
X831661Y4136826D01*
X848239Y4127254D01*
X866729Y4122300D01*
X869950D01*
Y4188650D01*
D02*
G37*
G36*
X5904346Y4266000D02*
X5881254D01*
X5858949Y4260023D01*
X5838951Y4248477D01*
X5822623Y4232149D01*
X5811077Y4212151D01*
X5805100Y4189846D01*
Y4166754D01*
X5811077Y4144449D01*
X5822623Y4124451D01*
X5838951Y4108123D01*
X5858949Y4096577D01*
X5881254Y4090600D01*
X5904346D01*
X5926651Y4096577D01*
X5946649Y4108123D01*
X5962977Y4124451D01*
X5974523Y4144449D01*
X5980500Y4166754D01*
Y4189846D01*
X5974523Y4212151D01*
X5962977Y4232149D01*
X5946649Y4248477D01*
X5926651Y4260023D01*
X5904346Y4266000D01*
D02*
G37*
G36*
X5726500Y4171950D02*
X5645150D01*
Y4090600D01*
X5650346D01*
X5672651Y4096577D01*
X5692649Y4108123D01*
X5708977Y4124451D01*
X5720523Y4144449D01*
X5726500Y4166754D01*
Y4171950D01*
D02*
G37*
G36*
X5142346Y4266000D02*
X5119254D01*
X5096949Y4260023D01*
X5076951Y4248477D01*
X5060623Y4232149D01*
X5049077Y4212151D01*
X5043100Y4189846D01*
Y4166754D01*
X5049077Y4144449D01*
X5060623Y4124451D01*
X5063175Y4121899D01*
X4993073Y4051798D01*
X4592642D01*
X4582731Y4049826D01*
X4574329Y4044212D01*
X4416814Y3886698D01*
X4164400D01*
Y3948500D01*
X3989000D01*
Y3773100D01*
X4164400D01*
Y3834902D01*
X4427542D01*
X4437452Y3836874D01*
X4445854Y3842488D01*
X4603369Y4000002D01*
X5003800D01*
X5013711Y4001974D01*
X5022112Y4007588D01*
X5108111Y4093586D01*
X5119254Y4090600D01*
X5142346D01*
X5164651Y4096577D01*
X5184649Y4108123D01*
X5200977Y4124451D01*
X5212523Y4144449D01*
X5218500Y4166754D01*
Y4189846D01*
X5212523Y4212151D01*
X5200977Y4232149D01*
X5184649Y4248477D01*
X5164651Y4260023D01*
X5142346Y4266000D01*
D02*
G37*
G36*
X4888346D02*
X4865254D01*
X4842949Y4260023D01*
X4822951Y4248477D01*
X4806623Y4232149D01*
X4795077Y4212151D01*
X4789100Y4189846D01*
Y4166754D01*
X4795077Y4144449D01*
X4806623Y4124451D01*
X4822951Y4108123D01*
X4842949Y4096577D01*
X4865254Y4090600D01*
X4888346D01*
X4910651Y4096577D01*
X4930649Y4108123D01*
X4946977Y4124451D01*
X4958523Y4144449D01*
X4964500Y4166754D01*
Y4189846D01*
X4958523Y4212151D01*
X4946977Y4232149D01*
X4930649Y4248477D01*
X4910651Y4260023D01*
X4888346Y4266000D01*
D02*
G37*
G36*
X3999346D02*
X3976254D01*
X3953949Y4260023D01*
X3933951Y4248477D01*
X3917623Y4232149D01*
X3906077Y4212151D01*
X3900100Y4189846D01*
Y4166754D01*
X3906077Y4144449D01*
X3917623Y4124451D01*
X3933951Y4108123D01*
X3953949Y4096577D01*
X3976254Y4090600D01*
X3999346D01*
X4021651Y4096577D01*
X4041649Y4108123D01*
X4057977Y4124451D01*
X4069523Y4144449D01*
X4075500Y4166754D01*
Y4189846D01*
X4069523Y4212151D01*
X4057977Y4232149D01*
X4041649Y4248477D01*
X4021651Y4260023D01*
X3999346Y4266000D01*
D02*
G37*
G36*
X3745346D02*
X3722254D01*
X3699949Y4260023D01*
X3679951Y4248477D01*
X3663623Y4232149D01*
X3652077Y4212151D01*
X3646100Y4189846D01*
Y4166754D01*
X3652077Y4144449D01*
X3663623Y4124451D01*
X3679951Y4108123D01*
X3699949Y4096577D01*
X3722254Y4090600D01*
X3745346D01*
X3767651Y4096577D01*
X3787649Y4108123D01*
X3803977Y4124451D01*
X3815523Y4144449D01*
X3821500Y4166754D01*
Y4189846D01*
X3815523Y4212151D01*
X3803977Y4232149D01*
X3787649Y4248477D01*
X3767651Y4260023D01*
X3745346Y4266000D01*
D02*
G37*
G36*
X3491346D02*
X3468254D01*
X3445949Y4260023D01*
X3425951Y4248477D01*
X3409623Y4232149D01*
X3398077Y4212151D01*
X3392100Y4189846D01*
Y4166754D01*
X3398077Y4144449D01*
X3409623Y4124451D01*
X3425951Y4108123D01*
X3445949Y4096577D01*
X3468254Y4090600D01*
X3491346D01*
X3513651Y4096577D01*
X3533649Y4108123D01*
X3549977Y4124451D01*
X3561523Y4144449D01*
X3567500Y4166754D01*
Y4189846D01*
X3561523Y4212151D01*
X3549977Y4232149D01*
X3533649Y4248477D01*
X3513651Y4260023D01*
X3491346Y4266000D01*
D02*
G37*
G36*
X3237346D02*
X3214254D01*
X3191949Y4260023D01*
X3171951Y4248477D01*
X3155623Y4232149D01*
X3144077Y4212151D01*
X3138100Y4189846D01*
Y4166754D01*
X3144077Y4144449D01*
X3155623Y4124451D01*
X3171951Y4108123D01*
X3191949Y4096577D01*
X3214254Y4090600D01*
X3237346D01*
X3259651Y4096577D01*
X3279649Y4108123D01*
X3295977Y4124451D01*
X3307523Y4144449D01*
X3313500Y4166754D01*
Y4189846D01*
X3307523Y4212151D01*
X3295977Y4232149D01*
X3279649Y4248477D01*
X3259651Y4260023D01*
X3237346Y4266000D01*
D02*
G37*
G36*
X2983346D02*
X2960254D01*
X2937949Y4260023D01*
X2917951Y4248477D01*
X2901623Y4232149D01*
X2890077Y4212151D01*
X2884100Y4189846D01*
Y4166754D01*
X2890077Y4144449D01*
X2901623Y4124451D01*
X2917951Y4108123D01*
X2937949Y4096577D01*
X2960254Y4090600D01*
X2983346D01*
X3005651Y4096577D01*
X3025649Y4108123D01*
X3041977Y4124451D01*
X3053523Y4144449D01*
X3059500Y4166754D01*
Y4189846D01*
X3053523Y4212151D01*
X3041977Y4232149D01*
X3025649Y4248477D01*
X3005651Y4260023D01*
X2983346Y4266000D01*
D02*
G37*
G36*
X2729346D02*
X2706254D01*
X2683949Y4260023D01*
X2663951Y4248477D01*
X2647623Y4232149D01*
X2636077Y4212151D01*
X2630100Y4189846D01*
Y4166754D01*
X2636077Y4144449D01*
X2647623Y4124451D01*
X2663951Y4108123D01*
X2683949Y4096577D01*
X2706254Y4090600D01*
X2729346D01*
X2751651Y4096577D01*
X2771649Y4108123D01*
X2787977Y4124451D01*
X2799523Y4144449D01*
X2805500Y4166754D01*
Y4189846D01*
X2799523Y4212151D01*
X2787977Y4232149D01*
X2771649Y4248477D01*
X2751651Y4260023D01*
X2729346Y4266000D01*
D02*
G37*
G36*
X4634346Y3948500D02*
X4629150D01*
Y3867150D01*
X4710500D01*
Y3872346D01*
X4704523Y3894651D01*
X4692977Y3914649D01*
X4676649Y3930977D01*
X4656651Y3942523D01*
X4634346Y3948500D01*
D02*
G37*
G36*
X3072246D02*
X3067050D01*
Y3867150D01*
X3148400D01*
Y3872346D01*
X3142423Y3894651D01*
X3130877Y3914649D01*
X3114549Y3930977D01*
X3094551Y3942523D01*
X3072246Y3948500D01*
D02*
G37*
G36*
X2310246D02*
X2305050D01*
Y3867150D01*
X2386400D01*
Y3872346D01*
X2380423Y3894651D01*
X2368877Y3914649D01*
X2352549Y3930977D01*
X2332551Y3942523D01*
X2310246Y3948500D01*
D02*
G37*
G36*
X4616450D02*
X4611254D01*
X4588949Y3942523D01*
X4568951Y3930977D01*
X4552623Y3914649D01*
X4541077Y3894651D01*
X4535100Y3872346D01*
Y3867150D01*
X4616450D01*
Y3948500D01*
D02*
G37*
G36*
X3054350D02*
X3049154D01*
X3026849Y3942523D01*
X3006851Y3930977D01*
X2990523Y3914649D01*
X2978977Y3894651D01*
X2973000Y3872346D01*
Y3867150D01*
X3054350D01*
Y3948500D01*
D02*
G37*
G36*
X6488500D02*
X6313100D01*
Y3773100D01*
X6488500D01*
Y3948500D01*
D02*
G37*
G36*
X5650346D02*
X5627254D01*
X5604949Y3942523D01*
X5584951Y3930977D01*
X5568623Y3914649D01*
X5557077Y3894651D01*
X5551100Y3872346D01*
Y3849254D01*
X5557077Y3826949D01*
X5568623Y3806951D01*
X5584951Y3790623D01*
X5604949Y3779077D01*
X5627254Y3773100D01*
X5650346D01*
X5672651Y3779077D01*
X5692649Y3790623D01*
X5708977Y3806951D01*
X5720523Y3826949D01*
X5726500Y3849254D01*
Y3872346D01*
X5720523Y3894651D01*
X5708977Y3914649D01*
X5692649Y3930977D01*
X5672651Y3942523D01*
X5650346Y3948500D01*
D02*
G37*
G36*
X5472500Y3854450D02*
X5391150D01*
Y3773100D01*
X5396346D01*
X5418651Y3779077D01*
X5438649Y3790623D01*
X5454977Y3806951D01*
X5466523Y3826949D01*
X5472500Y3849254D01*
Y3854450D01*
D02*
G37*
G36*
X5378450D02*
X5297100D01*
Y3849254D01*
X5303077Y3826949D01*
X5314623Y3806951D01*
X5330951Y3790623D01*
X5350949Y3779077D01*
X5373254Y3773100D01*
X5378450D01*
Y3854450D01*
D02*
G37*
G36*
X4888346Y3948500D02*
X4865254D01*
X4842949Y3942523D01*
X4822951Y3930977D01*
X4806623Y3914649D01*
X4795077Y3894651D01*
X4789100Y3872346D01*
Y3849254D01*
X4795077Y3826949D01*
X4806623Y3806951D01*
X4822951Y3790623D01*
X4842949Y3779077D01*
X4865254Y3773100D01*
X4888346D01*
X4910651Y3779077D01*
X4930649Y3790623D01*
X4946977Y3806951D01*
X4958523Y3826949D01*
X4964500Y3849254D01*
Y3872346D01*
X4958523Y3894651D01*
X4946977Y3914649D01*
X4930649Y3930977D01*
X4910651Y3942523D01*
X4888346Y3948500D01*
D02*
G37*
G36*
X4710500Y3854450D02*
X4629150D01*
Y3773100D01*
X4634346D01*
X4656651Y3779077D01*
X4676649Y3790623D01*
X4692977Y3806951D01*
X4704523Y3826949D01*
X4710500Y3849254D01*
Y3854450D01*
D02*
G37*
G36*
X4616450D02*
X4535100D01*
Y3849254D01*
X4541077Y3826949D01*
X4552623Y3806951D01*
X4568951Y3790623D01*
X4588949Y3779077D01*
X4611254Y3773100D01*
X4616450D01*
Y3854450D01*
D02*
G37*
G36*
X3834246Y3948500D02*
X3811154D01*
X3788849Y3942523D01*
X3768851Y3930977D01*
X3752523Y3914649D01*
X3740977Y3894651D01*
X3735000Y3872346D01*
Y3849254D01*
X3740977Y3826949D01*
X3752523Y3806951D01*
X3768851Y3790623D01*
X3788849Y3779077D01*
X3811154Y3773100D01*
X3834246D01*
X3856551Y3779077D01*
X3876549Y3790623D01*
X3892877Y3806951D01*
X3904423Y3826949D01*
X3910400Y3849254D01*
Y3872346D01*
X3904423Y3894651D01*
X3892877Y3914649D01*
X3876549Y3930977D01*
X3856551Y3942523D01*
X3834246Y3948500D01*
D02*
G37*
G36*
X2475346Y4266000D02*
X2452254D01*
X2429949Y4260023D01*
X2409951Y4248477D01*
X2393623Y4232149D01*
X2382077Y4212151D01*
X2376100Y4189846D01*
Y4166754D01*
X2382077Y4144449D01*
X2393623Y4124451D01*
X2409951Y4108123D01*
X2429949Y4096577D01*
X2452254Y4090600D01*
X2475346D01*
X2486489Y4093586D01*
X2572488Y4007588D01*
X2580890Y4001974D01*
X2590800Y4000002D01*
X3227773D01*
X3264961Y3962814D01*
Y3933350D01*
X3260851Y3930977D01*
X3244523Y3914649D01*
X3232977Y3894651D01*
X3227000Y3872346D01*
Y3849254D01*
X3232977Y3826949D01*
X3244523Y3806951D01*
X3260851Y3790623D01*
X3280849Y3779077D01*
X3303154Y3773100D01*
X3326246D01*
X3348551Y3779077D01*
X3368549Y3790623D01*
X3384877Y3806951D01*
X3396423Y3826949D01*
X3402400Y3849254D01*
Y3872346D01*
X3396423Y3894651D01*
X3384877Y3914649D01*
X3368549Y3930977D01*
X3348551Y3942523D01*
X3326246Y3948500D01*
X3316757D01*
Y3973541D01*
X3314785Y3983452D01*
X3309171Y3991853D01*
X3256812Y4044212D01*
X3248411Y4049826D01*
X3238500Y4051798D01*
X2601527D01*
X2531425Y4121899D01*
X2533977Y4124451D01*
X2545523Y4144449D01*
X2551500Y4166754D01*
Y4189846D01*
X2545523Y4212151D01*
X2533977Y4232149D01*
X2517649Y4248477D01*
X2497651Y4260023D01*
X2475346Y4266000D01*
D02*
G37*
G36*
X3148400Y3854450D02*
X3067050D01*
Y3773100D01*
X3072246D01*
X3094551Y3779077D01*
X3114549Y3790623D01*
X3130877Y3806951D01*
X3142423Y3826949D01*
X3148400Y3849254D01*
Y3854450D01*
D02*
G37*
G36*
X3054350D02*
X2973000D01*
Y3849254D01*
X2978977Y3826949D01*
X2990523Y3806951D01*
X3006851Y3790623D01*
X3026849Y3779077D01*
X3049154Y3773100D01*
X3054350D01*
Y3854450D01*
D02*
G37*
G36*
X2818246Y3948500D02*
X2795154D01*
X2772849Y3942523D01*
X2752851Y3930977D01*
X2736523Y3914649D01*
X2724977Y3894651D01*
X2719000Y3872346D01*
Y3849254D01*
X2724977Y3826949D01*
X2736523Y3806951D01*
X2752851Y3790623D01*
X2772849Y3779077D01*
X2795154Y3773100D01*
X2818246D01*
X2840551Y3779077D01*
X2860549Y3790623D01*
X2876877Y3806951D01*
X2888423Y3826949D01*
X2894400Y3849254D01*
Y3872346D01*
X2888423Y3894651D01*
X2876877Y3914649D01*
X2860549Y3930977D01*
X2840551Y3942523D01*
X2818246Y3948500D01*
D02*
G37*
G36*
X2564246D02*
X2541154D01*
X2518849Y3942523D01*
X2498851Y3930977D01*
X2482523Y3914649D01*
X2470977Y3894651D01*
X2465000Y3872346D01*
Y3849254D01*
X2470977Y3826949D01*
X2482523Y3806951D01*
X2498851Y3790623D01*
X2518849Y3779077D01*
X2541154Y3773100D01*
X2564246D01*
X2586551Y3779077D01*
X2606549Y3790623D01*
X2622877Y3806951D01*
X2634423Y3826949D01*
X2640400Y3849254D01*
Y3872346D01*
X2634423Y3894651D01*
X2622877Y3914649D01*
X2606549Y3930977D01*
X2586551Y3942523D01*
X2564246Y3948500D01*
D02*
G37*
G36*
X2386400Y3854450D02*
X2305050D01*
Y3773100D01*
X2310246D01*
X2332551Y3779077D01*
X2352549Y3790623D01*
X2368877Y3806951D01*
X2380423Y3826949D01*
X2386400Y3849254D01*
Y3854450D01*
D02*
G37*
G36*
X1850700Y4188650D02*
X1784350D01*
Y4122300D01*
X1787571D01*
X1806061Y4127254D01*
X1808001Y4128374D01*
X2093888Y3842488D01*
X2102289Y3836874D01*
X2112200Y3834902D01*
X2214846D01*
X2216977Y3826949D01*
X2228523Y3806951D01*
X2244851Y3790623D01*
X2264849Y3779077D01*
X2287154Y3773100D01*
X2292350D01*
Y3860800D01*
Y3948500D01*
X2287154D01*
X2264849Y3942523D01*
X2244851Y3930977D01*
X2228523Y3914649D01*
X2216977Y3894651D01*
X2214846Y3886698D01*
X2122927D01*
X1844626Y4164999D01*
X1845746Y4166939D01*
X1850700Y4185429D01*
Y4188650D01*
D02*
G37*
G36*
X1167500Y3701400D02*
X1104650D01*
Y3638550D01*
X1167500D01*
Y3701400D01*
D02*
G37*
G36*
X1091950D02*
X1029100D01*
Y3638550D01*
X1091950D01*
Y3701400D01*
D02*
G37*
G36*
X1901410D02*
X1883190D01*
X1865590Y3696684D01*
X1849810Y3687574D01*
X1836926Y3674690D01*
X1827816Y3658910D01*
X1823100Y3641310D01*
Y3623090D01*
X1827816Y3605490D01*
X1836926Y3589710D01*
X1849810Y3576826D01*
X1865590Y3567716D01*
X1883190Y3563000D01*
X1901410D01*
X1919010Y3567716D01*
X1934790Y3576826D01*
X1947674Y3589710D01*
X1956784Y3605490D01*
X1961500Y3623090D01*
Y3641310D01*
X1956784Y3658910D01*
X1947674Y3674690D01*
X1934790Y3687574D01*
X1919010Y3696684D01*
X1901410Y3701400D01*
D02*
G37*
G36*
X1167500Y3625850D02*
X1104650D01*
Y3563000D01*
X1167500D01*
Y3625850D01*
D02*
G37*
G36*
X1091950D02*
X1029100D01*
Y3563000D01*
X1091950D01*
Y3625850D01*
D02*
G37*
G36*
X1901410Y3447400D02*
X1883190D01*
X1865590Y3442684D01*
X1849810Y3433574D01*
X1836926Y3420690D01*
X1827816Y3404910D01*
X1823100Y3387310D01*
Y3369090D01*
X1827816Y3351490D01*
X1828236Y3350761D01*
X1429488Y2952012D01*
X1423874Y2943611D01*
X1421902Y2933700D01*
Y2395013D01*
X1418774Y2394175D01*
X1401626Y2384275D01*
X1387625Y2370274D01*
X1377725Y2353126D01*
X1372600Y2334000D01*
Y2314200D01*
X1377725Y2295074D01*
X1387625Y2277926D01*
X1401626Y2263925D01*
X1418774Y2254025D01*
X1437900Y2248900D01*
X1457700D01*
X1476826Y2254025D01*
X1493974Y2263925D01*
X1507975Y2277926D01*
X1517875Y2295074D01*
X1523000Y2314200D01*
Y2334000D01*
X1517875Y2353126D01*
X1507975Y2370274D01*
X1493974Y2384275D01*
X1476826Y2394175D01*
X1473698Y2395013D01*
Y2922973D01*
X1864861Y3314136D01*
X1865590Y3313716D01*
X1883190Y3309000D01*
X1901410D01*
X1919010Y3313716D01*
X1934790Y3322826D01*
X1947674Y3335710D01*
X1956784Y3351490D01*
X1961500Y3369090D01*
Y3387310D01*
X1956784Y3404910D01*
X1947674Y3420690D01*
X1934790Y3433574D01*
X1919010Y3442684D01*
X1901410Y3447400D01*
D02*
G37*
G36*
X1107411D02*
X1089190D01*
X1071590Y3442684D01*
X1055810Y3433574D01*
X1042926Y3420690D01*
X1033816Y3404910D01*
X1029100Y3387310D01*
Y3369090D01*
X1033816Y3351490D01*
X1042926Y3335710D01*
X1055810Y3322826D01*
X1071590Y3313716D01*
X1089190Y3309000D01*
X1107411D01*
X1125010Y3313716D01*
X1140790Y3322826D01*
X1153674Y3335710D01*
X1162784Y3351490D01*
X1167500Y3369090D01*
Y3387310D01*
X1162784Y3404910D01*
X1153674Y3420690D01*
X1140790Y3433574D01*
X1125010Y3442684D01*
X1107411Y3447400D01*
D02*
G37*
G36*
X1901410Y3193400D02*
X1883190D01*
X1865590Y3188684D01*
X1849810Y3179574D01*
X1836926Y3166690D01*
X1827816Y3150910D01*
X1823100Y3133310D01*
Y3115090D01*
X1827816Y3097490D01*
X1836926Y3081710D01*
X1849810Y3068826D01*
X1865590Y3059716D01*
X1883190Y3055000D01*
X1901410D01*
X1919010Y3059716D01*
X1934790Y3068826D01*
X1947674Y3081710D01*
X1956784Y3097490D01*
X1961500Y3115090D01*
Y3133310D01*
X1956784Y3150910D01*
X1947674Y3166690D01*
X1934790Y3179574D01*
X1919010Y3188684D01*
X1901410Y3193400D01*
D02*
G37*
G36*
X6158346Y3186500D02*
X6135254D01*
X6112949Y3180523D01*
X6092951Y3168977D01*
X6076623Y3152649D01*
X6065077Y3132651D01*
X6059100Y3110346D01*
Y3087254D01*
X6065077Y3064949D01*
X6076623Y3044951D01*
X6092951Y3028623D01*
X6112949Y3017077D01*
X6135254Y3011100D01*
X6158346D01*
X6180651Y3017077D01*
X6200649Y3028623D01*
X6216977Y3044951D01*
X6228523Y3064949D01*
X6234500Y3087254D01*
Y3110346D01*
X6228523Y3132651D01*
X6216977Y3152649D01*
X6200649Y3168977D01*
X6180651Y3180523D01*
X6158346Y3186500D01*
D02*
G37*
G36*
X5904346D02*
X5881254D01*
X5858949Y3180523D01*
X5838951Y3168977D01*
X5822623Y3152649D01*
X5811077Y3132651D01*
X5805100Y3110346D01*
Y3087254D01*
X5811077Y3064949D01*
X5822623Y3044951D01*
X5838951Y3028623D01*
X5858949Y3017077D01*
X5881254Y3011100D01*
X5904346D01*
X5926651Y3017077D01*
X5946649Y3028623D01*
X5962977Y3044951D01*
X5974523Y3064949D01*
X5980500Y3087254D01*
Y3110346D01*
X5974523Y3132651D01*
X5962977Y3152649D01*
X5946649Y3168977D01*
X5926651Y3180523D01*
X5904346Y3186500D01*
D02*
G37*
G36*
X5650346D02*
X5627254D01*
X5604949Y3180523D01*
X5584951Y3168977D01*
X5568623Y3152649D01*
X5557077Y3132651D01*
X5551100Y3110346D01*
Y3087254D01*
X5557077Y3064949D01*
X5568623Y3044951D01*
X5584951Y3028623D01*
X5604949Y3017077D01*
X5627254Y3011100D01*
X5650346D01*
X5672651Y3017077D01*
X5692649Y3028623D01*
X5708977Y3044951D01*
X5720523Y3064949D01*
X5726500Y3087254D01*
Y3110346D01*
X5720523Y3132651D01*
X5708977Y3152649D01*
X5692649Y3168977D01*
X5672651Y3180523D01*
X5650346Y3186500D01*
D02*
G37*
G36*
X5396346D02*
X5373254D01*
X5350949Y3180523D01*
X5330951Y3168977D01*
X5314623Y3152649D01*
X5303077Y3132651D01*
X5297100Y3110346D01*
Y3087254D01*
X5303077Y3064949D01*
X5314623Y3044951D01*
X5330951Y3028623D01*
X5350949Y3017077D01*
X5373254Y3011100D01*
X5396346D01*
X5418651Y3017077D01*
X5438649Y3028623D01*
X5454977Y3044951D01*
X5466523Y3064949D01*
X5472500Y3087254D01*
Y3110346D01*
X5466523Y3132651D01*
X5454977Y3152649D01*
X5438649Y3168977D01*
X5418651Y3180523D01*
X5396346Y3186500D01*
D02*
G37*
G36*
X5142346D02*
X5119254D01*
X5096949Y3180523D01*
X5076951Y3168977D01*
X5060623Y3152649D01*
X5049077Y3132651D01*
X5043100Y3110346D01*
Y3087254D01*
X5049077Y3064949D01*
X5060623Y3044951D01*
X5076951Y3028623D01*
X5096949Y3017077D01*
X5119254Y3011100D01*
X5142346D01*
X5164651Y3017077D01*
X5184649Y3028623D01*
X5200977Y3044951D01*
X5212523Y3064949D01*
X5218500Y3087254D01*
Y3110346D01*
X5212523Y3132651D01*
X5200977Y3152649D01*
X5184649Y3168977D01*
X5164651Y3180523D01*
X5142346Y3186500D01*
D02*
G37*
G36*
X4888346D02*
X4865254D01*
X4842949Y3180523D01*
X4822951Y3168977D01*
X4806623Y3152649D01*
X4795077Y3132651D01*
X4789100Y3110346D01*
Y3087254D01*
X4795077Y3064949D01*
X4806623Y3044951D01*
X4822951Y3028623D01*
X4842949Y3017077D01*
X4865254Y3011100D01*
X4888346D01*
X4910651Y3017077D01*
X4930649Y3028623D01*
X4946977Y3044951D01*
X4958523Y3064949D01*
X4964500Y3087254D01*
Y3110346D01*
X4958523Y3132651D01*
X4946977Y3152649D01*
X4930649Y3168977D01*
X4910651Y3180523D01*
X4888346Y3186500D01*
D02*
G37*
G36*
X4634346D02*
X4611254D01*
X4588949Y3180523D01*
X4568951Y3168977D01*
X4552623Y3152649D01*
X4541077Y3132651D01*
X4535100Y3110346D01*
Y3087254D01*
X4541077Y3064949D01*
X4552623Y3044951D01*
X4568951Y3028623D01*
X4588949Y3017077D01*
X4611254Y3011100D01*
X4634346D01*
X4656651Y3017077D01*
X4676649Y3028623D01*
X4692977Y3044951D01*
X4704523Y3064949D01*
X4710500Y3087254D01*
Y3110346D01*
X4704523Y3132651D01*
X4692977Y3152649D01*
X4676649Y3168977D01*
X4656651Y3180523D01*
X4634346Y3186500D01*
D02*
G37*
G36*
X3580246Y3948500D02*
X3557154D01*
X3534849Y3942523D01*
X3514851Y3930977D01*
X3498523Y3914649D01*
X3486977Y3894651D01*
X3481000Y3872346D01*
Y3849254D01*
X3486977Y3826949D01*
X3498523Y3806951D01*
X3514851Y3790623D01*
X3534849Y3779077D01*
X3542802Y3776946D01*
Y3606800D01*
X3544774Y3596889D01*
X3550388Y3588488D01*
X3999094Y3139782D01*
X3994977Y3132651D01*
X3989000Y3110346D01*
Y3087254D01*
X3994977Y3064949D01*
X4006523Y3044951D01*
X4022851Y3028623D01*
X4042849Y3017077D01*
X4065154Y3011100D01*
X4088246D01*
X4110551Y3017077D01*
X4130549Y3028623D01*
X4146877Y3044951D01*
X4158423Y3064949D01*
X4164400Y3087254D01*
Y3110346D01*
X4158423Y3132651D01*
X4146877Y3152649D01*
X4130549Y3168977D01*
X4110551Y3180523D01*
X4088246Y3186500D01*
X4065154D01*
X4042849Y3180523D01*
X4035718Y3176406D01*
X3594598Y3617527D01*
Y3776946D01*
X3602551Y3779077D01*
X3622549Y3790623D01*
X3638877Y3806951D01*
X3650423Y3826949D01*
X3656400Y3849254D01*
Y3872346D01*
X3650423Y3894651D01*
X3638877Y3914649D01*
X3622549Y3930977D01*
X3602551Y3942523D01*
X3580246Y3948500D01*
D02*
G37*
G36*
X3834246Y3186500D02*
X3811154D01*
X3788849Y3180523D01*
X3768851Y3168977D01*
X3752523Y3152649D01*
X3740977Y3132651D01*
X3735000Y3110346D01*
Y3087254D01*
X3740977Y3064949D01*
X3752523Y3044951D01*
X3768851Y3028623D01*
X3788849Y3017077D01*
X3811154Y3011100D01*
X3834246D01*
X3856551Y3017077D01*
X3876549Y3028623D01*
X3892877Y3044951D01*
X3904423Y3064949D01*
X3910400Y3087254D01*
Y3110346D01*
X3904423Y3132651D01*
X3892877Y3152649D01*
X3876549Y3168977D01*
X3856551Y3180523D01*
X3834246Y3186500D01*
D02*
G37*
G36*
X3580246D02*
X3557154D01*
X3534849Y3180523D01*
X3514851Y3168977D01*
X3498523Y3152649D01*
X3486977Y3132651D01*
X3481000Y3110346D01*
Y3087254D01*
X3486977Y3064949D01*
X3498523Y3044951D01*
X3514851Y3028623D01*
X3534849Y3017077D01*
X3557154Y3011100D01*
X3580246D01*
X3602551Y3017077D01*
X3622549Y3028623D01*
X3638877Y3044951D01*
X3650423Y3064949D01*
X3656400Y3087254D01*
Y3110346D01*
X3650423Y3132651D01*
X3638877Y3152649D01*
X3622549Y3168977D01*
X3602551Y3180523D01*
X3580246Y3186500D01*
D02*
G37*
G36*
X3326246D02*
X3303154D01*
X3280849Y3180523D01*
X3260851Y3168977D01*
X3244523Y3152649D01*
X3232977Y3132651D01*
X3227000Y3110346D01*
Y3087254D01*
X3232977Y3064949D01*
X3244523Y3044951D01*
X3260851Y3028623D01*
X3280849Y3017077D01*
X3303154Y3011100D01*
X3326246D01*
X3348551Y3017077D01*
X3368549Y3028623D01*
X3384877Y3044951D01*
X3396423Y3064949D01*
X3402400Y3087254D01*
Y3110346D01*
X3396423Y3132651D01*
X3384877Y3152649D01*
X3368549Y3168977D01*
X3348551Y3180523D01*
X3326246Y3186500D01*
D02*
G37*
G36*
X3072246D02*
X3049154D01*
X3026849Y3180523D01*
X3006851Y3168977D01*
X2990523Y3152649D01*
X2978977Y3132651D01*
X2973000Y3110346D01*
Y3087254D01*
X2978977Y3064949D01*
X2990523Y3044951D01*
X3006851Y3028623D01*
X3026849Y3017077D01*
X3049154Y3011100D01*
X3072246D01*
X3094551Y3017077D01*
X3114549Y3028623D01*
X3130877Y3044951D01*
X3142423Y3064949D01*
X3148400Y3087254D01*
Y3110346D01*
X3142423Y3132651D01*
X3130877Y3152649D01*
X3114549Y3168977D01*
X3094551Y3180523D01*
X3072246Y3186500D01*
D02*
G37*
G36*
X2818246D02*
X2795154D01*
X2772849Y3180523D01*
X2752851Y3168977D01*
X2736523Y3152649D01*
X2724977Y3132651D01*
X2719000Y3110346D01*
Y3087254D01*
X2724977Y3064949D01*
X2736523Y3044951D01*
X2752851Y3028623D01*
X2772849Y3017077D01*
X2795154Y3011100D01*
X2818246D01*
X2840551Y3017077D01*
X2860549Y3028623D01*
X2876877Y3044951D01*
X2888423Y3064949D01*
X2894400Y3087254D01*
Y3110346D01*
X2888423Y3132651D01*
X2876877Y3152649D01*
X2860549Y3168977D01*
X2840551Y3180523D01*
X2818246Y3186500D01*
D02*
G37*
G36*
X2564246D02*
X2541154D01*
X2518849Y3180523D01*
X2498851Y3168977D01*
X2482523Y3152649D01*
X2470977Y3132651D01*
X2465000Y3110346D01*
Y3087254D01*
X2470977Y3064949D01*
X2482523Y3044951D01*
X2498851Y3028623D01*
X2518849Y3017077D01*
X2541154Y3011100D01*
X2564246D01*
X2586551Y3017077D01*
X2606549Y3028623D01*
X2622877Y3044951D01*
X2634423Y3064949D01*
X2640400Y3087254D01*
Y3110346D01*
X2634423Y3132651D01*
X2622877Y3152649D01*
X2606549Y3168977D01*
X2586551Y3180523D01*
X2564246Y3186500D01*
D02*
G37*
G36*
X2310246D02*
X2287154D01*
X2264849Y3180523D01*
X2244851Y3168977D01*
X2228523Y3152649D01*
X2216977Y3132651D01*
X2211000Y3110346D01*
Y3087254D01*
X2216977Y3064949D01*
X2228523Y3044951D01*
X2244851Y3028623D01*
X2264849Y3017077D01*
X2287154Y3011100D01*
X2310246D01*
X2332551Y3017077D01*
X2352549Y3028623D01*
X2368877Y3044951D01*
X2380423Y3064949D01*
X2386400Y3087254D01*
Y3110346D01*
X2380423Y3132651D01*
X2368877Y3152649D01*
X2352549Y3168977D01*
X2332551Y3180523D01*
X2310246Y3186500D01*
D02*
G37*
G36*
X1901410Y2939400D02*
X1883190D01*
X1865590Y2934684D01*
X1849810Y2925574D01*
X1836926Y2912690D01*
X1827816Y2896910D01*
X1823100Y2879310D01*
Y2861090D01*
X1827816Y2843490D01*
X1836926Y2827710D01*
X1849810Y2814826D01*
X1865590Y2805716D01*
X1883190Y2801000D01*
X1901410D01*
X1919010Y2805716D01*
X1934790Y2814826D01*
X1947674Y2827710D01*
X1956784Y2843490D01*
X1961500Y2861090D01*
Y2879310D01*
X1956784Y2896910D01*
X1947674Y2912690D01*
X1934790Y2925574D01*
X1919010Y2934684D01*
X1901410Y2939400D01*
D02*
G37*
G36*
X1107411D02*
X1089190D01*
X1071590Y2934684D01*
X1055810Y2925574D01*
X1042926Y2912690D01*
X1033816Y2896910D01*
X1029100Y2879310D01*
Y2861090D01*
X1033816Y2843490D01*
X1042926Y2827710D01*
X1055810Y2814826D01*
X1071590Y2805716D01*
X1089190Y2801000D01*
X1107411D01*
X1125010Y2805716D01*
X1140790Y2814826D01*
X1153674Y2827710D01*
X1162784Y2843490D01*
X1167500Y2861090D01*
Y2879310D01*
X1162784Y2896910D01*
X1153674Y2912690D01*
X1140790Y2925574D01*
X1125010Y2934684D01*
X1107411Y2939400D01*
D02*
G37*
G36*
X2155500Y2219000D02*
X2010100D01*
Y2073600D01*
X2155500D01*
Y2219000D01*
D02*
G37*
G36*
X1711700Y2145300D02*
X1691900D01*
X1672774Y2140175D01*
X1655626Y2130275D01*
X1641625Y2116274D01*
X1631725Y2099126D01*
X1626600Y2080000D01*
Y2060200D01*
X1631725Y2041074D01*
X1641625Y2023926D01*
X1655626Y2009925D01*
X1672774Y2000025D01*
X1691900Y1994900D01*
X1711700D01*
X1730826Y2000025D01*
X1747974Y2009925D01*
X1761975Y2023926D01*
X1771875Y2041074D01*
X1777000Y2060200D01*
Y2080000D01*
X1771875Y2099126D01*
X1761975Y2116274D01*
X1747974Y2130275D01*
X1730826Y2140175D01*
X1711700Y2145300D01*
D02*
G37*
G36*
X1269000D02*
X1118600D01*
Y1994900D01*
X1269000D01*
Y2145300D01*
D02*
G37*
G36*
X5724690Y2004000D02*
X5721350D01*
Y1936750D01*
X5788600D01*
Y1940090D01*
X5783584Y1958809D01*
X5773895Y1975591D01*
X5760191Y1989295D01*
X5743409Y1998984D01*
X5724690Y2004000D01*
D02*
G37*
G36*
X3857790D02*
X3854450D01*
Y1936750D01*
X3921700D01*
Y1940090D01*
X3916684Y1958809D01*
X3906995Y1975591D01*
X3893291Y1989295D01*
X3876509Y1998984D01*
X3857790Y2004000D01*
D02*
G37*
G36*
X5708650D02*
X5705310D01*
X5686591Y1998984D01*
X5669809Y1989295D01*
X5656105Y1975591D01*
X5646416Y1958809D01*
X5641400Y1940090D01*
Y1936750D01*
X5708650D01*
Y2004000D01*
D02*
G37*
G36*
X3841750D02*
X3838410D01*
X3819691Y1998984D01*
X3802909Y1989295D01*
X3789205Y1975591D01*
X3779516Y1958809D01*
X3774500Y1940090D01*
Y1936750D01*
X3841750D01*
Y2004000D01*
D02*
G37*
G36*
X2092371Y1969000D02*
X2089150D01*
Y1902650D01*
X2155500D01*
Y1905871D01*
X2150546Y1924361D01*
X2140974Y1940939D01*
X2127439Y1954474D01*
X2110861Y1964046D01*
X2092371Y1969000D01*
D02*
G37*
G36*
X2076450D02*
X2073229D01*
X2054739Y1964046D01*
X2038161Y1954474D01*
X2024626Y1940939D01*
X2015054Y1924361D01*
X2010100Y1905871D01*
Y1902650D01*
X2076450D01*
Y1969000D01*
D02*
G37*
G36*
X6232690Y2004000D02*
X6213310D01*
X6194591Y1998984D01*
X6177809Y1989295D01*
X6164105Y1975591D01*
X6154416Y1958809D01*
X6149400Y1940090D01*
Y1920710D01*
X6154416Y1901991D01*
X6164105Y1885209D01*
X6177809Y1871505D01*
X6194591Y1861816D01*
X6213310Y1856800D01*
X6232690D01*
X6251409Y1861816D01*
X6268191Y1871505D01*
X6281895Y1885209D01*
X6291584Y1901991D01*
X6296600Y1920710D01*
Y1940090D01*
X6291584Y1958809D01*
X6281895Y1975591D01*
X6268191Y1989295D01*
X6251409Y1998984D01*
X6232690Y2004000D01*
D02*
G37*
G36*
X5978690D02*
X5959310D01*
X5940591Y1998984D01*
X5923809Y1989295D01*
X5910105Y1975591D01*
X5900416Y1958809D01*
X5895400Y1940090D01*
Y1920710D01*
X5900416Y1901991D01*
X5910105Y1885209D01*
X5923809Y1871505D01*
X5940591Y1861816D01*
X5959310Y1856800D01*
X5978690D01*
X5997409Y1861816D01*
X6014191Y1871505D01*
X6027895Y1885209D01*
X6037584Y1901991D01*
X6042600Y1920710D01*
Y1940090D01*
X6037584Y1958809D01*
X6027895Y1975591D01*
X6014191Y1989295D01*
X5997409Y1998984D01*
X5978690Y2004000D01*
D02*
G37*
G36*
X5470690D02*
X5451310D01*
X5432591Y1998984D01*
X5415809Y1989295D01*
X5402105Y1975591D01*
X5392416Y1958809D01*
X5387400Y1940090D01*
Y1920710D01*
X5392416Y1901991D01*
X5402105Y1885209D01*
X5415809Y1871505D01*
X5432591Y1861816D01*
X5451310Y1856800D01*
X5470690D01*
X5489409Y1861816D01*
X5506191Y1871505D01*
X5519895Y1885209D01*
X5529584Y1901991D01*
X5534600Y1920710D01*
Y1940090D01*
X5529584Y1958809D01*
X5519895Y1975591D01*
X5506191Y1989295D01*
X5489409Y1998984D01*
X5470690Y2004000D01*
D02*
G37*
G36*
X5216690D02*
X5197310D01*
X5178591Y1998984D01*
X5161809Y1989295D01*
X5148105Y1975591D01*
X5138416Y1958809D01*
X5133400Y1940090D01*
Y1920710D01*
X5138416Y1901991D01*
X5148105Y1885209D01*
X5161809Y1871505D01*
X5178591Y1861816D01*
X5197310Y1856800D01*
X5216690D01*
X5235409Y1861816D01*
X5252191Y1871505D01*
X5265895Y1885209D01*
X5275584Y1901991D01*
X5280600Y1920710D01*
Y1940090D01*
X5275584Y1958809D01*
X5265895Y1975591D01*
X5252191Y1989295D01*
X5235409Y1998984D01*
X5216690Y2004000D01*
D02*
G37*
G36*
X4365790D02*
X4346410D01*
X4327691Y1998984D01*
X4310909Y1989295D01*
X4297205Y1975591D01*
X4287516Y1958809D01*
X4282500Y1940090D01*
Y1920710D01*
X4287516Y1901991D01*
X4297205Y1885209D01*
X4310909Y1871505D01*
X4327691Y1861816D01*
X4346410Y1856800D01*
X4365790D01*
X4384509Y1861816D01*
X4401291Y1871505D01*
X4414995Y1885209D01*
X4424684Y1901991D01*
X4429700Y1920710D01*
Y1940090D01*
X4424684Y1958809D01*
X4414995Y1975591D01*
X4401291Y1989295D01*
X4384509Y1998984D01*
X4365790Y2004000D01*
D02*
G37*
G36*
X4111790D02*
X4092410D01*
X4073691Y1998984D01*
X4056909Y1989295D01*
X4043205Y1975591D01*
X4033516Y1958809D01*
X4028500Y1940090D01*
Y1920710D01*
X4033516Y1901991D01*
X4043205Y1885209D01*
X4056909Y1871505D01*
X4073691Y1861816D01*
X4092410Y1856800D01*
X4111790D01*
X4130509Y1861816D01*
X4147291Y1871505D01*
X4160995Y1885209D01*
X4170684Y1901991D01*
X4175700Y1920710D01*
Y1940090D01*
X4170684Y1958809D01*
X4160995Y1975591D01*
X4147291Y1989295D01*
X4130509Y1998984D01*
X4111790Y2004000D01*
D02*
G37*
G36*
X3603790D02*
X3584410D01*
X3565691Y1998984D01*
X3548909Y1989295D01*
X3535205Y1975591D01*
X3525516Y1958809D01*
X3520500Y1940090D01*
Y1920710D01*
X3525516Y1901991D01*
X3535205Y1885209D01*
X3548909Y1871505D01*
X3565691Y1861816D01*
X3584410Y1856800D01*
X3603790D01*
X3622509Y1861816D01*
X3639291Y1871505D01*
X3652995Y1885209D01*
X3662684Y1901991D01*
X3667700Y1920710D01*
Y1940090D01*
X3662684Y1958809D01*
X3652995Y1975591D01*
X3639291Y1989295D01*
X3622509Y1998984D01*
X3603790Y2004000D01*
D02*
G37*
G36*
X3349790D02*
X3330410D01*
X3311691Y1998984D01*
X3294909Y1989295D01*
X3281205Y1975591D01*
X3271516Y1958809D01*
X3266500Y1940090D01*
Y1920710D01*
X3271516Y1901991D01*
X3281205Y1885209D01*
X3294909Y1871505D01*
X3311691Y1861816D01*
X3330410Y1856800D01*
X3349790D01*
X3368509Y1861816D01*
X3385291Y1871505D01*
X3398995Y1885209D01*
X3408684Y1901991D01*
X3413700Y1920710D01*
Y1940090D01*
X3408684Y1958809D01*
X3398995Y1975591D01*
X3385291Y1989295D01*
X3368509Y1998984D01*
X3349790Y2004000D01*
D02*
G37*
G36*
X2155500Y1889950D02*
X2089150D01*
Y1823600D01*
X2092371D01*
X2110861Y1828554D01*
X2127439Y1838126D01*
X2140974Y1851661D01*
X2150546Y1868239D01*
X2155500Y1886729D01*
Y1889950D01*
D02*
G37*
G36*
X2076450D02*
X2010100D01*
Y1886729D01*
X2015054Y1868239D01*
X2024626Y1851661D01*
X2038161Y1838126D01*
X2054739Y1828554D01*
X2073229Y1823600D01*
X2076450D01*
Y1889950D01*
D02*
G37*
G36*
X5788600Y1924050D02*
X5715000D01*
X5641400D01*
Y1920710D01*
X5646416Y1901991D01*
X5647715Y1899740D01*
X5513773Y1765798D01*
X4049327D01*
X3915385Y1899740D01*
X3916684Y1901991D01*
X3921700Y1920710D01*
Y1924050D01*
X3848100D01*
X3774500D01*
Y1920710D01*
X3779516Y1901991D01*
X3789205Y1885209D01*
X3802909Y1871505D01*
X3819691Y1861816D01*
X3822202Y1861143D01*
Y475657D01*
X3819691Y474984D01*
X3802909Y465295D01*
X3789205Y451591D01*
X3779516Y434809D01*
X3774500Y416090D01*
Y412750D01*
X3848100D01*
X3921700D01*
Y416090D01*
X3916684Y434809D01*
X3906995Y451591D01*
X3893291Y465295D01*
X3876509Y474984D01*
X3873998Y475657D01*
Y1849917D01*
X3886698Y1855178D01*
X4020288Y1721588D01*
X4028689Y1715974D01*
X4038600Y1714002D01*
X5524500D01*
X5534411Y1715974D01*
X5542812Y1721588D01*
X5676402Y1855178D01*
X5689102Y1849917D01*
Y475657D01*
X5686591Y474984D01*
X5669809Y465295D01*
X5656105Y451591D01*
X5646416Y434809D01*
X5641400Y416090D01*
Y412750D01*
X5715000D01*
X5788600D01*
Y416090D01*
X5783584Y434809D01*
X5773895Y451591D01*
X5760191Y465295D01*
X5743409Y474984D01*
X5740898Y475657D01*
Y1861143D01*
X5743409Y1861816D01*
X5760191Y1871505D01*
X5773895Y1885209D01*
X5783584Y1901991D01*
X5788600Y1920710D01*
Y1924050D01*
D02*
G37*
G36*
X6232690Y480000D02*
X6213310D01*
X6194591Y474984D01*
X6177809Y465295D01*
X6164105Y451591D01*
X6154416Y434809D01*
X6149400Y416090D01*
Y396710D01*
X6154416Y377991D01*
X6164105Y361209D01*
X6177809Y347505D01*
X6194591Y337816D01*
X6213310Y332800D01*
X6232690D01*
X6251409Y337816D01*
X6268191Y347505D01*
X6281895Y361209D01*
X6291584Y377991D01*
X6296600Y396710D01*
Y416090D01*
X6291584Y434809D01*
X6281895Y451591D01*
X6268191Y465295D01*
X6251409Y474984D01*
X6232690Y480000D01*
D02*
G37*
G36*
X5978690D02*
X5959310D01*
X5940591Y474984D01*
X5923809Y465295D01*
X5910105Y451591D01*
X5900416Y434809D01*
X5895400Y416090D01*
Y396710D01*
X5900416Y377991D01*
X5910105Y361209D01*
X5923809Y347505D01*
X5940591Y337816D01*
X5959310Y332800D01*
X5978690D01*
X5997409Y337816D01*
X6014191Y347505D01*
X6027895Y361209D01*
X6037584Y377991D01*
X6042600Y396710D01*
Y416090D01*
X6037584Y434809D01*
X6027895Y451591D01*
X6014191Y465295D01*
X5997409Y474984D01*
X5978690Y480000D01*
D02*
G37*
G36*
X5788600Y400050D02*
X5721350D01*
Y332800D01*
X5724690D01*
X5743409Y337816D01*
X5760191Y347505D01*
X5773895Y361209D01*
X5783584Y377991D01*
X5788600Y396710D01*
Y400050D01*
D02*
G37*
G36*
X5708650D02*
X5641400D01*
Y396710D01*
X5646416Y377991D01*
X5656105Y361209D01*
X5669809Y347505D01*
X5686591Y337816D01*
X5705310Y332800D01*
X5708650D01*
Y400050D01*
D02*
G37*
G36*
X5470690Y480000D02*
X5451310D01*
X5432591Y474984D01*
X5415809Y465295D01*
X5402105Y451591D01*
X5392416Y434809D01*
X5387400Y416090D01*
Y396710D01*
X5392416Y377991D01*
X5402105Y361209D01*
X5415809Y347505D01*
X5432591Y337816D01*
X5451310Y332800D01*
X5470690D01*
X5489409Y337816D01*
X5506191Y347505D01*
X5519895Y361209D01*
X5529584Y377991D01*
X5534600Y396710D01*
Y416090D01*
X5529584Y434809D01*
X5519895Y451591D01*
X5506191Y465295D01*
X5489409Y474984D01*
X5470690Y480000D01*
D02*
G37*
G36*
X5280600D02*
X5133400D01*
Y332800D01*
X5280600D01*
Y480000D01*
D02*
G37*
G36*
X4365790D02*
X4346410D01*
X4327691Y474984D01*
X4310909Y465295D01*
X4297205Y451591D01*
X4287516Y434809D01*
X4282500Y416090D01*
Y396710D01*
X4287516Y377991D01*
X4297205Y361209D01*
X4310909Y347505D01*
X4327691Y337816D01*
X4346410Y332800D01*
X4365790D01*
X4384509Y337816D01*
X4401291Y347505D01*
X4414995Y361209D01*
X4424684Y377991D01*
X4429700Y396710D01*
Y416090D01*
X4424684Y434809D01*
X4414995Y451591D01*
X4401291Y465295D01*
X4384509Y474984D01*
X4365790Y480000D01*
D02*
G37*
G36*
X4111790D02*
X4092410D01*
X4073691Y474984D01*
X4056909Y465295D01*
X4043205Y451591D01*
X4033516Y434809D01*
X4028500Y416090D01*
Y396710D01*
X4033516Y377991D01*
X4043205Y361209D01*
X4056909Y347505D01*
X4073691Y337816D01*
X4092410Y332800D01*
X4111790D01*
X4130509Y337816D01*
X4147291Y347505D01*
X4160995Y361209D01*
X4170684Y377991D01*
X4175700Y396710D01*
Y416090D01*
X4170684Y434809D01*
X4160995Y451591D01*
X4147291Y465295D01*
X4130509Y474984D01*
X4111790Y480000D01*
D02*
G37*
G36*
X3921700Y400050D02*
X3854450D01*
Y332800D01*
X3857790D01*
X3876509Y337816D01*
X3893291Y347505D01*
X3906995Y361209D01*
X3916684Y377991D01*
X3921700Y396710D01*
Y400050D01*
D02*
G37*
G36*
X3841750D02*
X3774500D01*
Y396710D01*
X3779516Y377991D01*
X3789205Y361209D01*
X3802909Y347505D01*
X3819691Y337816D01*
X3838410Y332800D01*
X3841750D01*
Y400050D01*
D02*
G37*
G36*
X3603790Y480000D02*
X3584410D01*
X3565691Y474984D01*
X3548909Y465295D01*
X3535205Y451591D01*
X3525516Y434809D01*
X3520500Y416090D01*
Y396710D01*
X3525516Y377991D01*
X3535205Y361209D01*
X3548909Y347505D01*
X3565691Y337816D01*
X3584410Y332800D01*
X3603790D01*
X3622509Y337816D01*
X3639291Y347505D01*
X3652995Y361209D01*
X3662684Y377991D01*
X3667700Y396710D01*
Y416090D01*
X3662684Y434809D01*
X3652995Y451591D01*
X3639291Y465295D01*
X3622509Y474984D01*
X3603790Y480000D01*
D02*
G37*
G36*
X3413700D02*
X3266500D01*
Y332800D01*
X3413700D01*
Y480000D01*
D02*
G37*
%LPD*%
D12*
X5791200Y5499100D02*
X5994400Y5702300D01*
X5791200Y6261100D02*
X5994400Y6057900D01*
Y5702300D02*
Y6057900D01*
X5791200Y6261100D02*
Y6515100D01*
X5779295Y5499100D02*
X5791200D01*
X5308600Y5435600D02*
X5715795D01*
X5779295Y5499100D01*
X5384800Y3860800D02*
Y4178300D01*
X5638800D01*
Y4940300D01*
X4419600Y4445000D02*
X4648200Y4216400D01*
X5245100Y4813300D01*
X5130800Y4152900D02*
Y4178300D01*
X5003800Y4025900D02*
X5130800Y4152900D01*
X4427542Y3860800D02*
X4592642Y4025900D01*
X5003800D01*
X5130800Y3860800D02*
X5270500Y4000500D01*
Y4330700D01*
X5339879Y4400079D01*
X5130800Y3860800D02*
X5155075Y3853254D01*
X5165200D01*
X5339879Y4400079D02*
Y4696562D01*
X5308600Y4737100D02*
X5339879Y4696562D01*
X3276600Y6870700D02*
X3556000Y7150100D01*
X2133600Y6870700D02*
X3276600D01*
X2909096Y6540500D02*
X2992700Y6456896D01*
X2349500Y6540500D02*
X2909096D01*
X3848100Y406400D02*
Y1930400D01*
X4038600Y1739900D02*
X5524500D01*
X3848100Y1930400D02*
X4038600Y1739900D01*
X5524500D02*
X5715000Y1930400D01*
X2463800Y4152900D02*
X2590800Y4025900D01*
X2442132Y4207407D02*
X2463800Y4185739D01*
X2590800Y4025900D02*
X3238500D01*
X2463800Y4152900D02*
Y4185739D01*
X2230700Y5950200D02*
X2694500Y5486400D01*
X2857500D01*
X2738700Y5950200D02*
X2973900Y5715000D01*
X3561304Y6096000D02*
X3695700D01*
X3180304Y5715000D02*
X3561304Y6096000D01*
X2973900Y5715000D02*
X3180304D01*
X2992700Y5950200D02*
Y6456896D01*
X1295400Y4953400D02*
Y6781800D01*
X1244200Y4902200D02*
X1295400Y4953400D01*
Y6781800D02*
X1600200Y7086600D01*
X1149600Y4366200D02*
X1320800Y4195000D01*
X1149600Y4366200D02*
Y4902200D01*
X2717800Y4826000D02*
Y4940300D01*
Y4826000D02*
X3098800Y4445000D01*
X4419600D01*
X3290859Y3884641D02*
X3314700Y3860800D01*
X3290859Y3884641D02*
Y3973541D01*
X3238500Y4025900D02*
X3290859Y3973541D01*
X457200Y6591300D02*
X1149600Y5898900D01*
Y5664200D02*
Y5898900D01*
X876300Y4882900D02*
X1149600Y5156200D01*
X876300Y4445000D02*
Y4882900D01*
X355600Y5410200D02*
X522435Y5243365D01*
X1149600Y4902200D02*
X1244200D01*
X778200Y4445000D02*
X876300D01*
X581631Y4641569D02*
X778200Y4445000D01*
X581631Y4641569D02*
Y5057169D01*
X522435Y5116365D02*
X581631Y5057169D01*
X522435Y5116365D02*
Y5243365D01*
X2112200Y3860800D02*
X2298700D01*
X3568700Y3606800D02*
X4076700Y3098800D01*
X3568700Y3606800D02*
Y3860800D01*
X4076700D02*
X4427542D01*
X1778000Y4195000D02*
X2112200Y3860800D01*
X5245100Y5024048D02*
X5470106Y5249054D01*
X5245100Y4813300D02*
Y5024048D01*
X3556000Y7150100D02*
X6172200D01*
X6299200Y7023100D01*
X5791200Y6515100D02*
X6553200D01*
X5372100Y6718300D02*
X5575300Y6515100D01*
X5359400Y6718300D02*
X5372100D01*
X5575300Y6515100D02*
X5791200D01*
X5461000Y6299200D02*
X5511800Y6248400D01*
Y6108700D02*
Y6248400D01*
X5461000Y6299200D02*
Y6464300D01*
X1930400Y7991600D02*
X2175000Y7747000D01*
X1930400Y7991600D02*
Y8496300D01*
X2108200Y8674100D02*
Y9156700D01*
X1930400Y8496300D02*
X2108200Y8674100D01*
X4191000Y6743700D02*
X4610100D01*
X4686300Y6515100D02*
Y6667500D01*
X4610100Y6743700D02*
X4686300Y6667500D01*
X4065200Y6399125D02*
Y6617900D01*
X4191000Y6743700D01*
X3924300Y6258225D02*
X4065200Y6399125D01*
X4016075Y6096000D02*
X4178300Y6258225D01*
X3695700Y6096000D02*
X4016075D01*
X4635500Y4419600D02*
X4737100Y4521200D01*
Y5067300D01*
X6019800Y4800600D02*
X6146800Y4673600D01*
Y4241800D02*
Y4673600D01*
X5309379Y5525279D02*
X5791200Y6007100D01*
X5195079Y5525279D02*
X5309379D01*
X4737100Y5067300D02*
X5195079Y5525279D01*
X6400800Y3098800D02*
X6680200Y3378200D01*
Y4521200D01*
X6367852Y4241800D02*
X6400800D01*
X6005900Y3879848D02*
X6367852Y4241800D01*
X5911848Y3879848D02*
X6005900D01*
X5892800Y3860800D02*
X5911848Y3879848D01*
X6400800Y4241800D02*
X6680200Y4521200D01*
Y5626100D01*
X6553200Y5753100D02*
X6680200Y5626100D01*
X5715000Y406400D02*
Y1930400D01*
X1549400Y5022850D02*
X1612900Y5086350D01*
Y6096685D02*
X1714500Y6198285D01*
X1612900Y5086350D02*
Y6096685D01*
X1714500Y6198285D02*
Y6692900D01*
X2108200Y7086600D01*
X6303154Y5249054D02*
X6553200Y5499100D01*
X5470106Y5249054D02*
X6303154D01*
X4432300Y5496225D02*
X4564871Y5628796D01*
Y6382529D01*
X2870200Y7086600D02*
Y7559800D01*
X1549400Y3575300D02*
Y5022850D01*
X1098300Y3124200D02*
X1549400Y3575300D01*
X2175000Y8255000D02*
X2870200Y7559800D01*
X6299200Y7023100D02*
X6553200D01*
X4940300Y6032500D02*
Y6223000D01*
X4780771Y6382529D02*
X4940300Y6223000D01*
X4432300Y6515100D02*
X4564871Y6382529D01*
X4780771D01*
X1447800Y2324100D02*
Y2933700D01*
X1892300Y3378200D01*
X1282700Y7747000D02*
X1381000D01*
X787400Y8242300D02*
Y8445500D01*
Y8242300D02*
X1282700Y7747000D01*
D13*
X6400800Y3860800D02*
D03*
X2463800Y4940300D02*
D03*
X4076700Y3860800D02*
D03*
X3124200Y7086600D02*
D03*
X6400800Y4940300D02*
D03*
X3924300Y5496225D02*
D03*
X4686300Y7277100D02*
D03*
D14*
X6146800Y3860800D02*
D03*
X5892800D02*
D03*
X5638800D02*
D03*
X5384800D02*
D03*
X5130800D02*
D03*
X4876800D02*
D03*
X4622800D02*
D03*
X6400800Y3098800D02*
D03*
X6146800D02*
D03*
X5892800D02*
D03*
X5638800D02*
D03*
X5384800D02*
D03*
X5130800D02*
D03*
X4876800D02*
D03*
X4622800D02*
D03*
X3987800Y4178300D02*
D03*
X3733800D02*
D03*
X3479800D02*
D03*
X3225800D02*
D03*
X2971800D02*
D03*
X2717800D02*
D03*
X2463800D02*
D03*
X3987800Y4940300D02*
D03*
X3733800D02*
D03*
X3479800D02*
D03*
X3225800D02*
D03*
X2971800D02*
D03*
X2717800D02*
D03*
X3822700Y3860800D02*
D03*
X3568700D02*
D03*
X3314700D02*
D03*
X3060700D02*
D03*
X2806700D02*
D03*
X2552700D02*
D03*
X2298700D02*
D03*
X4076700Y3098800D02*
D03*
X3822700D02*
D03*
X3568700D02*
D03*
X3314700D02*
D03*
X3060700D02*
D03*
X2806700D02*
D03*
X2552700D02*
D03*
X2298700D02*
D03*
X2870200Y7086600D02*
D03*
X2616200D02*
D03*
X2362200D02*
D03*
X2108200D02*
D03*
X1854200D02*
D03*
X1600200D02*
D03*
X3124200Y6324600D02*
D03*
X2870200D02*
D03*
X2616200D02*
D03*
X2362200D02*
D03*
X2108200D02*
D03*
X1854200D02*
D03*
X1600200D02*
D03*
X5791200Y7023100D02*
D03*
Y6769100D02*
D03*
Y6515100D02*
D03*
Y6261100D02*
D03*
Y6007100D02*
D03*
Y5753100D02*
D03*
Y5499100D02*
D03*
X6553200Y7277100D02*
D03*
Y7023100D02*
D03*
Y6769100D02*
D03*
Y6515100D02*
D03*
Y6261100D02*
D03*
Y6007100D02*
D03*
Y5753100D02*
D03*
Y5499100D02*
D03*
X6146800Y4940300D02*
D03*
X5892800D02*
D03*
X5638800D02*
D03*
X5384800D02*
D03*
X5130800D02*
D03*
X4876800D02*
D03*
X4622800D02*
D03*
X6400800Y4178300D02*
D03*
X6146800D02*
D03*
X5892800D02*
D03*
X5638800D02*
D03*
X5384800D02*
D03*
X5130800D02*
D03*
X4876800D02*
D03*
X4622800D02*
D03*
X4686300Y6258225D02*
D03*
X4432300D02*
D03*
X4178300D02*
D03*
X3924300D02*
D03*
X4686300Y5496225D02*
D03*
X4432300D02*
D03*
X4178300D02*
D03*
X3924300Y6515100D02*
D03*
X4178300D02*
D03*
X4432300D02*
D03*
X4686300D02*
D03*
X3924300Y7277100D02*
D03*
X4178300D02*
D03*
X4432300D02*
D03*
D15*
X3246700Y5156200D02*
D03*
X2992700D02*
D03*
X2738700D02*
D03*
X2484700D02*
D03*
X2230700D02*
D03*
X1976700D02*
D03*
X1722700D02*
D03*
X1468700D02*
D03*
Y5950200D02*
D03*
X1722700D02*
D03*
X1976700D02*
D03*
X2230700D02*
D03*
X2484700D02*
D03*
X2738700D02*
D03*
X2992700D02*
D03*
X355600Y4902200D02*
D03*
Y5156200D02*
D03*
Y5410200D02*
D03*
Y5664200D02*
D03*
X1149600D02*
D03*
Y5410200D02*
D03*
Y5156200D02*
D03*
X1892300Y3632200D02*
D03*
Y3378200D02*
D03*
Y3124200D02*
D03*
Y2870200D02*
D03*
X1098300D02*
D03*
Y3124200D02*
D03*
Y3378200D02*
D03*
X1381000Y7747000D02*
D03*
Y8001000D02*
D03*
Y8255000D02*
D03*
Y8509000D02*
D03*
X2175000D02*
D03*
Y8255000D02*
D03*
Y8001000D02*
D03*
D16*
X3246700Y5950200D02*
D03*
D17*
X1149600Y4902200D02*
D03*
X1098300Y3632200D02*
D03*
X2175000Y7747000D02*
D03*
D18*
X3340100Y406400D02*
D03*
X5207000D02*
D03*
D19*
X3594100D02*
D03*
X3848100D02*
D03*
X4102100D02*
D03*
X4356100D02*
D03*
Y1930400D02*
D03*
X4102100D02*
D03*
X3848100D02*
D03*
X3594100D02*
D03*
X3340100D02*
D03*
X5461000Y406400D02*
D03*
X5715000D02*
D03*
X5969000D02*
D03*
X6223000D02*
D03*
Y1930400D02*
D03*
X5969000D02*
D03*
X5715000D02*
D03*
X5461000D02*
D03*
X5207000D02*
D03*
D20*
X2082800Y1896300D02*
D03*
X5370100Y7404100D02*
D03*
Y6946900D02*
D03*
X1778000Y4195000D02*
D03*
X1320800D02*
D03*
X876300D02*
D03*
X649700Y7493000D02*
D03*
D21*
X2082800Y2146300D02*
D03*
X1778000Y4445000D02*
D03*
X1320800D02*
D03*
X876300D02*
D03*
D22*
X965200Y6591300D02*
D03*
X711200Y6845300D02*
D03*
X787400Y7937500D02*
D03*
X1041400Y8191500D02*
D03*
X1701800Y2070100D02*
D03*
X1447800Y2324100D02*
D03*
D23*
X457200Y6591300D02*
D03*
X1193800Y2070100D02*
D03*
D24*
X787400Y8445500D02*
D03*
D25*
X5791200Y7277100D02*
D03*
D26*
X5120100Y7404100D02*
D03*
Y6946900D02*
D03*
X899700Y7493000D02*
D03*
D27*
X1600200Y9156700D02*
D03*
X1854200D02*
D03*
X2108200D02*
D03*
D28*
X1346200D02*
D03*
D29*
X4076700Y8661400D02*
D03*
X3076700D02*
D03*
X6202300D02*
D03*
X5202300D02*
D03*
D30*
X5308600Y5435600D02*
D03*
X2857500Y5486400D02*
D03*
X5359400Y6718300D02*
D03*
X5461000Y6464300D02*
D03*
X5511800Y6108700D02*
D03*
X3695700Y6096000D02*
D03*
X4635500Y4419600D02*
D03*
X5308600Y4737100D02*
D03*
X6019800Y4800600D02*
D03*
X4940300Y6032500D02*
D03*
D31*
X2133600Y6870700D02*
D03*
X2349500Y6540500D02*
D03*
%TF.MD5,a48ff1c311c36b8fb70a9460734ea7e7*%
M02*
