%TF.GenerationSoftware,Altium Limited,Altium Designer,23.5.1 (21)*%
G04 Layer_Color=32768*
%FSLAX45Y45*%
%MOMM*%
%TF.SameCoordinates,7ECB1A03-3DEC-426C-BD6E-5A7E68E82EE6*%
%TF.FilePolarity,Positive*%
%TF.FileFunction,Other,Top_Courtyard*%
%TF.Part,Single*%
G01*
G75*
%TA.AperFunction,NonConductor*%
%ADD32C,0.20000*%
%ADD60C,0.05000*%
D32*
X1942800Y2231300D02*
X2222800D01*
X1942800Y1811300D02*
Y2231300D01*
Y1811300D02*
X2222800D01*
Y2231300D01*
X5035100Y7264100D02*
Y7544100D01*
Y7264100D02*
X5455100D01*
Y7544100D01*
X5035100D02*
X5455100D01*
X5035100Y6806900D02*
Y7086900D01*
Y6806900D02*
X5455100D01*
Y7086900D01*
X5035100D02*
X5455100D01*
X1638000Y4530000D02*
X1918000D01*
X1638000Y4110000D02*
Y4530000D01*
Y4110000D02*
X1918000D01*
Y4530000D01*
X1180800D02*
X1460800D01*
X1180800Y4110000D02*
Y4530000D01*
Y4110000D02*
X1460800D01*
Y4530000D01*
X736300D02*
X1016300D01*
X736300Y4110000D02*
Y4530000D01*
Y4110000D02*
X1016300D01*
Y4530000D01*
X984700Y7353000D02*
Y7633000D01*
X564700D02*
X984700D01*
X564700Y7353000D02*
Y7633000D01*
Y7353000D02*
X984700D01*
D60*
X1727200Y9106700D02*
Y9206700D01*
X1677200Y9156700D02*
X1777200D01*
X1161700Y9311700D02*
X2292700D01*
Y9001700D02*
Y9311700D01*
X1161700Y9001700D02*
X2292700D01*
X1161700D02*
Y9311700D01*
%TF.MD5,370d2b94d2d101055e910d302d7b6615*%
M02*
