%TF.GenerationSoftware,Altium Limited,Altium Designer,23.5.1 (21)*%
G04 Layer_Color=32768*
%FSLAX45Y45*%
%MOMM*%
%TF.SameCoordinates,7ECB1A03-3DEC-426C-BD6E-5A7E68E82EE6*%
%TF.FilePolarity,Positive*%
%TF.FileFunction,Other,Mechanical_19*%
%TF.Part,Single*%
G01*
G75*
G36*
X5130998Y5791528D02*
X5131385D01*
X5131828Y5791473D01*
X5132880Y5791251D01*
X5134043Y5790974D01*
X5135261Y5790531D01*
X5136479Y5789867D01*
X5137089Y5789479D01*
X5137642Y5789036D01*
X5137698Y5788981D01*
X5137753Y5788926D01*
X5137919Y5788760D01*
X5138085Y5788593D01*
X5138362Y5788317D01*
X5138584Y5787984D01*
X5139193Y5787209D01*
X5139802Y5786212D01*
X5140355Y5784994D01*
X5140854Y5783610D01*
X5141186Y5782060D01*
X5136479Y5781672D01*
Y5781727D01*
X5136424Y5781783D01*
X5136369Y5782115D01*
X5136203Y5782613D01*
X5135981Y5783222D01*
X5135760Y5783887D01*
X5135427Y5784551D01*
X5135040Y5785160D01*
X5134652Y5785659D01*
X5134541Y5785769D01*
X5134320Y5785991D01*
X5133932Y5786323D01*
X5133379Y5786711D01*
X5132659Y5787043D01*
X5131884Y5787375D01*
X5130942Y5787597D01*
X5129946Y5787707D01*
X5129558D01*
X5129115Y5787652D01*
X5128617Y5787541D01*
X5127952Y5787375D01*
X5127288Y5787154D01*
X5126623Y5786877D01*
X5125959Y5786434D01*
X5125848Y5786379D01*
X5125571Y5786157D01*
X5125184Y5785769D01*
X5124685Y5785216D01*
X5124131Y5784551D01*
X5123522Y5783776D01*
X5122969Y5782779D01*
X5122415Y5781672D01*
Y5781617D01*
X5122360Y5781506D01*
X5122304Y5781340D01*
X5122193Y5781118D01*
X5122138Y5780786D01*
X5122027Y5780398D01*
X5121917Y5779955D01*
X5121806Y5779402D01*
X5121640Y5778793D01*
X5121529Y5778128D01*
X5121418Y5777408D01*
X5121363Y5776633D01*
X5121252Y5775747D01*
X5121197Y5774861D01*
X5121141Y5773864D01*
Y5772868D01*
X5121197Y5772923D01*
X5121418Y5773255D01*
X5121806Y5773698D01*
X5122304Y5774252D01*
X5122858Y5774917D01*
X5123578Y5775526D01*
X5124353Y5776135D01*
X5125239Y5776688D01*
X5125294D01*
X5125350Y5776744D01*
X5125682Y5776910D01*
X5126180Y5777076D01*
X5126845Y5777353D01*
X5127620Y5777574D01*
X5128506Y5777741D01*
X5129447Y5777907D01*
X5130444Y5777962D01*
X5130887D01*
X5131219Y5777907D01*
X5131662Y5777851D01*
X5132105Y5777796D01*
X5132659Y5777685D01*
X5133212Y5777519D01*
X5134486Y5777131D01*
X5135151Y5776855D01*
X5135815Y5776467D01*
X5136479Y5776079D01*
X5137199Y5775636D01*
X5137864Y5775083D01*
X5138473Y5774474D01*
X5138528Y5774418D01*
X5138639Y5774307D01*
X5138805Y5774141D01*
X5138971Y5773864D01*
X5139248Y5773477D01*
X5139525Y5773089D01*
X5139802Y5772591D01*
X5140134Y5772037D01*
X5140466Y5771428D01*
X5140743Y5770764D01*
X5141020Y5769988D01*
X5141297Y5769213D01*
X5141463Y5768383D01*
X5141629Y5767441D01*
X5141740Y5766500D01*
X5141795Y5765503D01*
Y5765448D01*
Y5765337D01*
Y5765171D01*
Y5764894D01*
X5141740Y5764562D01*
Y5764230D01*
X5141574Y5763344D01*
X5141408Y5762292D01*
X5141131Y5761184D01*
X5140743Y5759966D01*
X5140189Y5758803D01*
Y5758748D01*
X5140134Y5758693D01*
X5140023Y5758526D01*
X5139913Y5758305D01*
X5139580Y5757751D01*
X5139082Y5757031D01*
X5138473Y5756256D01*
X5137753Y5755481D01*
X5136867Y5754706D01*
X5135926Y5754041D01*
X5135870D01*
X5135815Y5753986D01*
X5135649Y5753875D01*
X5135427Y5753820D01*
X5134874Y5753543D01*
X5134154Y5753266D01*
X5133212Y5752934D01*
X5132160Y5752712D01*
X5130998Y5752491D01*
X5129724Y5752436D01*
X5129447D01*
X5129170Y5752491D01*
X5128727D01*
X5128229Y5752546D01*
X5127675Y5752657D01*
X5127011Y5752823D01*
X5126346Y5752989D01*
X5125571Y5753211D01*
X5124796Y5753488D01*
X5124021Y5753820D01*
X5123190Y5754263D01*
X5122415Y5754761D01*
X5121640Y5755315D01*
X5120865Y5755979D01*
X5120145Y5756755D01*
X5120089Y5756810D01*
X5119979Y5756976D01*
X5119812Y5757198D01*
X5119591Y5757585D01*
X5119259Y5758083D01*
X5118982Y5758637D01*
X5118650Y5759357D01*
X5118317Y5760132D01*
X5117930Y5761074D01*
X5117598Y5762126D01*
X5117321Y5763288D01*
X5117044Y5764562D01*
X5116767Y5766002D01*
X5116601Y5767552D01*
X5116490Y5769213D01*
X5116435Y5770985D01*
Y5771041D01*
Y5771096D01*
Y5771262D01*
Y5771484D01*
X5116490Y5772037D01*
Y5772812D01*
X5116546Y5773698D01*
X5116656Y5774750D01*
X5116767Y5775913D01*
X5116933Y5777187D01*
X5117155Y5778460D01*
X5117431Y5779845D01*
X5117764Y5781174D01*
X5118151Y5782503D01*
X5118650Y5783776D01*
X5119203Y5784994D01*
X5119812Y5786157D01*
X5120532Y5787154D01*
X5120588Y5787209D01*
X5120698Y5787320D01*
X5120920Y5787541D01*
X5121197Y5787874D01*
X5121529Y5788206D01*
X5121972Y5788538D01*
X5122526Y5788981D01*
X5123079Y5789369D01*
X5123744Y5789756D01*
X5124464Y5790199D01*
X5125294Y5790531D01*
X5126125Y5790919D01*
X5127066Y5791196D01*
X5128063Y5791417D01*
X5129115Y5791528D01*
X5130222Y5791584D01*
X5130665D01*
X5130998Y5791528D01*
D02*
G37*
G36*
X5098217Y5791362D02*
X5098716D01*
X5099879Y5791307D01*
X5101097Y5791141D01*
X5102426Y5790974D01*
X5103644Y5790698D01*
X5104253Y5790531D01*
X5104751Y5790365D01*
X5104807D01*
X5104862Y5790310D01*
X5105194Y5790144D01*
X5105693Y5789922D01*
X5106302Y5789535D01*
X5106966Y5789036D01*
X5107686Y5788372D01*
X5108350Y5787597D01*
X5109015Y5786711D01*
Y5786655D01*
X5109070Y5786600D01*
X5109292Y5786268D01*
X5109513Y5785714D01*
X5109846Y5784994D01*
X5110122Y5784164D01*
X5110399Y5783167D01*
X5110565Y5782115D01*
X5110621Y5780952D01*
Y5780897D01*
Y5780786D01*
Y5780565D01*
X5110565Y5780288D01*
Y5779900D01*
X5110510Y5779512D01*
X5110288Y5778571D01*
X5109956Y5777464D01*
X5109513Y5776301D01*
X5108849Y5775138D01*
X5108406Y5774584D01*
X5107963Y5774031D01*
X5107907Y5773975D01*
X5107852Y5773920D01*
X5107686Y5773754D01*
X5107465Y5773588D01*
X5107188Y5773366D01*
X5106855Y5773145D01*
X5106412Y5772868D01*
X5105969Y5772536D01*
X5105416Y5772259D01*
X5104807Y5771982D01*
X5104142Y5771650D01*
X5103422Y5771373D01*
X5102592Y5771151D01*
X5101761Y5770874D01*
X5100820Y5770708D01*
X5099823Y5770542D01*
X5099934Y5770487D01*
X5100155Y5770376D01*
X5100488Y5770155D01*
X5100931Y5769933D01*
X5101927Y5769324D01*
X5102426Y5768936D01*
X5102869Y5768604D01*
X5102979Y5768493D01*
X5103256Y5768217D01*
X5103699Y5767774D01*
X5104253Y5767220D01*
X5104862Y5766445D01*
X5105582Y5765614D01*
X5106302Y5764617D01*
X5107077Y5763510D01*
X5113666Y5753100D01*
X5107354D01*
X5102315Y5761074D01*
Y5761129D01*
X5102204Y5761240D01*
X5102093Y5761406D01*
X5101927Y5761627D01*
X5101540Y5762236D01*
X5101041Y5763012D01*
X5100432Y5763842D01*
X5099823Y5764728D01*
X5099214Y5765559D01*
X5098660Y5766334D01*
X5098605Y5766389D01*
X5098439Y5766611D01*
X5098162Y5766943D01*
X5097774Y5767331D01*
X5096944Y5768161D01*
X5096501Y5768549D01*
X5096058Y5768881D01*
X5096003Y5768936D01*
X5095892Y5768992D01*
X5095670Y5769103D01*
X5095338Y5769269D01*
X5095006Y5769435D01*
X5094618Y5769601D01*
X5093732Y5769878D01*
X5093677D01*
X5093566Y5769933D01*
X5093345D01*
X5093068Y5769988D01*
X5092680Y5770044D01*
X5092237D01*
X5091628Y5770099D01*
X5085094D01*
Y5753100D01*
X5080000D01*
Y5791417D01*
X5097774D01*
X5098217Y5791362D01*
D02*
G37*
G36*
X4661117Y2700026D02*
X4661062Y2699583D01*
Y2699084D01*
X4661007Y2697921D01*
X4660841Y2696703D01*
X4660674Y2695374D01*
X4660398Y2694156D01*
X4660231Y2693547D01*
X4660065Y2693049D01*
Y2692993D01*
X4660010Y2692938D01*
X4659844Y2692606D01*
X4659622Y2692107D01*
X4659235Y2691498D01*
X4658736Y2690834D01*
X4658072Y2690114D01*
X4657297Y2689450D01*
X4656411Y2688785D01*
X4656355D01*
X4656300Y2688730D01*
X4655968Y2688508D01*
X4655414Y2688287D01*
X4654694Y2687954D01*
X4653864Y2687678D01*
X4652867Y2687401D01*
X4651815Y2687235D01*
X4650652Y2687179D01*
X4650597D01*
X4650486D01*
X4650265D01*
X4649988Y2687235D01*
X4649600D01*
X4649212Y2687290D01*
X4648271Y2687512D01*
X4647164Y2687844D01*
X4646001Y2688287D01*
X4644838Y2688951D01*
X4644284Y2689394D01*
X4643731Y2689837D01*
X4643675Y2689893D01*
X4643620Y2689948D01*
X4643454Y2690114D01*
X4643288Y2690335D01*
X4643066Y2690612D01*
X4642845Y2690945D01*
X4642568Y2691388D01*
X4642236Y2691831D01*
X4641959Y2692384D01*
X4641682Y2692993D01*
X4641350Y2693658D01*
X4641073Y2694378D01*
X4640851Y2695208D01*
X4640574Y2696039D01*
X4640408Y2696980D01*
X4640242Y2697977D01*
X4640187Y2697866D01*
X4640076Y2697645D01*
X4639855Y2697312D01*
X4639633Y2696869D01*
X4639024Y2695873D01*
X4638636Y2695374D01*
X4638304Y2694931D01*
X4638193Y2694821D01*
X4637917Y2694544D01*
X4637474Y2694101D01*
X4636920Y2693547D01*
X4636145Y2692938D01*
X4635314Y2692218D01*
X4634317Y2691498D01*
X4633210Y2690723D01*
X4622800Y2684134D01*
Y2690446D01*
X4630774Y2695485D01*
X4630829D01*
X4630940Y2695596D01*
X4631106Y2695707D01*
X4631327Y2695873D01*
X4631936Y2696260D01*
X4632712Y2696759D01*
X4633542Y2697368D01*
X4634428Y2697977D01*
X4635259Y2698586D01*
X4636034Y2699140D01*
X4636089Y2699195D01*
X4636311Y2699361D01*
X4636643Y2699638D01*
X4637031Y2700026D01*
X4637861Y2700856D01*
X4638249Y2701299D01*
X4638581Y2701742D01*
X4638636Y2701797D01*
X4638692Y2701908D01*
X4638803Y2702130D01*
X4638969Y2702462D01*
X4639135Y2702794D01*
X4639301Y2703182D01*
X4639578Y2704068D01*
Y2704123D01*
X4639633Y2704234D01*
Y2704455D01*
X4639688Y2704732D01*
X4639744Y2705120D01*
Y2705563D01*
X4639799Y2706172D01*
Y2712706D01*
X4622800D01*
Y2717800D01*
X4661117D01*
Y2700026D01*
D02*
G37*
G36*
X4651649Y2677489D02*
X4651760Y2677378D01*
X4651815Y2677157D01*
X4651981Y2676880D01*
X4652147Y2676548D01*
X4652369Y2676160D01*
X4652922Y2675219D01*
X4653531Y2674111D01*
X4654307Y2673004D01*
X4655193Y2671841D01*
X4656134Y2670678D01*
X4656189Y2670623D01*
X4656245Y2670568D01*
X4656411Y2670402D01*
X4656577Y2670180D01*
X4657131Y2669682D01*
X4657795Y2669017D01*
X4658570Y2668353D01*
X4659456Y2667633D01*
X4660342Y2667024D01*
X4661284Y2666470D01*
Y2663425D01*
X4622800D01*
Y2668131D01*
X4652756D01*
X4652701Y2668187D01*
X4652479Y2668464D01*
X4652147Y2668796D01*
X4651760Y2669350D01*
X4651261Y2669959D01*
X4650707Y2670734D01*
X4650098Y2671620D01*
X4649489Y2672616D01*
Y2672672D01*
X4649434Y2672727D01*
X4649212Y2673059D01*
X4648936Y2673613D01*
X4648603Y2674278D01*
X4648216Y2675053D01*
X4647828Y2675883D01*
X4647441Y2676714D01*
X4647108Y2677545D01*
X4651649D01*
Y2677489D01*
D02*
G37*
G36*
X4661117Y2635406D02*
Y2631586D01*
X4636311D01*
Y2626381D01*
X4631992D01*
Y2631586D01*
X4622800D01*
Y2636292D01*
X4631992D01*
Y2652959D01*
X4636311D01*
X4661117Y2635406D01*
D02*
G37*
G36*
X4940517Y2700026D02*
X4940462Y2699583D01*
Y2699084D01*
X4940407Y2697921D01*
X4940241Y2696703D01*
X4940074Y2695374D01*
X4939798Y2694156D01*
X4939631Y2693547D01*
X4939465Y2693049D01*
Y2692993D01*
X4939410Y2692938D01*
X4939244Y2692606D01*
X4939022Y2692107D01*
X4938635Y2691498D01*
X4938136Y2690834D01*
X4937472Y2690114D01*
X4936697Y2689450D01*
X4935811Y2688785D01*
X4935755D01*
X4935700Y2688730D01*
X4935368Y2688508D01*
X4934814Y2688287D01*
X4934094Y2687954D01*
X4933264Y2687678D01*
X4932267Y2687401D01*
X4931215Y2687235D01*
X4930052Y2687179D01*
X4929997D01*
X4929886D01*
X4929665D01*
X4929388Y2687235D01*
X4929000D01*
X4928612Y2687290D01*
X4927671Y2687512D01*
X4926564Y2687844D01*
X4925401Y2688287D01*
X4924238Y2688951D01*
X4923684Y2689394D01*
X4923131Y2689837D01*
X4923075Y2689893D01*
X4923020Y2689948D01*
X4922854Y2690114D01*
X4922688Y2690335D01*
X4922466Y2690612D01*
X4922245Y2690945D01*
X4921968Y2691388D01*
X4921636Y2691831D01*
X4921359Y2692384D01*
X4921082Y2692993D01*
X4920750Y2693658D01*
X4920473Y2694378D01*
X4920251Y2695208D01*
X4919974Y2696039D01*
X4919808Y2696980D01*
X4919642Y2697977D01*
X4919587Y2697866D01*
X4919476Y2697645D01*
X4919255Y2697312D01*
X4919033Y2696869D01*
X4918424Y2695873D01*
X4918036Y2695374D01*
X4917704Y2694931D01*
X4917593Y2694821D01*
X4917317Y2694544D01*
X4916874Y2694101D01*
X4916320Y2693547D01*
X4915545Y2692938D01*
X4914714Y2692218D01*
X4913717Y2691498D01*
X4912610Y2690723D01*
X4902200Y2684134D01*
Y2690446D01*
X4910174Y2695485D01*
X4910229D01*
X4910340Y2695596D01*
X4910506Y2695707D01*
X4910727Y2695873D01*
X4911336Y2696260D01*
X4912112Y2696759D01*
X4912942Y2697368D01*
X4913828Y2697977D01*
X4914659Y2698586D01*
X4915434Y2699140D01*
X4915489Y2699195D01*
X4915711Y2699361D01*
X4916043Y2699638D01*
X4916431Y2700026D01*
X4917261Y2700856D01*
X4917649Y2701299D01*
X4917981Y2701742D01*
X4918036Y2701797D01*
X4918092Y2701908D01*
X4918203Y2702130D01*
X4918369Y2702462D01*
X4918535Y2702794D01*
X4918701Y2703182D01*
X4918978Y2704068D01*
Y2704123D01*
X4919033Y2704234D01*
Y2704455D01*
X4919088Y2704732D01*
X4919144Y2705120D01*
Y2705563D01*
X4919199Y2706172D01*
Y2712706D01*
X4902200D01*
Y2717800D01*
X4940517D01*
Y2700026D01*
D02*
G37*
G36*
X4931049Y2677489D02*
X4931160Y2677378D01*
X4931215Y2677157D01*
X4931381Y2676880D01*
X4931547Y2676548D01*
X4931769Y2676160D01*
X4932322Y2675219D01*
X4932931Y2674111D01*
X4933707Y2673004D01*
X4934593Y2671841D01*
X4935534Y2670678D01*
X4935589Y2670623D01*
X4935645Y2670568D01*
X4935811Y2670402D01*
X4935977Y2670180D01*
X4936531Y2669682D01*
X4937195Y2669017D01*
X4937970Y2668353D01*
X4938856Y2667633D01*
X4939742Y2667024D01*
X4940684Y2666470D01*
Y2663425D01*
X4902200D01*
Y2668131D01*
X4932156D01*
X4932101Y2668187D01*
X4931879Y2668464D01*
X4931547Y2668796D01*
X4931160Y2669350D01*
X4930661Y2669959D01*
X4930107Y2670734D01*
X4929498Y2671620D01*
X4928889Y2672616D01*
Y2672672D01*
X4928834Y2672727D01*
X4928612Y2673059D01*
X4928336Y2673613D01*
X4928003Y2674278D01*
X4927616Y2675053D01*
X4927228Y2675883D01*
X4926841Y2676714D01*
X4926508Y2677545D01*
X4931049D01*
Y2677489D01*
D02*
G37*
G36*
X4912942Y2646592D02*
X4912887D01*
X4912776Y2646536D01*
X4912555Y2646481D01*
X4912278Y2646425D01*
X4911945Y2646370D01*
X4911558Y2646259D01*
X4910727Y2645983D01*
X4909731Y2645595D01*
X4908789Y2645097D01*
X4907903Y2644543D01*
X4907128Y2643878D01*
X4907073Y2643768D01*
X4906851Y2643546D01*
X4906574Y2643103D01*
X4906298Y2642549D01*
X4905965Y2641885D01*
X4905688Y2641054D01*
X4905467Y2640113D01*
X4905412Y2639116D01*
Y2638784D01*
X4905467Y2638563D01*
X4905522Y2637954D01*
X4905688Y2637178D01*
X4905965Y2636292D01*
X4906353Y2635351D01*
X4906907Y2634410D01*
X4907682Y2633524D01*
X4907793Y2633413D01*
X4908125Y2633136D01*
X4908623Y2632804D01*
X4909288Y2632361D01*
X4910118Y2631918D01*
X4911060Y2631586D01*
X4912167Y2631309D01*
X4913385Y2631198D01*
X4913441D01*
X4913551D01*
X4913717D01*
X4913939Y2631254D01*
X4914548Y2631309D01*
X4915268Y2631475D01*
X4916154Y2631697D01*
X4917040Y2632084D01*
X4917926Y2632638D01*
X4918756Y2633358D01*
X4918867Y2633468D01*
X4919088Y2633745D01*
X4919421Y2634188D01*
X4919808Y2634797D01*
X4920196Y2635573D01*
X4920528Y2636514D01*
X4920750Y2637566D01*
X4920860Y2638729D01*
Y2639227D01*
X4920805Y2639615D01*
X4920750Y2640113D01*
X4920639Y2640667D01*
X4920528Y2641331D01*
X4920362Y2642051D01*
X4924515Y2641497D01*
Y2641221D01*
X4924460Y2640999D01*
Y2640279D01*
X4924570Y2639670D01*
X4924681Y2638950D01*
X4924847Y2638120D01*
X4925124Y2637178D01*
X4925512Y2636292D01*
X4926010Y2635351D01*
Y2635296D01*
X4926065Y2635240D01*
X4926287Y2634963D01*
X4926674Y2634576D01*
X4927173Y2634133D01*
X4927893Y2633690D01*
X4928723Y2633302D01*
X4929665Y2633025D01*
X4930218Y2632915D01*
X4930827D01*
X4930883D01*
X4930938D01*
X4931270D01*
X4931713Y2633025D01*
X4932322Y2633136D01*
X4932987Y2633358D01*
X4933707Y2633635D01*
X4934427Y2634078D01*
X4935091Y2634687D01*
X4935146Y2634742D01*
X4935368Y2635019D01*
X4935645Y2635406D01*
X4935977Y2635905D01*
X4936254Y2636569D01*
X4936531Y2637344D01*
X4936752Y2638230D01*
X4936807Y2639227D01*
Y2639670D01*
X4936697Y2640168D01*
X4936586Y2640833D01*
X4936365Y2641553D01*
X4936088Y2642273D01*
X4935645Y2643048D01*
X4935091Y2643768D01*
X4935036Y2643823D01*
X4934759Y2644044D01*
X4934371Y2644377D01*
X4933817Y2644764D01*
X4933098Y2645152D01*
X4932212Y2645540D01*
X4931160Y2645872D01*
X4929941Y2646093D01*
X4930772Y2650800D01*
X4930827D01*
X4930993Y2650745D01*
X4931215Y2650689D01*
X4931547Y2650634D01*
X4931935Y2650523D01*
X4932378Y2650357D01*
X4933430Y2650025D01*
X4934648Y2649471D01*
X4935866Y2648806D01*
X4937029Y2647976D01*
X4938081Y2646924D01*
X4938136Y2646868D01*
X4938192Y2646758D01*
X4938303Y2646592D01*
X4938469Y2646370D01*
X4938690Y2646093D01*
X4938912Y2645706D01*
X4939133Y2645318D01*
X4939410Y2644820D01*
X4939853Y2643712D01*
X4940296Y2642439D01*
X4940573Y2640944D01*
X4940684Y2640168D01*
Y2638784D01*
X4940628Y2638175D01*
X4940517Y2637455D01*
X4940351Y2636569D01*
X4940074Y2635573D01*
X4939742Y2634576D01*
X4939299Y2633579D01*
Y2633524D01*
X4939244Y2633468D01*
X4939078Y2633136D01*
X4938746Y2632638D01*
X4938358Y2632084D01*
X4937804Y2631420D01*
X4937195Y2630755D01*
X4936475Y2630091D01*
X4935645Y2629537D01*
X4935534Y2629482D01*
X4935257Y2629316D01*
X4934759Y2629094D01*
X4934150Y2628817D01*
X4933430Y2628540D01*
X4932599Y2628319D01*
X4931658Y2628153D01*
X4930717Y2628097D01*
X4930606D01*
X4930274D01*
X4929831Y2628153D01*
X4929222Y2628263D01*
X4928502Y2628430D01*
X4927726Y2628706D01*
X4926951Y2629039D01*
X4926176Y2629482D01*
X4926065Y2629537D01*
X4925844Y2629703D01*
X4925456Y2630035D01*
X4925013Y2630478D01*
X4924515Y2631032D01*
X4923961Y2631697D01*
X4923463Y2632472D01*
X4922964Y2633413D01*
Y2633358D01*
X4922909Y2633247D01*
X4922854Y2633081D01*
X4922798Y2632859D01*
X4922577Y2632250D01*
X4922245Y2631475D01*
X4921802Y2630589D01*
X4921248Y2629703D01*
X4920528Y2628873D01*
X4919698Y2628097D01*
X4919587Y2628042D01*
X4919255Y2627820D01*
X4918701Y2627488D01*
X4917981Y2627156D01*
X4917095Y2626824D01*
X4916043Y2626492D01*
X4914825Y2626270D01*
X4913496Y2626215D01*
X4913441D01*
X4913274D01*
X4912998D01*
X4912665Y2626270D01*
X4912222Y2626325D01*
X4911724Y2626436D01*
X4911170Y2626547D01*
X4910561Y2626658D01*
X4909232Y2627101D01*
X4908512Y2627433D01*
X4907848Y2627765D01*
X4907128Y2628208D01*
X4906408Y2628706D01*
X4905688Y2629260D01*
X4905024Y2629925D01*
X4904969Y2629980D01*
X4904858Y2630091D01*
X4904692Y2630312D01*
X4904470Y2630589D01*
X4904193Y2630921D01*
X4903917Y2631364D01*
X4903584Y2631863D01*
X4903307Y2632472D01*
X4902975Y2633081D01*
X4902643Y2633801D01*
X4902366Y2634521D01*
X4902089Y2635351D01*
X4901868Y2636237D01*
X4901702Y2637178D01*
X4901591Y2638120D01*
X4901536Y2639172D01*
Y2639670D01*
X4901591Y2640002D01*
X4901646Y2640445D01*
X4901702Y2640944D01*
X4901812Y2641497D01*
X4901923Y2642106D01*
X4902255Y2643435D01*
X4902809Y2644820D01*
X4903141Y2645540D01*
X4903529Y2646204D01*
X4904027Y2646868D01*
X4904526Y2647533D01*
X4904581Y2647588D01*
X4904692Y2647699D01*
X4904858Y2647865D01*
X4905079Y2648031D01*
X4905356Y2648308D01*
X4905744Y2648585D01*
X4906131Y2648917D01*
X4906630Y2649249D01*
X4907183Y2649582D01*
X4907737Y2649914D01*
X4909066Y2650523D01*
X4910617Y2651021D01*
X4911447Y2651187D01*
X4912333Y2651298D01*
X4912942Y2646592D01*
D02*
G37*
G36*
X5207217Y2700026D02*
X5207162Y2699583D01*
Y2699084D01*
X5207107Y2697921D01*
X5206941Y2696703D01*
X5206774Y2695374D01*
X5206498Y2694156D01*
X5206331Y2693547D01*
X5206165Y2693049D01*
Y2692993D01*
X5206110Y2692938D01*
X5205944Y2692606D01*
X5205722Y2692107D01*
X5205335Y2691498D01*
X5204836Y2690834D01*
X5204172Y2690114D01*
X5203397Y2689450D01*
X5202511Y2688785D01*
X5202455D01*
X5202400Y2688730D01*
X5202068Y2688508D01*
X5201514Y2688287D01*
X5200794Y2687954D01*
X5199964Y2687678D01*
X5198967Y2687401D01*
X5197915Y2687235D01*
X5196752Y2687179D01*
X5196697D01*
X5196586D01*
X5196365D01*
X5196088Y2687235D01*
X5195700D01*
X5195312Y2687290D01*
X5194371Y2687512D01*
X5193264Y2687844D01*
X5192101Y2688287D01*
X5190938Y2688951D01*
X5190384Y2689394D01*
X5189831Y2689837D01*
X5189775Y2689893D01*
X5189720Y2689948D01*
X5189554Y2690114D01*
X5189388Y2690335D01*
X5189166Y2690612D01*
X5188945Y2690945D01*
X5188668Y2691388D01*
X5188336Y2691831D01*
X5188059Y2692384D01*
X5187782Y2692993D01*
X5187450Y2693658D01*
X5187173Y2694378D01*
X5186951Y2695208D01*
X5186674Y2696039D01*
X5186508Y2696980D01*
X5186342Y2697977D01*
X5186287Y2697866D01*
X5186176Y2697645D01*
X5185955Y2697312D01*
X5185733Y2696869D01*
X5185124Y2695873D01*
X5184736Y2695374D01*
X5184404Y2694931D01*
X5184293Y2694821D01*
X5184017Y2694544D01*
X5183574Y2694101D01*
X5183020Y2693547D01*
X5182245Y2692938D01*
X5181414Y2692218D01*
X5180417Y2691498D01*
X5179310Y2690723D01*
X5168900Y2684134D01*
Y2690446D01*
X5176874Y2695485D01*
X5176929D01*
X5177040Y2695596D01*
X5177206Y2695707D01*
X5177427Y2695873D01*
X5178036Y2696260D01*
X5178812Y2696759D01*
X5179642Y2697368D01*
X5180528Y2697977D01*
X5181359Y2698586D01*
X5182134Y2699140D01*
X5182189Y2699195D01*
X5182411Y2699361D01*
X5182743Y2699638D01*
X5183131Y2700026D01*
X5183961Y2700856D01*
X5184349Y2701299D01*
X5184681Y2701742D01*
X5184736Y2701797D01*
X5184792Y2701908D01*
X5184903Y2702130D01*
X5185069Y2702462D01*
X5185235Y2702794D01*
X5185401Y2703182D01*
X5185678Y2704068D01*
Y2704123D01*
X5185733Y2704234D01*
Y2704455D01*
X5185788Y2704732D01*
X5185844Y2705120D01*
Y2705563D01*
X5185899Y2706172D01*
Y2712706D01*
X5168900D01*
Y2717800D01*
X5207217D01*
Y2700026D01*
D02*
G37*
G36*
X5197749Y2677489D02*
X5197860Y2677378D01*
X5197915Y2677157D01*
X5198081Y2676880D01*
X5198247Y2676548D01*
X5198469Y2676160D01*
X5199022Y2675219D01*
X5199631Y2674111D01*
X5200407Y2673004D01*
X5201293Y2671841D01*
X5202234Y2670678D01*
X5202289Y2670623D01*
X5202345Y2670568D01*
X5202511Y2670402D01*
X5202677Y2670180D01*
X5203231Y2669682D01*
X5203895Y2669017D01*
X5204670Y2668353D01*
X5205556Y2667633D01*
X5206442Y2667024D01*
X5207384Y2666470D01*
Y2663425D01*
X5168900D01*
Y2668131D01*
X5198856D01*
X5198801Y2668187D01*
X5198579Y2668464D01*
X5198247Y2668796D01*
X5197860Y2669350D01*
X5197361Y2669959D01*
X5196807Y2670734D01*
X5196198Y2671620D01*
X5195589Y2672616D01*
Y2672672D01*
X5195534Y2672727D01*
X5195312Y2673059D01*
X5195036Y2673613D01*
X5194703Y2674278D01*
X5194316Y2675053D01*
X5193928Y2675883D01*
X5193541Y2676714D01*
X5193208Y2677545D01*
X5197749D01*
Y2677489D01*
D02*
G37*
G36*
X5169952Y2651963D02*
X5170450Y2651907D01*
X5171004Y2651797D01*
X5171558Y2651686D01*
X5172167Y2651464D01*
X5172222D01*
X5172278Y2651409D01*
X5172610Y2651298D01*
X5173108Y2651077D01*
X5173773Y2650745D01*
X5174548Y2650302D01*
X5175434Y2649748D01*
X5176320Y2649139D01*
X5177261Y2648364D01*
X5177317D01*
X5177372Y2648253D01*
X5177704Y2647976D01*
X5178202Y2647478D01*
X5178922Y2646758D01*
X5179753Y2645927D01*
X5180750Y2644875D01*
X5181857Y2643602D01*
X5183020Y2642217D01*
X5183075Y2642162D01*
X5183241Y2641940D01*
X5183518Y2641608D01*
X5183850Y2641221D01*
X5184293Y2640722D01*
X5184792Y2640113D01*
X5185345Y2639504D01*
X5185955Y2638784D01*
X5187284Y2637400D01*
X5188612Y2636016D01*
X5189277Y2635351D01*
X5189941Y2634742D01*
X5190550Y2634188D01*
X5191160Y2633745D01*
X5191215D01*
X5191270Y2633635D01*
X5191436Y2633524D01*
X5191658Y2633413D01*
X5192267Y2633025D01*
X5192987Y2632582D01*
X5193873Y2632195D01*
X5194814Y2631807D01*
X5195866Y2631586D01*
X5196863Y2631475D01*
X5196918D01*
X5196974D01*
X5197306Y2631530D01*
X5197860Y2631586D01*
X5198469Y2631752D01*
X5199244Y2631973D01*
X5200019Y2632361D01*
X5200794Y2632859D01*
X5201569Y2633524D01*
X5201680Y2633635D01*
X5201902Y2633911D01*
X5202179Y2634299D01*
X5202566Y2634908D01*
X5202898Y2635683D01*
X5203231Y2636569D01*
X5203452Y2637621D01*
X5203507Y2638784D01*
Y2639116D01*
X5203452Y2639338D01*
X5203397Y2640002D01*
X5203231Y2640778D01*
X5203009Y2641608D01*
X5202622Y2642549D01*
X5202123Y2643435D01*
X5201459Y2644266D01*
X5201348Y2644377D01*
X5201071Y2644598D01*
X5200628Y2644930D01*
X5199964Y2645263D01*
X5199188Y2645650D01*
X5198192Y2645983D01*
X5197084Y2646204D01*
X5195811Y2646315D01*
X5196309Y2651132D01*
X5196365D01*
X5196531Y2651077D01*
X5196807D01*
X5197195Y2651021D01*
X5197638Y2650911D01*
X5198136Y2650800D01*
X5198746Y2650634D01*
X5199355Y2650468D01*
X5200684Y2650025D01*
X5202012Y2649360D01*
X5202677Y2648973D01*
X5203341Y2648474D01*
X5203950Y2647976D01*
X5204504Y2647422D01*
X5204560Y2647367D01*
X5204615Y2647256D01*
X5204781Y2647090D01*
X5204947Y2646813D01*
X5205169Y2646481D01*
X5205390Y2646093D01*
X5205667Y2645650D01*
X5205944Y2645097D01*
X5206221Y2644487D01*
X5206498Y2643823D01*
X5206719Y2643103D01*
X5206941Y2642328D01*
X5207107Y2641497D01*
X5207273Y2640611D01*
X5207328Y2639670D01*
X5207384Y2638673D01*
Y2638120D01*
X5207328Y2637732D01*
X5207273Y2637289D01*
X5207217Y2636735D01*
X5207107Y2636126D01*
X5206996Y2635517D01*
X5206608Y2634078D01*
X5206055Y2632638D01*
X5205722Y2631918D01*
X5205335Y2631198D01*
X5204836Y2630534D01*
X5204283Y2629925D01*
X5204227Y2629869D01*
X5204172Y2629759D01*
X5203950Y2629648D01*
X5203729Y2629426D01*
X5203452Y2629149D01*
X5203065Y2628873D01*
X5202677Y2628596D01*
X5202179Y2628263D01*
X5201127Y2627710D01*
X5199798Y2627156D01*
X5199133Y2626935D01*
X5198358Y2626824D01*
X5197583Y2626713D01*
X5196752Y2626658D01*
X5196641D01*
X5196365D01*
X5195922Y2626713D01*
X5195312Y2626768D01*
X5194648Y2626879D01*
X5193873Y2627101D01*
X5193042Y2627322D01*
X5192212Y2627654D01*
X5192101Y2627710D01*
X5191824Y2627820D01*
X5191381Y2628042D01*
X5190772Y2628374D01*
X5190107Y2628817D01*
X5189277Y2629371D01*
X5188446Y2630035D01*
X5187505Y2630811D01*
X5187394Y2630921D01*
X5187062Y2631198D01*
X5186785Y2631475D01*
X5186508Y2631752D01*
X5186176Y2632084D01*
X5185733Y2632527D01*
X5185290Y2632970D01*
X5184792Y2633524D01*
X5184238Y2634078D01*
X5183629Y2634742D01*
X5183020Y2635462D01*
X5182300Y2636237D01*
X5181580Y2637123D01*
X5180805Y2638009D01*
X5180750Y2638064D01*
X5180639Y2638175D01*
X5180473Y2638397D01*
X5180251Y2638673D01*
X5179919Y2639006D01*
X5179587Y2639393D01*
X5178867Y2640279D01*
X5178036Y2641221D01*
X5177206Y2642106D01*
X5176486Y2642882D01*
X5176209Y2643214D01*
X5175932Y2643491D01*
X5175877Y2643546D01*
X5175711Y2643712D01*
X5175489Y2643934D01*
X5175157Y2644211D01*
X5174769Y2644487D01*
X5174382Y2644820D01*
X5173441Y2645484D01*
Y2626602D01*
X5168900D01*
Y2652018D01*
X5168955D01*
X5169177D01*
X5169509D01*
X5169952Y2651963D01*
D02*
G37*
G36*
X5905717Y2700026D02*
X5905662Y2699583D01*
Y2699084D01*
X5905607Y2697921D01*
X5905441Y2696703D01*
X5905274Y2695374D01*
X5904998Y2694156D01*
X5904831Y2693547D01*
X5904665Y2693049D01*
Y2692993D01*
X5904610Y2692938D01*
X5904444Y2692606D01*
X5904222Y2692107D01*
X5903835Y2691498D01*
X5903336Y2690834D01*
X5902672Y2690114D01*
X5901897Y2689450D01*
X5901011Y2688785D01*
X5900955D01*
X5900900Y2688730D01*
X5900568Y2688508D01*
X5900014Y2688287D01*
X5899294Y2687954D01*
X5898464Y2687678D01*
X5897467Y2687401D01*
X5896415Y2687235D01*
X5895252Y2687179D01*
X5895197D01*
X5895086D01*
X5894865D01*
X5894588Y2687235D01*
X5894200D01*
X5893812Y2687290D01*
X5892871Y2687512D01*
X5891764Y2687844D01*
X5890601Y2688287D01*
X5889438Y2688951D01*
X5888884Y2689394D01*
X5888331Y2689837D01*
X5888275Y2689893D01*
X5888220Y2689948D01*
X5888054Y2690114D01*
X5887888Y2690335D01*
X5887666Y2690612D01*
X5887445Y2690945D01*
X5887168Y2691388D01*
X5886836Y2691831D01*
X5886559Y2692384D01*
X5886282Y2692993D01*
X5885950Y2693658D01*
X5885673Y2694378D01*
X5885451Y2695208D01*
X5885174Y2696039D01*
X5885008Y2696980D01*
X5884842Y2697977D01*
X5884787Y2697866D01*
X5884676Y2697645D01*
X5884455Y2697312D01*
X5884233Y2696869D01*
X5883624Y2695873D01*
X5883236Y2695374D01*
X5882904Y2694931D01*
X5882793Y2694821D01*
X5882517Y2694544D01*
X5882074Y2694101D01*
X5881520Y2693547D01*
X5880745Y2692938D01*
X5879914Y2692218D01*
X5878917Y2691498D01*
X5877810Y2690723D01*
X5867400Y2684134D01*
Y2690446D01*
X5875374Y2695485D01*
X5875429D01*
X5875540Y2695596D01*
X5875706Y2695707D01*
X5875927Y2695873D01*
X5876536Y2696260D01*
X5877312Y2696759D01*
X5878142Y2697368D01*
X5879028Y2697977D01*
X5879859Y2698586D01*
X5880634Y2699140D01*
X5880689Y2699195D01*
X5880911Y2699361D01*
X5881243Y2699638D01*
X5881631Y2700026D01*
X5882461Y2700856D01*
X5882849Y2701299D01*
X5883181Y2701742D01*
X5883236Y2701797D01*
X5883292Y2701908D01*
X5883403Y2702130D01*
X5883569Y2702462D01*
X5883735Y2702794D01*
X5883901Y2703182D01*
X5884178Y2704068D01*
Y2704123D01*
X5884233Y2704234D01*
Y2704455D01*
X5884288Y2704732D01*
X5884344Y2705120D01*
Y2705563D01*
X5884399Y2706172D01*
Y2712706D01*
X5867400D01*
Y2717800D01*
X5905717D01*
Y2700026D01*
D02*
G37*
G36*
X5896249Y2677489D02*
X5896360Y2677378D01*
X5896415Y2677157D01*
X5896581Y2676880D01*
X5896747Y2676548D01*
X5896969Y2676160D01*
X5897522Y2675219D01*
X5898131Y2674111D01*
X5898907Y2673004D01*
X5899793Y2671841D01*
X5900734Y2670678D01*
X5900789Y2670623D01*
X5900845Y2670568D01*
X5901011Y2670402D01*
X5901177Y2670180D01*
X5901731Y2669682D01*
X5902395Y2669017D01*
X5903170Y2668353D01*
X5904056Y2667633D01*
X5904942Y2667024D01*
X5905884Y2666470D01*
Y2663425D01*
X5867400D01*
Y2668131D01*
X5897356D01*
X5897301Y2668187D01*
X5897079Y2668464D01*
X5896747Y2668796D01*
X5896360Y2669350D01*
X5895861Y2669959D01*
X5895307Y2670734D01*
X5894698Y2671620D01*
X5894089Y2672616D01*
Y2672672D01*
X5894034Y2672727D01*
X5893812Y2673059D01*
X5893536Y2673613D01*
X5893203Y2674278D01*
X5892816Y2675053D01*
X5892428Y2675883D01*
X5892041Y2676714D01*
X5891708Y2677545D01*
X5896249D01*
Y2677489D01*
D02*
G37*
G36*
X5877810Y2646425D02*
X5877755D01*
X5877644D01*
X5877478Y2646370D01*
X5877201Y2646315D01*
X5876592Y2646149D01*
X5875761Y2645927D01*
X5874931Y2645595D01*
X5873989Y2645152D01*
X5873159Y2644598D01*
X5872383Y2643934D01*
X5872328Y2643823D01*
X5872107Y2643602D01*
X5871830Y2643159D01*
X5871498Y2642549D01*
X5871165Y2641885D01*
X5870888Y2641054D01*
X5870667Y2640113D01*
X5870612Y2639061D01*
Y2638729D01*
X5870667Y2638507D01*
X5870722Y2637843D01*
X5870944Y2637068D01*
X5871221Y2636126D01*
X5871664Y2635185D01*
X5872328Y2634188D01*
X5872716Y2633745D01*
X5873159Y2633302D01*
X5873214Y2633247D01*
X5873269Y2633192D01*
X5873436Y2633081D01*
X5873602Y2632915D01*
X5874211Y2632527D01*
X5874986Y2632084D01*
X5875927Y2631697D01*
X5877090Y2631309D01*
X5878474Y2631032D01*
X5879194Y2630921D01*
X5879969D01*
X5880025D01*
X5880136D01*
X5880357D01*
X5880634Y2630977D01*
X5880966D01*
X5881354Y2631032D01*
X5882240Y2631198D01*
X5883292Y2631475D01*
X5884344Y2631863D01*
X5885341Y2632416D01*
X5886282Y2633192D01*
X5886337D01*
X5886393Y2633302D01*
X5886669Y2633579D01*
X5887057Y2634078D01*
X5887500Y2634742D01*
X5887888Y2635628D01*
X5888275Y2636625D01*
X5888552Y2637787D01*
X5888663Y2638452D01*
Y2639504D01*
X5888607Y2639947D01*
X5888552Y2640501D01*
X5888386Y2641165D01*
X5888220Y2641830D01*
X5887943Y2642549D01*
X5887611Y2643269D01*
X5887555Y2643325D01*
X5887445Y2643546D01*
X5887168Y2643878D01*
X5886891Y2644321D01*
X5886503Y2644764D01*
X5886005Y2645207D01*
X5885507Y2645706D01*
X5884898Y2646093D01*
X5885507Y2650523D01*
X5905219Y2646813D01*
Y2627765D01*
X5900734D01*
Y2643103D01*
X5890379Y2645152D01*
X5890435Y2645097D01*
X5890490Y2644986D01*
X5890601Y2644820D01*
X5890767Y2644543D01*
X5890933Y2644211D01*
X5891155Y2643823D01*
X5891598Y2642937D01*
X5892041Y2641830D01*
X5892428Y2640611D01*
X5892705Y2639283D01*
X5892816Y2638618D01*
Y2637400D01*
X5892760Y2637068D01*
X5892705Y2636625D01*
X5892650Y2636126D01*
X5892539Y2635573D01*
X5892373Y2634963D01*
X5891985Y2633635D01*
X5891708Y2632915D01*
X5891321Y2632195D01*
X5890933Y2631475D01*
X5890490Y2630755D01*
X5889936Y2630091D01*
X5889327Y2629426D01*
X5889272Y2629371D01*
X5889161Y2629260D01*
X5888995Y2629094D01*
X5888718Y2628873D01*
X5888331Y2628596D01*
X5887943Y2628319D01*
X5887445Y2627987D01*
X5886891Y2627654D01*
X5886282Y2627378D01*
X5885617Y2627045D01*
X5884842Y2626768D01*
X5884067Y2626492D01*
X5883236Y2626270D01*
X5882295Y2626104D01*
X5881354Y2625993D01*
X5880357Y2625938D01*
X5880302D01*
X5880136D01*
X5879859D01*
X5879471Y2625993D01*
X5879028Y2626049D01*
X5878530Y2626104D01*
X5877921Y2626215D01*
X5877312Y2626325D01*
X5875872Y2626658D01*
X5874377Y2627211D01*
X5873602Y2627544D01*
X5872882Y2627987D01*
X5872107Y2628430D01*
X5871387Y2628983D01*
X5871331Y2629039D01*
X5871165Y2629149D01*
X5870944Y2629371D01*
X5870667Y2629648D01*
X5870335Y2630035D01*
X5869892Y2630478D01*
X5869504Y2631032D01*
X5869061Y2631641D01*
X5868618Y2632306D01*
X5868231Y2633081D01*
X5867843Y2633911D01*
X5867455Y2634797D01*
X5867179Y2635739D01*
X5866957Y2636791D01*
X5866791Y2637898D01*
X5866736Y2639061D01*
Y2639559D01*
X5866791Y2639947D01*
X5866846Y2640390D01*
X5866902Y2640888D01*
X5866957Y2641497D01*
X5867123Y2642106D01*
X5867455Y2643491D01*
X5867954Y2644875D01*
X5868286Y2645595D01*
X5868674Y2646315D01*
X5869117Y2646979D01*
X5869615Y2647644D01*
X5869670Y2647699D01*
X5869726Y2647810D01*
X5869947Y2647921D01*
X5870169Y2648142D01*
X5870445Y2648419D01*
X5870778Y2648696D01*
X5871221Y2649028D01*
X5871719Y2649305D01*
X5872217Y2649637D01*
X5872826Y2649969D01*
X5874155Y2650578D01*
X5875706Y2651077D01*
X5876536Y2651243D01*
X5877422Y2651354D01*
X5877810Y2646425D01*
D02*
G37*
G36*
X5613617Y2700026D02*
X5613562Y2699583D01*
Y2699084D01*
X5613507Y2697921D01*
X5613341Y2696703D01*
X5613174Y2695374D01*
X5612898Y2694156D01*
X5612731Y2693547D01*
X5612565Y2693049D01*
Y2692993D01*
X5612510Y2692938D01*
X5612344Y2692606D01*
X5612122Y2692107D01*
X5611735Y2691498D01*
X5611236Y2690834D01*
X5610572Y2690114D01*
X5609797Y2689450D01*
X5608911Y2688785D01*
X5608855D01*
X5608800Y2688730D01*
X5608468Y2688508D01*
X5607914Y2688287D01*
X5607194Y2687954D01*
X5606364Y2687678D01*
X5605367Y2687401D01*
X5604315Y2687235D01*
X5603152Y2687179D01*
X5603097D01*
X5602986D01*
X5602765D01*
X5602488Y2687235D01*
X5602100D01*
X5601712Y2687290D01*
X5600771Y2687512D01*
X5599664Y2687844D01*
X5598501Y2688287D01*
X5597338Y2688951D01*
X5596784Y2689394D01*
X5596231Y2689837D01*
X5596175Y2689893D01*
X5596120Y2689948D01*
X5595954Y2690114D01*
X5595788Y2690335D01*
X5595566Y2690612D01*
X5595345Y2690945D01*
X5595068Y2691388D01*
X5594736Y2691831D01*
X5594459Y2692384D01*
X5594182Y2692993D01*
X5593850Y2693658D01*
X5593573Y2694378D01*
X5593351Y2695208D01*
X5593074Y2696039D01*
X5592908Y2696980D01*
X5592742Y2697977D01*
X5592687Y2697866D01*
X5592576Y2697645D01*
X5592355Y2697312D01*
X5592133Y2696869D01*
X5591524Y2695873D01*
X5591136Y2695374D01*
X5590804Y2694931D01*
X5590693Y2694821D01*
X5590417Y2694544D01*
X5589974Y2694101D01*
X5589420Y2693547D01*
X5588645Y2692938D01*
X5587814Y2692218D01*
X5586817Y2691498D01*
X5585710Y2690723D01*
X5575300Y2684134D01*
Y2690446D01*
X5583274Y2695485D01*
X5583329D01*
X5583440Y2695596D01*
X5583606Y2695707D01*
X5583827Y2695873D01*
X5584436Y2696260D01*
X5585212Y2696759D01*
X5586042Y2697368D01*
X5586928Y2697977D01*
X5587759Y2698586D01*
X5588534Y2699140D01*
X5588589Y2699195D01*
X5588811Y2699361D01*
X5589143Y2699638D01*
X5589531Y2700026D01*
X5590361Y2700856D01*
X5590749Y2701299D01*
X5591081Y2701742D01*
X5591136Y2701797D01*
X5591192Y2701908D01*
X5591303Y2702130D01*
X5591469Y2702462D01*
X5591635Y2702794D01*
X5591801Y2703182D01*
X5592078Y2704068D01*
Y2704123D01*
X5592133Y2704234D01*
Y2704455D01*
X5592188Y2704732D01*
X5592244Y2705120D01*
Y2705563D01*
X5592299Y2706172D01*
Y2712706D01*
X5575300D01*
Y2717800D01*
X5613617D01*
Y2700026D01*
D02*
G37*
G36*
X5604149Y2677489D02*
X5604260Y2677378D01*
X5604315Y2677157D01*
X5604481Y2676880D01*
X5604647Y2676548D01*
X5604869Y2676160D01*
X5605422Y2675219D01*
X5606031Y2674111D01*
X5606807Y2673004D01*
X5607693Y2671841D01*
X5608634Y2670678D01*
X5608689Y2670623D01*
X5608745Y2670568D01*
X5608911Y2670402D01*
X5609077Y2670180D01*
X5609631Y2669682D01*
X5610295Y2669017D01*
X5611070Y2668353D01*
X5611956Y2667633D01*
X5612842Y2667024D01*
X5613784Y2666470D01*
Y2663425D01*
X5575300D01*
Y2668131D01*
X5605256D01*
X5605201Y2668187D01*
X5604979Y2668464D01*
X5604647Y2668796D01*
X5604260Y2669350D01*
X5603761Y2669959D01*
X5603207Y2670734D01*
X5602598Y2671620D01*
X5601989Y2672616D01*
Y2672672D01*
X5601934Y2672727D01*
X5601712Y2673059D01*
X5601436Y2673613D01*
X5601103Y2674278D01*
X5600716Y2675053D01*
X5600328Y2675883D01*
X5599941Y2676714D01*
X5599608Y2677545D01*
X5604149D01*
Y2677489D01*
D02*
G37*
G36*
X5594237Y2651520D02*
X5595012D01*
X5595898Y2651464D01*
X5596950Y2651354D01*
X5598113Y2651243D01*
X5599387Y2651077D01*
X5600660Y2650855D01*
X5602045Y2650578D01*
X5603374Y2650246D01*
X5604703Y2649859D01*
X5605976Y2649360D01*
X5607194Y2648806D01*
X5608357Y2648197D01*
X5609354Y2647478D01*
X5609409Y2647422D01*
X5609520Y2647311D01*
X5609741Y2647090D01*
X5610074Y2646813D01*
X5610406Y2646481D01*
X5610738Y2646038D01*
X5611181Y2645484D01*
X5611569Y2644930D01*
X5611956Y2644266D01*
X5612399Y2643546D01*
X5612731Y2642716D01*
X5613119Y2641885D01*
X5613396Y2640944D01*
X5613617Y2639947D01*
X5613728Y2638895D01*
X5613784Y2637787D01*
Y2637344D01*
X5613728Y2637012D01*
Y2636625D01*
X5613673Y2636182D01*
X5613451Y2635130D01*
X5613174Y2633967D01*
X5612731Y2632749D01*
X5612067Y2631530D01*
X5611679Y2630921D01*
X5611236Y2630368D01*
X5611181Y2630312D01*
X5611126Y2630257D01*
X5610960Y2630091D01*
X5610793Y2629925D01*
X5610517Y2629648D01*
X5610184Y2629426D01*
X5609409Y2628817D01*
X5608412Y2628208D01*
X5607194Y2627654D01*
X5605810Y2627156D01*
X5604260Y2626824D01*
X5603872Y2631530D01*
X5603927D01*
X5603983Y2631586D01*
X5604315Y2631641D01*
X5604813Y2631807D01*
X5605422Y2632029D01*
X5606087Y2632250D01*
X5606751Y2632582D01*
X5607360Y2632970D01*
X5607859Y2633358D01*
X5607969Y2633468D01*
X5608191Y2633690D01*
X5608523Y2634078D01*
X5608911Y2634631D01*
X5609243Y2635351D01*
X5609575Y2636126D01*
X5609797Y2637068D01*
X5609907Y2638064D01*
Y2638452D01*
X5609852Y2638895D01*
X5609741Y2639393D01*
X5609575Y2640058D01*
X5609354Y2640722D01*
X5609077Y2641387D01*
X5608634Y2642051D01*
X5608579Y2642162D01*
X5608357Y2642439D01*
X5607969Y2642826D01*
X5607416Y2643325D01*
X5606751Y2643878D01*
X5605976Y2644487D01*
X5604979Y2645041D01*
X5603872Y2645595D01*
X5603817D01*
X5603706Y2645650D01*
X5603540Y2645706D01*
X5603318Y2645816D01*
X5602986Y2645872D01*
X5602598Y2645983D01*
X5602155Y2646093D01*
X5601602Y2646204D01*
X5600993Y2646370D01*
X5600328Y2646481D01*
X5599608Y2646592D01*
X5598833Y2646647D01*
X5597947Y2646758D01*
X5597061Y2646813D01*
X5596064Y2646868D01*
X5595068D01*
X5595123Y2646813D01*
X5595455Y2646592D01*
X5595898Y2646204D01*
X5596452Y2645706D01*
X5597117Y2645152D01*
X5597726Y2644432D01*
X5598335Y2643657D01*
X5598888Y2642771D01*
Y2642716D01*
X5598944Y2642660D01*
X5599110Y2642328D01*
X5599276Y2641830D01*
X5599553Y2641165D01*
X5599774Y2640390D01*
X5599941Y2639504D01*
X5600107Y2638563D01*
X5600162Y2637566D01*
Y2637123D01*
X5600107Y2636791D01*
X5600051Y2636348D01*
X5599996Y2635905D01*
X5599885Y2635351D01*
X5599719Y2634797D01*
X5599331Y2633524D01*
X5599055Y2632859D01*
X5598667Y2632195D01*
X5598279Y2631530D01*
X5597836Y2630811D01*
X5597283Y2630146D01*
X5596674Y2629537D01*
X5596618Y2629482D01*
X5596507Y2629371D01*
X5596341Y2629205D01*
X5596064Y2629039D01*
X5595677Y2628762D01*
X5595289Y2628485D01*
X5594791Y2628208D01*
X5594237Y2627876D01*
X5593628Y2627544D01*
X5592964Y2627267D01*
X5592188Y2626990D01*
X5591413Y2626713D01*
X5590583Y2626547D01*
X5589641Y2626381D01*
X5588700Y2626270D01*
X5587703Y2626215D01*
X5587648D01*
X5587537D01*
X5587371D01*
X5587094D01*
X5586762Y2626270D01*
X5586430D01*
X5585544Y2626436D01*
X5584492Y2626602D01*
X5583384Y2626879D01*
X5582166Y2627267D01*
X5581003Y2627820D01*
X5580948D01*
X5580893Y2627876D01*
X5580726Y2627987D01*
X5580505Y2628097D01*
X5579951Y2628430D01*
X5579231Y2628928D01*
X5578456Y2629537D01*
X5577681Y2630257D01*
X5576906Y2631143D01*
X5576241Y2632084D01*
Y2632140D01*
X5576186Y2632195D01*
X5576075Y2632361D01*
X5576020Y2632582D01*
X5575743Y2633136D01*
X5575466Y2633856D01*
X5575134Y2634797D01*
X5574912Y2635849D01*
X5574691Y2637012D01*
X5574636Y2638286D01*
Y2638563D01*
X5574691Y2638840D01*
Y2639283D01*
X5574746Y2639781D01*
X5574857Y2640335D01*
X5575023Y2640999D01*
X5575189Y2641663D01*
X5575411Y2642439D01*
X5575688Y2643214D01*
X5576020Y2643989D01*
X5576463Y2644820D01*
X5576961Y2645595D01*
X5577515Y2646370D01*
X5578179Y2647145D01*
X5578955Y2647865D01*
X5579010Y2647921D01*
X5579176Y2648031D01*
X5579398Y2648197D01*
X5579785Y2648419D01*
X5580283Y2648751D01*
X5580837Y2649028D01*
X5581557Y2649360D01*
X5582332Y2649692D01*
X5583274Y2650080D01*
X5584326Y2650412D01*
X5585488Y2650689D01*
X5586762Y2650966D01*
X5588202Y2651243D01*
X5589752Y2651409D01*
X5591413Y2651520D01*
X5593185Y2651575D01*
X5593241D01*
X5593296D01*
X5593462D01*
X5593684D01*
X5594237Y2651520D01*
D02*
G37*
G36*
X3568917Y5480226D02*
X3568862Y5479783D01*
Y5479284D01*
X3568807Y5478121D01*
X3568641Y5476903D01*
X3568474Y5475574D01*
X3568198Y5474356D01*
X3568031Y5473747D01*
X3567865Y5473249D01*
Y5473193D01*
X3567810Y5473138D01*
X3567644Y5472806D01*
X3567422Y5472307D01*
X3567035Y5471698D01*
X3566536Y5471034D01*
X3565872Y5470314D01*
X3565097Y5469649D01*
X3564211Y5468985D01*
X3564155D01*
X3564100Y5468930D01*
X3563768Y5468708D01*
X3563214Y5468487D01*
X3562494Y5468154D01*
X3561664Y5467878D01*
X3560667Y5467601D01*
X3559615Y5467435D01*
X3558452Y5467379D01*
X3558397D01*
X3558286D01*
X3558065D01*
X3557788Y5467435D01*
X3557400D01*
X3557012Y5467490D01*
X3556071Y5467711D01*
X3554964Y5468044D01*
X3553801Y5468487D01*
X3552638Y5469151D01*
X3552084Y5469594D01*
X3551531Y5470037D01*
X3551475Y5470092D01*
X3551420Y5470148D01*
X3551254Y5470314D01*
X3551088Y5470535D01*
X3550866Y5470812D01*
X3550645Y5471145D01*
X3550368Y5471587D01*
X3550036Y5472030D01*
X3549759Y5472584D01*
X3549482Y5473193D01*
X3549150Y5473858D01*
X3548873Y5474578D01*
X3548651Y5475408D01*
X3548374Y5476239D01*
X3548208Y5477180D01*
X3548042Y5478177D01*
X3547987Y5478066D01*
X3547876Y5477845D01*
X3547655Y5477512D01*
X3547433Y5477069D01*
X3546824Y5476073D01*
X3546436Y5475574D01*
X3546104Y5475131D01*
X3545993Y5475021D01*
X3545717Y5474744D01*
X3545274Y5474301D01*
X3544720Y5473747D01*
X3543945Y5473138D01*
X3543114Y5472418D01*
X3542117Y5471698D01*
X3541010Y5470923D01*
X3530600Y5464334D01*
Y5470646D01*
X3538574Y5475685D01*
X3538629D01*
X3538740Y5475796D01*
X3538906Y5475906D01*
X3539127Y5476073D01*
X3539736Y5476460D01*
X3540512Y5476959D01*
X3541342Y5477568D01*
X3542228Y5478177D01*
X3543059Y5478786D01*
X3543834Y5479340D01*
X3543889Y5479395D01*
X3544111Y5479561D01*
X3544443Y5479838D01*
X3544831Y5480226D01*
X3545661Y5481056D01*
X3546049Y5481499D01*
X3546381Y5481942D01*
X3546436Y5481997D01*
X3546492Y5482108D01*
X3546603Y5482330D01*
X3546769Y5482662D01*
X3546935Y5482994D01*
X3547101Y5483382D01*
X3547378Y5484268D01*
Y5484323D01*
X3547433Y5484434D01*
Y5484655D01*
X3547488Y5484932D01*
X3547544Y5485320D01*
Y5485763D01*
X3547599Y5486372D01*
Y5492906D01*
X3530600D01*
Y5498000D01*
X3568917D01*
Y5480226D01*
D02*
G37*
G36*
X3557068Y5461288D02*
X3557566Y5461233D01*
X3558175Y5461178D01*
X3558784Y5461067D01*
X3559504Y5460901D01*
X3560944Y5460513D01*
X3561719Y5460236D01*
X3562550Y5459904D01*
X3563325Y5459516D01*
X3564045Y5459018D01*
X3564820Y5458520D01*
X3565484Y5457911D01*
X3565540Y5457855D01*
X3565650Y5457744D01*
X3565817Y5457578D01*
X3566038Y5457302D01*
X3566315Y5456969D01*
X3566647Y5456526D01*
X3566924Y5456083D01*
X3567312Y5455530D01*
X3567644Y5454976D01*
X3567921Y5454311D01*
X3568530Y5452816D01*
X3568751Y5452041D01*
X3568917Y5451155D01*
X3569028Y5450269D01*
X3569084Y5449328D01*
Y5448940D01*
X3569028Y5448663D01*
Y5448387D01*
X3568973Y5447999D01*
X3568807Y5447058D01*
X3568585Y5446006D01*
X3568198Y5444843D01*
X3567699Y5443680D01*
X3567035Y5442517D01*
Y5442462D01*
X3566924Y5442406D01*
X3566813Y5442240D01*
X3566647Y5442019D01*
X3566204Y5441465D01*
X3565595Y5440745D01*
X3564765Y5440025D01*
X3563768Y5439195D01*
X3562605Y5438475D01*
X3561276Y5437811D01*
X3561221D01*
X3561110Y5437755D01*
X3560888Y5437644D01*
X3560612Y5437534D01*
X3560224Y5437423D01*
X3559726Y5437257D01*
X3559172Y5437146D01*
X3558563Y5436980D01*
X3557843Y5436814D01*
X3557012Y5436648D01*
X3556126Y5436537D01*
X3555185Y5436426D01*
X3554133Y5436316D01*
X3553026Y5436205D01*
X3551807Y5436149D01*
X3550534D01*
X3550479D01*
X3550202D01*
X3549814D01*
X3549316D01*
X3548707Y5436205D01*
X3547987D01*
X3547156Y5436260D01*
X3546326Y5436371D01*
X3544443Y5436537D01*
X3542450Y5436814D01*
X3540567Y5437201D01*
X3539626Y5437478D01*
X3538795Y5437755D01*
X3538740D01*
X3538629Y5437811D01*
X3538407Y5437921D01*
X3538075Y5438032D01*
X3537743Y5438198D01*
X3537300Y5438420D01*
X3536359Y5438973D01*
X3535307Y5439638D01*
X3534199Y5440413D01*
X3533147Y5441410D01*
X3532206Y5442517D01*
Y5442573D01*
X3532095Y5442683D01*
X3531984Y5442849D01*
X3531874Y5443071D01*
X3531707Y5443403D01*
X3531486Y5443735D01*
X3531264Y5444178D01*
X3531098Y5444621D01*
X3530655Y5445673D01*
X3530268Y5446947D01*
X3530046Y5448331D01*
X3529936Y5449882D01*
Y5450325D01*
X3529991Y5450601D01*
Y5450989D01*
X3530046Y5451432D01*
X3530268Y5452484D01*
X3530545Y5453647D01*
X3530988Y5454865D01*
X3531597Y5456083D01*
X3531984Y5456692D01*
X3532427Y5457246D01*
X3532483Y5457302D01*
X3532538Y5457357D01*
X3532704Y5457523D01*
X3532870Y5457689D01*
X3533147Y5457911D01*
X3533479Y5458187D01*
X3534255Y5458741D01*
X3535251Y5459295D01*
X3536469Y5459849D01*
X3537854Y5460292D01*
X3539460Y5460624D01*
X3539847Y5456083D01*
X3539792D01*
X3539681Y5456028D01*
X3539570D01*
X3539349Y5455973D01*
X3538740Y5455806D01*
X3538075Y5455585D01*
X3537300Y5455308D01*
X3536525Y5454921D01*
X3535805Y5454478D01*
X3535196Y5453924D01*
X3535141Y5453868D01*
X3534974Y5453647D01*
X3534753Y5453259D01*
X3534531Y5452816D01*
X3534255Y5452207D01*
X3534033Y5451487D01*
X3533867Y5450657D01*
X3533812Y5449771D01*
Y5449383D01*
X3533867Y5448996D01*
X3533922Y5448497D01*
X3534033Y5447888D01*
X3534199Y5447279D01*
X3534421Y5446615D01*
X3534753Y5446006D01*
X3534808Y5445950D01*
X3534919Y5445729D01*
X3535141Y5445397D01*
X3535473Y5445064D01*
X3535860Y5444621D01*
X3536303Y5444178D01*
X3536802Y5443735D01*
X3537411Y5443292D01*
X3537466Y5443237D01*
X3537743Y5443126D01*
X3538131Y5442905D01*
X3538629Y5442683D01*
X3539293Y5442406D01*
X3540069Y5442130D01*
X3540955Y5441853D01*
X3541951Y5441576D01*
X3542007D01*
X3542062Y5441520D01*
X3542228D01*
X3542450Y5441465D01*
X3543003Y5441354D01*
X3543723Y5441188D01*
X3544609Y5441078D01*
X3545550Y5440967D01*
X3546603Y5440911D01*
X3547710Y5440856D01*
X3547765D01*
X3547931D01*
X3548208D01*
X3548651D01*
X3548541Y5440911D01*
X3548264Y5441133D01*
X3547876Y5441465D01*
X3547322Y5441853D01*
X3546769Y5442406D01*
X3546160Y5443071D01*
X3545550Y5443846D01*
X3544997Y5444732D01*
X3544941Y5444843D01*
X3544775Y5445175D01*
X3544554Y5445673D01*
X3544332Y5446282D01*
X3544055Y5447113D01*
X3543834Y5447999D01*
X3543668Y5448996D01*
X3543612Y5450048D01*
Y5450491D01*
X3543668Y5450823D01*
X3543723Y5451266D01*
X3543779Y5451709D01*
X3543889Y5452263D01*
X3544055Y5452816D01*
X3544443Y5454090D01*
X3544720Y5454754D01*
X3545052Y5455419D01*
X3545440Y5456139D01*
X3545938Y5456803D01*
X3546436Y5457468D01*
X3547045Y5458077D01*
X3547101Y5458132D01*
X3547212Y5458243D01*
X3547378Y5458354D01*
X3547655Y5458575D01*
X3548042Y5458852D01*
X3548430Y5459129D01*
X3548928Y5459406D01*
X3549482Y5459683D01*
X3550091Y5460015D01*
X3550755Y5460292D01*
X3551531Y5460568D01*
X3552306Y5460845D01*
X3553192Y5461067D01*
X3554133Y5461178D01*
X3555074Y5461288D01*
X3556126Y5461344D01*
X3556182D01*
X3556403D01*
X3556680D01*
X3557068Y5461288D01*
D02*
G37*
G36*
X3568917Y5976626D02*
X3568862Y5976183D01*
Y5975684D01*
X3568807Y5974521D01*
X3568641Y5973303D01*
X3568474Y5971974D01*
X3568198Y5970756D01*
X3568031Y5970147D01*
X3567865Y5969649D01*
Y5969593D01*
X3567810Y5969538D01*
X3567644Y5969206D01*
X3567422Y5968707D01*
X3567035Y5968098D01*
X3566536Y5967434D01*
X3565872Y5966714D01*
X3565097Y5966050D01*
X3564211Y5965385D01*
X3564155D01*
X3564100Y5965330D01*
X3563768Y5965108D01*
X3563214Y5964887D01*
X3562494Y5964554D01*
X3561664Y5964278D01*
X3560667Y5964001D01*
X3559615Y5963835D01*
X3558452Y5963779D01*
X3558397D01*
X3558286D01*
X3558065D01*
X3557788Y5963835D01*
X3557400D01*
X3557012Y5963890D01*
X3556071Y5964112D01*
X3554964Y5964444D01*
X3553801Y5964887D01*
X3552638Y5965551D01*
X3552084Y5965994D01*
X3551531Y5966437D01*
X3551475Y5966493D01*
X3551420Y5966548D01*
X3551254Y5966714D01*
X3551088Y5966935D01*
X3550866Y5967212D01*
X3550645Y5967545D01*
X3550368Y5967988D01*
X3550036Y5968431D01*
X3549759Y5968984D01*
X3549482Y5969593D01*
X3549150Y5970258D01*
X3548873Y5970978D01*
X3548651Y5971808D01*
X3548374Y5972639D01*
X3548208Y5973580D01*
X3548042Y5974577D01*
X3547987Y5974466D01*
X3547876Y5974245D01*
X3547655Y5973912D01*
X3547433Y5973469D01*
X3546824Y5972473D01*
X3546436Y5971974D01*
X3546104Y5971531D01*
X3545993Y5971421D01*
X3545717Y5971144D01*
X3545274Y5970701D01*
X3544720Y5970147D01*
X3543945Y5969538D01*
X3543114Y5968818D01*
X3542117Y5968098D01*
X3541010Y5967323D01*
X3530600Y5960734D01*
Y5967046D01*
X3538574Y5972085D01*
X3538629D01*
X3538740Y5972196D01*
X3538906Y5972307D01*
X3539127Y5972473D01*
X3539736Y5972860D01*
X3540512Y5973359D01*
X3541342Y5973968D01*
X3542228Y5974577D01*
X3543059Y5975186D01*
X3543834Y5975740D01*
X3543889Y5975795D01*
X3544111Y5975961D01*
X3544443Y5976238D01*
X3544831Y5976626D01*
X3545661Y5977456D01*
X3546049Y5977899D01*
X3546381Y5978342D01*
X3546436Y5978397D01*
X3546492Y5978508D01*
X3546603Y5978730D01*
X3546769Y5979062D01*
X3546935Y5979394D01*
X3547101Y5979782D01*
X3547378Y5980668D01*
Y5980723D01*
X3547433Y5980834D01*
Y5981055D01*
X3547488Y5981332D01*
X3547544Y5981720D01*
Y5982163D01*
X3547599Y5982772D01*
Y5989306D01*
X3530600D01*
Y5994400D01*
X3568917D01*
Y5976626D01*
D02*
G37*
G36*
X3542228Y5957744D02*
X3542560D01*
X3542948Y5957688D01*
X3543834Y5957578D01*
X3544831Y5957356D01*
X3545827Y5957024D01*
X3546879Y5956526D01*
X3547876Y5955916D01*
X3547931D01*
X3547987Y5955806D01*
X3548264Y5955584D01*
X3548707Y5955141D01*
X3549260Y5954532D01*
X3549814Y5953757D01*
X3550423Y5952816D01*
X3550922Y5951764D01*
X3551309Y5950490D01*
Y5950545D01*
X3551365Y5950601D01*
X3551420Y5950767D01*
X3551531Y5950988D01*
X3551752Y5951487D01*
X3552084Y5952151D01*
X3552527Y5952871D01*
X3553081Y5953591D01*
X3553690Y5954255D01*
X3554355Y5954864D01*
X3554465Y5954920D01*
X3554687Y5955086D01*
X3555130Y5955307D01*
X3555684Y5955529D01*
X3556403Y5955806D01*
X3557234Y5956027D01*
X3558175Y5956193D01*
X3559172Y5956249D01*
X3559227D01*
X3559338D01*
X3559560D01*
X3559892Y5956193D01*
X3560224Y5956138D01*
X3560667Y5956083D01*
X3561608Y5955861D01*
X3562716Y5955529D01*
X3563879Y5954975D01*
X3564488Y5954643D01*
X3565097Y5954255D01*
X3565650Y5953757D01*
X3566204Y5953259D01*
X3566260Y5953203D01*
X3566315Y5953092D01*
X3566481Y5952926D01*
X3566647Y5952705D01*
X3566869Y5952428D01*
X3567090Y5952040D01*
X3567367Y5951597D01*
X3567644Y5951154D01*
X3567921Y5950601D01*
X3568198Y5949992D01*
X3568419Y5949327D01*
X3568641Y5948607D01*
X3568973Y5947057D01*
X3569028Y5946171D01*
X3569084Y5945285D01*
Y5944787D01*
X3569028Y5944454D01*
X3568973Y5944011D01*
X3568917Y5943513D01*
X3568862Y5942959D01*
X3568696Y5942406D01*
X3568364Y5941077D01*
X3567865Y5939748D01*
X3567533Y5939083D01*
X3567146Y5938419D01*
X3566647Y5937810D01*
X3566149Y5937201D01*
X3566093Y5937145D01*
X3566038Y5937090D01*
X3565872Y5936924D01*
X3565650Y5936702D01*
X3565318Y5936481D01*
X3564986Y5936204D01*
X3564155Y5935650D01*
X3563103Y5935097D01*
X3561885Y5934598D01*
X3560501Y5934211D01*
X3559781Y5934155D01*
X3559006Y5934100D01*
X3558950D01*
X3558895D01*
X3558563D01*
X3558065Y5934155D01*
X3557455Y5934266D01*
X3556680Y5934432D01*
X3555905Y5934709D01*
X3555130Y5935041D01*
X3554355Y5935540D01*
X3554244Y5935595D01*
X3554022Y5935816D01*
X3553690Y5936149D01*
X3553247Y5936592D01*
X3552749Y5937201D01*
X3552250Y5937921D01*
X3551752Y5938751D01*
X3551309Y5939748D01*
Y5939692D01*
X3551254Y5939582D01*
X3551198Y5939416D01*
X3551088Y5939194D01*
X3550811Y5938530D01*
X3550423Y5937754D01*
X3549869Y5936924D01*
X3549260Y5936038D01*
X3548485Y5935207D01*
X3547599Y5934432D01*
X3547544D01*
X3547488Y5934377D01*
X3547156Y5934155D01*
X3546603Y5933823D01*
X3545883Y5933491D01*
X3544997Y5933159D01*
X3543945Y5932826D01*
X3542782Y5932605D01*
X3541508Y5932549D01*
X3541453D01*
X3541287D01*
X3541010D01*
X3540678Y5932605D01*
X3540290Y5932660D01*
X3539792Y5932716D01*
X3539238Y5932826D01*
X3538629Y5932992D01*
X3537355Y5933380D01*
X3536636Y5933657D01*
X3535971Y5934045D01*
X3535251Y5934432D01*
X3534587Y5934875D01*
X3533922Y5935429D01*
X3533258Y5936038D01*
X3533202Y5936093D01*
X3533092Y5936204D01*
X3532926Y5936370D01*
X3532760Y5936647D01*
X3532483Y5937035D01*
X3532206Y5937422D01*
X3531929Y5937921D01*
X3531597Y5938474D01*
X3531264Y5939083D01*
X3530988Y5939803D01*
X3530711Y5940578D01*
X3530434Y5941354D01*
X3530268Y5942240D01*
X3530102Y5943181D01*
X3529991Y5944122D01*
X3529936Y5945174D01*
Y5945728D01*
X3529991Y5946116D01*
X3530046Y5946614D01*
X3530102Y5947168D01*
X3530212Y5947777D01*
X3530379Y5948441D01*
X3530766Y5949936D01*
X3531043Y5950711D01*
X3531320Y5951431D01*
X3531707Y5952207D01*
X3532150Y5952982D01*
X3532649Y5953702D01*
X3533258Y5954366D01*
X3533313Y5954421D01*
X3533424Y5954532D01*
X3533590Y5954698D01*
X3533867Y5954920D01*
X3534199Y5955141D01*
X3534587Y5955473D01*
X3535030Y5955750D01*
X3535583Y5956083D01*
X3536137Y5956415D01*
X3536802Y5956692D01*
X3538186Y5957245D01*
X3539017Y5957467D01*
X3539847Y5957633D01*
X3540733Y5957744D01*
X3541619Y5957799D01*
X3541674D01*
X3541785D01*
X3542007D01*
X3542228Y5957744D01*
D02*
G37*
G36*
X3568917Y6471926D02*
X3568862Y6471483D01*
Y6470984D01*
X3568807Y6469821D01*
X3568641Y6468603D01*
X3568474Y6467274D01*
X3568198Y6466056D01*
X3568031Y6465447D01*
X3567865Y6464949D01*
Y6464893D01*
X3567810Y6464838D01*
X3567644Y6464506D01*
X3567422Y6464007D01*
X3567035Y6463398D01*
X3566536Y6462734D01*
X3565872Y6462014D01*
X3565097Y6461350D01*
X3564211Y6460685D01*
X3564155D01*
X3564100Y6460630D01*
X3563768Y6460408D01*
X3563214Y6460187D01*
X3562494Y6459854D01*
X3561664Y6459578D01*
X3560667Y6459301D01*
X3559615Y6459135D01*
X3558452Y6459079D01*
X3558397D01*
X3558286D01*
X3558065D01*
X3557788Y6459135D01*
X3557400D01*
X3557012Y6459190D01*
X3556071Y6459412D01*
X3554964Y6459744D01*
X3553801Y6460187D01*
X3552638Y6460851D01*
X3552084Y6461294D01*
X3551531Y6461737D01*
X3551475Y6461793D01*
X3551420Y6461848D01*
X3551254Y6462014D01*
X3551088Y6462235D01*
X3550866Y6462512D01*
X3550645Y6462845D01*
X3550368Y6463288D01*
X3550036Y6463731D01*
X3549759Y6464284D01*
X3549482Y6464893D01*
X3549150Y6465558D01*
X3548873Y6466278D01*
X3548651Y6467108D01*
X3548374Y6467939D01*
X3548208Y6468880D01*
X3548042Y6469877D01*
X3547987Y6469766D01*
X3547876Y6469545D01*
X3547655Y6469212D01*
X3547433Y6468769D01*
X3546824Y6467773D01*
X3546436Y6467274D01*
X3546104Y6466831D01*
X3545993Y6466721D01*
X3545717Y6466444D01*
X3545274Y6466001D01*
X3544720Y6465447D01*
X3543945Y6464838D01*
X3543114Y6464118D01*
X3542117Y6463398D01*
X3541010Y6462623D01*
X3530600Y6456034D01*
Y6462346D01*
X3538574Y6467385D01*
X3538629D01*
X3538740Y6467496D01*
X3538906Y6467607D01*
X3539127Y6467773D01*
X3539736Y6468160D01*
X3540512Y6468659D01*
X3541342Y6469268D01*
X3542228Y6469877D01*
X3543059Y6470486D01*
X3543834Y6471040D01*
X3543889Y6471095D01*
X3544111Y6471261D01*
X3544443Y6471538D01*
X3544831Y6471926D01*
X3545661Y6472756D01*
X3546049Y6473199D01*
X3546381Y6473642D01*
X3546436Y6473697D01*
X3546492Y6473808D01*
X3546603Y6474030D01*
X3546769Y6474362D01*
X3546935Y6474694D01*
X3547101Y6475082D01*
X3547378Y6475968D01*
Y6476023D01*
X3547433Y6476134D01*
Y6476355D01*
X3547488Y6476632D01*
X3547544Y6477020D01*
Y6477463D01*
X3547599Y6478072D01*
Y6484606D01*
X3530600D01*
Y6489700D01*
X3568917D01*
Y6471926D01*
D02*
G37*
G36*
X3568419Y6427905D02*
X3564709D01*
X3564654Y6427960D01*
X3564543Y6428071D01*
X3564322Y6428292D01*
X3563989Y6428514D01*
X3563602Y6428846D01*
X3563159Y6429289D01*
X3562605Y6429732D01*
X3561941Y6430230D01*
X3561276Y6430729D01*
X3560501Y6431338D01*
X3559615Y6431947D01*
X3558729Y6432556D01*
X3557732Y6433221D01*
X3556680Y6433885D01*
X3555517Y6434549D01*
X3554355Y6435214D01*
X3554299Y6435269D01*
X3554078Y6435380D01*
X3553745Y6435546D01*
X3553247Y6435823D01*
X3552638Y6436100D01*
X3551974Y6436432D01*
X3551198Y6436820D01*
X3550312Y6437207D01*
X3549316Y6437650D01*
X3548319Y6438149D01*
X3547212Y6438592D01*
X3546049Y6439035D01*
X3543668Y6439921D01*
X3541121Y6440751D01*
X3541065D01*
X3540899Y6440807D01*
X3540622Y6440862D01*
X3540290Y6440973D01*
X3539847Y6441083D01*
X3539293Y6441194D01*
X3538684Y6441360D01*
X3538020Y6441471D01*
X3537245Y6441637D01*
X3536414Y6441803D01*
X3534642Y6442080D01*
X3532704Y6442357D01*
X3530600Y6442523D01*
Y6447340D01*
X3530655D01*
X3530821D01*
X3531043D01*
X3531375Y6447285D01*
X3531818D01*
X3532372Y6447230D01*
X3532981Y6447174D01*
X3533645Y6447119D01*
X3534421Y6447008D01*
X3535196Y6446897D01*
X3536137Y6446731D01*
X3537079Y6446565D01*
X3538075Y6446399D01*
X3539183Y6446178D01*
X3541453Y6445624D01*
X3541508D01*
X3541730Y6445569D01*
X3542062Y6445458D01*
X3542560Y6445292D01*
X3543114Y6445126D01*
X3543779Y6444904D01*
X3544554Y6444683D01*
X3545384Y6444350D01*
X3546326Y6444018D01*
X3547267Y6443686D01*
X3549371Y6442855D01*
X3551586Y6441859D01*
X3553801Y6440751D01*
X3553856Y6440696D01*
X3554078Y6440585D01*
X3554355Y6440419D01*
X3554798Y6440197D01*
X3555296Y6439921D01*
X3555905Y6439533D01*
X3556569Y6439145D01*
X3557289Y6438702D01*
X3558895Y6437650D01*
X3560556Y6436543D01*
X3562273Y6435269D01*
X3563879Y6433940D01*
Y6452712D01*
X3568419D01*
Y6427905D01*
D02*
G37*
G36*
X5136324Y6312711D02*
X5141529D01*
Y6308392D01*
X5136324D01*
Y6299200D01*
X5131617D01*
Y6308392D01*
X5114950D01*
Y6312711D01*
X5132503Y6337517D01*
X5136324D01*
Y6312711D01*
D02*
G37*
G36*
X5098117Y6337462D02*
X5098616D01*
X5099778Y6337407D01*
X5100997Y6337241D01*
X5102326Y6337074D01*
X5103544Y6336798D01*
X5104153Y6336631D01*
X5104651Y6336465D01*
X5104707D01*
X5104762Y6336410D01*
X5105094Y6336244D01*
X5105593Y6336022D01*
X5106202Y6335635D01*
X5106866Y6335136D01*
X5107586Y6334472D01*
X5108250Y6333697D01*
X5108915Y6332811D01*
Y6332755D01*
X5108970Y6332700D01*
X5109192Y6332368D01*
X5109413Y6331814D01*
X5109745Y6331094D01*
X5110022Y6330264D01*
X5110299Y6329267D01*
X5110465Y6328215D01*
X5110521Y6327052D01*
Y6326997D01*
Y6326886D01*
Y6326665D01*
X5110465Y6326388D01*
Y6326000D01*
X5110410Y6325612D01*
X5110188Y6324671D01*
X5109856Y6323564D01*
X5109413Y6322401D01*
X5108749Y6321238D01*
X5108306Y6320684D01*
X5107863Y6320131D01*
X5107807Y6320075D01*
X5107752Y6320020D01*
X5107586Y6319854D01*
X5107364Y6319688D01*
X5107088Y6319466D01*
X5106755Y6319245D01*
X5106312Y6318968D01*
X5105869Y6318636D01*
X5105316Y6318359D01*
X5104707Y6318082D01*
X5104042Y6317750D01*
X5103322Y6317473D01*
X5102492Y6317251D01*
X5101661Y6316974D01*
X5100720Y6316808D01*
X5099723Y6316642D01*
X5099834Y6316587D01*
X5100055Y6316476D01*
X5100388Y6316255D01*
X5100831Y6316033D01*
X5101827Y6315424D01*
X5102326Y6315036D01*
X5102769Y6314704D01*
X5102879Y6314593D01*
X5103156Y6314317D01*
X5103599Y6313874D01*
X5104153Y6313320D01*
X5104762Y6312545D01*
X5105482Y6311714D01*
X5106202Y6310717D01*
X5106977Y6309610D01*
X5113566Y6299200D01*
X5107254D01*
X5102215Y6307174D01*
Y6307229D01*
X5102104Y6307340D01*
X5101993Y6307506D01*
X5101827Y6307727D01*
X5101440Y6308336D01*
X5100941Y6309112D01*
X5100332Y6309942D01*
X5099723Y6310828D01*
X5099114Y6311659D01*
X5098560Y6312434D01*
X5098505Y6312489D01*
X5098339Y6312711D01*
X5098062Y6313043D01*
X5097674Y6313431D01*
X5096844Y6314261D01*
X5096401Y6314649D01*
X5095958Y6314981D01*
X5095902Y6315036D01*
X5095792Y6315092D01*
X5095570Y6315203D01*
X5095238Y6315369D01*
X5094906Y6315535D01*
X5094518Y6315701D01*
X5093632Y6315978D01*
X5093577D01*
X5093466Y6316033D01*
X5093245D01*
X5092968Y6316088D01*
X5092580Y6316144D01*
X5092137D01*
X5091528Y6316199D01*
X5084994D01*
Y6299200D01*
X5079900D01*
Y6337517D01*
X5097674D01*
X5098117Y6337462D01*
D02*
G37*
G36*
X5140145Y6586534D02*
X5124807D01*
X5122758Y6576179D01*
X5122813Y6576235D01*
X5122924Y6576290D01*
X5123090Y6576401D01*
X5123367Y6576567D01*
X5123699Y6576733D01*
X5124087Y6576955D01*
X5124973Y6577398D01*
X5126080Y6577841D01*
X5127298Y6578228D01*
X5128627Y6578505D01*
X5129292Y6578616D01*
X5130510D01*
X5130842Y6578560D01*
X5131285Y6578505D01*
X5131783Y6578450D01*
X5132337Y6578339D01*
X5132946Y6578173D01*
X5134275Y6577785D01*
X5134995Y6577508D01*
X5135715Y6577121D01*
X5136435Y6576733D01*
X5137155Y6576290D01*
X5137819Y6575736D01*
X5138483Y6575127D01*
X5138539Y6575072D01*
X5138650Y6574961D01*
X5138816Y6574795D01*
X5139037Y6574518D01*
X5139314Y6574131D01*
X5139591Y6573743D01*
X5139923Y6573245D01*
X5140255Y6572691D01*
X5140532Y6572082D01*
X5140864Y6571417D01*
X5141141Y6570642D01*
X5141418Y6569867D01*
X5141640Y6569036D01*
X5141806Y6568095D01*
X5141917Y6567154D01*
X5141972Y6566157D01*
Y6566102D01*
Y6565936D01*
Y6565659D01*
X5141917Y6565271D01*
X5141861Y6564828D01*
X5141806Y6564330D01*
X5141695Y6563721D01*
X5141584Y6563112D01*
X5141252Y6561672D01*
X5140698Y6560177D01*
X5140366Y6559402D01*
X5139923Y6558682D01*
X5139480Y6557907D01*
X5138926Y6557187D01*
X5138871Y6557131D01*
X5138760Y6556965D01*
X5138539Y6556744D01*
X5138262Y6556467D01*
X5137874Y6556135D01*
X5137431Y6555692D01*
X5136878Y6555304D01*
X5136269Y6554861D01*
X5135604Y6554418D01*
X5134829Y6554031D01*
X5133998Y6553643D01*
X5133112Y6553255D01*
X5132171Y6552979D01*
X5131119Y6552757D01*
X5130012Y6552591D01*
X5128849Y6552536D01*
X5128350D01*
X5127963Y6552591D01*
X5127520Y6552646D01*
X5127021Y6552702D01*
X5126412Y6552757D01*
X5125803Y6552923D01*
X5124419Y6553255D01*
X5123035Y6553754D01*
X5122315Y6554086D01*
X5121595Y6554474D01*
X5120931Y6554917D01*
X5120266Y6555415D01*
X5120211Y6555470D01*
X5120100Y6555526D01*
X5119989Y6555747D01*
X5119768Y6555969D01*
X5119491Y6556245D01*
X5119214Y6556578D01*
X5118882Y6557021D01*
X5118605Y6557519D01*
X5118273Y6558017D01*
X5117940Y6558626D01*
X5117331Y6559955D01*
X5116833Y6561506D01*
X5116667Y6562336D01*
X5116556Y6563222D01*
X5121484Y6563610D01*
Y6563555D01*
Y6563444D01*
X5121540Y6563278D01*
X5121595Y6563001D01*
X5121761Y6562392D01*
X5121983Y6561561D01*
X5122315Y6560731D01*
X5122758Y6559789D01*
X5123312Y6558959D01*
X5123976Y6558183D01*
X5124087Y6558128D01*
X5124308Y6557907D01*
X5124751Y6557630D01*
X5125360Y6557298D01*
X5126025Y6556965D01*
X5126855Y6556688D01*
X5127797Y6556467D01*
X5128849Y6556412D01*
X5129181D01*
X5129402Y6556467D01*
X5130067Y6556522D01*
X5130842Y6556744D01*
X5131783Y6557021D01*
X5132725Y6557464D01*
X5133722Y6558128D01*
X5134164Y6558516D01*
X5134607Y6558959D01*
X5134663Y6559014D01*
X5134718Y6559069D01*
X5134829Y6559236D01*
X5134995Y6559402D01*
X5135383Y6560011D01*
X5135826Y6560786D01*
X5136213Y6561727D01*
X5136601Y6562890D01*
X5136878Y6564274D01*
X5136988Y6564994D01*
Y6565769D01*
Y6565825D01*
Y6565936D01*
Y6566157D01*
X5136933Y6566434D01*
Y6566766D01*
X5136878Y6567154D01*
X5136712Y6568040D01*
X5136435Y6569092D01*
X5136047Y6570144D01*
X5135493Y6571141D01*
X5134718Y6572082D01*
Y6572137D01*
X5134607Y6572193D01*
X5134331Y6572469D01*
X5133832Y6572857D01*
X5133168Y6573300D01*
X5132282Y6573688D01*
X5131285Y6574075D01*
X5130122Y6574352D01*
X5129458Y6574463D01*
X5128406D01*
X5127963Y6574407D01*
X5127409Y6574352D01*
X5126745Y6574186D01*
X5126080Y6574020D01*
X5125360Y6573743D01*
X5124640Y6573411D01*
X5124585Y6573355D01*
X5124364Y6573245D01*
X5124031Y6572968D01*
X5123588Y6572691D01*
X5123145Y6572303D01*
X5122702Y6571805D01*
X5122204Y6571307D01*
X5121817Y6570698D01*
X5117387Y6571307D01*
X5121097Y6591019D01*
X5140145D01*
Y6586534D01*
D02*
G37*
G36*
X5098117Y6591462D02*
X5098616D01*
X5099778Y6591407D01*
X5100997Y6591241D01*
X5102326Y6591074D01*
X5103544Y6590798D01*
X5104153Y6590631D01*
X5104651Y6590465D01*
X5104707D01*
X5104762Y6590410D01*
X5105094Y6590244D01*
X5105593Y6590022D01*
X5106202Y6589635D01*
X5106866Y6589136D01*
X5107586Y6588472D01*
X5108250Y6587697D01*
X5108915Y6586811D01*
Y6586755D01*
X5108970Y6586700D01*
X5109192Y6586368D01*
X5109413Y6585814D01*
X5109745Y6585094D01*
X5110022Y6584264D01*
X5110299Y6583267D01*
X5110465Y6582215D01*
X5110521Y6581052D01*
Y6580997D01*
Y6580886D01*
Y6580665D01*
X5110465Y6580388D01*
Y6580000D01*
X5110410Y6579612D01*
X5110188Y6578671D01*
X5109856Y6577564D01*
X5109413Y6576401D01*
X5108749Y6575238D01*
X5108306Y6574684D01*
X5107863Y6574131D01*
X5107807Y6574075D01*
X5107752Y6574020D01*
X5107586Y6573854D01*
X5107364Y6573688D01*
X5107088Y6573466D01*
X5106755Y6573245D01*
X5106312Y6572968D01*
X5105869Y6572636D01*
X5105316Y6572359D01*
X5104707Y6572082D01*
X5104042Y6571750D01*
X5103322Y6571473D01*
X5102492Y6571251D01*
X5101661Y6570974D01*
X5100720Y6570808D01*
X5099723Y6570642D01*
X5099834Y6570587D01*
X5100055Y6570476D01*
X5100388Y6570255D01*
X5100831Y6570033D01*
X5101827Y6569424D01*
X5102326Y6569036D01*
X5102769Y6568704D01*
X5102879Y6568593D01*
X5103156Y6568317D01*
X5103599Y6567874D01*
X5104153Y6567320D01*
X5104762Y6566545D01*
X5105482Y6565714D01*
X5106202Y6564717D01*
X5106977Y6563610D01*
X5113566Y6553200D01*
X5107254D01*
X5102215Y6561174D01*
Y6561229D01*
X5102104Y6561340D01*
X5101993Y6561506D01*
X5101827Y6561727D01*
X5101440Y6562336D01*
X5100941Y6563112D01*
X5100332Y6563942D01*
X5099723Y6564828D01*
X5099114Y6565659D01*
X5098560Y6566434D01*
X5098505Y6566489D01*
X5098339Y6566711D01*
X5098062Y6567043D01*
X5097674Y6567431D01*
X5096844Y6568261D01*
X5096401Y6568649D01*
X5095958Y6568981D01*
X5095902Y6569036D01*
X5095792Y6569092D01*
X5095570Y6569203D01*
X5095238Y6569369D01*
X5094906Y6569535D01*
X5094518Y6569701D01*
X5093632Y6569978D01*
X5093577D01*
X5093466Y6570033D01*
X5093245D01*
X5092968Y6570088D01*
X5092580Y6570144D01*
X5092137D01*
X5091528Y6570199D01*
X5084994D01*
Y6553200D01*
X5079900D01*
Y6591517D01*
X5097674D01*
X5098117Y6591462D01*
D02*
G37*
G36*
X4737317Y7729226D02*
X4737262Y7728783D01*
Y7728284D01*
X4737207Y7727121D01*
X4737041Y7725903D01*
X4736874Y7724574D01*
X4736598Y7723356D01*
X4736431Y7722747D01*
X4736265Y7722249D01*
Y7722193D01*
X4736210Y7722138D01*
X4736044Y7721806D01*
X4735822Y7721307D01*
X4735435Y7720698D01*
X4734936Y7720034D01*
X4734272Y7719314D01*
X4733497Y7718650D01*
X4732611Y7717985D01*
X4732555D01*
X4732500Y7717930D01*
X4732168Y7717708D01*
X4731614Y7717487D01*
X4730894Y7717154D01*
X4730064Y7716878D01*
X4729067Y7716601D01*
X4728015Y7716435D01*
X4726852Y7716379D01*
X4726797D01*
X4726686D01*
X4726465D01*
X4726188Y7716435D01*
X4725800D01*
X4725412Y7716490D01*
X4724471Y7716712D01*
X4723364Y7717044D01*
X4722201Y7717487D01*
X4721038Y7718151D01*
X4720484Y7718594D01*
X4719931Y7719037D01*
X4719875Y7719093D01*
X4719820Y7719148D01*
X4719654Y7719314D01*
X4719488Y7719535D01*
X4719266Y7719812D01*
X4719045Y7720145D01*
X4718768Y7720588D01*
X4718436Y7721031D01*
X4718159Y7721584D01*
X4717882Y7722193D01*
X4717550Y7722858D01*
X4717273Y7723578D01*
X4717051Y7724408D01*
X4716774Y7725239D01*
X4716608Y7726180D01*
X4716442Y7727177D01*
X4716387Y7727066D01*
X4716276Y7726845D01*
X4716055Y7726512D01*
X4715833Y7726069D01*
X4715224Y7725073D01*
X4714836Y7724574D01*
X4714504Y7724131D01*
X4714393Y7724021D01*
X4714117Y7723744D01*
X4713674Y7723301D01*
X4713120Y7722747D01*
X4712345Y7722138D01*
X4711514Y7721418D01*
X4710517Y7720698D01*
X4709410Y7719923D01*
X4699000Y7713334D01*
Y7719646D01*
X4706974Y7724685D01*
X4707029D01*
X4707140Y7724796D01*
X4707306Y7724907D01*
X4707527Y7725073D01*
X4708136Y7725460D01*
X4708912Y7725959D01*
X4709742Y7726568D01*
X4710628Y7727177D01*
X4711459Y7727786D01*
X4712234Y7728340D01*
X4712289Y7728395D01*
X4712511Y7728561D01*
X4712843Y7728838D01*
X4713231Y7729226D01*
X4714061Y7730056D01*
X4714449Y7730499D01*
X4714781Y7730942D01*
X4714836Y7730997D01*
X4714892Y7731108D01*
X4715003Y7731330D01*
X4715169Y7731662D01*
X4715335Y7731994D01*
X4715501Y7732382D01*
X4715778Y7733268D01*
Y7733323D01*
X4715833Y7733434D01*
Y7733655D01*
X4715888Y7733932D01*
X4715944Y7734320D01*
Y7734763D01*
X4715999Y7735372D01*
Y7741906D01*
X4699000D01*
Y7747000D01*
X4737317D01*
Y7729226D01*
D02*
G37*
G36*
X4727849Y7706689D02*
X4727960Y7706578D01*
X4728015Y7706357D01*
X4728181Y7706080D01*
X4728347Y7705748D01*
X4728569Y7705360D01*
X4729122Y7704419D01*
X4729731Y7703311D01*
X4730507Y7702204D01*
X4731393Y7701041D01*
X4732334Y7699878D01*
X4732389Y7699823D01*
X4732445Y7699768D01*
X4732611Y7699602D01*
X4732777Y7699380D01*
X4733331Y7698882D01*
X4733995Y7698217D01*
X4734770Y7697553D01*
X4735656Y7696833D01*
X4736542Y7696224D01*
X4737484Y7695670D01*
Y7692625D01*
X4699000D01*
Y7697331D01*
X4728956D01*
X4728901Y7697387D01*
X4728679Y7697664D01*
X4728347Y7697996D01*
X4727960Y7698550D01*
X4727461Y7699159D01*
X4726907Y7699934D01*
X4726298Y7700820D01*
X4725689Y7701816D01*
Y7701872D01*
X4725634Y7701927D01*
X4725412Y7702259D01*
X4725136Y7702813D01*
X4724803Y7703478D01*
X4724416Y7704253D01*
X4724028Y7705083D01*
X4723641Y7705914D01*
X4723308Y7706745D01*
X4727849D01*
Y7706689D01*
D02*
G37*
G36*
X4470617Y7729226D02*
X4470562Y7728783D01*
Y7728284D01*
X4470507Y7727121D01*
X4470341Y7725903D01*
X4470174Y7724574D01*
X4469898Y7723356D01*
X4469731Y7722747D01*
X4469565Y7722249D01*
Y7722193D01*
X4469510Y7722138D01*
X4469344Y7721806D01*
X4469122Y7721307D01*
X4468735Y7720698D01*
X4468236Y7720034D01*
X4467572Y7719314D01*
X4466797Y7718650D01*
X4465911Y7717985D01*
X4465855D01*
X4465800Y7717930D01*
X4465468Y7717708D01*
X4464914Y7717487D01*
X4464194Y7717154D01*
X4463364Y7716878D01*
X4462367Y7716601D01*
X4461315Y7716435D01*
X4460152Y7716379D01*
X4460097D01*
X4459986D01*
X4459765D01*
X4459488Y7716435D01*
X4459100D01*
X4458712Y7716490D01*
X4457771Y7716712D01*
X4456664Y7717044D01*
X4455501Y7717487D01*
X4454338Y7718151D01*
X4453784Y7718594D01*
X4453231Y7719037D01*
X4453175Y7719093D01*
X4453120Y7719148D01*
X4452954Y7719314D01*
X4452788Y7719535D01*
X4452566Y7719812D01*
X4452345Y7720145D01*
X4452068Y7720588D01*
X4451736Y7721031D01*
X4451459Y7721584D01*
X4451182Y7722193D01*
X4450850Y7722858D01*
X4450573Y7723578D01*
X4450351Y7724408D01*
X4450074Y7725239D01*
X4449908Y7726180D01*
X4449742Y7727177D01*
X4449687Y7727066D01*
X4449576Y7726845D01*
X4449355Y7726512D01*
X4449133Y7726069D01*
X4448524Y7725073D01*
X4448136Y7724574D01*
X4447804Y7724131D01*
X4447693Y7724021D01*
X4447417Y7723744D01*
X4446974Y7723301D01*
X4446420Y7722747D01*
X4445645Y7722138D01*
X4444814Y7721418D01*
X4443817Y7720698D01*
X4442710Y7719923D01*
X4432300Y7713334D01*
Y7719646D01*
X4440274Y7724685D01*
X4440329D01*
X4440440Y7724796D01*
X4440606Y7724907D01*
X4440827Y7725073D01*
X4441436Y7725460D01*
X4442212Y7725959D01*
X4443042Y7726568D01*
X4443928Y7727177D01*
X4444759Y7727786D01*
X4445534Y7728340D01*
X4445589Y7728395D01*
X4445811Y7728561D01*
X4446143Y7728838D01*
X4446531Y7729226D01*
X4447361Y7730056D01*
X4447749Y7730499D01*
X4448081Y7730942D01*
X4448136Y7730997D01*
X4448192Y7731108D01*
X4448303Y7731330D01*
X4448469Y7731662D01*
X4448635Y7731994D01*
X4448801Y7732382D01*
X4449078Y7733268D01*
Y7733323D01*
X4449133Y7733434D01*
Y7733655D01*
X4449188Y7733932D01*
X4449244Y7734320D01*
Y7734763D01*
X4449299Y7735372D01*
Y7741906D01*
X4432300D01*
Y7747000D01*
X4470617D01*
Y7729226D01*
D02*
G37*
G36*
X4443042Y7705582D02*
X4442987D01*
X4442876Y7705526D01*
X4442655Y7705471D01*
X4442378Y7705416D01*
X4442045Y7705360D01*
X4441658Y7705250D01*
X4440827Y7704973D01*
X4439831Y7704585D01*
X4438889Y7704087D01*
X4438003Y7703533D01*
X4437228Y7702869D01*
X4437173Y7702758D01*
X4436951Y7702536D01*
X4436674Y7702093D01*
X4436398Y7701540D01*
X4436065Y7700875D01*
X4435788Y7700045D01*
X4435567Y7699103D01*
X4435512Y7698107D01*
Y7697774D01*
X4435567Y7697553D01*
X4435622Y7696944D01*
X4435788Y7696169D01*
X4436065Y7695283D01*
X4436453Y7694341D01*
X4437007Y7693400D01*
X4437782Y7692514D01*
X4437893Y7692403D01*
X4438225Y7692126D01*
X4438723Y7691794D01*
X4439388Y7691351D01*
X4440218Y7690908D01*
X4441160Y7690576D01*
X4442267Y7690299D01*
X4443485Y7690188D01*
X4443541D01*
X4443651D01*
X4443817D01*
X4444039Y7690244D01*
X4444648Y7690299D01*
X4445368Y7690465D01*
X4446254Y7690687D01*
X4447140Y7691074D01*
X4448026Y7691628D01*
X4448856Y7692348D01*
X4448967Y7692459D01*
X4449188Y7692735D01*
X4449521Y7693178D01*
X4449908Y7693788D01*
X4450296Y7694563D01*
X4450628Y7695504D01*
X4450850Y7696556D01*
X4450960Y7697719D01*
Y7698217D01*
X4450905Y7698605D01*
X4450850Y7699103D01*
X4450739Y7699657D01*
X4450628Y7700321D01*
X4450462Y7701041D01*
X4454615Y7700488D01*
Y7700211D01*
X4454560Y7699989D01*
Y7699269D01*
X4454670Y7698660D01*
X4454781Y7697940D01*
X4454947Y7697110D01*
X4455224Y7696169D01*
X4455612Y7695283D01*
X4456110Y7694341D01*
Y7694286D01*
X4456165Y7694230D01*
X4456387Y7693954D01*
X4456774Y7693566D01*
X4457273Y7693123D01*
X4457993Y7692680D01*
X4458823Y7692292D01*
X4459765Y7692016D01*
X4460318Y7691905D01*
X4460927D01*
X4460983D01*
X4461038D01*
X4461370D01*
X4461813Y7692016D01*
X4462422Y7692126D01*
X4463087Y7692348D01*
X4463807Y7692625D01*
X4464527Y7693068D01*
X4465191Y7693677D01*
X4465246Y7693732D01*
X4465468Y7694009D01*
X4465745Y7694397D01*
X4466077Y7694895D01*
X4466354Y7695559D01*
X4466631Y7696335D01*
X4466852Y7697221D01*
X4466907Y7698217D01*
Y7698660D01*
X4466797Y7699159D01*
X4466686Y7699823D01*
X4466465Y7700543D01*
X4466188Y7701263D01*
X4465745Y7702038D01*
X4465191Y7702758D01*
X4465136Y7702813D01*
X4464859Y7703035D01*
X4464471Y7703367D01*
X4463917Y7703754D01*
X4463198Y7704142D01*
X4462312Y7704530D01*
X4461260Y7704862D01*
X4460041Y7705083D01*
X4460872Y7709790D01*
X4460927D01*
X4461093Y7709735D01*
X4461315Y7709679D01*
X4461647Y7709624D01*
X4462035Y7709513D01*
X4462478Y7709347D01*
X4463530Y7709015D01*
X4464748Y7708461D01*
X4465966Y7707797D01*
X4467129Y7706966D01*
X4468181Y7705914D01*
X4468236Y7705859D01*
X4468292Y7705748D01*
X4468403Y7705582D01*
X4468569Y7705360D01*
X4468790Y7705083D01*
X4469012Y7704696D01*
X4469233Y7704308D01*
X4469510Y7703810D01*
X4469953Y7702702D01*
X4470396Y7701429D01*
X4470673Y7699934D01*
X4470784Y7699159D01*
Y7697774D01*
X4470728Y7697165D01*
X4470617Y7696445D01*
X4470451Y7695559D01*
X4470174Y7694563D01*
X4469842Y7693566D01*
X4469399Y7692569D01*
Y7692514D01*
X4469344Y7692459D01*
X4469178Y7692126D01*
X4468846Y7691628D01*
X4468458Y7691074D01*
X4467904Y7690410D01*
X4467295Y7689745D01*
X4466575Y7689081D01*
X4465745Y7688527D01*
X4465634Y7688472D01*
X4465357Y7688306D01*
X4464859Y7688084D01*
X4464250Y7687807D01*
X4463530Y7687530D01*
X4462699Y7687309D01*
X4461758Y7687143D01*
X4460817Y7687087D01*
X4460706D01*
X4460374D01*
X4459931Y7687143D01*
X4459322Y7687254D01*
X4458602Y7687420D01*
X4457826Y7687697D01*
X4457051Y7688029D01*
X4456276Y7688472D01*
X4456165Y7688527D01*
X4455944Y7688693D01*
X4455556Y7689026D01*
X4455113Y7689468D01*
X4454615Y7690022D01*
X4454061Y7690687D01*
X4453563Y7691462D01*
X4453064Y7692403D01*
Y7692348D01*
X4453009Y7692237D01*
X4452954Y7692071D01*
X4452898Y7691849D01*
X4452677Y7691240D01*
X4452345Y7690465D01*
X4451902Y7689579D01*
X4451348Y7688693D01*
X4450628Y7687863D01*
X4449798Y7687087D01*
X4449687Y7687032D01*
X4449355Y7686811D01*
X4448801Y7686478D01*
X4448081Y7686146D01*
X4447195Y7685814D01*
X4446143Y7685482D01*
X4444925Y7685260D01*
X4443596Y7685205D01*
X4443541D01*
X4443374D01*
X4443098D01*
X4442765Y7685260D01*
X4442322Y7685316D01*
X4441824Y7685426D01*
X4441270Y7685537D01*
X4440661Y7685648D01*
X4439332Y7686091D01*
X4438612Y7686423D01*
X4437948Y7686755D01*
X4437228Y7687198D01*
X4436508Y7687697D01*
X4435788Y7688250D01*
X4435124Y7688915D01*
X4435069Y7688970D01*
X4434958Y7689081D01*
X4434792Y7689302D01*
X4434570Y7689579D01*
X4434293Y7689911D01*
X4434017Y7690354D01*
X4433684Y7690853D01*
X4433407Y7691462D01*
X4433075Y7692071D01*
X4432743Y7692791D01*
X4432466Y7693511D01*
X4432189Y7694341D01*
X4431968Y7695227D01*
X4431802Y7696169D01*
X4431691Y7697110D01*
X4431636Y7698162D01*
Y7698660D01*
X4431691Y7698992D01*
X4431746Y7699435D01*
X4431802Y7699934D01*
X4431912Y7700488D01*
X4432023Y7701097D01*
X4432355Y7702426D01*
X4432909Y7703810D01*
X4433241Y7704530D01*
X4433629Y7705194D01*
X4434127Y7705859D01*
X4434626Y7706523D01*
X4434681Y7706578D01*
X4434792Y7706689D01*
X4434958Y7706855D01*
X4435179Y7707021D01*
X4435456Y7707298D01*
X4435844Y7707575D01*
X4436231Y7707907D01*
X4436730Y7708240D01*
X4437283Y7708572D01*
X4437837Y7708904D01*
X4439166Y7709513D01*
X4440717Y7710012D01*
X4441547Y7710178D01*
X4442433Y7710288D01*
X4443042Y7705582D01*
D02*
G37*
G36*
X5334000Y6006883D02*
X5316226D01*
X5315783Y6006938D01*
X5315284D01*
X5314121Y6006993D01*
X5312903Y6007159D01*
X5311574Y6007326D01*
X5310356Y6007602D01*
X5309747Y6007769D01*
X5309249Y6007935D01*
X5309193D01*
X5309138Y6007990D01*
X5308806Y6008156D01*
X5308307Y6008378D01*
X5307698Y6008765D01*
X5307034Y6009264D01*
X5306314Y6009928D01*
X5305650Y6010703D01*
X5304985Y6011589D01*
Y6011645D01*
X5304930Y6011700D01*
X5304708Y6012032D01*
X5304487Y6012586D01*
X5304154Y6013306D01*
X5303878Y6014136D01*
X5303601Y6015133D01*
X5303435Y6016185D01*
X5303379Y6017348D01*
Y6017403D01*
Y6017514D01*
Y6017735D01*
X5303435Y6018012D01*
Y6018400D01*
X5303490Y6018788D01*
X5303712Y6019729D01*
X5304044Y6020836D01*
X5304487Y6021999D01*
X5305151Y6023162D01*
X5305594Y6023716D01*
X5306037Y6024269D01*
X5306093Y6024325D01*
X5306148Y6024380D01*
X5306314Y6024546D01*
X5306535Y6024712D01*
X5306812Y6024934D01*
X5307145Y6025155D01*
X5307588Y6025432D01*
X5308031Y6025764D01*
X5308584Y6026041D01*
X5309193Y6026318D01*
X5309858Y6026650D01*
X5310578Y6026927D01*
X5311408Y6027149D01*
X5312239Y6027426D01*
X5313180Y6027592D01*
X5314177Y6027758D01*
X5314066Y6027813D01*
X5313845Y6027924D01*
X5313512Y6028145D01*
X5313069Y6028367D01*
X5312073Y6028976D01*
X5311574Y6029364D01*
X5311131Y6029696D01*
X5311021Y6029807D01*
X5310744Y6030083D01*
X5310301Y6030526D01*
X5309747Y6031080D01*
X5309138Y6031855D01*
X5308418Y6032686D01*
X5307698Y6033683D01*
X5306923Y6034790D01*
X5300334Y6045200D01*
X5306646D01*
X5311685Y6037226D01*
Y6037171D01*
X5311796Y6037060D01*
X5311907Y6036894D01*
X5312073Y6036673D01*
X5312460Y6036064D01*
X5312959Y6035288D01*
X5313568Y6034458D01*
X5314177Y6033572D01*
X5314786Y6032741D01*
X5315340Y6031966D01*
X5315395Y6031911D01*
X5315561Y6031689D01*
X5315838Y6031357D01*
X5316226Y6030969D01*
X5317056Y6030139D01*
X5317499Y6029751D01*
X5317942Y6029419D01*
X5317997Y6029364D01*
X5318108Y6029308D01*
X5318330Y6029197D01*
X5318662Y6029031D01*
X5318994Y6028865D01*
X5319382Y6028699D01*
X5320268Y6028422D01*
X5320323D01*
X5320434Y6028367D01*
X5320655D01*
X5320932Y6028312D01*
X5321320Y6028256D01*
X5321763D01*
X5322372Y6028201D01*
X5328906D01*
Y6045200D01*
X5334000D01*
Y6006883D01*
D02*
G37*
G36*
X5298008Y6045145D02*
Y6044923D01*
Y6044591D01*
X5297953Y6044148D01*
X5297897Y6043650D01*
X5297787Y6043096D01*
X5297676Y6042542D01*
X5297454Y6041933D01*
Y6041878D01*
X5297399Y6041822D01*
X5297288Y6041490D01*
X5297067Y6040992D01*
X5296735Y6040327D01*
X5296292Y6039552D01*
X5295738Y6038666D01*
X5295129Y6037780D01*
X5294354Y6036839D01*
Y6036783D01*
X5294243Y6036728D01*
X5293966Y6036396D01*
X5293468Y6035898D01*
X5292748Y6035178D01*
X5291917Y6034347D01*
X5290865Y6033350D01*
X5289592Y6032243D01*
X5288207Y6031080D01*
X5288152Y6031025D01*
X5287930Y6030859D01*
X5287598Y6030582D01*
X5287211Y6030250D01*
X5286712Y6029807D01*
X5286103Y6029308D01*
X5285494Y6028755D01*
X5284774Y6028145D01*
X5283390Y6026816D01*
X5282006Y6025488D01*
X5281341Y6024823D01*
X5280732Y6024159D01*
X5280178Y6023550D01*
X5279735Y6022940D01*
Y6022885D01*
X5279625Y6022830D01*
X5279514Y6022664D01*
X5279403Y6022442D01*
X5279016Y6021833D01*
X5278573Y6021113D01*
X5278185Y6020227D01*
X5277797Y6019286D01*
X5277576Y6018234D01*
X5277465Y6017237D01*
Y6017182D01*
Y6017126D01*
X5277521Y6016794D01*
X5277576Y6016240D01*
X5277742Y6015631D01*
X5277964Y6014856D01*
X5278351Y6014081D01*
X5278849Y6013306D01*
X5279514Y6012531D01*
X5279625Y6012420D01*
X5279902Y6012198D01*
X5280289Y6011921D01*
X5280898Y6011534D01*
X5281673Y6011202D01*
X5282559Y6010869D01*
X5283611Y6010648D01*
X5284774Y6010592D01*
X5285107D01*
X5285328Y6010648D01*
X5285992Y6010703D01*
X5286768Y6010869D01*
X5287598Y6011091D01*
X5288540Y6011478D01*
X5289426Y6011977D01*
X5290256Y6012641D01*
X5290367Y6012752D01*
X5290588Y6013029D01*
X5290921Y6013472D01*
X5291253Y6014136D01*
X5291640Y6014912D01*
X5291973Y6015908D01*
X5292194Y6017016D01*
X5292305Y6018289D01*
X5297122Y6017791D01*
Y6017735D01*
X5297067Y6017569D01*
Y6017293D01*
X5297012Y6016905D01*
X5296901Y6016462D01*
X5296790Y6015964D01*
X5296624Y6015354D01*
X5296458Y6014745D01*
X5296015Y6013416D01*
X5295350Y6012088D01*
X5294963Y6011423D01*
X5294464Y6010759D01*
X5293966Y6010150D01*
X5293412Y6009596D01*
X5293357Y6009540D01*
X5293246Y6009485D01*
X5293080Y6009319D01*
X5292803Y6009153D01*
X5292471Y6008931D01*
X5292083Y6008710D01*
X5291640Y6008433D01*
X5291087Y6008156D01*
X5290478Y6007879D01*
X5289813Y6007602D01*
X5289093Y6007381D01*
X5288318Y6007159D01*
X5287488Y6006993D01*
X5286602Y6006827D01*
X5285660Y6006772D01*
X5284664Y6006716D01*
X5284110D01*
X5283722Y6006772D01*
X5283279Y6006827D01*
X5282726Y6006883D01*
X5282116Y6006993D01*
X5281507Y6007104D01*
X5280068Y6007492D01*
X5278628Y6008045D01*
X5277908Y6008378D01*
X5277188Y6008765D01*
X5276524Y6009264D01*
X5275915Y6009817D01*
X5275859Y6009873D01*
X5275749Y6009928D01*
X5275638Y6010150D01*
X5275416Y6010371D01*
X5275140Y6010648D01*
X5274863Y6011035D01*
X5274586Y6011423D01*
X5274254Y6011921D01*
X5273700Y6012973D01*
X5273146Y6014302D01*
X5272925Y6014967D01*
X5272814Y6015742D01*
X5272703Y6016517D01*
X5272648Y6017348D01*
Y6017459D01*
Y6017735D01*
X5272703Y6018178D01*
X5272759Y6018788D01*
X5272869Y6019452D01*
X5273091Y6020227D01*
X5273312Y6021058D01*
X5273645Y6021888D01*
X5273700Y6021999D01*
X5273811Y6022276D01*
X5274032Y6022719D01*
X5274364Y6023328D01*
X5274807Y6023993D01*
X5275361Y6024823D01*
X5276026Y6025654D01*
X5276801Y6026595D01*
X5276911Y6026706D01*
X5277188Y6027038D01*
X5277465Y6027315D01*
X5277742Y6027592D01*
X5278074Y6027924D01*
X5278517Y6028367D01*
X5278960Y6028810D01*
X5279514Y6029308D01*
X5280068Y6029862D01*
X5280732Y6030471D01*
X5281452Y6031080D01*
X5282227Y6031800D01*
X5283113Y6032520D01*
X5283999Y6033295D01*
X5284054Y6033350D01*
X5284165Y6033461D01*
X5284387Y6033627D01*
X5284664Y6033849D01*
X5284996Y6034181D01*
X5285383Y6034513D01*
X5286269Y6035233D01*
X5287211Y6036064D01*
X5288097Y6036894D01*
X5288872Y6037614D01*
X5289204Y6037891D01*
X5289481Y6038168D01*
X5289536Y6038223D01*
X5289702Y6038389D01*
X5289924Y6038611D01*
X5290201Y6038943D01*
X5290478Y6039331D01*
X5290810Y6039718D01*
X5291474Y6040659D01*
X5272592D01*
Y6045200D01*
X5298008D01*
Y6045145D01*
D02*
G37*
G36*
X6515317Y2700026D02*
X6515262Y2699583D01*
Y2699084D01*
X6515207Y2697921D01*
X6515041Y2696703D01*
X6514874Y2695374D01*
X6514598Y2694156D01*
X6514431Y2693547D01*
X6514265Y2693049D01*
Y2692993D01*
X6514210Y2692938D01*
X6514044Y2692606D01*
X6513822Y2692107D01*
X6513435Y2691498D01*
X6512936Y2690834D01*
X6512272Y2690114D01*
X6511497Y2689450D01*
X6510611Y2688785D01*
X6510555D01*
X6510500Y2688730D01*
X6510168Y2688508D01*
X6509614Y2688287D01*
X6508894Y2687954D01*
X6508064Y2687678D01*
X6507067Y2687401D01*
X6506015Y2687235D01*
X6504852Y2687179D01*
X6504797D01*
X6504686D01*
X6504465D01*
X6504188Y2687235D01*
X6503800D01*
X6503412Y2687290D01*
X6502471Y2687512D01*
X6501364Y2687844D01*
X6500201Y2688287D01*
X6499038Y2688951D01*
X6498484Y2689394D01*
X6497931Y2689837D01*
X6497875Y2689893D01*
X6497820Y2689948D01*
X6497654Y2690114D01*
X6497488Y2690335D01*
X6497266Y2690612D01*
X6497045Y2690945D01*
X6496768Y2691388D01*
X6496436Y2691831D01*
X6496159Y2692384D01*
X6495882Y2692993D01*
X6495550Y2693658D01*
X6495273Y2694378D01*
X6495051Y2695208D01*
X6494774Y2696039D01*
X6494608Y2696980D01*
X6494442Y2697977D01*
X6494387Y2697866D01*
X6494276Y2697645D01*
X6494055Y2697312D01*
X6493833Y2696869D01*
X6493224Y2695873D01*
X6492836Y2695374D01*
X6492504Y2694931D01*
X6492393Y2694821D01*
X6492117Y2694544D01*
X6491674Y2694101D01*
X6491120Y2693547D01*
X6490345Y2692938D01*
X6489514Y2692218D01*
X6488517Y2691498D01*
X6487410Y2690723D01*
X6477000Y2684134D01*
Y2690446D01*
X6484974Y2695485D01*
X6485029D01*
X6485140Y2695596D01*
X6485306Y2695707D01*
X6485527Y2695873D01*
X6486136Y2696260D01*
X6486912Y2696759D01*
X6487742Y2697368D01*
X6488628Y2697977D01*
X6489459Y2698586D01*
X6490234Y2699140D01*
X6490289Y2699195D01*
X6490511Y2699361D01*
X6490843Y2699638D01*
X6491231Y2700026D01*
X6492061Y2700856D01*
X6492449Y2701299D01*
X6492781Y2701742D01*
X6492836Y2701797D01*
X6492892Y2701908D01*
X6493003Y2702130D01*
X6493169Y2702462D01*
X6493335Y2702794D01*
X6493501Y2703182D01*
X6493778Y2704068D01*
Y2704123D01*
X6493833Y2704234D01*
Y2704455D01*
X6493888Y2704732D01*
X6493944Y2705120D01*
Y2705563D01*
X6493999Y2706172D01*
Y2712706D01*
X6477000D01*
Y2717800D01*
X6515317D01*
Y2700026D01*
D02*
G37*
G36*
X6505849Y2677489D02*
X6505960Y2677378D01*
X6506015Y2677157D01*
X6506181Y2676880D01*
X6506347Y2676548D01*
X6506569Y2676160D01*
X6507122Y2675219D01*
X6507731Y2674111D01*
X6508507Y2673004D01*
X6509393Y2671841D01*
X6510334Y2670678D01*
X6510389Y2670623D01*
X6510445Y2670568D01*
X6510611Y2670402D01*
X6510777Y2670180D01*
X6511331Y2669682D01*
X6511995Y2669017D01*
X6512770Y2668353D01*
X6513656Y2667633D01*
X6514542Y2667024D01*
X6515484Y2666470D01*
Y2663425D01*
X6477000D01*
Y2668131D01*
X6506956D01*
X6506901Y2668187D01*
X6506679Y2668464D01*
X6506347Y2668796D01*
X6505960Y2669350D01*
X6505461Y2669959D01*
X6504907Y2670734D01*
X6504298Y2671620D01*
X6503689Y2672616D01*
Y2672672D01*
X6503634Y2672727D01*
X6503412Y2673059D01*
X6503136Y2673613D01*
X6502803Y2674278D01*
X6502416Y2675053D01*
X6502028Y2675883D01*
X6501641Y2676714D01*
X6501308Y2677545D01*
X6505849D01*
Y2677489D01*
D02*
G37*
G36*
Y2647699D02*
X6505960Y2647588D01*
X6506015Y2647367D01*
X6506181Y2647090D01*
X6506347Y2646758D01*
X6506569Y2646370D01*
X6507122Y2645429D01*
X6507731Y2644321D01*
X6508507Y2643214D01*
X6509393Y2642051D01*
X6510334Y2640888D01*
X6510389Y2640833D01*
X6510445Y2640778D01*
X6510611Y2640611D01*
X6510777Y2640390D01*
X6511331Y2639892D01*
X6511995Y2639227D01*
X6512770Y2638563D01*
X6513656Y2637843D01*
X6514542Y2637234D01*
X6515484Y2636680D01*
Y2633635D01*
X6477000D01*
Y2638341D01*
X6506956D01*
X6506901Y2638397D01*
X6506679Y2638673D01*
X6506347Y2639006D01*
X6505960Y2639559D01*
X6505461Y2640168D01*
X6504907Y2640944D01*
X6504298Y2641830D01*
X6503689Y2642826D01*
Y2642882D01*
X6503634Y2642937D01*
X6503412Y2643269D01*
X6503136Y2643823D01*
X6502803Y2644487D01*
X6502416Y2645263D01*
X6502028Y2646093D01*
X6501641Y2646924D01*
X6501308Y2647754D01*
X6505849D01*
Y2647699D01*
D02*
G37*
G36*
X6223217Y2700026D02*
X6223162Y2699583D01*
Y2699084D01*
X6223107Y2697921D01*
X6222941Y2696703D01*
X6222774Y2695374D01*
X6222498Y2694156D01*
X6222331Y2693547D01*
X6222165Y2693049D01*
Y2692993D01*
X6222110Y2692938D01*
X6221944Y2692606D01*
X6221722Y2692107D01*
X6221335Y2691498D01*
X6220836Y2690834D01*
X6220172Y2690114D01*
X6219397Y2689450D01*
X6218511Y2688785D01*
X6218455D01*
X6218400Y2688730D01*
X6218068Y2688508D01*
X6217514Y2688287D01*
X6216794Y2687954D01*
X6215964Y2687678D01*
X6214967Y2687401D01*
X6213915Y2687235D01*
X6212752Y2687179D01*
X6212697D01*
X6212586D01*
X6212365D01*
X6212088Y2687235D01*
X6211700D01*
X6211312Y2687290D01*
X6210371Y2687512D01*
X6209264Y2687844D01*
X6208101Y2688287D01*
X6206938Y2688951D01*
X6206384Y2689394D01*
X6205831Y2689837D01*
X6205775Y2689893D01*
X6205720Y2689948D01*
X6205554Y2690114D01*
X6205388Y2690335D01*
X6205166Y2690612D01*
X6204945Y2690945D01*
X6204668Y2691388D01*
X6204336Y2691831D01*
X6204059Y2692384D01*
X6203782Y2692993D01*
X6203450Y2693658D01*
X6203173Y2694378D01*
X6202951Y2695208D01*
X6202674Y2696039D01*
X6202508Y2696980D01*
X6202342Y2697977D01*
X6202287Y2697866D01*
X6202176Y2697645D01*
X6201955Y2697312D01*
X6201733Y2696869D01*
X6201124Y2695873D01*
X6200736Y2695374D01*
X6200404Y2694931D01*
X6200293Y2694821D01*
X6200017Y2694544D01*
X6199574Y2694101D01*
X6199020Y2693547D01*
X6198245Y2692938D01*
X6197414Y2692218D01*
X6196417Y2691498D01*
X6195310Y2690723D01*
X6184900Y2684134D01*
Y2690446D01*
X6192874Y2695485D01*
X6192929D01*
X6193040Y2695596D01*
X6193206Y2695707D01*
X6193427Y2695873D01*
X6194036Y2696260D01*
X6194812Y2696759D01*
X6195642Y2697368D01*
X6196528Y2697977D01*
X6197359Y2698586D01*
X6198134Y2699140D01*
X6198189Y2699195D01*
X6198411Y2699361D01*
X6198743Y2699638D01*
X6199131Y2700026D01*
X6199961Y2700856D01*
X6200349Y2701299D01*
X6200681Y2701742D01*
X6200736Y2701797D01*
X6200792Y2701908D01*
X6200903Y2702130D01*
X6201069Y2702462D01*
X6201235Y2702794D01*
X6201401Y2703182D01*
X6201678Y2704068D01*
Y2704123D01*
X6201733Y2704234D01*
Y2704455D01*
X6201788Y2704732D01*
X6201844Y2705120D01*
Y2705563D01*
X6201899Y2706172D01*
Y2712706D01*
X6184900D01*
Y2717800D01*
X6223217D01*
Y2700026D01*
D02*
G37*
G36*
X6213749Y2677489D02*
X6213860Y2677378D01*
X6213915Y2677157D01*
X6214081Y2676880D01*
X6214247Y2676548D01*
X6214469Y2676160D01*
X6215022Y2675219D01*
X6215631Y2674111D01*
X6216407Y2673004D01*
X6217293Y2671841D01*
X6218234Y2670678D01*
X6218289Y2670623D01*
X6218345Y2670568D01*
X6218511Y2670402D01*
X6218677Y2670180D01*
X6219231Y2669682D01*
X6219895Y2669017D01*
X6220670Y2668353D01*
X6221556Y2667633D01*
X6222442Y2667024D01*
X6223384Y2666470D01*
Y2663425D01*
X6184900D01*
Y2668131D01*
X6214856D01*
X6214801Y2668187D01*
X6214579Y2668464D01*
X6214247Y2668796D01*
X6213860Y2669350D01*
X6213361Y2669959D01*
X6212807Y2670734D01*
X6212198Y2671620D01*
X6211589Y2672616D01*
Y2672672D01*
X6211534Y2672727D01*
X6211312Y2673059D01*
X6211036Y2673613D01*
X6210703Y2674278D01*
X6210316Y2675053D01*
X6209928Y2675883D01*
X6209541Y2676714D01*
X6209208Y2677545D01*
X6213749D01*
Y2677489D01*
D02*
G37*
G36*
X6205498Y2651298D02*
X6206163D01*
X6206883Y2651243D01*
X6207713Y2651187D01*
X6209430Y2651021D01*
X6211257Y2650745D01*
X6213084Y2650412D01*
X6213915Y2650191D01*
X6214746Y2649969D01*
X6214801D01*
X6214912Y2649914D01*
X6215133Y2649803D01*
X6215410Y2649692D01*
X6215798Y2649582D01*
X6216185Y2649360D01*
X6217127Y2648917D01*
X6218123Y2648364D01*
X6219175Y2647644D01*
X6220227Y2646813D01*
X6221113Y2645816D01*
Y2645761D01*
X6221224Y2645706D01*
X6221335Y2645540D01*
X6221446Y2645318D01*
X6221667Y2645041D01*
X6221833Y2644709D01*
X6222276Y2643878D01*
X6222664Y2642882D01*
X6223051Y2641719D01*
X6223273Y2640335D01*
X6223384Y2638840D01*
Y2638341D01*
X6223328Y2637732D01*
X6223217Y2637012D01*
X6223051Y2636182D01*
X6222830Y2635296D01*
X6222553Y2634354D01*
X6222110Y2633468D01*
Y2633413D01*
X6222055Y2633358D01*
X6221888Y2633081D01*
X6221612Y2632638D01*
X6221224Y2632084D01*
X6220670Y2631475D01*
X6220061Y2630811D01*
X6219341Y2630201D01*
X6218511Y2629592D01*
X6218400Y2629537D01*
X6218123Y2629316D01*
X6217625Y2629094D01*
X6216905Y2628706D01*
X6216074Y2628374D01*
X6215133Y2627931D01*
X6214026Y2627544D01*
X6212807Y2627211D01*
X6212752D01*
X6212641Y2627156D01*
X6212475Y2627101D01*
X6212198Y2627045D01*
X6211866Y2626990D01*
X6211479Y2626935D01*
X6210980Y2626824D01*
X6210426Y2626768D01*
X6209817Y2626658D01*
X6209153Y2626602D01*
X6208378Y2626547D01*
X6207603Y2626436D01*
X6206717Y2626381D01*
X6205831D01*
X6204834Y2626325D01*
X6203782D01*
X6203726D01*
X6203505D01*
X6203117D01*
X6202674D01*
X6202065Y2626381D01*
X6201401D01*
X6200681Y2626436D01*
X6199906Y2626492D01*
X6198134Y2626658D01*
X6196307Y2626935D01*
X6194535Y2627267D01*
X6193704Y2627488D01*
X6192874Y2627765D01*
X6192818D01*
X6192707Y2627820D01*
X6192486Y2627931D01*
X6192209Y2628042D01*
X6191822Y2628153D01*
X6191434Y2628374D01*
X6190493Y2628817D01*
X6189496Y2629371D01*
X6188388Y2630091D01*
X6187392Y2630921D01*
X6186450Y2631918D01*
Y2631973D01*
X6186340Y2632029D01*
X6186229Y2632195D01*
X6186118Y2632416D01*
X6185952Y2632693D01*
X6185731Y2632970D01*
X6185343Y2633801D01*
X6184955Y2634797D01*
X6184568Y2635960D01*
X6184346Y2637344D01*
X6184236Y2638840D01*
Y2639393D01*
X6184291Y2639781D01*
X6184346Y2640224D01*
X6184457Y2640778D01*
X6184568Y2641387D01*
X6184734Y2642051D01*
X6184955Y2642716D01*
X6185177Y2643435D01*
X6185509Y2644155D01*
X6185897Y2644875D01*
X6186340Y2645595D01*
X6186893Y2646315D01*
X6187502Y2646979D01*
X6188167Y2647588D01*
X6188222Y2647644D01*
X6188388Y2647754D01*
X6188665Y2647921D01*
X6189108Y2648197D01*
X6189607Y2648474D01*
X6190271Y2648751D01*
X6191046Y2649139D01*
X6191932Y2649471D01*
X6192929Y2649803D01*
X6194092Y2650135D01*
X6195365Y2650468D01*
X6196805Y2650745D01*
X6198355Y2651021D01*
X6200017Y2651187D01*
X6201844Y2651298D01*
X6203782Y2651354D01*
X6203837D01*
X6204059D01*
X6204446D01*
X6204889D01*
X6205498Y2651298D01*
D02*
G37*
G36*
X3302217Y2700126D02*
X3302162Y2699683D01*
Y2699184D01*
X3302107Y2698022D01*
X3301941Y2696803D01*
X3301774Y2695474D01*
X3301498Y2694256D01*
X3301331Y2693647D01*
X3301165Y2693149D01*
Y2693093D01*
X3301110Y2693038D01*
X3300944Y2692706D01*
X3300722Y2692207D01*
X3300335Y2691598D01*
X3299836Y2690934D01*
X3299172Y2690214D01*
X3298397Y2689550D01*
X3297511Y2688885D01*
X3297455D01*
X3297400Y2688830D01*
X3297068Y2688608D01*
X3296514Y2688387D01*
X3295794Y2688055D01*
X3294964Y2687778D01*
X3293967Y2687501D01*
X3292915Y2687335D01*
X3291752Y2687279D01*
X3291697D01*
X3291586D01*
X3291365D01*
X3291088Y2687335D01*
X3290700D01*
X3290312Y2687390D01*
X3289371Y2687612D01*
X3288264Y2687944D01*
X3287101Y2688387D01*
X3285938Y2689051D01*
X3285384Y2689494D01*
X3284831Y2689937D01*
X3284775Y2689993D01*
X3284720Y2690048D01*
X3284554Y2690214D01*
X3284388Y2690436D01*
X3284166Y2690712D01*
X3283945Y2691045D01*
X3283668Y2691488D01*
X3283336Y2691931D01*
X3283059Y2692484D01*
X3282782Y2693093D01*
X3282450Y2693758D01*
X3282173Y2694478D01*
X3281951Y2695308D01*
X3281674Y2696139D01*
X3281508Y2697080D01*
X3281342Y2698077D01*
X3281287Y2697966D01*
X3281176Y2697745D01*
X3280955Y2697412D01*
X3280733Y2696969D01*
X3280124Y2695973D01*
X3279736Y2695474D01*
X3279404Y2695031D01*
X3279293Y2694921D01*
X3279017Y2694644D01*
X3278574Y2694201D01*
X3278020Y2693647D01*
X3277245Y2693038D01*
X3276414Y2692318D01*
X3275417Y2691598D01*
X3274310Y2690823D01*
X3263900Y2684234D01*
Y2690546D01*
X3271874Y2695585D01*
X3271929D01*
X3272040Y2695696D01*
X3272206Y2695807D01*
X3272427Y2695973D01*
X3273036Y2696360D01*
X3273812Y2696859D01*
X3274642Y2697468D01*
X3275528Y2698077D01*
X3276359Y2698686D01*
X3277134Y2699240D01*
X3277189Y2699295D01*
X3277411Y2699461D01*
X3277743Y2699738D01*
X3278131Y2700126D01*
X3278961Y2700956D01*
X3279349Y2701399D01*
X3279681Y2701842D01*
X3279736Y2701898D01*
X3279792Y2702008D01*
X3279903Y2702230D01*
X3280069Y2702562D01*
X3280235Y2702894D01*
X3280401Y2703282D01*
X3280678Y2704168D01*
Y2704223D01*
X3280733Y2704334D01*
Y2704555D01*
X3280788Y2704832D01*
X3280844Y2705220D01*
Y2705663D01*
X3280899Y2706272D01*
Y2712806D01*
X3263900D01*
Y2717900D01*
X3302217D01*
Y2700126D01*
D02*
G37*
G36*
X3264952Y2681853D02*
X3265450Y2681798D01*
X3266004Y2681687D01*
X3266558Y2681576D01*
X3267167Y2681355D01*
X3267222D01*
X3267278Y2681299D01*
X3267610Y2681188D01*
X3268108Y2680967D01*
X3268773Y2680635D01*
X3269548Y2680192D01*
X3270434Y2679638D01*
X3271320Y2679029D01*
X3272261Y2678254D01*
X3272317D01*
X3272372Y2678143D01*
X3272704Y2677866D01*
X3273202Y2677368D01*
X3273922Y2676648D01*
X3274753Y2675817D01*
X3275750Y2674765D01*
X3276857Y2673492D01*
X3278020Y2672107D01*
X3278075Y2672052D01*
X3278241Y2671831D01*
X3278518Y2671498D01*
X3278850Y2671111D01*
X3279293Y2670612D01*
X3279792Y2670003D01*
X3280345Y2669394D01*
X3280955Y2668674D01*
X3282284Y2667290D01*
X3283612Y2665906D01*
X3284277Y2665241D01*
X3284941Y2664632D01*
X3285550Y2664078D01*
X3286160Y2663636D01*
X3286215D01*
X3286270Y2663525D01*
X3286436Y2663414D01*
X3286658Y2663303D01*
X3287267Y2662916D01*
X3287987Y2662473D01*
X3288873Y2662085D01*
X3289814Y2661697D01*
X3290866Y2661476D01*
X3291863Y2661365D01*
X3291918D01*
X3291974D01*
X3292306Y2661421D01*
X3292860Y2661476D01*
X3293469Y2661642D01*
X3294244Y2661864D01*
X3295019Y2662251D01*
X3295794Y2662750D01*
X3296569Y2663414D01*
X3296680Y2663525D01*
X3296902Y2663802D01*
X3297179Y2664189D01*
X3297566Y2664798D01*
X3297898Y2665574D01*
X3298231Y2666459D01*
X3298452Y2667512D01*
X3298508Y2668674D01*
Y2669007D01*
X3298452Y2669228D01*
X3298397Y2669893D01*
X3298231Y2670668D01*
X3298009Y2671498D01*
X3297622Y2672440D01*
X3297123Y2673326D01*
X3296459Y2674156D01*
X3296348Y2674267D01*
X3296071Y2674488D01*
X3295628Y2674821D01*
X3294964Y2675153D01*
X3294188Y2675540D01*
X3293192Y2675873D01*
X3292084Y2676094D01*
X3290811Y2676205D01*
X3291309Y2681022D01*
X3291365D01*
X3291531Y2680967D01*
X3291807D01*
X3292195Y2680912D01*
X3292638Y2680801D01*
X3293136Y2680690D01*
X3293746Y2680524D01*
X3294355Y2680358D01*
X3295684Y2679915D01*
X3297012Y2679250D01*
X3297677Y2678863D01*
X3298341Y2678364D01*
X3298950Y2677866D01*
X3299504Y2677312D01*
X3299560Y2677257D01*
X3299615Y2677146D01*
X3299781Y2676980D01*
X3299947Y2676703D01*
X3300169Y2676371D01*
X3300390Y2675983D01*
X3300667Y2675540D01*
X3300944Y2674987D01*
X3301221Y2674378D01*
X3301498Y2673713D01*
X3301719Y2672993D01*
X3301941Y2672218D01*
X3302107Y2671388D01*
X3302273Y2670502D01*
X3302328Y2669560D01*
X3302384Y2668564D01*
Y2668010D01*
X3302328Y2667622D01*
X3302273Y2667179D01*
X3302217Y2666626D01*
X3302107Y2666017D01*
X3301996Y2665407D01*
X3301608Y2663968D01*
X3301055Y2662528D01*
X3300722Y2661808D01*
X3300335Y2661088D01*
X3299836Y2660424D01*
X3299283Y2659815D01*
X3299227Y2659759D01*
X3299172Y2659649D01*
X3298950Y2659538D01*
X3298729Y2659316D01*
X3298452Y2659040D01*
X3298065Y2658763D01*
X3297677Y2658486D01*
X3297179Y2658154D01*
X3296127Y2657600D01*
X3294798Y2657046D01*
X3294133Y2656825D01*
X3293358Y2656714D01*
X3292583Y2656603D01*
X3291752Y2656548D01*
X3291641D01*
X3291365D01*
X3290922Y2656603D01*
X3290312Y2656659D01*
X3289648Y2656769D01*
X3288873Y2656991D01*
X3288042Y2657212D01*
X3287212Y2657545D01*
X3287101Y2657600D01*
X3286824Y2657711D01*
X3286381Y2657932D01*
X3285772Y2658264D01*
X3285107Y2658707D01*
X3284277Y2659261D01*
X3283446Y2659926D01*
X3282505Y2660701D01*
X3282394Y2660812D01*
X3282062Y2661088D01*
X3281785Y2661365D01*
X3281508Y2661642D01*
X3281176Y2661974D01*
X3280733Y2662417D01*
X3280290Y2662860D01*
X3279792Y2663414D01*
X3279238Y2663968D01*
X3278629Y2664632D01*
X3278020Y2665352D01*
X3277300Y2666127D01*
X3276580Y2667013D01*
X3275805Y2667899D01*
X3275750Y2667955D01*
X3275639Y2668065D01*
X3275473Y2668287D01*
X3275251Y2668564D01*
X3274919Y2668896D01*
X3274587Y2669283D01*
X3273867Y2670169D01*
X3273036Y2671111D01*
X3272206Y2671997D01*
X3271486Y2672772D01*
X3271209Y2673104D01*
X3270932Y2673381D01*
X3270877Y2673436D01*
X3270711Y2673602D01*
X3270489Y2673824D01*
X3270157Y2674101D01*
X3269769Y2674378D01*
X3269382Y2674710D01*
X3268441Y2675374D01*
Y2656493D01*
X3263900D01*
Y2681908D01*
X3263955D01*
X3264177D01*
X3264509D01*
X3264952Y2681853D01*
D02*
G37*
G36*
X3274642Y2646692D02*
X3274587D01*
X3274476Y2646636D01*
X3274255Y2646581D01*
X3273978Y2646526D01*
X3273645Y2646470D01*
X3273258Y2646359D01*
X3272427Y2646083D01*
X3271431Y2645695D01*
X3270489Y2645197D01*
X3269603Y2644643D01*
X3268828Y2643978D01*
X3268773Y2643868D01*
X3268551Y2643646D01*
X3268274Y2643203D01*
X3267998Y2642650D01*
X3267665Y2641985D01*
X3267388Y2641154D01*
X3267167Y2640213D01*
X3267112Y2639216D01*
Y2638884D01*
X3267167Y2638663D01*
X3267222Y2638054D01*
X3267388Y2637278D01*
X3267665Y2636392D01*
X3268053Y2635451D01*
X3268607Y2634510D01*
X3269382Y2633624D01*
X3269493Y2633513D01*
X3269825Y2633236D01*
X3270323Y2632904D01*
X3270988Y2632461D01*
X3271818Y2632018D01*
X3272760Y2631686D01*
X3273867Y2631409D01*
X3275085Y2631298D01*
X3275141D01*
X3275251D01*
X3275417D01*
X3275639Y2631354D01*
X3276248Y2631409D01*
X3276968Y2631575D01*
X3277854Y2631797D01*
X3278740Y2632184D01*
X3279626Y2632738D01*
X3280456Y2633458D01*
X3280567Y2633569D01*
X3280788Y2633845D01*
X3281121Y2634288D01*
X3281508Y2634897D01*
X3281896Y2635673D01*
X3282228Y2636614D01*
X3282450Y2637666D01*
X3282560Y2638829D01*
Y2639327D01*
X3282505Y2639715D01*
X3282450Y2640213D01*
X3282339Y2640767D01*
X3282228Y2641431D01*
X3282062Y2642151D01*
X3286215Y2641597D01*
Y2641321D01*
X3286160Y2641099D01*
Y2640379D01*
X3286270Y2639770D01*
X3286381Y2639050D01*
X3286547Y2638220D01*
X3286824Y2637278D01*
X3287212Y2636392D01*
X3287710Y2635451D01*
Y2635396D01*
X3287765Y2635340D01*
X3287987Y2635064D01*
X3288374Y2634676D01*
X3288873Y2634233D01*
X3289593Y2633790D01*
X3290423Y2633402D01*
X3291365Y2633126D01*
X3291918Y2633015D01*
X3292527D01*
X3292583D01*
X3292638D01*
X3292970D01*
X3293413Y2633126D01*
X3294022Y2633236D01*
X3294687Y2633458D01*
X3295407Y2633735D01*
X3296127Y2634178D01*
X3296791Y2634787D01*
X3296846Y2634842D01*
X3297068Y2635119D01*
X3297345Y2635507D01*
X3297677Y2636005D01*
X3297954Y2636669D01*
X3298231Y2637445D01*
X3298452Y2638331D01*
X3298508Y2639327D01*
Y2639770D01*
X3298397Y2640269D01*
X3298286Y2640933D01*
X3298065Y2641653D01*
X3297788Y2642373D01*
X3297345Y2643148D01*
X3296791Y2643868D01*
X3296736Y2643923D01*
X3296459Y2644145D01*
X3296071Y2644477D01*
X3295517Y2644864D01*
X3294798Y2645252D01*
X3293912Y2645640D01*
X3292860Y2645972D01*
X3291641Y2646193D01*
X3292472Y2650900D01*
X3292527D01*
X3292693Y2650845D01*
X3292915Y2650789D01*
X3293247Y2650734D01*
X3293635Y2650623D01*
X3294078Y2650457D01*
X3295130Y2650125D01*
X3296348Y2649571D01*
X3297566Y2648907D01*
X3298729Y2648076D01*
X3299781Y2647024D01*
X3299836Y2646969D01*
X3299892Y2646858D01*
X3300003Y2646692D01*
X3300169Y2646470D01*
X3300390Y2646193D01*
X3300612Y2645806D01*
X3300833Y2645418D01*
X3301110Y2644920D01*
X3301553Y2643812D01*
X3301996Y2642539D01*
X3302273Y2641044D01*
X3302384Y2640269D01*
Y2638884D01*
X3302328Y2638275D01*
X3302217Y2637555D01*
X3302051Y2636669D01*
X3301774Y2635673D01*
X3301442Y2634676D01*
X3300999Y2633679D01*
Y2633624D01*
X3300944Y2633569D01*
X3300778Y2633236D01*
X3300446Y2632738D01*
X3300058Y2632184D01*
X3299504Y2631520D01*
X3298895Y2630855D01*
X3298175Y2630191D01*
X3297345Y2629637D01*
X3297234Y2629582D01*
X3296957Y2629416D01*
X3296459Y2629194D01*
X3295850Y2628917D01*
X3295130Y2628640D01*
X3294299Y2628419D01*
X3293358Y2628253D01*
X3292417Y2628197D01*
X3292306D01*
X3291974D01*
X3291531Y2628253D01*
X3290922Y2628364D01*
X3290202Y2628530D01*
X3289426Y2628807D01*
X3288651Y2629139D01*
X3287876Y2629582D01*
X3287765Y2629637D01*
X3287544Y2629803D01*
X3287156Y2630135D01*
X3286713Y2630578D01*
X3286215Y2631132D01*
X3285661Y2631797D01*
X3285163Y2632572D01*
X3284665Y2633513D01*
Y2633458D01*
X3284609Y2633347D01*
X3284554Y2633181D01*
X3284498Y2632959D01*
X3284277Y2632350D01*
X3283945Y2631575D01*
X3283502Y2630689D01*
X3282948Y2629803D01*
X3282228Y2628973D01*
X3281398Y2628197D01*
X3281287Y2628142D01*
X3280955Y2627921D01*
X3280401Y2627588D01*
X3279681Y2627256D01*
X3278795Y2626924D01*
X3277743Y2626592D01*
X3276525Y2626370D01*
X3275196Y2626315D01*
X3275141D01*
X3274974D01*
X3274698D01*
X3274365Y2626370D01*
X3273922Y2626426D01*
X3273424Y2626536D01*
X3272870Y2626647D01*
X3272261Y2626758D01*
X3270932Y2627201D01*
X3270212Y2627533D01*
X3269548Y2627865D01*
X3268828Y2628308D01*
X3268108Y2628807D01*
X3267388Y2629360D01*
X3266724Y2630025D01*
X3266669Y2630080D01*
X3266558Y2630191D01*
X3266392Y2630412D01*
X3266170Y2630689D01*
X3265893Y2631021D01*
X3265617Y2631464D01*
X3265284Y2631963D01*
X3265007Y2632572D01*
X3264675Y2633181D01*
X3264343Y2633901D01*
X3264066Y2634621D01*
X3263789Y2635451D01*
X3263568Y2636337D01*
X3263402Y2637278D01*
X3263291Y2638220D01*
X3263236Y2639272D01*
Y2639770D01*
X3263291Y2640102D01*
X3263346Y2640545D01*
X3263402Y2641044D01*
X3263512Y2641597D01*
X3263623Y2642207D01*
X3263955Y2643535D01*
X3264509Y2644920D01*
X3264841Y2645640D01*
X3265229Y2646304D01*
X3265727Y2646969D01*
X3266226Y2647633D01*
X3266281Y2647688D01*
X3266392Y2647799D01*
X3266558Y2647965D01*
X3266779Y2648131D01*
X3267056Y2648408D01*
X3267444Y2648685D01*
X3267831Y2649017D01*
X3268330Y2649350D01*
X3268883Y2649682D01*
X3269437Y2650014D01*
X3270766Y2650623D01*
X3272317Y2651121D01*
X3273147Y2651288D01*
X3274033Y2651398D01*
X3274642Y2646692D01*
D02*
G37*
G36*
X2464017Y2700126D02*
X2463962Y2699683D01*
Y2699184D01*
X2463907Y2698022D01*
X2463741Y2696803D01*
X2463574Y2695474D01*
X2463298Y2694256D01*
X2463131Y2693647D01*
X2462965Y2693149D01*
Y2693093D01*
X2462910Y2693038D01*
X2462744Y2692706D01*
X2462522Y2692207D01*
X2462135Y2691598D01*
X2461636Y2690934D01*
X2460972Y2690214D01*
X2460197Y2689550D01*
X2459311Y2688885D01*
X2459255D01*
X2459200Y2688830D01*
X2458868Y2688608D01*
X2458314Y2688387D01*
X2457594Y2688055D01*
X2456764Y2687778D01*
X2455767Y2687501D01*
X2454715Y2687335D01*
X2453552Y2687279D01*
X2453497D01*
X2453386D01*
X2453165D01*
X2452888Y2687335D01*
X2452500D01*
X2452112Y2687390D01*
X2451171Y2687612D01*
X2450064Y2687944D01*
X2448901Y2688387D01*
X2447738Y2689051D01*
X2447184Y2689494D01*
X2446631Y2689937D01*
X2446575Y2689993D01*
X2446520Y2690048D01*
X2446354Y2690214D01*
X2446188Y2690436D01*
X2445966Y2690712D01*
X2445745Y2691045D01*
X2445468Y2691488D01*
X2445136Y2691931D01*
X2444859Y2692484D01*
X2444582Y2693093D01*
X2444250Y2693758D01*
X2443973Y2694478D01*
X2443751Y2695308D01*
X2443474Y2696139D01*
X2443308Y2697080D01*
X2443142Y2698077D01*
X2443087Y2697966D01*
X2442976Y2697745D01*
X2442755Y2697412D01*
X2442533Y2696969D01*
X2441924Y2695973D01*
X2441536Y2695474D01*
X2441204Y2695031D01*
X2441093Y2694921D01*
X2440817Y2694644D01*
X2440374Y2694201D01*
X2439820Y2693647D01*
X2439045Y2693038D01*
X2438214Y2692318D01*
X2437217Y2691598D01*
X2436110Y2690823D01*
X2425700Y2684234D01*
Y2690546D01*
X2433674Y2695585D01*
X2433729D01*
X2433840Y2695696D01*
X2434006Y2695807D01*
X2434227Y2695973D01*
X2434836Y2696360D01*
X2435612Y2696859D01*
X2436442Y2697468D01*
X2437328Y2698077D01*
X2438159Y2698686D01*
X2438934Y2699240D01*
X2438989Y2699295D01*
X2439211Y2699461D01*
X2439543Y2699738D01*
X2439931Y2700126D01*
X2440761Y2700956D01*
X2441149Y2701399D01*
X2441481Y2701842D01*
X2441536Y2701898D01*
X2441592Y2702008D01*
X2441703Y2702230D01*
X2441869Y2702562D01*
X2442035Y2702894D01*
X2442201Y2703282D01*
X2442478Y2704168D01*
Y2704223D01*
X2442533Y2704334D01*
Y2704555D01*
X2442588Y2704832D01*
X2442644Y2705220D01*
Y2705663D01*
X2442699Y2706272D01*
Y2712806D01*
X2425700D01*
Y2717900D01*
X2464017D01*
Y2700126D01*
D02*
G37*
G36*
X2426752Y2681853D02*
X2427250Y2681798D01*
X2427804Y2681687D01*
X2428358Y2681576D01*
X2428967Y2681355D01*
X2429022D01*
X2429078Y2681299D01*
X2429410Y2681188D01*
X2429908Y2680967D01*
X2430573Y2680635D01*
X2431348Y2680192D01*
X2432234Y2679638D01*
X2433120Y2679029D01*
X2434061Y2678254D01*
X2434117D01*
X2434172Y2678143D01*
X2434504Y2677866D01*
X2435002Y2677368D01*
X2435722Y2676648D01*
X2436553Y2675817D01*
X2437550Y2674765D01*
X2438657Y2673492D01*
X2439820Y2672107D01*
X2439875Y2672052D01*
X2440041Y2671831D01*
X2440318Y2671498D01*
X2440650Y2671111D01*
X2441093Y2670612D01*
X2441592Y2670003D01*
X2442145Y2669394D01*
X2442755Y2668674D01*
X2444084Y2667290D01*
X2445412Y2665906D01*
X2446077Y2665241D01*
X2446741Y2664632D01*
X2447350Y2664078D01*
X2447960Y2663636D01*
X2448015D01*
X2448070Y2663525D01*
X2448236Y2663414D01*
X2448458Y2663303D01*
X2449067Y2662916D01*
X2449787Y2662473D01*
X2450673Y2662085D01*
X2451614Y2661697D01*
X2452666Y2661476D01*
X2453663Y2661365D01*
X2453718D01*
X2453774D01*
X2454106Y2661421D01*
X2454660Y2661476D01*
X2455269Y2661642D01*
X2456044Y2661864D01*
X2456819Y2662251D01*
X2457594Y2662750D01*
X2458369Y2663414D01*
X2458480Y2663525D01*
X2458702Y2663802D01*
X2458979Y2664189D01*
X2459366Y2664798D01*
X2459698Y2665574D01*
X2460031Y2666459D01*
X2460252Y2667512D01*
X2460308Y2668674D01*
Y2669007D01*
X2460252Y2669228D01*
X2460197Y2669893D01*
X2460031Y2670668D01*
X2459809Y2671498D01*
X2459422Y2672440D01*
X2458923Y2673326D01*
X2458259Y2674156D01*
X2458148Y2674267D01*
X2457871Y2674488D01*
X2457428Y2674821D01*
X2456764Y2675153D01*
X2455988Y2675540D01*
X2454992Y2675873D01*
X2453884Y2676094D01*
X2452611Y2676205D01*
X2453109Y2681022D01*
X2453165D01*
X2453331Y2680967D01*
X2453607D01*
X2453995Y2680912D01*
X2454438Y2680801D01*
X2454936Y2680690D01*
X2455546Y2680524D01*
X2456155Y2680358D01*
X2457484Y2679915D01*
X2458812Y2679250D01*
X2459477Y2678863D01*
X2460141Y2678364D01*
X2460750Y2677866D01*
X2461304Y2677312D01*
X2461360Y2677257D01*
X2461415Y2677146D01*
X2461581Y2676980D01*
X2461747Y2676703D01*
X2461969Y2676371D01*
X2462190Y2675983D01*
X2462467Y2675540D01*
X2462744Y2674987D01*
X2463021Y2674378D01*
X2463298Y2673713D01*
X2463519Y2672993D01*
X2463741Y2672218D01*
X2463907Y2671388D01*
X2464073Y2670502D01*
X2464128Y2669560D01*
X2464184Y2668564D01*
Y2668010D01*
X2464128Y2667622D01*
X2464073Y2667179D01*
X2464017Y2666626D01*
X2463907Y2666017D01*
X2463796Y2665407D01*
X2463408Y2663968D01*
X2462855Y2662528D01*
X2462522Y2661808D01*
X2462135Y2661088D01*
X2461636Y2660424D01*
X2461083Y2659815D01*
X2461027Y2659759D01*
X2460972Y2659649D01*
X2460750Y2659538D01*
X2460529Y2659316D01*
X2460252Y2659040D01*
X2459865Y2658763D01*
X2459477Y2658486D01*
X2458979Y2658154D01*
X2457927Y2657600D01*
X2456598Y2657046D01*
X2455933Y2656825D01*
X2455158Y2656714D01*
X2454383Y2656603D01*
X2453552Y2656548D01*
X2453441D01*
X2453165D01*
X2452722Y2656603D01*
X2452112Y2656659D01*
X2451448Y2656769D01*
X2450673Y2656991D01*
X2449842Y2657212D01*
X2449012Y2657545D01*
X2448901Y2657600D01*
X2448624Y2657711D01*
X2448181Y2657932D01*
X2447572Y2658264D01*
X2446907Y2658707D01*
X2446077Y2659261D01*
X2445246Y2659926D01*
X2444305Y2660701D01*
X2444194Y2660812D01*
X2443862Y2661088D01*
X2443585Y2661365D01*
X2443308Y2661642D01*
X2442976Y2661974D01*
X2442533Y2662417D01*
X2442090Y2662860D01*
X2441592Y2663414D01*
X2441038Y2663968D01*
X2440429Y2664632D01*
X2439820Y2665352D01*
X2439100Y2666127D01*
X2438380Y2667013D01*
X2437605Y2667899D01*
X2437550Y2667955D01*
X2437439Y2668065D01*
X2437273Y2668287D01*
X2437051Y2668564D01*
X2436719Y2668896D01*
X2436387Y2669283D01*
X2435667Y2670169D01*
X2434836Y2671111D01*
X2434006Y2671997D01*
X2433286Y2672772D01*
X2433009Y2673104D01*
X2432732Y2673381D01*
X2432677Y2673436D01*
X2432511Y2673602D01*
X2432289Y2673824D01*
X2431957Y2674101D01*
X2431569Y2674378D01*
X2431182Y2674710D01*
X2430241Y2675374D01*
Y2656493D01*
X2425700D01*
Y2681908D01*
X2425755D01*
X2425977D01*
X2426309D01*
X2426752Y2681853D01*
D02*
G37*
G36*
X2454549Y2647799D02*
X2454660Y2647688D01*
X2454715Y2647467D01*
X2454881Y2647190D01*
X2455047Y2646858D01*
X2455269Y2646470D01*
X2455822Y2645529D01*
X2456431Y2644421D01*
X2457207Y2643314D01*
X2458093Y2642151D01*
X2459034Y2640988D01*
X2459089Y2640933D01*
X2459145Y2640878D01*
X2459311Y2640712D01*
X2459477Y2640490D01*
X2460031Y2639992D01*
X2460695Y2639327D01*
X2461470Y2638663D01*
X2462356Y2637943D01*
X2463242Y2637334D01*
X2464184Y2636780D01*
Y2633735D01*
X2425700D01*
Y2638441D01*
X2455656D01*
X2455601Y2638497D01*
X2455379Y2638773D01*
X2455047Y2639106D01*
X2454660Y2639659D01*
X2454161Y2640269D01*
X2453607Y2641044D01*
X2452998Y2641930D01*
X2452389Y2642926D01*
Y2642982D01*
X2452334Y2643037D01*
X2452112Y2643369D01*
X2451836Y2643923D01*
X2451503Y2644588D01*
X2451116Y2645363D01*
X2450728Y2646193D01*
X2450341Y2647024D01*
X2450008Y2647854D01*
X2454549D01*
Y2647799D01*
D02*
G37*
G36*
X2756117Y2700126D02*
X2756062Y2699683D01*
Y2699184D01*
X2756007Y2698022D01*
X2755841Y2696803D01*
X2755674Y2695474D01*
X2755398Y2694256D01*
X2755231Y2693647D01*
X2755065Y2693149D01*
Y2693093D01*
X2755010Y2693038D01*
X2754844Y2692706D01*
X2754622Y2692207D01*
X2754235Y2691598D01*
X2753736Y2690934D01*
X2753072Y2690214D01*
X2752297Y2689550D01*
X2751411Y2688885D01*
X2751355D01*
X2751300Y2688830D01*
X2750968Y2688608D01*
X2750414Y2688387D01*
X2749694Y2688055D01*
X2748864Y2687778D01*
X2747867Y2687501D01*
X2746815Y2687335D01*
X2745652Y2687279D01*
X2745597D01*
X2745486D01*
X2745265D01*
X2744988Y2687335D01*
X2744600D01*
X2744212Y2687390D01*
X2743271Y2687612D01*
X2742164Y2687944D01*
X2741001Y2688387D01*
X2739838Y2689051D01*
X2739284Y2689494D01*
X2738731Y2689937D01*
X2738675Y2689993D01*
X2738620Y2690048D01*
X2738454Y2690214D01*
X2738288Y2690436D01*
X2738066Y2690712D01*
X2737845Y2691045D01*
X2737568Y2691488D01*
X2737236Y2691931D01*
X2736959Y2692484D01*
X2736682Y2693093D01*
X2736350Y2693758D01*
X2736073Y2694478D01*
X2735851Y2695308D01*
X2735574Y2696139D01*
X2735408Y2697080D01*
X2735242Y2698077D01*
X2735187Y2697966D01*
X2735076Y2697745D01*
X2734855Y2697412D01*
X2734633Y2696969D01*
X2734024Y2695973D01*
X2733636Y2695474D01*
X2733304Y2695031D01*
X2733193Y2694921D01*
X2732917Y2694644D01*
X2732474Y2694201D01*
X2731920Y2693647D01*
X2731145Y2693038D01*
X2730314Y2692318D01*
X2729317Y2691598D01*
X2728210Y2690823D01*
X2717800Y2684234D01*
Y2690546D01*
X2725774Y2695585D01*
X2725829D01*
X2725940Y2695696D01*
X2726106Y2695807D01*
X2726327Y2695973D01*
X2726936Y2696360D01*
X2727712Y2696859D01*
X2728542Y2697468D01*
X2729428Y2698077D01*
X2730259Y2698686D01*
X2731034Y2699240D01*
X2731089Y2699295D01*
X2731311Y2699461D01*
X2731643Y2699738D01*
X2732031Y2700126D01*
X2732861Y2700956D01*
X2733249Y2701399D01*
X2733581Y2701842D01*
X2733636Y2701898D01*
X2733692Y2702008D01*
X2733803Y2702230D01*
X2733969Y2702562D01*
X2734135Y2702894D01*
X2734301Y2703282D01*
X2734578Y2704168D01*
Y2704223D01*
X2734633Y2704334D01*
Y2704555D01*
X2734688Y2704832D01*
X2734744Y2705220D01*
Y2705663D01*
X2734799Y2706272D01*
Y2712806D01*
X2717800D01*
Y2717900D01*
X2756117D01*
Y2700126D01*
D02*
G37*
G36*
X2718852Y2681853D02*
X2719350Y2681798D01*
X2719904Y2681687D01*
X2720458Y2681576D01*
X2721067Y2681355D01*
X2721122D01*
X2721178Y2681299D01*
X2721510Y2681188D01*
X2722008Y2680967D01*
X2722673Y2680635D01*
X2723448Y2680192D01*
X2724334Y2679638D01*
X2725220Y2679029D01*
X2726161Y2678254D01*
X2726217D01*
X2726272Y2678143D01*
X2726604Y2677866D01*
X2727102Y2677368D01*
X2727822Y2676648D01*
X2728653Y2675817D01*
X2729650Y2674765D01*
X2730757Y2673492D01*
X2731920Y2672107D01*
X2731975Y2672052D01*
X2732141Y2671831D01*
X2732418Y2671498D01*
X2732750Y2671111D01*
X2733193Y2670612D01*
X2733692Y2670003D01*
X2734245Y2669394D01*
X2734855Y2668674D01*
X2736184Y2667290D01*
X2737512Y2665906D01*
X2738177Y2665241D01*
X2738841Y2664632D01*
X2739450Y2664078D01*
X2740060Y2663636D01*
X2740115D01*
X2740170Y2663525D01*
X2740336Y2663414D01*
X2740558Y2663303D01*
X2741167Y2662916D01*
X2741887Y2662473D01*
X2742773Y2662085D01*
X2743714Y2661697D01*
X2744766Y2661476D01*
X2745763Y2661365D01*
X2745818D01*
X2745874D01*
X2746206Y2661421D01*
X2746760Y2661476D01*
X2747369Y2661642D01*
X2748144Y2661864D01*
X2748919Y2662251D01*
X2749694Y2662750D01*
X2750469Y2663414D01*
X2750580Y2663525D01*
X2750802Y2663802D01*
X2751079Y2664189D01*
X2751466Y2664798D01*
X2751798Y2665574D01*
X2752131Y2666459D01*
X2752352Y2667512D01*
X2752407Y2668674D01*
Y2669007D01*
X2752352Y2669228D01*
X2752297Y2669893D01*
X2752131Y2670668D01*
X2751909Y2671498D01*
X2751522Y2672440D01*
X2751023Y2673326D01*
X2750359Y2674156D01*
X2750248Y2674267D01*
X2749971Y2674488D01*
X2749528Y2674821D01*
X2748864Y2675153D01*
X2748088Y2675540D01*
X2747092Y2675873D01*
X2745984Y2676094D01*
X2744711Y2676205D01*
X2745209Y2681022D01*
X2745265D01*
X2745431Y2680967D01*
X2745707D01*
X2746095Y2680912D01*
X2746538Y2680801D01*
X2747036Y2680690D01*
X2747646Y2680524D01*
X2748255Y2680358D01*
X2749584Y2679915D01*
X2750912Y2679250D01*
X2751577Y2678863D01*
X2752241Y2678364D01*
X2752850Y2677866D01*
X2753404Y2677312D01*
X2753460Y2677257D01*
X2753515Y2677146D01*
X2753681Y2676980D01*
X2753847Y2676703D01*
X2754069Y2676371D01*
X2754290Y2675983D01*
X2754567Y2675540D01*
X2754844Y2674987D01*
X2755121Y2674378D01*
X2755398Y2673713D01*
X2755619Y2672993D01*
X2755841Y2672218D01*
X2756007Y2671388D01*
X2756173Y2670502D01*
X2756228Y2669560D01*
X2756284Y2668564D01*
Y2668010D01*
X2756228Y2667622D01*
X2756173Y2667179D01*
X2756117Y2666626D01*
X2756007Y2666017D01*
X2755896Y2665407D01*
X2755508Y2663968D01*
X2754955Y2662528D01*
X2754622Y2661808D01*
X2754235Y2661088D01*
X2753736Y2660424D01*
X2753183Y2659815D01*
X2753127Y2659759D01*
X2753072Y2659649D01*
X2752850Y2659538D01*
X2752629Y2659316D01*
X2752352Y2659040D01*
X2751965Y2658763D01*
X2751577Y2658486D01*
X2751079Y2658154D01*
X2750027Y2657600D01*
X2748698Y2657046D01*
X2748033Y2656825D01*
X2747258Y2656714D01*
X2746483Y2656603D01*
X2745652Y2656548D01*
X2745541D01*
X2745265D01*
X2744822Y2656603D01*
X2744212Y2656659D01*
X2743548Y2656769D01*
X2742773Y2656991D01*
X2741942Y2657212D01*
X2741112Y2657545D01*
X2741001Y2657600D01*
X2740724Y2657711D01*
X2740281Y2657932D01*
X2739672Y2658264D01*
X2739007Y2658707D01*
X2738177Y2659261D01*
X2737346Y2659926D01*
X2736405Y2660701D01*
X2736294Y2660812D01*
X2735962Y2661088D01*
X2735685Y2661365D01*
X2735408Y2661642D01*
X2735076Y2661974D01*
X2734633Y2662417D01*
X2734190Y2662860D01*
X2733692Y2663414D01*
X2733138Y2663968D01*
X2732529Y2664632D01*
X2731920Y2665352D01*
X2731200Y2666127D01*
X2730480Y2667013D01*
X2729705Y2667899D01*
X2729650Y2667955D01*
X2729539Y2668065D01*
X2729373Y2668287D01*
X2729151Y2668564D01*
X2728819Y2668896D01*
X2728487Y2669283D01*
X2727767Y2670169D01*
X2726936Y2671111D01*
X2726106Y2671997D01*
X2725386Y2672772D01*
X2725109Y2673104D01*
X2724832Y2673381D01*
X2724777Y2673436D01*
X2724611Y2673602D01*
X2724389Y2673824D01*
X2724057Y2674101D01*
X2723669Y2674378D01*
X2723282Y2674710D01*
X2722341Y2675374D01*
Y2656493D01*
X2717800D01*
Y2681908D01*
X2717855D01*
X2718077D01*
X2718409D01*
X2718852Y2681853D01*
D02*
G37*
G36*
X2738398Y2651398D02*
X2739063D01*
X2739783Y2651343D01*
X2740613Y2651288D01*
X2742330Y2651121D01*
X2744157Y2650845D01*
X2745984Y2650512D01*
X2746815Y2650291D01*
X2747646Y2650069D01*
X2747701D01*
X2747812Y2650014D01*
X2748033Y2649903D01*
X2748310Y2649793D01*
X2748698Y2649682D01*
X2749085Y2649460D01*
X2750027Y2649017D01*
X2751023Y2648464D01*
X2752075Y2647744D01*
X2753127Y2646913D01*
X2754013Y2645916D01*
Y2645861D01*
X2754124Y2645806D01*
X2754235Y2645640D01*
X2754346Y2645418D01*
X2754567Y2645141D01*
X2754733Y2644809D01*
X2755176Y2643978D01*
X2755564Y2642982D01*
X2755951Y2641819D01*
X2756173Y2640435D01*
X2756284Y2638940D01*
Y2638441D01*
X2756228Y2637832D01*
X2756117Y2637112D01*
X2755951Y2636282D01*
X2755730Y2635396D01*
X2755453Y2634454D01*
X2755010Y2633569D01*
Y2633513D01*
X2754955Y2633458D01*
X2754788Y2633181D01*
X2754512Y2632738D01*
X2754124Y2632184D01*
X2753570Y2631575D01*
X2752961Y2630911D01*
X2752241Y2630302D01*
X2751411Y2629692D01*
X2751300Y2629637D01*
X2751023Y2629416D01*
X2750525Y2629194D01*
X2749805Y2628807D01*
X2748974Y2628474D01*
X2748033Y2628031D01*
X2746926Y2627644D01*
X2745707Y2627311D01*
X2745652D01*
X2745541Y2627256D01*
X2745375Y2627201D01*
X2745098Y2627145D01*
X2744766Y2627090D01*
X2744379Y2627035D01*
X2743880Y2626924D01*
X2743326Y2626869D01*
X2742717Y2626758D01*
X2742053Y2626702D01*
X2741278Y2626647D01*
X2740503Y2626536D01*
X2739617Y2626481D01*
X2738731D01*
X2737734Y2626426D01*
X2736682D01*
X2736626D01*
X2736405D01*
X2736017D01*
X2735574D01*
X2734965Y2626481D01*
X2734301D01*
X2733581Y2626536D01*
X2732806Y2626592D01*
X2731034Y2626758D01*
X2729207Y2627035D01*
X2727435Y2627367D01*
X2726604Y2627588D01*
X2725774Y2627865D01*
X2725718D01*
X2725607Y2627921D01*
X2725386Y2628031D01*
X2725109Y2628142D01*
X2724721Y2628253D01*
X2724334Y2628474D01*
X2723393Y2628917D01*
X2722396Y2629471D01*
X2721288Y2630191D01*
X2720292Y2631021D01*
X2719350Y2632018D01*
Y2632073D01*
X2719240Y2632129D01*
X2719129Y2632295D01*
X2719018Y2632516D01*
X2718852Y2632793D01*
X2718631Y2633070D01*
X2718243Y2633901D01*
X2717855Y2634897D01*
X2717468Y2636060D01*
X2717246Y2637445D01*
X2717136Y2638940D01*
Y2639493D01*
X2717191Y2639881D01*
X2717246Y2640324D01*
X2717357Y2640878D01*
X2717468Y2641487D01*
X2717634Y2642151D01*
X2717855Y2642816D01*
X2718077Y2643535D01*
X2718409Y2644255D01*
X2718797Y2644975D01*
X2719240Y2645695D01*
X2719793Y2646415D01*
X2720402Y2647079D01*
X2721067Y2647688D01*
X2721122Y2647744D01*
X2721288Y2647854D01*
X2721565Y2648021D01*
X2722008Y2648297D01*
X2722507Y2648574D01*
X2723171Y2648851D01*
X2723946Y2649239D01*
X2724832Y2649571D01*
X2725829Y2649903D01*
X2726992Y2650235D01*
X2728265Y2650568D01*
X2729705Y2650845D01*
X2731255Y2651121D01*
X2732917Y2651288D01*
X2734744Y2651398D01*
X2736682Y2651454D01*
X2736737D01*
X2736959D01*
X2737346D01*
X2737789D01*
X2738398Y2651398D01*
D02*
G37*
G36*
X3035517Y2700126D02*
X3035462Y2699683D01*
Y2699184D01*
X3035407Y2698022D01*
X3035241Y2696803D01*
X3035074Y2695474D01*
X3034798Y2694256D01*
X3034631Y2693647D01*
X3034465Y2693149D01*
Y2693093D01*
X3034410Y2693038D01*
X3034244Y2692706D01*
X3034022Y2692207D01*
X3033635Y2691598D01*
X3033136Y2690934D01*
X3032472Y2690214D01*
X3031697Y2689550D01*
X3030811Y2688885D01*
X3030755D01*
X3030700Y2688830D01*
X3030368Y2688608D01*
X3029814Y2688387D01*
X3029094Y2688055D01*
X3028264Y2687778D01*
X3027267Y2687501D01*
X3026215Y2687335D01*
X3025052Y2687279D01*
X3024997D01*
X3024886D01*
X3024665D01*
X3024388Y2687335D01*
X3024000D01*
X3023612Y2687390D01*
X3022671Y2687612D01*
X3021564Y2687944D01*
X3020401Y2688387D01*
X3019238Y2689051D01*
X3018684Y2689494D01*
X3018131Y2689937D01*
X3018075Y2689993D01*
X3018020Y2690048D01*
X3017854Y2690214D01*
X3017688Y2690436D01*
X3017466Y2690712D01*
X3017245Y2691045D01*
X3016968Y2691488D01*
X3016636Y2691931D01*
X3016359Y2692484D01*
X3016082Y2693093D01*
X3015750Y2693758D01*
X3015473Y2694478D01*
X3015251Y2695308D01*
X3014974Y2696139D01*
X3014808Y2697080D01*
X3014642Y2698077D01*
X3014587Y2697966D01*
X3014476Y2697745D01*
X3014255Y2697412D01*
X3014033Y2696969D01*
X3013424Y2695973D01*
X3013036Y2695474D01*
X3012704Y2695031D01*
X3012593Y2694921D01*
X3012317Y2694644D01*
X3011874Y2694201D01*
X3011320Y2693647D01*
X3010545Y2693038D01*
X3009714Y2692318D01*
X3008717Y2691598D01*
X3007610Y2690823D01*
X2997200Y2684234D01*
Y2690546D01*
X3005174Y2695585D01*
X3005229D01*
X3005340Y2695696D01*
X3005506Y2695807D01*
X3005727Y2695973D01*
X3006336Y2696360D01*
X3007112Y2696859D01*
X3007942Y2697468D01*
X3008828Y2698077D01*
X3009659Y2698686D01*
X3010434Y2699240D01*
X3010489Y2699295D01*
X3010711Y2699461D01*
X3011043Y2699738D01*
X3011431Y2700126D01*
X3012261Y2700956D01*
X3012649Y2701399D01*
X3012981Y2701842D01*
X3013036Y2701898D01*
X3013092Y2702008D01*
X3013203Y2702230D01*
X3013369Y2702562D01*
X3013535Y2702894D01*
X3013701Y2703282D01*
X3013978Y2704168D01*
Y2704223D01*
X3014033Y2704334D01*
Y2704555D01*
X3014088Y2704832D01*
X3014144Y2705220D01*
Y2705663D01*
X3014199Y2706272D01*
Y2712806D01*
X2997200D01*
Y2717900D01*
X3035517D01*
Y2700126D01*
D02*
G37*
G36*
X3026049Y2677589D02*
X3026160Y2677479D01*
X3026215Y2677257D01*
X3026381Y2676980D01*
X3026547Y2676648D01*
X3026769Y2676260D01*
X3027322Y2675319D01*
X3027931Y2674212D01*
X3028707Y2673104D01*
X3029593Y2671941D01*
X3030534Y2670779D01*
X3030589Y2670723D01*
X3030645Y2670668D01*
X3030811Y2670502D01*
X3030977Y2670280D01*
X3031531Y2669782D01*
X3032195Y2669117D01*
X3032970Y2668453D01*
X3033856Y2667733D01*
X3034742Y2667124D01*
X3035684Y2666570D01*
Y2663525D01*
X2997200D01*
Y2668231D01*
X3027156D01*
X3027101Y2668287D01*
X3026879Y2668564D01*
X3026547Y2668896D01*
X3026160Y2669450D01*
X3025661Y2670059D01*
X3025107Y2670834D01*
X3024498Y2671720D01*
X3023889Y2672717D01*
Y2672772D01*
X3023834Y2672827D01*
X3023612Y2673160D01*
X3023336Y2673713D01*
X3023003Y2674378D01*
X3022616Y2675153D01*
X3022228Y2675983D01*
X3021841Y2676814D01*
X3021508Y2677645D01*
X3026049D01*
Y2677589D01*
D02*
G37*
G36*
X3023668Y2651398D02*
X3024166Y2651343D01*
X3024775Y2651288D01*
X3025384Y2651177D01*
X3026104Y2651011D01*
X3027544Y2650623D01*
X3028319Y2650346D01*
X3029150Y2650014D01*
X3029925Y2649626D01*
X3030645Y2649128D01*
X3031420Y2648630D01*
X3032084Y2648021D01*
X3032140Y2647965D01*
X3032250Y2647854D01*
X3032417Y2647688D01*
X3032638Y2647412D01*
X3032915Y2647079D01*
X3033247Y2646636D01*
X3033524Y2646193D01*
X3033912Y2645640D01*
X3034244Y2645086D01*
X3034521Y2644421D01*
X3035130Y2642926D01*
X3035351Y2642151D01*
X3035517Y2641265D01*
X3035628Y2640379D01*
X3035684Y2639438D01*
Y2639050D01*
X3035628Y2638773D01*
Y2638497D01*
X3035573Y2638109D01*
X3035407Y2637168D01*
X3035185Y2636116D01*
X3034798Y2634953D01*
X3034299Y2633790D01*
X3033635Y2632627D01*
Y2632572D01*
X3033524Y2632516D01*
X3033413Y2632350D01*
X3033247Y2632129D01*
X3032804Y2631575D01*
X3032195Y2630855D01*
X3031365Y2630135D01*
X3030368Y2629305D01*
X3029205Y2628585D01*
X3027876Y2627921D01*
X3027821D01*
X3027710Y2627865D01*
X3027488Y2627754D01*
X3027212Y2627644D01*
X3026824Y2627533D01*
X3026326Y2627367D01*
X3025772Y2627256D01*
X3025163Y2627090D01*
X3024443Y2626924D01*
X3023612Y2626758D01*
X3022726Y2626647D01*
X3021785Y2626536D01*
X3020733Y2626426D01*
X3019626Y2626315D01*
X3018407Y2626259D01*
X3017134D01*
X3017079D01*
X3016802D01*
X3016414D01*
X3015916D01*
X3015307Y2626315D01*
X3014587D01*
X3013756Y2626370D01*
X3012926Y2626481D01*
X3011043Y2626647D01*
X3009050Y2626924D01*
X3007167Y2627311D01*
X3006226Y2627588D01*
X3005395Y2627865D01*
X3005340D01*
X3005229Y2627921D01*
X3005007Y2628031D01*
X3004675Y2628142D01*
X3004343Y2628308D01*
X3003900Y2628530D01*
X3002959Y2629083D01*
X3001907Y2629748D01*
X3000799Y2630523D01*
X2999747Y2631520D01*
X2998806Y2632627D01*
Y2632683D01*
X2998695Y2632793D01*
X2998584Y2632959D01*
X2998474Y2633181D01*
X2998307Y2633513D01*
X2998086Y2633845D01*
X2997864Y2634288D01*
X2997698Y2634731D01*
X2997255Y2635783D01*
X2996868Y2637057D01*
X2996646Y2638441D01*
X2996536Y2639992D01*
Y2640435D01*
X2996591Y2640712D01*
Y2641099D01*
X2996646Y2641542D01*
X2996868Y2642594D01*
X2997145Y2643757D01*
X2997588Y2644975D01*
X2998197Y2646193D01*
X2998584Y2646802D01*
X2999027Y2647356D01*
X2999083Y2647412D01*
X2999138Y2647467D01*
X2999304Y2647633D01*
X2999470Y2647799D01*
X2999747Y2648021D01*
X3000079Y2648297D01*
X3000855Y2648851D01*
X3001851Y2649405D01*
X3003069Y2649959D01*
X3004454Y2650402D01*
X3006060Y2650734D01*
X3006447Y2646193D01*
X3006392D01*
X3006281Y2646138D01*
X3006170D01*
X3005949Y2646083D01*
X3005340Y2645916D01*
X3004675Y2645695D01*
X3003900Y2645418D01*
X3003125Y2645031D01*
X3002405Y2644588D01*
X3001796Y2644034D01*
X3001741Y2643978D01*
X3001574Y2643757D01*
X3001353Y2643369D01*
X3001131Y2642926D01*
X3000855Y2642317D01*
X3000633Y2641597D01*
X3000467Y2640767D01*
X3000412Y2639881D01*
Y2639493D01*
X3000467Y2639106D01*
X3000522Y2638607D01*
X3000633Y2637998D01*
X3000799Y2637389D01*
X3001021Y2636725D01*
X3001353Y2636116D01*
X3001408Y2636060D01*
X3001519Y2635839D01*
X3001741Y2635507D01*
X3002073Y2635174D01*
X3002460Y2634731D01*
X3002903Y2634288D01*
X3003402Y2633845D01*
X3004011Y2633402D01*
X3004066Y2633347D01*
X3004343Y2633236D01*
X3004731Y2633015D01*
X3005229Y2632793D01*
X3005893Y2632516D01*
X3006669Y2632240D01*
X3007555Y2631963D01*
X3008551Y2631686D01*
X3008607D01*
X3008662Y2631630D01*
X3008828D01*
X3009050Y2631575D01*
X3009603Y2631464D01*
X3010323Y2631298D01*
X3011209Y2631188D01*
X3012150Y2631077D01*
X3013203Y2631021D01*
X3014310Y2630966D01*
X3014365D01*
X3014531D01*
X3014808D01*
X3015251D01*
X3015141Y2631021D01*
X3014864Y2631243D01*
X3014476Y2631575D01*
X3013922Y2631963D01*
X3013369Y2632516D01*
X3012760Y2633181D01*
X3012150Y2633956D01*
X3011597Y2634842D01*
X3011541Y2634953D01*
X3011375Y2635285D01*
X3011154Y2635783D01*
X3010932Y2636392D01*
X3010655Y2637223D01*
X3010434Y2638109D01*
X3010268Y2639106D01*
X3010212Y2640158D01*
Y2640601D01*
X3010268Y2640933D01*
X3010323Y2641376D01*
X3010379Y2641819D01*
X3010489Y2642373D01*
X3010655Y2642926D01*
X3011043Y2644200D01*
X3011320Y2644864D01*
X3011652Y2645529D01*
X3012040Y2646249D01*
X3012538Y2646913D01*
X3013036Y2647578D01*
X3013645Y2648187D01*
X3013701Y2648242D01*
X3013812Y2648353D01*
X3013978Y2648464D01*
X3014255Y2648685D01*
X3014642Y2648962D01*
X3015030Y2649239D01*
X3015528Y2649516D01*
X3016082Y2649793D01*
X3016691Y2650125D01*
X3017355Y2650402D01*
X3018131Y2650678D01*
X3018906Y2650955D01*
X3019792Y2651177D01*
X3020733Y2651288D01*
X3021674Y2651398D01*
X3022726Y2651454D01*
X3022782D01*
X3023003D01*
X3023280D01*
X3023668Y2651398D01*
D02*
G37*
G36*
X3899117Y2712726D02*
X3899062Y2712283D01*
Y2711784D01*
X3899007Y2710621D01*
X3898841Y2709403D01*
X3898674Y2708074D01*
X3898398Y2706856D01*
X3898231Y2706247D01*
X3898065Y2705749D01*
Y2705693D01*
X3898010Y2705638D01*
X3897844Y2705306D01*
X3897622Y2704807D01*
X3897235Y2704198D01*
X3896736Y2703534D01*
X3896072Y2702814D01*
X3895297Y2702150D01*
X3894411Y2701485D01*
X3894355D01*
X3894300Y2701430D01*
X3893968Y2701208D01*
X3893414Y2700987D01*
X3892694Y2700654D01*
X3891864Y2700378D01*
X3890867Y2700101D01*
X3889815Y2699935D01*
X3888652Y2699879D01*
X3888597D01*
X3888486D01*
X3888265D01*
X3887988Y2699935D01*
X3887600D01*
X3887212Y2699990D01*
X3886271Y2700212D01*
X3885164Y2700544D01*
X3884001Y2700987D01*
X3882838Y2701651D01*
X3882284Y2702094D01*
X3881731Y2702537D01*
X3881675Y2702593D01*
X3881620Y2702648D01*
X3881454Y2702814D01*
X3881288Y2703035D01*
X3881066Y2703312D01*
X3880845Y2703645D01*
X3880568Y2704088D01*
X3880236Y2704531D01*
X3879959Y2705084D01*
X3879682Y2705693D01*
X3879350Y2706358D01*
X3879073Y2707078D01*
X3878851Y2707908D01*
X3878574Y2708739D01*
X3878408Y2709680D01*
X3878242Y2710677D01*
X3878187Y2710566D01*
X3878076Y2710345D01*
X3877855Y2710012D01*
X3877633Y2709569D01*
X3877024Y2708573D01*
X3876636Y2708074D01*
X3876304Y2707631D01*
X3876193Y2707521D01*
X3875917Y2707244D01*
X3875474Y2706801D01*
X3874920Y2706247D01*
X3874145Y2705638D01*
X3873314Y2704918D01*
X3872317Y2704198D01*
X3871210Y2703423D01*
X3860800Y2696834D01*
Y2703146D01*
X3868774Y2708185D01*
X3868829D01*
X3868940Y2708296D01*
X3869106Y2708407D01*
X3869327Y2708573D01*
X3869936Y2708960D01*
X3870712Y2709459D01*
X3871542Y2710068D01*
X3872428Y2710677D01*
X3873259Y2711286D01*
X3874034Y2711840D01*
X3874089Y2711895D01*
X3874311Y2712061D01*
X3874643Y2712338D01*
X3875031Y2712726D01*
X3875861Y2713556D01*
X3876249Y2713999D01*
X3876581Y2714442D01*
X3876636Y2714497D01*
X3876692Y2714608D01*
X3876803Y2714830D01*
X3876969Y2715162D01*
X3877135Y2715494D01*
X3877301Y2715882D01*
X3877578Y2716768D01*
Y2716823D01*
X3877633Y2716934D01*
Y2717155D01*
X3877688Y2717432D01*
X3877744Y2717820D01*
Y2718263D01*
X3877799Y2718872D01*
Y2725406D01*
X3860800D01*
Y2730500D01*
X3899117D01*
Y2712726D01*
D02*
G37*
G36*
X3889649Y2690189D02*
X3889760Y2690078D01*
X3889815Y2689857D01*
X3889981Y2689580D01*
X3890147Y2689248D01*
X3890369Y2688860D01*
X3890922Y2687919D01*
X3891531Y2686811D01*
X3892307Y2685704D01*
X3893193Y2684541D01*
X3894134Y2683378D01*
X3894189Y2683323D01*
X3894245Y2683268D01*
X3894411Y2683102D01*
X3894577Y2682880D01*
X3895131Y2682382D01*
X3895795Y2681717D01*
X3896570Y2681053D01*
X3897456Y2680333D01*
X3898342Y2679724D01*
X3899284Y2679170D01*
Y2676125D01*
X3860800D01*
Y2680831D01*
X3890756D01*
X3890701Y2680887D01*
X3890479Y2681164D01*
X3890147Y2681496D01*
X3889760Y2682050D01*
X3889261Y2682659D01*
X3888707Y2683434D01*
X3888098Y2684320D01*
X3887489Y2685316D01*
Y2685372D01*
X3887434Y2685427D01*
X3887212Y2685759D01*
X3886936Y2686313D01*
X3886603Y2686978D01*
X3886216Y2687753D01*
X3885828Y2688583D01*
X3885441Y2689414D01*
X3885108Y2690245D01*
X3889649D01*
Y2690189D01*
D02*
G37*
G36*
X3898619Y2638915D02*
X3894909D01*
X3894854Y2638970D01*
X3894743Y2639081D01*
X3894522Y2639302D01*
X3894189Y2639524D01*
X3893802Y2639856D01*
X3893359Y2640299D01*
X3892805Y2640742D01*
X3892141Y2641240D01*
X3891476Y2641739D01*
X3890701Y2642348D01*
X3889815Y2642957D01*
X3888929Y2643566D01*
X3887932Y2644230D01*
X3886880Y2644895D01*
X3885717Y2645559D01*
X3884555Y2646224D01*
X3884499Y2646279D01*
X3884278Y2646390D01*
X3883945Y2646556D01*
X3883447Y2646833D01*
X3882838Y2647110D01*
X3882174Y2647442D01*
X3881398Y2647830D01*
X3880512Y2648217D01*
X3879516Y2648660D01*
X3878519Y2649159D01*
X3877412Y2649602D01*
X3876249Y2650044D01*
X3873868Y2650930D01*
X3871321Y2651761D01*
X3871265D01*
X3871099Y2651816D01*
X3870822Y2651872D01*
X3870490Y2651983D01*
X3870047Y2652093D01*
X3869493Y2652204D01*
X3868884Y2652370D01*
X3868220Y2652481D01*
X3867445Y2652647D01*
X3866614Y2652813D01*
X3864842Y2653090D01*
X3862904Y2653367D01*
X3860800Y2653533D01*
Y2658350D01*
X3860855D01*
X3861021D01*
X3861243D01*
X3861575Y2658295D01*
X3862018D01*
X3862572Y2658240D01*
X3863181Y2658184D01*
X3863845Y2658129D01*
X3864621Y2658018D01*
X3865396Y2657907D01*
X3866337Y2657741D01*
X3867279Y2657575D01*
X3868275Y2657409D01*
X3869383Y2657187D01*
X3871653Y2656634D01*
X3871708D01*
X3871930Y2656578D01*
X3872262Y2656468D01*
X3872760Y2656302D01*
X3873314Y2656135D01*
X3873979Y2655914D01*
X3874754Y2655692D01*
X3875584Y2655360D01*
X3876526Y2655028D01*
X3877467Y2654696D01*
X3879571Y2653865D01*
X3881786Y2652868D01*
X3884001Y2651761D01*
X3884056Y2651706D01*
X3884278Y2651595D01*
X3884555Y2651429D01*
X3884998Y2651207D01*
X3885496Y2650930D01*
X3886105Y2650543D01*
X3886769Y2650155D01*
X3887489Y2649712D01*
X3889095Y2648660D01*
X3890756Y2647553D01*
X3892473Y2646279D01*
X3894079Y2644950D01*
Y2663721D01*
X3898619D01*
Y2638915D01*
D02*
G37*
G36*
X4191217Y2712726D02*
X4191162Y2712283D01*
Y2711784D01*
X4191107Y2710621D01*
X4190941Y2709403D01*
X4190774Y2708074D01*
X4190498Y2706856D01*
X4190331Y2706247D01*
X4190165Y2705749D01*
Y2705693D01*
X4190110Y2705638D01*
X4189944Y2705306D01*
X4189722Y2704807D01*
X4189335Y2704198D01*
X4188836Y2703534D01*
X4188172Y2702814D01*
X4187397Y2702150D01*
X4186511Y2701485D01*
X4186455D01*
X4186400Y2701430D01*
X4186068Y2701208D01*
X4185514Y2700987D01*
X4184794Y2700654D01*
X4183964Y2700378D01*
X4182967Y2700101D01*
X4181915Y2699935D01*
X4180752Y2699879D01*
X4180697D01*
X4180586D01*
X4180365D01*
X4180088Y2699935D01*
X4179700D01*
X4179312Y2699990D01*
X4178371Y2700212D01*
X4177264Y2700544D01*
X4176101Y2700987D01*
X4174938Y2701651D01*
X4174384Y2702094D01*
X4173831Y2702537D01*
X4173775Y2702593D01*
X4173720Y2702648D01*
X4173554Y2702814D01*
X4173388Y2703035D01*
X4173166Y2703312D01*
X4172945Y2703645D01*
X4172668Y2704088D01*
X4172336Y2704531D01*
X4172059Y2705084D01*
X4171782Y2705693D01*
X4171450Y2706358D01*
X4171173Y2707078D01*
X4170951Y2707908D01*
X4170674Y2708739D01*
X4170508Y2709680D01*
X4170342Y2710677D01*
X4170287Y2710566D01*
X4170176Y2710345D01*
X4169955Y2710012D01*
X4169733Y2709569D01*
X4169124Y2708573D01*
X4168736Y2708074D01*
X4168404Y2707631D01*
X4168293Y2707521D01*
X4168017Y2707244D01*
X4167574Y2706801D01*
X4167020Y2706247D01*
X4166245Y2705638D01*
X4165414Y2704918D01*
X4164417Y2704198D01*
X4163310Y2703423D01*
X4152900Y2696834D01*
Y2703146D01*
X4160874Y2708185D01*
X4160929D01*
X4161040Y2708296D01*
X4161206Y2708407D01*
X4161427Y2708573D01*
X4162036Y2708960D01*
X4162812Y2709459D01*
X4163642Y2710068D01*
X4164528Y2710677D01*
X4165359Y2711286D01*
X4166134Y2711840D01*
X4166189Y2711895D01*
X4166411Y2712061D01*
X4166743Y2712338D01*
X4167131Y2712726D01*
X4167961Y2713556D01*
X4168349Y2713999D01*
X4168681Y2714442D01*
X4168736Y2714497D01*
X4168792Y2714608D01*
X4168903Y2714830D01*
X4169069Y2715162D01*
X4169235Y2715494D01*
X4169401Y2715882D01*
X4169678Y2716768D01*
Y2716823D01*
X4169733Y2716934D01*
Y2717155D01*
X4169788Y2717432D01*
X4169844Y2717820D01*
Y2718263D01*
X4169899Y2718872D01*
Y2725406D01*
X4152900D01*
Y2730500D01*
X4191217D01*
Y2712726D01*
D02*
G37*
G36*
X4181749Y2690189D02*
X4181860Y2690078D01*
X4181915Y2689857D01*
X4182081Y2689580D01*
X4182247Y2689248D01*
X4182469Y2688860D01*
X4183022Y2687919D01*
X4183631Y2686811D01*
X4184407Y2685704D01*
X4185293Y2684541D01*
X4186234Y2683378D01*
X4186289Y2683323D01*
X4186345Y2683268D01*
X4186511Y2683102D01*
X4186677Y2682880D01*
X4187231Y2682382D01*
X4187895Y2681717D01*
X4188670Y2681053D01*
X4189556Y2680333D01*
X4190442Y2679724D01*
X4191384Y2679170D01*
Y2676125D01*
X4152900D01*
Y2680831D01*
X4182856D01*
X4182801Y2680887D01*
X4182579Y2681164D01*
X4182247Y2681496D01*
X4181860Y2682050D01*
X4181361Y2682659D01*
X4180807Y2683434D01*
X4180198Y2684320D01*
X4179589Y2685316D01*
Y2685372D01*
X4179534Y2685427D01*
X4179312Y2685759D01*
X4179036Y2686313D01*
X4178703Y2686978D01*
X4178316Y2687753D01*
X4177928Y2688583D01*
X4177541Y2689414D01*
X4177208Y2690245D01*
X4181749D01*
Y2690189D01*
D02*
G37*
G36*
X4164528Y2664054D02*
X4164860D01*
X4165248Y2663998D01*
X4166134Y2663887D01*
X4167131Y2663666D01*
X4168127Y2663334D01*
X4169179Y2662835D01*
X4170176Y2662226D01*
X4170231D01*
X4170287Y2662116D01*
X4170564Y2661894D01*
X4171007Y2661451D01*
X4171560Y2660842D01*
X4172114Y2660067D01*
X4172723Y2659125D01*
X4173222Y2658073D01*
X4173609Y2656800D01*
Y2656855D01*
X4173665Y2656911D01*
X4173720Y2657077D01*
X4173831Y2657298D01*
X4174052Y2657797D01*
X4174384Y2658461D01*
X4174827Y2659181D01*
X4175381Y2659901D01*
X4175990Y2660565D01*
X4176655Y2661174D01*
X4176765Y2661230D01*
X4176987Y2661396D01*
X4177430Y2661617D01*
X4177984Y2661839D01*
X4178703Y2662116D01*
X4179534Y2662337D01*
X4180475Y2662503D01*
X4181472Y2662559D01*
X4181527D01*
X4181638D01*
X4181860D01*
X4182192Y2662503D01*
X4182524Y2662448D01*
X4182967Y2662392D01*
X4183908Y2662171D01*
X4185016Y2661839D01*
X4186179Y2661285D01*
X4186788Y2660953D01*
X4187397Y2660565D01*
X4187950Y2660067D01*
X4188504Y2659568D01*
X4188560Y2659513D01*
X4188615Y2659402D01*
X4188781Y2659236D01*
X4188947Y2659015D01*
X4189169Y2658738D01*
X4189390Y2658350D01*
X4189667Y2657907D01*
X4189944Y2657464D01*
X4190221Y2656911D01*
X4190498Y2656302D01*
X4190719Y2655637D01*
X4190941Y2654917D01*
X4191273Y2653367D01*
X4191328Y2652481D01*
X4191384Y2651595D01*
Y2651097D01*
X4191328Y2650764D01*
X4191273Y2650321D01*
X4191217Y2649823D01*
X4191162Y2649269D01*
X4190996Y2648716D01*
X4190664Y2647387D01*
X4190165Y2646058D01*
X4189833Y2645393D01*
X4189446Y2644729D01*
X4188947Y2644120D01*
X4188449Y2643511D01*
X4188393Y2643455D01*
X4188338Y2643400D01*
X4188172Y2643234D01*
X4187950Y2643012D01*
X4187618Y2642791D01*
X4187286Y2642514D01*
X4186455Y2641960D01*
X4185403Y2641406D01*
X4184185Y2640908D01*
X4182801Y2640520D01*
X4182081Y2640465D01*
X4181306Y2640410D01*
X4181250D01*
X4181195D01*
X4180863D01*
X4180365Y2640465D01*
X4179755Y2640576D01*
X4178980Y2640742D01*
X4178205Y2641019D01*
X4177430Y2641351D01*
X4176655Y2641849D01*
X4176544Y2641905D01*
X4176322Y2642126D01*
X4175990Y2642459D01*
X4175547Y2642901D01*
X4175049Y2643511D01*
X4174550Y2644230D01*
X4174052Y2645061D01*
X4173609Y2646058D01*
Y2646002D01*
X4173554Y2645892D01*
X4173498Y2645725D01*
X4173388Y2645504D01*
X4173111Y2644840D01*
X4172723Y2644064D01*
X4172169Y2643234D01*
X4171560Y2642348D01*
X4170785Y2641517D01*
X4169899Y2640742D01*
X4169844D01*
X4169788Y2640687D01*
X4169456Y2640465D01*
X4168903Y2640133D01*
X4168183Y2639801D01*
X4167297Y2639468D01*
X4166245Y2639136D01*
X4165082Y2638915D01*
X4163808Y2638859D01*
X4163753D01*
X4163587D01*
X4163310D01*
X4162978Y2638915D01*
X4162590Y2638970D01*
X4162092Y2639025D01*
X4161538Y2639136D01*
X4160929Y2639302D01*
X4159655Y2639690D01*
X4158936Y2639967D01*
X4158271Y2640354D01*
X4157551Y2640742D01*
X4156887Y2641185D01*
X4156222Y2641739D01*
X4155558Y2642348D01*
X4155502Y2642403D01*
X4155392Y2642514D01*
X4155226Y2642680D01*
X4155060Y2642957D01*
X4154783Y2643344D01*
X4154506Y2643732D01*
X4154229Y2644230D01*
X4153897Y2644784D01*
X4153564Y2645393D01*
X4153288Y2646113D01*
X4153011Y2646888D01*
X4152734Y2647663D01*
X4152568Y2648549D01*
X4152402Y2649491D01*
X4152291Y2650432D01*
X4152236Y2651484D01*
Y2652038D01*
X4152291Y2652425D01*
X4152346Y2652924D01*
X4152402Y2653478D01*
X4152512Y2654087D01*
X4152679Y2654751D01*
X4153066Y2656246D01*
X4153343Y2657021D01*
X4153620Y2657741D01*
X4154007Y2658516D01*
X4154450Y2659292D01*
X4154949Y2660011D01*
X4155558Y2660676D01*
X4155613Y2660731D01*
X4155724Y2660842D01*
X4155890Y2661008D01*
X4156167Y2661230D01*
X4156499Y2661451D01*
X4156887Y2661783D01*
X4157330Y2662060D01*
X4157883Y2662392D01*
X4158437Y2662725D01*
X4159102Y2663002D01*
X4160486Y2663555D01*
X4161317Y2663777D01*
X4162147Y2663943D01*
X4163033Y2664054D01*
X4163919Y2664109D01*
X4163974D01*
X4164085D01*
X4164307D01*
X4164528Y2664054D01*
D02*
G37*
G36*
X3581617Y2700026D02*
X3581562Y2699583D01*
Y2699084D01*
X3581507Y2697921D01*
X3581341Y2696703D01*
X3581174Y2695374D01*
X3580898Y2694156D01*
X3580731Y2693547D01*
X3580565Y2693049D01*
Y2692993D01*
X3580510Y2692938D01*
X3580344Y2692606D01*
X3580122Y2692107D01*
X3579735Y2691498D01*
X3579236Y2690834D01*
X3578572Y2690114D01*
X3577797Y2689450D01*
X3576911Y2688785D01*
X3576855D01*
X3576800Y2688730D01*
X3576468Y2688508D01*
X3575914Y2688287D01*
X3575194Y2687954D01*
X3574364Y2687678D01*
X3573367Y2687401D01*
X3572315Y2687235D01*
X3571152Y2687179D01*
X3571097D01*
X3570986D01*
X3570765D01*
X3570488Y2687235D01*
X3570100D01*
X3569712Y2687290D01*
X3568771Y2687512D01*
X3567664Y2687844D01*
X3566501Y2688287D01*
X3565338Y2688951D01*
X3564784Y2689394D01*
X3564231Y2689837D01*
X3564175Y2689893D01*
X3564120Y2689948D01*
X3563954Y2690114D01*
X3563788Y2690335D01*
X3563566Y2690612D01*
X3563345Y2690945D01*
X3563068Y2691388D01*
X3562736Y2691831D01*
X3562459Y2692384D01*
X3562182Y2692993D01*
X3561850Y2693658D01*
X3561573Y2694378D01*
X3561351Y2695208D01*
X3561074Y2696039D01*
X3560908Y2696980D01*
X3560742Y2697977D01*
X3560687Y2697866D01*
X3560576Y2697645D01*
X3560355Y2697312D01*
X3560133Y2696869D01*
X3559524Y2695873D01*
X3559136Y2695374D01*
X3558804Y2694931D01*
X3558693Y2694821D01*
X3558417Y2694544D01*
X3557974Y2694101D01*
X3557420Y2693547D01*
X3556645Y2692938D01*
X3555814Y2692218D01*
X3554817Y2691498D01*
X3553710Y2690723D01*
X3543300Y2684134D01*
Y2690446D01*
X3551274Y2695485D01*
X3551329D01*
X3551440Y2695596D01*
X3551606Y2695707D01*
X3551827Y2695873D01*
X3552436Y2696260D01*
X3553212Y2696759D01*
X3554042Y2697368D01*
X3554928Y2697977D01*
X3555759Y2698586D01*
X3556534Y2699140D01*
X3556589Y2699195D01*
X3556811Y2699361D01*
X3557143Y2699638D01*
X3557531Y2700026D01*
X3558361Y2700856D01*
X3558749Y2701299D01*
X3559081Y2701742D01*
X3559136Y2701797D01*
X3559192Y2701908D01*
X3559303Y2702130D01*
X3559469Y2702462D01*
X3559635Y2702794D01*
X3559801Y2703182D01*
X3560078Y2704068D01*
Y2704123D01*
X3560133Y2704234D01*
Y2704455D01*
X3560188Y2704732D01*
X3560244Y2705120D01*
Y2705563D01*
X3560299Y2706172D01*
Y2712706D01*
X3543300D01*
Y2717800D01*
X3581617D01*
Y2700026D01*
D02*
G37*
G36*
X3544352Y2681753D02*
X3544850Y2681697D01*
X3545404Y2681587D01*
X3545958Y2681476D01*
X3546567Y2681254D01*
X3546622D01*
X3546678Y2681199D01*
X3547010Y2681088D01*
X3547508Y2680867D01*
X3548173Y2680535D01*
X3548948Y2680092D01*
X3549834Y2679538D01*
X3550720Y2678929D01*
X3551661Y2678154D01*
X3551717D01*
X3551772Y2678043D01*
X3552104Y2677766D01*
X3552602Y2677268D01*
X3553322Y2676548D01*
X3554153Y2675717D01*
X3555150Y2674665D01*
X3556257Y2673392D01*
X3557420Y2672007D01*
X3557475Y2671952D01*
X3557641Y2671730D01*
X3557918Y2671398D01*
X3558250Y2671011D01*
X3558693Y2670512D01*
X3559192Y2669903D01*
X3559745Y2669294D01*
X3560355Y2668574D01*
X3561684Y2667190D01*
X3563012Y2665806D01*
X3563677Y2665141D01*
X3564341Y2664532D01*
X3564950Y2663978D01*
X3565560Y2663535D01*
X3565615D01*
X3565670Y2663425D01*
X3565836Y2663314D01*
X3566058Y2663203D01*
X3566667Y2662816D01*
X3567387Y2662373D01*
X3568273Y2661985D01*
X3569214Y2661597D01*
X3570266Y2661376D01*
X3571263Y2661265D01*
X3571318D01*
X3571374D01*
X3571706Y2661321D01*
X3572260Y2661376D01*
X3572869Y2661542D01*
X3573644Y2661764D01*
X3574419Y2662151D01*
X3575194Y2662649D01*
X3575969Y2663314D01*
X3576080Y2663425D01*
X3576302Y2663702D01*
X3576579Y2664089D01*
X3576966Y2664698D01*
X3577298Y2665473D01*
X3577631Y2666359D01*
X3577852Y2667411D01*
X3577907Y2668574D01*
Y2668907D01*
X3577852Y2669128D01*
X3577797Y2669792D01*
X3577631Y2670568D01*
X3577409Y2671398D01*
X3577022Y2672340D01*
X3576523Y2673226D01*
X3575859Y2674056D01*
X3575748Y2674167D01*
X3575471Y2674388D01*
X3575028Y2674721D01*
X3574364Y2675053D01*
X3573588Y2675440D01*
X3572592Y2675773D01*
X3571484Y2675994D01*
X3570211Y2676105D01*
X3570709Y2680922D01*
X3570765D01*
X3570931Y2680867D01*
X3571207D01*
X3571595Y2680812D01*
X3572038Y2680701D01*
X3572536Y2680590D01*
X3573146Y2680424D01*
X3573755Y2680258D01*
X3575084Y2679815D01*
X3576412Y2679150D01*
X3577077Y2678763D01*
X3577741Y2678264D01*
X3578350Y2677766D01*
X3578904Y2677212D01*
X3578960Y2677157D01*
X3579015Y2677046D01*
X3579181Y2676880D01*
X3579347Y2676603D01*
X3579569Y2676271D01*
X3579790Y2675883D01*
X3580067Y2675440D01*
X3580344Y2674887D01*
X3580621Y2674278D01*
X3580898Y2673613D01*
X3581119Y2672893D01*
X3581341Y2672118D01*
X3581507Y2671288D01*
X3581673Y2670402D01*
X3581728Y2669460D01*
X3581784Y2668464D01*
Y2667910D01*
X3581728Y2667522D01*
X3581673Y2667079D01*
X3581617Y2666526D01*
X3581507Y2665916D01*
X3581396Y2665307D01*
X3581008Y2663868D01*
X3580455Y2662428D01*
X3580122Y2661708D01*
X3579735Y2660988D01*
X3579236Y2660324D01*
X3578683Y2659715D01*
X3578627Y2659659D01*
X3578572Y2659549D01*
X3578350Y2659438D01*
X3578129Y2659216D01*
X3577852Y2658940D01*
X3577465Y2658663D01*
X3577077Y2658386D01*
X3576579Y2658054D01*
X3575527Y2657500D01*
X3574198Y2656946D01*
X3573533Y2656725D01*
X3572758Y2656614D01*
X3571983Y2656503D01*
X3571152Y2656448D01*
X3571041D01*
X3570765D01*
X3570322Y2656503D01*
X3569712Y2656559D01*
X3569048Y2656669D01*
X3568273Y2656891D01*
X3567442Y2657112D01*
X3566612Y2657445D01*
X3566501Y2657500D01*
X3566224Y2657611D01*
X3565781Y2657832D01*
X3565172Y2658164D01*
X3564507Y2658607D01*
X3563677Y2659161D01*
X3562846Y2659826D01*
X3561905Y2660601D01*
X3561794Y2660711D01*
X3561462Y2660988D01*
X3561185Y2661265D01*
X3560908Y2661542D01*
X3560576Y2661874D01*
X3560133Y2662317D01*
X3559690Y2662760D01*
X3559192Y2663314D01*
X3558638Y2663868D01*
X3558029Y2664532D01*
X3557420Y2665252D01*
X3556700Y2666027D01*
X3555980Y2666913D01*
X3555205Y2667799D01*
X3555150Y2667854D01*
X3555039Y2667965D01*
X3554873Y2668187D01*
X3554651Y2668464D01*
X3554319Y2668796D01*
X3553987Y2669183D01*
X3553267Y2670069D01*
X3552436Y2671011D01*
X3551606Y2671897D01*
X3550886Y2672672D01*
X3550609Y2673004D01*
X3550332Y2673281D01*
X3550277Y2673336D01*
X3550111Y2673502D01*
X3549889Y2673724D01*
X3549557Y2674001D01*
X3549169Y2674278D01*
X3548782Y2674610D01*
X3547841Y2675274D01*
Y2656392D01*
X3543300D01*
Y2681808D01*
X3543355D01*
X3543577D01*
X3543909D01*
X3544352Y2681753D01*
D02*
G37*
G36*
Y2651963D02*
X3544850Y2651907D01*
X3545404Y2651797D01*
X3545958Y2651686D01*
X3546567Y2651464D01*
X3546622D01*
X3546678Y2651409D01*
X3547010Y2651298D01*
X3547508Y2651077D01*
X3548173Y2650745D01*
X3548948Y2650302D01*
X3549834Y2649748D01*
X3550720Y2649139D01*
X3551661Y2648364D01*
X3551717D01*
X3551772Y2648253D01*
X3552104Y2647976D01*
X3552602Y2647478D01*
X3553322Y2646758D01*
X3554153Y2645927D01*
X3555150Y2644875D01*
X3556257Y2643602D01*
X3557420Y2642217D01*
X3557475Y2642162D01*
X3557641Y2641940D01*
X3557918Y2641608D01*
X3558250Y2641221D01*
X3558693Y2640722D01*
X3559192Y2640113D01*
X3559745Y2639504D01*
X3560355Y2638784D01*
X3561684Y2637400D01*
X3563012Y2636016D01*
X3563677Y2635351D01*
X3564341Y2634742D01*
X3564950Y2634188D01*
X3565560Y2633745D01*
X3565615D01*
X3565670Y2633635D01*
X3565836Y2633524D01*
X3566058Y2633413D01*
X3566667Y2633025D01*
X3567387Y2632582D01*
X3568273Y2632195D01*
X3569214Y2631807D01*
X3570266Y2631586D01*
X3571263Y2631475D01*
X3571318D01*
X3571374D01*
X3571706Y2631530D01*
X3572260Y2631586D01*
X3572869Y2631752D01*
X3573644Y2631973D01*
X3574419Y2632361D01*
X3575194Y2632859D01*
X3575969Y2633524D01*
X3576080Y2633635D01*
X3576302Y2633911D01*
X3576579Y2634299D01*
X3576966Y2634908D01*
X3577298Y2635683D01*
X3577631Y2636569D01*
X3577852Y2637621D01*
X3577907Y2638784D01*
Y2639116D01*
X3577852Y2639338D01*
X3577797Y2640002D01*
X3577631Y2640778D01*
X3577409Y2641608D01*
X3577022Y2642549D01*
X3576523Y2643435D01*
X3575859Y2644266D01*
X3575748Y2644377D01*
X3575471Y2644598D01*
X3575028Y2644930D01*
X3574364Y2645263D01*
X3573588Y2645650D01*
X3572592Y2645983D01*
X3571484Y2646204D01*
X3570211Y2646315D01*
X3570709Y2651132D01*
X3570765D01*
X3570931Y2651077D01*
X3571207D01*
X3571595Y2651021D01*
X3572038Y2650911D01*
X3572536Y2650800D01*
X3573146Y2650634D01*
X3573755Y2650468D01*
X3575084Y2650025D01*
X3576412Y2649360D01*
X3577077Y2648973D01*
X3577741Y2648474D01*
X3578350Y2647976D01*
X3578904Y2647422D01*
X3578960Y2647367D01*
X3579015Y2647256D01*
X3579181Y2647090D01*
X3579347Y2646813D01*
X3579569Y2646481D01*
X3579790Y2646093D01*
X3580067Y2645650D01*
X3580344Y2645097D01*
X3580621Y2644487D01*
X3580898Y2643823D01*
X3581119Y2643103D01*
X3581341Y2642328D01*
X3581507Y2641497D01*
X3581673Y2640611D01*
X3581728Y2639670D01*
X3581784Y2638673D01*
Y2638120D01*
X3581728Y2637732D01*
X3581673Y2637289D01*
X3581617Y2636735D01*
X3581507Y2636126D01*
X3581396Y2635517D01*
X3581008Y2634078D01*
X3580455Y2632638D01*
X3580122Y2631918D01*
X3579735Y2631198D01*
X3579236Y2630534D01*
X3578683Y2629925D01*
X3578627Y2629869D01*
X3578572Y2629759D01*
X3578350Y2629648D01*
X3578129Y2629426D01*
X3577852Y2629149D01*
X3577465Y2628873D01*
X3577077Y2628596D01*
X3576579Y2628263D01*
X3575527Y2627710D01*
X3574198Y2627156D01*
X3573533Y2626935D01*
X3572758Y2626824D01*
X3571983Y2626713D01*
X3571152Y2626658D01*
X3571041D01*
X3570765D01*
X3570322Y2626713D01*
X3569712Y2626768D01*
X3569048Y2626879D01*
X3568273Y2627101D01*
X3567442Y2627322D01*
X3566612Y2627654D01*
X3566501Y2627710D01*
X3566224Y2627820D01*
X3565781Y2628042D01*
X3565172Y2628374D01*
X3564507Y2628817D01*
X3563677Y2629371D01*
X3562846Y2630035D01*
X3561905Y2630811D01*
X3561794Y2630921D01*
X3561462Y2631198D01*
X3561185Y2631475D01*
X3560908Y2631752D01*
X3560576Y2632084D01*
X3560133Y2632527D01*
X3559690Y2632970D01*
X3559192Y2633524D01*
X3558638Y2634078D01*
X3558029Y2634742D01*
X3557420Y2635462D01*
X3556700Y2636237D01*
X3555980Y2637123D01*
X3555205Y2638009D01*
X3555150Y2638064D01*
X3555039Y2638175D01*
X3554873Y2638397D01*
X3554651Y2638673D01*
X3554319Y2639006D01*
X3553987Y2639393D01*
X3553267Y2640279D01*
X3552436Y2641221D01*
X3551606Y2642106D01*
X3550886Y2642882D01*
X3550609Y2643214D01*
X3550332Y2643491D01*
X3550277Y2643546D01*
X3550111Y2643712D01*
X3549889Y2643934D01*
X3549557Y2644211D01*
X3549169Y2644487D01*
X3548782Y2644820D01*
X3547841Y2645484D01*
Y2626602D01*
X3543300D01*
Y2652018D01*
X3543355D01*
X3543577D01*
X3543909D01*
X3544352Y2651963D01*
D02*
G37*
%LPC*%
G36*
X5129503Y5773809D02*
X5129170D01*
X5128949Y5773754D01*
X5128395Y5773698D01*
X5127620Y5773532D01*
X5126789Y5773255D01*
X5125848Y5772812D01*
X5124962Y5772259D01*
X5124076Y5771484D01*
X5123965Y5771373D01*
X5123744Y5771096D01*
X5123356Y5770598D01*
X5122969Y5769878D01*
X5122581Y5769047D01*
X5122193Y5767995D01*
X5121972Y5766832D01*
X5121861Y5765503D01*
Y5765393D01*
Y5765116D01*
X5121917Y5764617D01*
X5121972Y5764008D01*
X5122083Y5763288D01*
X5122304Y5762513D01*
X5122526Y5761683D01*
X5122858Y5760852D01*
X5122913Y5760741D01*
X5123079Y5760464D01*
X5123301Y5760077D01*
X5123633Y5759579D01*
X5124021Y5759080D01*
X5124519Y5758471D01*
X5125073Y5757973D01*
X5125737Y5757474D01*
X5125848Y5757419D01*
X5126070Y5757308D01*
X5126457Y5757087D01*
X5126955Y5756921D01*
X5127509Y5756699D01*
X5128174Y5756478D01*
X5128893Y5756367D01*
X5129669Y5756312D01*
X5129946D01*
X5130167Y5756367D01*
X5130721Y5756422D01*
X5131441Y5756588D01*
X5132216Y5756921D01*
X5133102Y5757308D01*
X5133988Y5757917D01*
X5134431Y5758250D01*
X5134818Y5758693D01*
Y5758748D01*
X5134929Y5758803D01*
X5135151Y5759136D01*
X5135483Y5759689D01*
X5135926Y5760409D01*
X5136313Y5761350D01*
X5136646Y5762458D01*
X5136867Y5763731D01*
X5136978Y5765226D01*
Y5765282D01*
Y5765393D01*
Y5765614D01*
X5136922Y5765891D01*
Y5766223D01*
X5136867Y5766611D01*
X5136701Y5767497D01*
X5136479Y5768493D01*
X5136092Y5769545D01*
X5135538Y5770542D01*
X5134818Y5771484D01*
X5134708Y5771594D01*
X5134431Y5771871D01*
X5133988Y5772203D01*
X5133379Y5772646D01*
X5132603Y5773089D01*
X5131717Y5773422D01*
X5130665Y5773698D01*
X5129503Y5773809D01*
D02*
G37*
G36*
X5097165Y5787154D02*
X5085094D01*
Y5774474D01*
X5096501D01*
X5097165Y5774529D01*
X5097941Y5774584D01*
X5098826Y5774640D01*
X5099712Y5774750D01*
X5100598Y5774917D01*
X5101374Y5775138D01*
X5101484Y5775193D01*
X5101706Y5775304D01*
X5102038Y5775470D01*
X5102481Y5775692D01*
X5102979Y5776024D01*
X5103478Y5776412D01*
X5103976Y5776910D01*
X5104364Y5777464D01*
X5104419Y5777519D01*
X5104530Y5777741D01*
X5104696Y5778073D01*
X5104917Y5778516D01*
X5105084Y5779014D01*
X5105250Y5779568D01*
X5105360Y5780232D01*
X5105416Y5780897D01*
Y5780952D01*
Y5781007D01*
X5105360Y5781340D01*
X5105305Y5781838D01*
X5105194Y5782503D01*
X5104917Y5783167D01*
X5104585Y5783942D01*
X5104087Y5784662D01*
X5103422Y5785382D01*
X5103312Y5785437D01*
X5103035Y5785659D01*
X5102592Y5785936D01*
X5101872Y5786268D01*
X5101041Y5786600D01*
X5099934Y5786877D01*
X5098660Y5787098D01*
X5097165Y5787154D01*
D02*
G37*
G36*
X4656854Y2712706D02*
X4644174D01*
Y2701299D01*
X4644229Y2700635D01*
X4644284Y2699859D01*
X4644340Y2698974D01*
X4644450Y2698088D01*
X4644617Y2697202D01*
X4644838Y2696426D01*
X4644893Y2696316D01*
X4645004Y2696094D01*
X4645170Y2695762D01*
X4645392Y2695319D01*
X4645724Y2694821D01*
X4646112Y2694322D01*
X4646610Y2693824D01*
X4647164Y2693436D01*
X4647219Y2693381D01*
X4647441Y2693270D01*
X4647773Y2693104D01*
X4648216Y2692883D01*
X4648714Y2692716D01*
X4649268Y2692550D01*
X4649932Y2692440D01*
X4650597Y2692384D01*
X4650652D01*
X4650707D01*
X4651040Y2692440D01*
X4651538Y2692495D01*
X4652203Y2692606D01*
X4652867Y2692883D01*
X4653642Y2693215D01*
X4654362Y2693713D01*
X4655082Y2694378D01*
X4655137Y2694488D01*
X4655359Y2694765D01*
X4655636Y2695208D01*
X4655968Y2695928D01*
X4656300Y2696759D01*
X4656577Y2697866D01*
X4656798Y2699140D01*
X4656854Y2700635D01*
Y2712706D01*
D02*
G37*
G36*
X4636311Y2648364D02*
Y2636292D01*
X4653476D01*
X4636311Y2648364D01*
D02*
G37*
G36*
X4936254Y2712706D02*
X4923574D01*
Y2701299D01*
X4923629Y2700635D01*
X4923684Y2699859D01*
X4923740Y2698974D01*
X4923850Y2698088D01*
X4924017Y2697202D01*
X4924238Y2696426D01*
X4924293Y2696316D01*
X4924404Y2696094D01*
X4924570Y2695762D01*
X4924792Y2695319D01*
X4925124Y2694821D01*
X4925512Y2694322D01*
X4926010Y2693824D01*
X4926564Y2693436D01*
X4926619Y2693381D01*
X4926841Y2693270D01*
X4927173Y2693104D01*
X4927616Y2692883D01*
X4928114Y2692716D01*
X4928668Y2692550D01*
X4929332Y2692440D01*
X4929997Y2692384D01*
X4930052D01*
X4930107D01*
X4930440Y2692440D01*
X4930938Y2692495D01*
X4931603Y2692606D01*
X4932267Y2692883D01*
X4933042Y2693215D01*
X4933762Y2693713D01*
X4934482Y2694378D01*
X4934537Y2694488D01*
X4934759Y2694765D01*
X4935036Y2695208D01*
X4935368Y2695928D01*
X4935700Y2696759D01*
X4935977Y2697866D01*
X4936198Y2699140D01*
X4936254Y2700635D01*
Y2712706D01*
D02*
G37*
G36*
X5202954D02*
X5190274D01*
Y2701299D01*
X5190329Y2700635D01*
X5190384Y2699859D01*
X5190440Y2698974D01*
X5190550Y2698088D01*
X5190717Y2697202D01*
X5190938Y2696426D01*
X5190993Y2696316D01*
X5191104Y2696094D01*
X5191270Y2695762D01*
X5191492Y2695319D01*
X5191824Y2694821D01*
X5192212Y2694322D01*
X5192710Y2693824D01*
X5193264Y2693436D01*
X5193319Y2693381D01*
X5193541Y2693270D01*
X5193873Y2693104D01*
X5194316Y2692883D01*
X5194814Y2692716D01*
X5195368Y2692550D01*
X5196032Y2692440D01*
X5196697Y2692384D01*
X5196752D01*
X5196807D01*
X5197140Y2692440D01*
X5197638Y2692495D01*
X5198303Y2692606D01*
X5198967Y2692883D01*
X5199742Y2693215D01*
X5200462Y2693713D01*
X5201182Y2694378D01*
X5201237Y2694488D01*
X5201459Y2694765D01*
X5201736Y2695208D01*
X5202068Y2695928D01*
X5202400Y2696759D01*
X5202677Y2697866D01*
X5202898Y2699140D01*
X5202954Y2700635D01*
Y2712706D01*
D02*
G37*
G36*
X5901454D02*
X5888774D01*
Y2701299D01*
X5888829Y2700635D01*
X5888884Y2699859D01*
X5888940Y2698974D01*
X5889050Y2698088D01*
X5889217Y2697202D01*
X5889438Y2696426D01*
X5889493Y2696316D01*
X5889604Y2696094D01*
X5889770Y2695762D01*
X5889992Y2695319D01*
X5890324Y2694821D01*
X5890712Y2694322D01*
X5891210Y2693824D01*
X5891764Y2693436D01*
X5891819Y2693381D01*
X5892041Y2693270D01*
X5892373Y2693104D01*
X5892816Y2692883D01*
X5893314Y2692716D01*
X5893868Y2692550D01*
X5894532Y2692440D01*
X5895197Y2692384D01*
X5895252D01*
X5895307D01*
X5895640Y2692440D01*
X5896138Y2692495D01*
X5896803Y2692606D01*
X5897467Y2692883D01*
X5898242Y2693215D01*
X5898962Y2693713D01*
X5899682Y2694378D01*
X5899737Y2694488D01*
X5899959Y2694765D01*
X5900236Y2695208D01*
X5900568Y2695928D01*
X5900900Y2696759D01*
X5901177Y2697866D01*
X5901398Y2699140D01*
X5901454Y2700635D01*
Y2712706D01*
D02*
G37*
G36*
X5609354D02*
X5596674D01*
Y2701299D01*
X5596729Y2700635D01*
X5596784Y2699859D01*
X5596840Y2698974D01*
X5596950Y2698088D01*
X5597117Y2697202D01*
X5597338Y2696426D01*
X5597393Y2696316D01*
X5597504Y2696094D01*
X5597670Y2695762D01*
X5597892Y2695319D01*
X5598224Y2694821D01*
X5598612Y2694322D01*
X5599110Y2693824D01*
X5599664Y2693436D01*
X5599719Y2693381D01*
X5599941Y2693270D01*
X5600273Y2693104D01*
X5600716Y2692883D01*
X5601214Y2692716D01*
X5601768Y2692550D01*
X5602432Y2692440D01*
X5603097Y2692384D01*
X5603152D01*
X5603207D01*
X5603540Y2692440D01*
X5604038Y2692495D01*
X5604703Y2692606D01*
X5605367Y2692883D01*
X5606142Y2693215D01*
X5606862Y2693713D01*
X5607582Y2694378D01*
X5607637Y2694488D01*
X5607859Y2694765D01*
X5608136Y2695208D01*
X5608468Y2695928D01*
X5608800Y2696759D01*
X5609077Y2697866D01*
X5609298Y2699140D01*
X5609354Y2700635D01*
Y2712706D01*
D02*
G37*
G36*
X5587703Y2646149D02*
X5587593D01*
X5587316D01*
X5586817Y2646093D01*
X5586208Y2646038D01*
X5585488Y2645927D01*
X5584713Y2645706D01*
X5583883Y2645484D01*
X5583052Y2645152D01*
X5582941Y2645097D01*
X5582664Y2644930D01*
X5582277Y2644709D01*
X5581779Y2644377D01*
X5581280Y2643989D01*
X5580671Y2643491D01*
X5580173Y2642937D01*
X5579674Y2642273D01*
X5579619Y2642162D01*
X5579508Y2641940D01*
X5579287Y2641553D01*
X5579121Y2641054D01*
X5578899Y2640501D01*
X5578678Y2639836D01*
X5578567Y2639116D01*
X5578512Y2638341D01*
Y2638064D01*
X5578567Y2637843D01*
X5578622Y2637289D01*
X5578788Y2636569D01*
X5579121Y2635794D01*
X5579508Y2634908D01*
X5580117Y2634022D01*
X5580450Y2633579D01*
X5580893Y2633192D01*
X5580948D01*
X5581003Y2633081D01*
X5581336Y2632859D01*
X5581889Y2632527D01*
X5582609Y2632084D01*
X5583550Y2631697D01*
X5584658Y2631364D01*
X5585931Y2631143D01*
X5587426Y2631032D01*
X5587482D01*
X5587593D01*
X5587814D01*
X5588091Y2631087D01*
X5588423D01*
X5588811Y2631143D01*
X5589697Y2631309D01*
X5590693Y2631530D01*
X5591745Y2631918D01*
X5592742Y2632472D01*
X5593684Y2633192D01*
X5593794Y2633302D01*
X5594071Y2633579D01*
X5594403Y2634022D01*
X5594846Y2634631D01*
X5595289Y2635406D01*
X5595622Y2636292D01*
X5595898Y2637344D01*
X5596009Y2638507D01*
Y2638840D01*
X5595954Y2639061D01*
X5595898Y2639615D01*
X5595732Y2640390D01*
X5595455Y2641221D01*
X5595012Y2642162D01*
X5594459Y2643048D01*
X5593684Y2643934D01*
X5593573Y2644044D01*
X5593296Y2644266D01*
X5592798Y2644654D01*
X5592078Y2645041D01*
X5591247Y2645429D01*
X5590195Y2645816D01*
X5589032Y2646038D01*
X5587703Y2646149D01*
D02*
G37*
G36*
X3564654Y5492906D02*
X3551974D01*
Y5481499D01*
X3552029Y5480835D01*
X3552084Y5480059D01*
X3552140Y5479173D01*
X3552250Y5478287D01*
X3552417Y5477402D01*
X3552638Y5476626D01*
X3552693Y5476516D01*
X3552804Y5476294D01*
X3552970Y5475962D01*
X3553192Y5475519D01*
X3553524Y5475021D01*
X3553912Y5474522D01*
X3554410Y5474024D01*
X3554964Y5473636D01*
X3555019Y5473581D01*
X3555241Y5473470D01*
X3555573Y5473304D01*
X3556016Y5473083D01*
X3556514Y5472916D01*
X3557068Y5472750D01*
X3557732Y5472640D01*
X3558397Y5472584D01*
X3558452D01*
X3558507D01*
X3558840Y5472640D01*
X3559338Y5472695D01*
X3560003Y5472806D01*
X3560667Y5473083D01*
X3561442Y5473415D01*
X3562162Y5473913D01*
X3562882Y5474578D01*
X3562937Y5474688D01*
X3563159Y5474965D01*
X3563436Y5475408D01*
X3563768Y5476128D01*
X3564100Y5476959D01*
X3564377Y5478066D01*
X3564598Y5479340D01*
X3564654Y5480835D01*
Y5492906D01*
D02*
G37*
G36*
X3555960Y5456526D02*
X3555905D01*
X3555794D01*
X3555628D01*
X3555351Y5456471D01*
X3555019D01*
X3554687Y5456416D01*
X3553856Y5456249D01*
X3552915Y5455973D01*
X3551918Y5455640D01*
X3550922Y5455087D01*
X3550036Y5454367D01*
X3549925Y5454256D01*
X3549703Y5453979D01*
X3549316Y5453481D01*
X3548928Y5452872D01*
X3548485Y5452041D01*
X3548098Y5451100D01*
X3547876Y5450048D01*
X3547765Y5448885D01*
Y5448553D01*
X3547821Y5448331D01*
X3547876Y5447722D01*
X3548042Y5447002D01*
X3548319Y5446116D01*
X3548707Y5445230D01*
X3549260Y5444344D01*
X3550036Y5443514D01*
X3550146Y5443403D01*
X3550479Y5443182D01*
X3550977Y5442849D01*
X3551697Y5442406D01*
X3552583Y5442019D01*
X3553635Y5441687D01*
X3554908Y5441465D01*
X3556348Y5441354D01*
X3556403D01*
X3556514D01*
X3556736D01*
X3557012Y5441410D01*
X3557400D01*
X3557788Y5441465D01*
X3558674Y5441631D01*
X3559726Y5441853D01*
X3560833Y5442240D01*
X3561885Y5442794D01*
X3562827Y5443514D01*
X3562882D01*
X3562937Y5443625D01*
X3563214Y5443901D01*
X3563602Y5444344D01*
X3564045Y5444954D01*
X3564432Y5445729D01*
X3564820Y5446615D01*
X3565097Y5447611D01*
X3565208Y5448165D01*
Y5449051D01*
X3565152Y5449273D01*
X3565097Y5449882D01*
X3564875Y5450601D01*
X3564598Y5451487D01*
X3564100Y5452429D01*
X3563491Y5453370D01*
X3563048Y5453813D01*
X3562605Y5454256D01*
X3562550D01*
X3562494Y5454367D01*
X3562328Y5454478D01*
X3562162Y5454588D01*
X3561608Y5454976D01*
X3560833Y5455363D01*
X3559892Y5455806D01*
X3558729Y5456194D01*
X3557400Y5456416D01*
X3555960Y5456526D01*
D02*
G37*
G36*
X3564654Y5989306D02*
X3551974D01*
Y5977899D01*
X3552029Y5977235D01*
X3552084Y5976459D01*
X3552140Y5975574D01*
X3552250Y5974688D01*
X3552417Y5973802D01*
X3552638Y5973026D01*
X3552693Y5972916D01*
X3552804Y5972694D01*
X3552970Y5972362D01*
X3553192Y5971919D01*
X3553524Y5971421D01*
X3553912Y5970922D01*
X3554410Y5970424D01*
X3554964Y5970036D01*
X3555019Y5969981D01*
X3555241Y5969870D01*
X3555573Y5969704D01*
X3556016Y5969483D01*
X3556514Y5969316D01*
X3557068Y5969150D01*
X3557732Y5969040D01*
X3558397Y5968984D01*
X3558452D01*
X3558507D01*
X3558840Y5969040D01*
X3559338Y5969095D01*
X3560003Y5969206D01*
X3560667Y5969483D01*
X3561442Y5969815D01*
X3562162Y5970313D01*
X3562882Y5970978D01*
X3562937Y5971088D01*
X3563159Y5971365D01*
X3563436Y5971808D01*
X3563768Y5972528D01*
X3564100Y5973359D01*
X3564377Y5974466D01*
X3564598Y5975740D01*
X3564654Y5977235D01*
Y5989306D01*
D02*
G37*
G36*
X3559283Y5951431D02*
X3559227D01*
X3559172D01*
X3558840Y5951376D01*
X3558341Y5951321D01*
X3557732Y5951210D01*
X3557012Y5950988D01*
X3556293Y5950711D01*
X3555517Y5950269D01*
X3554853Y5949715D01*
X3554798Y5949659D01*
X3554576Y5949383D01*
X3554299Y5948995D01*
X3554022Y5948497D01*
X3553690Y5947832D01*
X3553413Y5947057D01*
X3553192Y5946171D01*
X3553136Y5945174D01*
Y5945064D01*
X3553192Y5944731D01*
X3553247Y5944233D01*
X3553358Y5943569D01*
X3553579Y5942849D01*
X3553856Y5942129D01*
X3554299Y5941354D01*
X3554853Y5940689D01*
X3554908Y5940634D01*
X3555185Y5940412D01*
X3555517Y5940135D01*
X3556016Y5939803D01*
X3556625Y5939471D01*
X3557345Y5939194D01*
X3558175Y5938973D01*
X3559061Y5938917D01*
X3559117D01*
X3559172D01*
X3559504D01*
X3560003Y5939028D01*
X3560612Y5939139D01*
X3561276Y5939360D01*
X3561996Y5939692D01*
X3562716Y5940135D01*
X3563436Y5940745D01*
X3563491Y5940800D01*
X3563712Y5941077D01*
X3563989Y5941464D01*
X3564322Y5941963D01*
X3564654Y5942627D01*
X3564931Y5943347D01*
X3565152Y5944233D01*
X3565208Y5945174D01*
Y5945617D01*
X3565097Y5946116D01*
X3564986Y5946780D01*
X3564765Y5947500D01*
X3564488Y5948275D01*
X3564045Y5948995D01*
X3563436Y5949715D01*
X3563380Y5949770D01*
X3563159Y5949992D01*
X3562771Y5950269D01*
X3562273Y5950545D01*
X3561664Y5950878D01*
X3560944Y5951154D01*
X3560169Y5951376D01*
X3559283Y5951431D01*
D02*
G37*
G36*
X3541619Y5952982D02*
X3541508D01*
X3541287D01*
X3540899Y5952926D01*
X3540401Y5952871D01*
X3539792Y5952760D01*
X3539127Y5952594D01*
X3538463Y5952373D01*
X3537743Y5952096D01*
X3537688Y5952040D01*
X3537411Y5951930D01*
X3537079Y5951708D01*
X3536691Y5951376D01*
X3536193Y5950988D01*
X3535694Y5950490D01*
X3535251Y5949936D01*
X3534808Y5949272D01*
X3534753Y5949161D01*
X3534642Y5948940D01*
X3534476Y5948552D01*
X3534310Y5948054D01*
X3534144Y5947445D01*
X3533978Y5946725D01*
X3533867Y5945949D01*
X3533812Y5945174D01*
Y5944842D01*
X3533867Y5944621D01*
X3533922Y5943956D01*
X3534088Y5943181D01*
X3534365Y5942295D01*
X3534698Y5941354D01*
X3535251Y5940468D01*
X3535971Y5939582D01*
X3536082Y5939471D01*
X3536359Y5939249D01*
X3536857Y5938862D01*
X3537466Y5938474D01*
X3538241Y5938087D01*
X3539183Y5937699D01*
X3540290Y5937478D01*
X3541453Y5937367D01*
X3541508D01*
X3541619D01*
X3541785D01*
X3542007Y5937422D01*
X3542616Y5937478D01*
X3543446Y5937644D01*
X3544277Y5937921D01*
X3545218Y5938308D01*
X3546160Y5938862D01*
X3547045Y5939637D01*
X3547156Y5939748D01*
X3547378Y5940025D01*
X3547765Y5940523D01*
X3548208Y5941188D01*
X3548596Y5942018D01*
X3548984Y5943015D01*
X3549205Y5944122D01*
X3549316Y5945340D01*
Y5945673D01*
X3549260Y5945894D01*
X3549205Y5946503D01*
X3549039Y5947278D01*
X3548762Y5948164D01*
X3548374Y5949050D01*
X3547821Y5949992D01*
X3547101Y5950822D01*
X3546990Y5950933D01*
X3546713Y5951154D01*
X3546215Y5951487D01*
X3545606Y5951874D01*
X3544775Y5952317D01*
X3543834Y5952650D01*
X3542782Y5952871D01*
X3541619Y5952982D01*
D02*
G37*
G36*
X3564654Y6484606D02*
X3551974D01*
Y6473199D01*
X3552029Y6472535D01*
X3552084Y6471759D01*
X3552140Y6470874D01*
X3552250Y6469988D01*
X3552417Y6469102D01*
X3552638Y6468326D01*
X3552693Y6468216D01*
X3552804Y6467994D01*
X3552970Y6467662D01*
X3553192Y6467219D01*
X3553524Y6466721D01*
X3553912Y6466222D01*
X3554410Y6465724D01*
X3554964Y6465336D01*
X3555019Y6465281D01*
X3555241Y6465170D01*
X3555573Y6465004D01*
X3556016Y6464783D01*
X3556514Y6464616D01*
X3557068Y6464450D01*
X3557732Y6464340D01*
X3558397Y6464284D01*
X3558452D01*
X3558507D01*
X3558840Y6464340D01*
X3559338Y6464395D01*
X3560003Y6464506D01*
X3560667Y6464783D01*
X3561442Y6465115D01*
X3562162Y6465613D01*
X3562882Y6466278D01*
X3562937Y6466388D01*
X3563159Y6466665D01*
X3563436Y6467108D01*
X3563768Y6467828D01*
X3564100Y6468659D01*
X3564377Y6469766D01*
X3564598Y6471040D01*
X3564654Y6472535D01*
Y6484606D01*
D02*
G37*
G36*
X5131617Y6329876D02*
X5119546Y6312711D01*
X5131617D01*
Y6329876D01*
D02*
G37*
G36*
X5097065Y6333254D02*
X5084994D01*
Y6320574D01*
X5096401D01*
X5097065Y6320629D01*
X5097840Y6320684D01*
X5098726Y6320740D01*
X5099612Y6320850D01*
X5100498Y6321017D01*
X5101274Y6321238D01*
X5101384Y6321293D01*
X5101606Y6321404D01*
X5101938Y6321570D01*
X5102381Y6321792D01*
X5102879Y6322124D01*
X5103378Y6322512D01*
X5103876Y6323010D01*
X5104264Y6323564D01*
X5104319Y6323619D01*
X5104430Y6323841D01*
X5104596Y6324173D01*
X5104817Y6324616D01*
X5104983Y6325114D01*
X5105150Y6325668D01*
X5105260Y6326332D01*
X5105316Y6326997D01*
Y6327052D01*
Y6327107D01*
X5105260Y6327440D01*
X5105205Y6327938D01*
X5105094Y6328603D01*
X5104817Y6329267D01*
X5104485Y6330042D01*
X5103987Y6330762D01*
X5103322Y6331482D01*
X5103212Y6331537D01*
X5102935Y6331759D01*
X5102492Y6332036D01*
X5101772Y6332368D01*
X5100941Y6332700D01*
X5099834Y6332977D01*
X5098560Y6333198D01*
X5097065Y6333254D01*
D02*
G37*
G36*
Y6587254D02*
X5084994D01*
Y6574574D01*
X5096401D01*
X5097065Y6574629D01*
X5097840Y6574684D01*
X5098726Y6574740D01*
X5099612Y6574850D01*
X5100498Y6575017D01*
X5101274Y6575238D01*
X5101384Y6575293D01*
X5101606Y6575404D01*
X5101938Y6575570D01*
X5102381Y6575792D01*
X5102879Y6576124D01*
X5103378Y6576512D01*
X5103876Y6577010D01*
X5104264Y6577564D01*
X5104319Y6577619D01*
X5104430Y6577841D01*
X5104596Y6578173D01*
X5104817Y6578616D01*
X5104983Y6579114D01*
X5105150Y6579668D01*
X5105260Y6580332D01*
X5105316Y6580997D01*
Y6581052D01*
Y6581107D01*
X5105260Y6581440D01*
X5105205Y6581938D01*
X5105094Y6582603D01*
X5104817Y6583267D01*
X5104485Y6584042D01*
X5103987Y6584762D01*
X5103322Y6585482D01*
X5103212Y6585537D01*
X5102935Y6585759D01*
X5102492Y6586036D01*
X5101772Y6586368D01*
X5100941Y6586700D01*
X5099834Y6586977D01*
X5098560Y6587198D01*
X5097065Y6587254D01*
D02*
G37*
G36*
X4733054Y7741906D02*
X4720374D01*
Y7730499D01*
X4720429Y7729835D01*
X4720484Y7729059D01*
X4720540Y7728174D01*
X4720650Y7727288D01*
X4720817Y7726402D01*
X4721038Y7725626D01*
X4721093Y7725516D01*
X4721204Y7725294D01*
X4721370Y7724962D01*
X4721592Y7724519D01*
X4721924Y7724021D01*
X4722312Y7723522D01*
X4722810Y7723024D01*
X4723364Y7722636D01*
X4723419Y7722581D01*
X4723641Y7722470D01*
X4723973Y7722304D01*
X4724416Y7722083D01*
X4724914Y7721916D01*
X4725468Y7721750D01*
X4726132Y7721640D01*
X4726797Y7721584D01*
X4726852D01*
X4726907D01*
X4727240Y7721640D01*
X4727738Y7721695D01*
X4728403Y7721806D01*
X4729067Y7722083D01*
X4729842Y7722415D01*
X4730562Y7722913D01*
X4731282Y7723578D01*
X4731337Y7723688D01*
X4731559Y7723965D01*
X4731836Y7724408D01*
X4732168Y7725128D01*
X4732500Y7725959D01*
X4732777Y7727066D01*
X4732998Y7728340D01*
X4733054Y7729835D01*
Y7741906D01*
D02*
G37*
G36*
X4466354D02*
X4453674D01*
Y7730499D01*
X4453729Y7729835D01*
X4453784Y7729059D01*
X4453840Y7728174D01*
X4453950Y7727288D01*
X4454117Y7726402D01*
X4454338Y7725626D01*
X4454393Y7725516D01*
X4454504Y7725294D01*
X4454670Y7724962D01*
X4454892Y7724519D01*
X4455224Y7724021D01*
X4455612Y7723522D01*
X4456110Y7723024D01*
X4456664Y7722636D01*
X4456719Y7722581D01*
X4456941Y7722470D01*
X4457273Y7722304D01*
X4457716Y7722083D01*
X4458214Y7721916D01*
X4458768Y7721750D01*
X4459432Y7721640D01*
X4460097Y7721584D01*
X4460152D01*
X4460207D01*
X4460540Y7721640D01*
X4461038Y7721695D01*
X4461703Y7721806D01*
X4462367Y7722083D01*
X4463142Y7722415D01*
X4463862Y7722913D01*
X4464582Y7723578D01*
X4464637Y7723688D01*
X4464859Y7723965D01*
X4465136Y7724408D01*
X4465468Y7725128D01*
X4465800Y7725959D01*
X4466077Y7727066D01*
X4466298Y7728340D01*
X4466354Y7729835D01*
Y7741906D01*
D02*
G37*
G36*
X5328906Y6023826D02*
X5317499D01*
X5316835Y6023771D01*
X5316059Y6023716D01*
X5315174Y6023660D01*
X5314288Y6023550D01*
X5313402Y6023383D01*
X5312626Y6023162D01*
X5312516Y6023107D01*
X5312294Y6022996D01*
X5311962Y6022830D01*
X5311519Y6022608D01*
X5311021Y6022276D01*
X5310522Y6021888D01*
X5310024Y6021390D01*
X5309636Y6020836D01*
X5309581Y6020781D01*
X5309470Y6020559D01*
X5309304Y6020227D01*
X5309083Y6019784D01*
X5308916Y6019286D01*
X5308750Y6018732D01*
X5308640Y6018068D01*
X5308584Y6017403D01*
Y6017348D01*
Y6017293D01*
X5308640Y6016960D01*
X5308695Y6016462D01*
X5308806Y6015797D01*
X5309083Y6015133D01*
X5309415Y6014358D01*
X5309913Y6013638D01*
X5310578Y6012918D01*
X5310688Y6012863D01*
X5310965Y6012641D01*
X5311408Y6012364D01*
X5312128Y6012032D01*
X5312959Y6011700D01*
X5314066Y6011423D01*
X5315340Y6011202D01*
X5316835Y6011146D01*
X5328906D01*
Y6023826D01*
D02*
G37*
G36*
X6511054Y2712706D02*
X6498374D01*
Y2701299D01*
X6498429Y2700635D01*
X6498484Y2699859D01*
X6498540Y2698974D01*
X6498650Y2698088D01*
X6498817Y2697202D01*
X6499038Y2696426D01*
X6499093Y2696316D01*
X6499204Y2696094D01*
X6499370Y2695762D01*
X6499592Y2695319D01*
X6499924Y2694821D01*
X6500312Y2694322D01*
X6500810Y2693824D01*
X6501364Y2693436D01*
X6501419Y2693381D01*
X6501641Y2693270D01*
X6501973Y2693104D01*
X6502416Y2692883D01*
X6502914Y2692716D01*
X6503468Y2692550D01*
X6504132Y2692440D01*
X6504797Y2692384D01*
X6504852D01*
X6504907D01*
X6505240Y2692440D01*
X6505738Y2692495D01*
X6506403Y2692606D01*
X6507067Y2692883D01*
X6507842Y2693215D01*
X6508562Y2693713D01*
X6509282Y2694378D01*
X6509337Y2694488D01*
X6509559Y2694765D01*
X6509836Y2695208D01*
X6510168Y2695928D01*
X6510500Y2696759D01*
X6510777Y2697866D01*
X6510998Y2699140D01*
X6511054Y2700635D01*
Y2712706D01*
D02*
G37*
G36*
X6218954D02*
X6206274D01*
Y2701299D01*
X6206329Y2700635D01*
X6206384Y2699859D01*
X6206440Y2698974D01*
X6206550Y2698088D01*
X6206717Y2697202D01*
X6206938Y2696426D01*
X6206993Y2696316D01*
X6207104Y2696094D01*
X6207270Y2695762D01*
X6207492Y2695319D01*
X6207824Y2694821D01*
X6208212Y2694322D01*
X6208710Y2693824D01*
X6209264Y2693436D01*
X6209319Y2693381D01*
X6209541Y2693270D01*
X6209873Y2693104D01*
X6210316Y2692883D01*
X6210814Y2692716D01*
X6211368Y2692550D01*
X6212032Y2692440D01*
X6212697Y2692384D01*
X6212752D01*
X6212807D01*
X6213140Y2692440D01*
X6213638Y2692495D01*
X6214303Y2692606D01*
X6214967Y2692883D01*
X6215742Y2693215D01*
X6216462Y2693713D01*
X6217182Y2694378D01*
X6217237Y2694488D01*
X6217459Y2694765D01*
X6217736Y2695208D01*
X6218068Y2695928D01*
X6218400Y2696759D01*
X6218677Y2697866D01*
X6218898Y2699140D01*
X6218954Y2700635D01*
Y2712706D01*
D02*
G37*
G36*
X6203782Y2646536D02*
X6203671D01*
X6203394D01*
X6202896D01*
X6202231Y2646481D01*
X6201512D01*
X6200626Y2646425D01*
X6199684Y2646370D01*
X6198688Y2646259D01*
X6196528Y2645983D01*
X6195476Y2645816D01*
X6194479Y2645595D01*
X6193538Y2645373D01*
X6192652Y2645041D01*
X6191877Y2644709D01*
X6191212Y2644321D01*
X6191157D01*
X6191102Y2644211D01*
X6190714Y2643934D01*
X6190216Y2643435D01*
X6189662Y2642826D01*
X6189108Y2641996D01*
X6188610Y2641054D01*
X6188222Y2640002D01*
X6188167Y2639449D01*
X6188112Y2638840D01*
Y2638507D01*
X6188167Y2638286D01*
X6188278Y2637732D01*
X6188499Y2636957D01*
X6188887Y2636126D01*
X6189441Y2635185D01*
X6189773Y2634742D01*
X6190216Y2634299D01*
X6190659Y2633856D01*
X6191212Y2633413D01*
X6191268D01*
X6191379Y2633302D01*
X6191545Y2633192D01*
X6191822Y2633081D01*
X6192209Y2632859D01*
X6192707Y2632693D01*
X6193261Y2632472D01*
X6193926Y2632250D01*
X6194756Y2632084D01*
X6195642Y2631863D01*
X6196694Y2631641D01*
X6197802Y2631475D01*
X6199131Y2631364D01*
X6200515Y2631254D01*
X6202065Y2631143D01*
X6203782D01*
X6203837D01*
X6203893D01*
X6204169D01*
X6204668D01*
X6205332Y2631198D01*
X6206052D01*
X6206938Y2631254D01*
X6207879Y2631309D01*
X6208931Y2631420D01*
X6211036Y2631697D01*
X6212088Y2631863D01*
X6213084Y2632084D01*
X6214026Y2632306D01*
X6214912Y2632638D01*
X6215687Y2632970D01*
X6216351Y2633358D01*
X6216407D01*
X6216462Y2633468D01*
X6216628Y2633579D01*
X6216850Y2633745D01*
X6217348Y2634244D01*
X6217957Y2634853D01*
X6218511Y2635683D01*
X6219009Y2636625D01*
X6219231Y2637123D01*
X6219397Y2637677D01*
X6219452Y2638286D01*
X6219508Y2638895D01*
Y2639227D01*
X6219452Y2639449D01*
X6219341Y2640058D01*
X6219175Y2640778D01*
X6218843Y2641608D01*
X6218345Y2642494D01*
X6218012Y2642937D01*
X6217680Y2643380D01*
X6217237Y2643768D01*
X6216739Y2644155D01*
X6216684D01*
X6216573Y2644266D01*
X6216351Y2644377D01*
X6216074Y2644543D01*
X6215631Y2644709D01*
X6215133Y2644930D01*
X6214524Y2645097D01*
X6213804Y2645318D01*
X6212974Y2645540D01*
X6212032Y2645761D01*
X6210980Y2645983D01*
X6209817Y2646149D01*
X6208488Y2646315D01*
X6207049Y2646425D01*
X6205498Y2646481D01*
X6203782Y2646536D01*
D02*
G37*
G36*
X3297954Y2712806D02*
X3285274D01*
Y2701399D01*
X3285329Y2700735D01*
X3285384Y2699960D01*
X3285440Y2699074D01*
X3285550Y2698188D01*
X3285717Y2697302D01*
X3285938Y2696526D01*
X3285993Y2696416D01*
X3286104Y2696194D01*
X3286270Y2695862D01*
X3286492Y2695419D01*
X3286824Y2694921D01*
X3287212Y2694422D01*
X3287710Y2693924D01*
X3288264Y2693536D01*
X3288319Y2693481D01*
X3288541Y2693370D01*
X3288873Y2693204D01*
X3289316Y2692983D01*
X3289814Y2692817D01*
X3290368Y2692650D01*
X3291032Y2692540D01*
X3291697Y2692484D01*
X3291752D01*
X3291807D01*
X3292140Y2692540D01*
X3292638Y2692595D01*
X3293303Y2692706D01*
X3293967Y2692983D01*
X3294742Y2693315D01*
X3295462Y2693813D01*
X3296182Y2694478D01*
X3296237Y2694588D01*
X3296459Y2694865D01*
X3296736Y2695308D01*
X3297068Y2696028D01*
X3297400Y2696859D01*
X3297677Y2697966D01*
X3297898Y2699240D01*
X3297954Y2700735D01*
Y2712806D01*
D02*
G37*
G36*
X2459754D02*
X2447074D01*
Y2701399D01*
X2447129Y2700735D01*
X2447184Y2699960D01*
X2447240Y2699074D01*
X2447350Y2698188D01*
X2447517Y2697302D01*
X2447738Y2696526D01*
X2447793Y2696416D01*
X2447904Y2696194D01*
X2448070Y2695862D01*
X2448292Y2695419D01*
X2448624Y2694921D01*
X2449012Y2694422D01*
X2449510Y2693924D01*
X2450064Y2693536D01*
X2450119Y2693481D01*
X2450341Y2693370D01*
X2450673Y2693204D01*
X2451116Y2692983D01*
X2451614Y2692817D01*
X2452168Y2692650D01*
X2452832Y2692540D01*
X2453497Y2692484D01*
X2453552D01*
X2453607D01*
X2453940Y2692540D01*
X2454438Y2692595D01*
X2455103Y2692706D01*
X2455767Y2692983D01*
X2456542Y2693315D01*
X2457262Y2693813D01*
X2457982Y2694478D01*
X2458037Y2694588D01*
X2458259Y2694865D01*
X2458536Y2695308D01*
X2458868Y2696028D01*
X2459200Y2696859D01*
X2459477Y2697966D01*
X2459698Y2699240D01*
X2459754Y2700735D01*
Y2712806D01*
D02*
G37*
G36*
X2751854D02*
X2739174D01*
Y2701399D01*
X2739229Y2700735D01*
X2739284Y2699960D01*
X2739340Y2699074D01*
X2739450Y2698188D01*
X2739617Y2697302D01*
X2739838Y2696526D01*
X2739893Y2696416D01*
X2740004Y2696194D01*
X2740170Y2695862D01*
X2740392Y2695419D01*
X2740724Y2694921D01*
X2741112Y2694422D01*
X2741610Y2693924D01*
X2742164Y2693536D01*
X2742219Y2693481D01*
X2742441Y2693370D01*
X2742773Y2693204D01*
X2743216Y2692983D01*
X2743714Y2692817D01*
X2744268Y2692650D01*
X2744932Y2692540D01*
X2745597Y2692484D01*
X2745652D01*
X2745707D01*
X2746040Y2692540D01*
X2746538Y2692595D01*
X2747203Y2692706D01*
X2747867Y2692983D01*
X2748642Y2693315D01*
X2749362Y2693813D01*
X2750082Y2694478D01*
X2750137Y2694588D01*
X2750359Y2694865D01*
X2750636Y2695308D01*
X2750968Y2696028D01*
X2751300Y2696859D01*
X2751577Y2697966D01*
X2751798Y2699240D01*
X2751854Y2700735D01*
Y2712806D01*
D02*
G37*
G36*
X2736682Y2646636D02*
X2736571D01*
X2736294D01*
X2735796D01*
X2735131Y2646581D01*
X2734412D01*
X2733526Y2646526D01*
X2732584Y2646470D01*
X2731588Y2646359D01*
X2729428Y2646083D01*
X2728376Y2645916D01*
X2727379Y2645695D01*
X2726438Y2645473D01*
X2725552Y2645141D01*
X2724777Y2644809D01*
X2724112Y2644421D01*
X2724057D01*
X2724002Y2644311D01*
X2723614Y2644034D01*
X2723116Y2643535D01*
X2722562Y2642926D01*
X2722008Y2642096D01*
X2721510Y2641154D01*
X2721122Y2640102D01*
X2721067Y2639549D01*
X2721012Y2638940D01*
Y2638607D01*
X2721067Y2638386D01*
X2721178Y2637832D01*
X2721399Y2637057D01*
X2721787Y2636226D01*
X2722341Y2635285D01*
X2722673Y2634842D01*
X2723116Y2634399D01*
X2723559Y2633956D01*
X2724112Y2633513D01*
X2724168D01*
X2724279Y2633402D01*
X2724445Y2633292D01*
X2724721Y2633181D01*
X2725109Y2632959D01*
X2725607Y2632793D01*
X2726161Y2632572D01*
X2726826Y2632350D01*
X2727656Y2632184D01*
X2728542Y2631963D01*
X2729594Y2631741D01*
X2730702Y2631575D01*
X2732031Y2631464D01*
X2733415Y2631354D01*
X2734965Y2631243D01*
X2736682D01*
X2736737D01*
X2736793D01*
X2737069D01*
X2737568D01*
X2738232Y2631298D01*
X2738952D01*
X2739838Y2631354D01*
X2740779Y2631409D01*
X2741831Y2631520D01*
X2743936Y2631797D01*
X2744988Y2631963D01*
X2745984Y2632184D01*
X2746926Y2632406D01*
X2747812Y2632738D01*
X2748587Y2633070D01*
X2749251Y2633458D01*
X2749307D01*
X2749362Y2633569D01*
X2749528Y2633679D01*
X2749750Y2633845D01*
X2750248Y2634344D01*
X2750857Y2634953D01*
X2751411Y2635783D01*
X2751909Y2636725D01*
X2752131Y2637223D01*
X2752297Y2637777D01*
X2752352Y2638386D01*
X2752407Y2638995D01*
Y2639327D01*
X2752352Y2639549D01*
X2752241Y2640158D01*
X2752075Y2640878D01*
X2751743Y2641708D01*
X2751245Y2642594D01*
X2750912Y2643037D01*
X2750580Y2643480D01*
X2750137Y2643868D01*
X2749639Y2644255D01*
X2749584D01*
X2749473Y2644366D01*
X2749251Y2644477D01*
X2748974Y2644643D01*
X2748531Y2644809D01*
X2748033Y2645031D01*
X2747424Y2645197D01*
X2746704Y2645418D01*
X2745874Y2645640D01*
X2744932Y2645861D01*
X2743880Y2646083D01*
X2742717Y2646249D01*
X2741388Y2646415D01*
X2739949Y2646526D01*
X2738398Y2646581D01*
X2736682Y2646636D01*
D02*
G37*
G36*
X3031254Y2712806D02*
X3018574D01*
Y2701399D01*
X3018629Y2700735D01*
X3018684Y2699960D01*
X3018740Y2699074D01*
X3018850Y2698188D01*
X3019017Y2697302D01*
X3019238Y2696526D01*
X3019293Y2696416D01*
X3019404Y2696194D01*
X3019570Y2695862D01*
X3019792Y2695419D01*
X3020124Y2694921D01*
X3020512Y2694422D01*
X3021010Y2693924D01*
X3021564Y2693536D01*
X3021619Y2693481D01*
X3021841Y2693370D01*
X3022173Y2693204D01*
X3022616Y2692983D01*
X3023114Y2692817D01*
X3023668Y2692650D01*
X3024332Y2692540D01*
X3024997Y2692484D01*
X3025052D01*
X3025107D01*
X3025440Y2692540D01*
X3025938Y2692595D01*
X3026603Y2692706D01*
X3027267Y2692983D01*
X3028042Y2693315D01*
X3028762Y2693813D01*
X3029482Y2694478D01*
X3029537Y2694588D01*
X3029759Y2694865D01*
X3030036Y2695308D01*
X3030368Y2696028D01*
X3030700Y2696859D01*
X3030977Y2697966D01*
X3031198Y2699240D01*
X3031254Y2700735D01*
Y2712806D01*
D02*
G37*
G36*
X3022560Y2646636D02*
X3022505D01*
X3022394D01*
X3022228D01*
X3021951Y2646581D01*
X3021619D01*
X3021287Y2646526D01*
X3020456Y2646359D01*
X3019515Y2646083D01*
X3018518Y2645750D01*
X3017522Y2645197D01*
X3016636Y2644477D01*
X3016525Y2644366D01*
X3016303Y2644089D01*
X3015916Y2643591D01*
X3015528Y2642982D01*
X3015085Y2642151D01*
X3014698Y2641210D01*
X3014476Y2640158D01*
X3014365Y2638995D01*
Y2638663D01*
X3014421Y2638441D01*
X3014476Y2637832D01*
X3014642Y2637112D01*
X3014919Y2636226D01*
X3015307Y2635340D01*
X3015860Y2634454D01*
X3016636Y2633624D01*
X3016746Y2633513D01*
X3017079Y2633292D01*
X3017577Y2632959D01*
X3018297Y2632516D01*
X3019183Y2632129D01*
X3020235Y2631797D01*
X3021508Y2631575D01*
X3022948Y2631464D01*
X3023003D01*
X3023114D01*
X3023336D01*
X3023612Y2631520D01*
X3024000D01*
X3024388Y2631575D01*
X3025274Y2631741D01*
X3026326Y2631963D01*
X3027433Y2632350D01*
X3028485Y2632904D01*
X3029427Y2633624D01*
X3029482D01*
X3029537Y2633735D01*
X3029814Y2634011D01*
X3030202Y2634454D01*
X3030645Y2635064D01*
X3031032Y2635839D01*
X3031420Y2636725D01*
X3031697Y2637721D01*
X3031808Y2638275D01*
Y2639161D01*
X3031752Y2639383D01*
X3031697Y2639992D01*
X3031475Y2640712D01*
X3031198Y2641597D01*
X3030700Y2642539D01*
X3030091Y2643480D01*
X3029648Y2643923D01*
X3029205Y2644366D01*
X3029150D01*
X3029094Y2644477D01*
X3028928Y2644588D01*
X3028762Y2644698D01*
X3028208Y2645086D01*
X3027433Y2645473D01*
X3026492Y2645916D01*
X3025329Y2646304D01*
X3024000Y2646526D01*
X3022560Y2646636D01*
D02*
G37*
G36*
X3894854Y2725406D02*
X3882174D01*
Y2713999D01*
X3882229Y2713335D01*
X3882284Y2712559D01*
X3882340Y2711674D01*
X3882450Y2710788D01*
X3882617Y2709902D01*
X3882838Y2709126D01*
X3882893Y2709016D01*
X3883004Y2708794D01*
X3883170Y2708462D01*
X3883392Y2708019D01*
X3883724Y2707521D01*
X3884112Y2707022D01*
X3884610Y2706524D01*
X3885164Y2706136D01*
X3885219Y2706081D01*
X3885441Y2705970D01*
X3885773Y2705804D01*
X3886216Y2705583D01*
X3886714Y2705416D01*
X3887268Y2705250D01*
X3887932Y2705140D01*
X3888597Y2705084D01*
X3888652D01*
X3888707D01*
X3889040Y2705140D01*
X3889538Y2705195D01*
X3890203Y2705306D01*
X3890867Y2705583D01*
X3891642Y2705915D01*
X3892362Y2706413D01*
X3893082Y2707078D01*
X3893137Y2707188D01*
X3893359Y2707465D01*
X3893636Y2707908D01*
X3893968Y2708628D01*
X3894300Y2709459D01*
X3894577Y2710566D01*
X3894798Y2711840D01*
X3894854Y2713335D01*
Y2725406D01*
D02*
G37*
G36*
X4186954D02*
X4174274D01*
Y2713999D01*
X4174329Y2713335D01*
X4174384Y2712559D01*
X4174440Y2711674D01*
X4174550Y2710788D01*
X4174717Y2709902D01*
X4174938Y2709126D01*
X4174993Y2709016D01*
X4175104Y2708794D01*
X4175270Y2708462D01*
X4175492Y2708019D01*
X4175824Y2707521D01*
X4176212Y2707022D01*
X4176710Y2706524D01*
X4177264Y2706136D01*
X4177319Y2706081D01*
X4177541Y2705970D01*
X4177873Y2705804D01*
X4178316Y2705583D01*
X4178814Y2705416D01*
X4179368Y2705250D01*
X4180032Y2705140D01*
X4180697Y2705084D01*
X4180752D01*
X4180807D01*
X4181140Y2705140D01*
X4181638Y2705195D01*
X4182303Y2705306D01*
X4182967Y2705583D01*
X4183742Y2705915D01*
X4184462Y2706413D01*
X4185182Y2707078D01*
X4185237Y2707188D01*
X4185459Y2707465D01*
X4185736Y2707908D01*
X4186068Y2708628D01*
X4186400Y2709459D01*
X4186677Y2710566D01*
X4186898Y2711840D01*
X4186954Y2713335D01*
Y2725406D01*
D02*
G37*
G36*
X4181583Y2657741D02*
X4181527D01*
X4181472D01*
X4181140Y2657686D01*
X4180641Y2657630D01*
X4180032Y2657520D01*
X4179312Y2657298D01*
X4178593Y2657021D01*
X4177817Y2656578D01*
X4177153Y2656025D01*
X4177098Y2655969D01*
X4176876Y2655692D01*
X4176599Y2655305D01*
X4176322Y2654806D01*
X4175990Y2654142D01*
X4175713Y2653367D01*
X4175492Y2652481D01*
X4175436Y2651484D01*
Y2651373D01*
X4175492Y2651041D01*
X4175547Y2650543D01*
X4175658Y2649878D01*
X4175879Y2649159D01*
X4176156Y2648439D01*
X4176599Y2647663D01*
X4177153Y2646999D01*
X4177208Y2646944D01*
X4177485Y2646722D01*
X4177817Y2646445D01*
X4178316Y2646113D01*
X4178925Y2645781D01*
X4179645Y2645504D01*
X4180475Y2645282D01*
X4181361Y2645227D01*
X4181417D01*
X4181472D01*
X4181804D01*
X4182303Y2645338D01*
X4182912Y2645449D01*
X4183576Y2645670D01*
X4184296Y2646002D01*
X4185016Y2646445D01*
X4185736Y2647054D01*
X4185791Y2647110D01*
X4186012Y2647387D01*
X4186289Y2647774D01*
X4186622Y2648273D01*
X4186954Y2648937D01*
X4187231Y2649657D01*
X4187452Y2650543D01*
X4187508Y2651484D01*
Y2651927D01*
X4187397Y2652425D01*
X4187286Y2653090D01*
X4187065Y2653810D01*
X4186788Y2654585D01*
X4186345Y2655305D01*
X4185736Y2656025D01*
X4185680Y2656080D01*
X4185459Y2656302D01*
X4185071Y2656578D01*
X4184573Y2656855D01*
X4183964Y2657187D01*
X4183244Y2657464D01*
X4182469Y2657686D01*
X4181583Y2657741D01*
D02*
G37*
G36*
X4163919Y2659292D02*
X4163808D01*
X4163587D01*
X4163199Y2659236D01*
X4162701Y2659181D01*
X4162092Y2659070D01*
X4161427Y2658904D01*
X4160763Y2658683D01*
X4160043Y2658406D01*
X4159988Y2658350D01*
X4159711Y2658240D01*
X4159379Y2658018D01*
X4158991Y2657686D01*
X4158493Y2657298D01*
X4157994Y2656800D01*
X4157551Y2656246D01*
X4157108Y2655582D01*
X4157053Y2655471D01*
X4156942Y2655249D01*
X4156776Y2654862D01*
X4156610Y2654363D01*
X4156444Y2653754D01*
X4156278Y2653035D01*
X4156167Y2652259D01*
X4156112Y2651484D01*
Y2651152D01*
X4156167Y2650930D01*
X4156222Y2650266D01*
X4156388Y2649491D01*
X4156665Y2648605D01*
X4156998Y2647663D01*
X4157551Y2646778D01*
X4158271Y2645892D01*
X4158382Y2645781D01*
X4158659Y2645559D01*
X4159157Y2645172D01*
X4159766Y2644784D01*
X4160541Y2644397D01*
X4161483Y2644009D01*
X4162590Y2643787D01*
X4163753Y2643677D01*
X4163808D01*
X4163919D01*
X4164085D01*
X4164307Y2643732D01*
X4164916Y2643787D01*
X4165746Y2643954D01*
X4166577Y2644230D01*
X4167518Y2644618D01*
X4168460Y2645172D01*
X4169345Y2645947D01*
X4169456Y2646058D01*
X4169678Y2646335D01*
X4170065Y2646833D01*
X4170508Y2647497D01*
X4170896Y2648328D01*
X4171284Y2649325D01*
X4171505Y2650432D01*
X4171616Y2651650D01*
Y2651983D01*
X4171560Y2652204D01*
X4171505Y2652813D01*
X4171339Y2653588D01*
X4171062Y2654474D01*
X4170674Y2655360D01*
X4170121Y2656302D01*
X4169401Y2657132D01*
X4169290Y2657243D01*
X4169013Y2657464D01*
X4168515Y2657797D01*
X4167906Y2658184D01*
X4167075Y2658627D01*
X4166134Y2658959D01*
X4165082Y2659181D01*
X4163919Y2659292D01*
D02*
G37*
G36*
X3577354Y2712706D02*
X3564674D01*
Y2701299D01*
X3564729Y2700635D01*
X3564784Y2699859D01*
X3564840Y2698974D01*
X3564950Y2698088D01*
X3565117Y2697202D01*
X3565338Y2696426D01*
X3565393Y2696316D01*
X3565504Y2696094D01*
X3565670Y2695762D01*
X3565892Y2695319D01*
X3566224Y2694821D01*
X3566612Y2694322D01*
X3567110Y2693824D01*
X3567664Y2693436D01*
X3567719Y2693381D01*
X3567941Y2693270D01*
X3568273Y2693104D01*
X3568716Y2692883D01*
X3569214Y2692716D01*
X3569768Y2692550D01*
X3570432Y2692440D01*
X3571097Y2692384D01*
X3571152D01*
X3571207D01*
X3571540Y2692440D01*
X3572038Y2692495D01*
X3572703Y2692606D01*
X3573367Y2692883D01*
X3574142Y2693215D01*
X3574862Y2693713D01*
X3575582Y2694378D01*
X3575637Y2694488D01*
X3575859Y2694765D01*
X3576136Y2695208D01*
X3576468Y2695928D01*
X3576800Y2696759D01*
X3577077Y2697866D01*
X3577298Y2699140D01*
X3577354Y2700635D01*
Y2712706D01*
D02*
G37*
%LPD*%
%TF.MD5,738e4bf07aa1493674b2a4558611d275*%
M02*
